G04 #@! TF.GenerationSoftware,KiCad,Pcbnew,(5.1.5)-3*
G04 #@! TF.CreationDate,2020-03-23T20:29:50-04:00*
G04 #@! TF.ProjectId,MOSTERFET,4d4f5354-4552-4464-9554-2e6b69636164,1.1*
G04 #@! TF.SameCoordinates,Original*
G04 #@! TF.FileFunction,Copper,L1,Top*
G04 #@! TF.FilePolarity,Positive*
%FSLAX46Y46*%
G04 Gerber Fmt 4.6, Leading zero omitted, Abs format (unit mm)*
G04 Created by KiCad (PCBNEW (5.1.5)-3) date 2020-03-23 20:29:50*
%MOMM*%
%LPD*%
G04 APERTURE LIST*
%ADD10C,0.150000*%
%ADD11R,0.800000X4.600000*%
%ADD12R,3.000000X3.000000*%
%ADD13R,1.250000X1.500000*%
%ADD14C,4.000000*%
%ADD15R,0.900000X0.800000*%
%ADD16O,3.000000X2.350000*%
%ADD17R,3.000000X2.350000*%
%ADD18C,6.000000*%
%ADD19R,1.700000X2.000000*%
%ADD20R,1.600000X1.600000*%
%ADD21R,1.300000X1.500000*%
%ADD22R,2.500000X2.000000*%
%ADD23C,0.600000*%
%ADD24C,0.400000*%
%ADD25C,0.254000*%
G04 APERTURE END LIST*
D10*
X74666666Y-117000000D02*
G75*
G03X74666666Y-117000000I-1666666J0D01*
G01*
X70500000Y-117000000D02*
X75500000Y-117000000D01*
X73000000Y-114500000D02*
X73000000Y-119500000D01*
X73000000Y-117000000D02*
X123000000Y-117000000D01*
X73000000Y-57000000D02*
X123000000Y-57000000D01*
X123000000Y-117000000D02*
X123000000Y-57000000D01*
X73000000Y-117000000D02*
X73000000Y-57000000D01*
X73000000Y-117000000D02*
X73250000Y-117000000D01*
X73000000Y-117000000D02*
X121000000Y-117000000D01*
D11*
X100910000Y-82575000D03*
X99640000Y-82575000D03*
X98370000Y-82575000D03*
X95830000Y-82575000D03*
X94560000Y-82575000D03*
X93290000Y-82575000D03*
D12*
X103100000Y-76550000D03*
X103100000Y-73550000D03*
X103100000Y-70550000D03*
X103100000Y-67550000D03*
X91100000Y-76550000D03*
X91100000Y-73550000D03*
X91100000Y-67550000D03*
X91100000Y-70550000D03*
X100100000Y-67550000D03*
X97100000Y-67550000D03*
X94100000Y-67550000D03*
X94100000Y-70550000D03*
X100100000Y-70550000D03*
X97100000Y-70550000D03*
X94100000Y-73550000D03*
X100100000Y-73550000D03*
X97100000Y-73550000D03*
X94100000Y-76550000D03*
X100100000Y-76550000D03*
X97100000Y-76550000D03*
D13*
X103500000Y-81000000D03*
X103500000Y-78500000D03*
D11*
X100660000Y-103325000D03*
X99390000Y-103325000D03*
X98120000Y-103325000D03*
X95580000Y-103325000D03*
X94310000Y-103325000D03*
X93040000Y-103325000D03*
D12*
X102850000Y-97300000D03*
X102850000Y-94300000D03*
X102850000Y-91300000D03*
X102850000Y-88300000D03*
X90850000Y-97300000D03*
X90850000Y-94300000D03*
X90850000Y-88300000D03*
X90850000Y-91300000D03*
X99850000Y-88300000D03*
X96850000Y-88300000D03*
X93850000Y-88300000D03*
X93850000Y-91300000D03*
X99850000Y-91300000D03*
X96850000Y-91300000D03*
X93850000Y-94300000D03*
X99850000Y-94300000D03*
X96850000Y-94300000D03*
X93850000Y-97300000D03*
X99850000Y-97300000D03*
X96850000Y-97300000D03*
D14*
X77000000Y-113000000D03*
X119000000Y-61000000D03*
D15*
X89750000Y-83750000D03*
X91750000Y-82800000D03*
X91750000Y-84700000D03*
D16*
X78600000Y-82300000D03*
D17*
X78600000Y-77300000D03*
D18*
X111375000Y-72500000D03*
X118325000Y-72500000D03*
D19*
X84600000Y-69300000D03*
X84600000Y-73300000D03*
D18*
X111375000Y-81500000D03*
X118325000Y-81500000D03*
D20*
X81550000Y-72670000D03*
X75050000Y-72670000D03*
X75050000Y-70130000D03*
X81550000Y-70130000D03*
D19*
X87850000Y-83725000D03*
X87850000Y-79725000D03*
D21*
X87600000Y-73150000D03*
X87600000Y-70450000D03*
D22*
X84550000Y-79625000D03*
X84550000Y-83625000D03*
D15*
X91350000Y-106250000D03*
X91350000Y-104350000D03*
X89350000Y-105300000D03*
D19*
X87750000Y-101300000D03*
X87750000Y-105300000D03*
D22*
X84450000Y-105200000D03*
X84450000Y-101200000D03*
D18*
X118325000Y-102300000D03*
X111375000Y-102300000D03*
D20*
X81550000Y-91230000D03*
X75050000Y-91230000D03*
X75050000Y-93770000D03*
X81550000Y-93770000D03*
D21*
X87600000Y-91550000D03*
X87600000Y-94250000D03*
D13*
X103350000Y-99050000D03*
X103350000Y-101550000D03*
D17*
X78600000Y-98400000D03*
D16*
X78600000Y-103400000D03*
D18*
X118325000Y-93300000D03*
X111375000Y-93300000D03*
D19*
X84600000Y-94400000D03*
X84600000Y-90400000D03*
D14*
X119000000Y-113000000D03*
X77000000Y-61000000D03*
D23*
X100650000Y-102300000D03*
X98150000Y-103200000D03*
X98150000Y-101400000D03*
X99400000Y-104100000D03*
X95600000Y-101400000D03*
X98150000Y-102300000D03*
X98150000Y-105000000D03*
X95600000Y-105000000D03*
X94350000Y-101400000D03*
X99400000Y-105000000D03*
X100650000Y-105000000D03*
X96850000Y-101400000D03*
X99400000Y-103200000D03*
X94350000Y-104100000D03*
X96850000Y-105000000D03*
X94350000Y-105000000D03*
X94350000Y-102300000D03*
X95600000Y-103200000D03*
X100650000Y-104100000D03*
X100650000Y-101400000D03*
X98150000Y-104100000D03*
X96850000Y-102300000D03*
X95600000Y-102300000D03*
X95600000Y-104100000D03*
X96850000Y-103200000D03*
X100650000Y-103200000D03*
X96850000Y-104100000D03*
X99400000Y-101400000D03*
X99400000Y-102300000D03*
X95850000Y-83350000D03*
X95850000Y-81550000D03*
X100900000Y-82450000D03*
X98400000Y-83350000D03*
X98400000Y-80650000D03*
X97100000Y-82450000D03*
X98400000Y-82450000D03*
X99650000Y-83350000D03*
X95850000Y-80650000D03*
X100900000Y-84250000D03*
X97100000Y-80650000D03*
X99650000Y-82450000D03*
X94600000Y-83350000D03*
X99650000Y-84250000D03*
X94600000Y-84250000D03*
X94600000Y-81550000D03*
X98400000Y-81550000D03*
X100900000Y-81550000D03*
X98400000Y-84250000D03*
X94600000Y-80650000D03*
X95850000Y-84250000D03*
X95850000Y-82450000D03*
X100900000Y-83350000D03*
X100900000Y-80650000D03*
X97100000Y-81550000D03*
X99650000Y-80650000D03*
X99650000Y-81550000D03*
X97100000Y-83350000D03*
X97100000Y-84250000D03*
X94350000Y-103200000D03*
X94600000Y-82425000D03*
D24*
X93750000Y-106250000D02*
X94300000Y-105700000D01*
X91350000Y-106250000D02*
X93750000Y-106250000D01*
X94300000Y-105700000D02*
X94310000Y-103325000D01*
X94560000Y-85275000D02*
X94560000Y-82575000D01*
X92145990Y-85345990D02*
X94489010Y-85345990D01*
X94489010Y-85345990D02*
X94560000Y-85275000D01*
X91750000Y-84950000D02*
X92145990Y-85345990D01*
X91750000Y-84700000D02*
X91750000Y-84950000D01*
X84600000Y-70000000D02*
X84600000Y-69300000D01*
X83770000Y-70130000D02*
X84600000Y-69300000D01*
X81550000Y-70130000D02*
X83770000Y-70130000D01*
X83770000Y-91230000D02*
X84600000Y-90400000D01*
X81550000Y-91230000D02*
X83770000Y-91230000D01*
X118325000Y-106575000D02*
X118325000Y-102300000D01*
X117100000Y-107800000D02*
X118325000Y-106575000D01*
X82600000Y-97800000D02*
X84100000Y-97800000D01*
X80100000Y-95300000D02*
X82600000Y-97800000D01*
X86154001Y-106371203D02*
X87582798Y-107800000D01*
X86154001Y-99836799D02*
X86154001Y-106371203D01*
X80670000Y-91230000D02*
X80100000Y-91800000D01*
X81550000Y-91230000D02*
X80670000Y-91230000D01*
X84100000Y-97800000D02*
X84600000Y-98300000D01*
X80100000Y-91800000D02*
X80100000Y-95300000D01*
X84600000Y-98300000D02*
X84617202Y-98300000D01*
X84617202Y-98300000D02*
X86154001Y-99836799D01*
X87582798Y-107800000D02*
X117100000Y-107800000D01*
X80295999Y-70184001D02*
X80350000Y-70130000D01*
X80350000Y-70130000D02*
X81550000Y-70130000D01*
X118325000Y-85742640D02*
X118067640Y-86000000D01*
X118067640Y-86000000D02*
X87457798Y-86000000D01*
X118325000Y-81500000D02*
X118325000Y-85742640D01*
X80295999Y-75670999D02*
X80295999Y-70184001D01*
X82795999Y-78170999D02*
X80295999Y-75670999D01*
X86163201Y-78170999D02*
X82795999Y-78170999D01*
X86545999Y-78553797D02*
X86163201Y-78170999D01*
X86545999Y-85088201D02*
X86545999Y-78553797D01*
X87457798Y-86000000D02*
X86545999Y-85088201D01*
X87750000Y-105300000D02*
X89350000Y-105300000D01*
X90525000Y-103325000D02*
X92240000Y-103325000D01*
X92240000Y-103325000D02*
X93040000Y-103325000D01*
X89350000Y-104500000D02*
X90525000Y-103325000D01*
X89350000Y-105300000D02*
X89350000Y-104500000D01*
X93265000Y-82550000D02*
X93290000Y-82575000D01*
X87850000Y-83725000D02*
X89725000Y-83725000D01*
X89750000Y-82950000D02*
X90800000Y-81900000D01*
X89750000Y-83750000D02*
X89750000Y-82950000D01*
X92615000Y-81900000D02*
X93290000Y-82575000D01*
X90800000Y-81900000D02*
X92615000Y-81900000D01*
X75050000Y-72670000D02*
X75050000Y-78275000D01*
X76400000Y-79625000D02*
X84550000Y-79625000D01*
X75050000Y-78275000D02*
X76400000Y-79625000D01*
X78600000Y-82300000D02*
X78600000Y-83125000D01*
X79100000Y-83625000D02*
X84550000Y-83625000D01*
X78600000Y-83125000D02*
X79100000Y-83625000D01*
X82800000Y-105200000D02*
X84450000Y-105200000D01*
X78825000Y-105200000D02*
X82800000Y-105200000D01*
X78600000Y-104975000D02*
X78825000Y-105200000D01*
X78600000Y-103400000D02*
X78600000Y-104975000D01*
X75050000Y-98975000D02*
X75050000Y-93770000D01*
X77275000Y-101200000D02*
X75050000Y-98975000D01*
X84450000Y-101200000D02*
X77275000Y-101200000D01*
X84600000Y-73300000D02*
X87450000Y-73300000D01*
X87450000Y-73300000D02*
X87600000Y-73150000D01*
X87850000Y-77975000D02*
X87850000Y-79725000D01*
X85245000Y-75370000D02*
X87850000Y-77975000D01*
X83050000Y-75370000D02*
X85245000Y-75370000D01*
X81550000Y-73870000D02*
X83050000Y-75370000D01*
X81550000Y-72670000D02*
X81550000Y-73870000D01*
X84600000Y-94400000D02*
X87450000Y-94400000D01*
X87450000Y-94400000D02*
X87600000Y-94250000D01*
X87750000Y-99800000D02*
X87750000Y-101300000D01*
X84725000Y-96775000D02*
X87750000Y-99800000D01*
X83355000Y-96775000D02*
X84725000Y-96775000D01*
X81550000Y-94970000D02*
X83355000Y-96775000D01*
X81550000Y-93770000D02*
X81550000Y-94970000D01*
X103350000Y-97800000D02*
X102850000Y-97300000D01*
X103350000Y-99050000D02*
X103350000Y-97800000D01*
X90600000Y-91550000D02*
X90850000Y-91300000D01*
X87600000Y-91550000D02*
X90600000Y-91550000D01*
X103900000Y-76600000D02*
X103100000Y-75800000D01*
X104000000Y-76700000D02*
X103600000Y-76300000D01*
X104000000Y-78250000D02*
X104000000Y-76700000D01*
X91450000Y-70450000D02*
X91600000Y-70300000D01*
X91000000Y-70450000D02*
X91100000Y-70550000D01*
X87600000Y-70450000D02*
X91000000Y-70450000D01*
X77330000Y-70130000D02*
X75050000Y-70130000D01*
X78600000Y-77300000D02*
X78600000Y-71400000D01*
X78600000Y-71400000D02*
X77330000Y-70130000D01*
X77330000Y-91230000D02*
X75050000Y-91230000D01*
X78600000Y-98400000D02*
X78600000Y-92500000D01*
X78600000Y-92500000D02*
X77330000Y-91230000D01*
D25*
G36*
X114196257Y-98436983D02*
G01*
X114285955Y-98474137D01*
X114362976Y-98533238D01*
X114422077Y-98610259D01*
X114459231Y-98699957D01*
X114473000Y-98804542D01*
X114473000Y-105787886D01*
X114459231Y-105892471D01*
X114422077Y-105982169D01*
X114362976Y-106059190D01*
X114285955Y-106118291D01*
X114196257Y-106155445D01*
X114091672Y-106169214D01*
X94408328Y-106169214D01*
X94303743Y-106155445D01*
X94214045Y-106118291D01*
X94137024Y-106059190D01*
X94077923Y-105982169D01*
X94040769Y-105892471D01*
X94027000Y-105787886D01*
X94027000Y-101304542D01*
X94040769Y-101199957D01*
X94077923Y-101110259D01*
X94137024Y-101033238D01*
X94214045Y-100974137D01*
X94303743Y-100936983D01*
X94408328Y-100923214D01*
X104892893Y-100923214D01*
X104909470Y-100922128D01*
X105038880Y-100905091D01*
X105070904Y-100896510D01*
X105191494Y-100846560D01*
X105220206Y-100829983D01*
X105323760Y-100750523D01*
X105336250Y-100739570D01*
X107537472Y-98538348D01*
X107621155Y-98474136D01*
X107710850Y-98436983D01*
X107815435Y-98423214D01*
X114091672Y-98423214D01*
X114196257Y-98436983D01*
G37*
X114196257Y-98436983D02*
X114285955Y-98474137D01*
X114362976Y-98533238D01*
X114422077Y-98610259D01*
X114459231Y-98699957D01*
X114473000Y-98804542D01*
X114473000Y-105787886D01*
X114459231Y-105892471D01*
X114422077Y-105982169D01*
X114362976Y-106059190D01*
X114285955Y-106118291D01*
X114196257Y-106155445D01*
X114091672Y-106169214D01*
X94408328Y-106169214D01*
X94303743Y-106155445D01*
X94214045Y-106118291D01*
X94137024Y-106059190D01*
X94077923Y-105982169D01*
X94040769Y-105892471D01*
X94027000Y-105787886D01*
X94027000Y-101304542D01*
X94040769Y-101199957D01*
X94077923Y-101110259D01*
X94137024Y-101033238D01*
X94214045Y-100974137D01*
X94303743Y-100936983D01*
X94408328Y-100923214D01*
X104892893Y-100923214D01*
X104909470Y-100922128D01*
X105038880Y-100905091D01*
X105070904Y-100896510D01*
X105191494Y-100846560D01*
X105220206Y-100829983D01*
X105323760Y-100750523D01*
X105336250Y-100739570D01*
X107537472Y-98538348D01*
X107621155Y-98474136D01*
X107710850Y-98436983D01*
X107815435Y-98423214D01*
X114091672Y-98423214D01*
X114196257Y-98436983D01*
G36*
X114196257Y-89440769D02*
G01*
X114285955Y-89477923D01*
X114362976Y-89537024D01*
X114422077Y-89614045D01*
X114459231Y-89703743D01*
X114473000Y-89808328D01*
X114473000Y-96791672D01*
X114459231Y-96896257D01*
X114422077Y-96985955D01*
X114362976Y-97062976D01*
X114285955Y-97122077D01*
X114196257Y-97159231D01*
X114091672Y-97173000D01*
X102108328Y-97173000D01*
X102003743Y-97159231D01*
X101914045Y-97122077D01*
X101837024Y-97062976D01*
X101777923Y-96985955D01*
X101740769Y-96896257D01*
X101727000Y-96791672D01*
X101727000Y-89808328D01*
X101740769Y-89703743D01*
X101777923Y-89614045D01*
X101837024Y-89537024D01*
X101914045Y-89477923D01*
X102003743Y-89440769D01*
X102108328Y-89427000D01*
X114091672Y-89427000D01*
X114196257Y-89440769D01*
G37*
X114196257Y-89440769D02*
X114285955Y-89477923D01*
X114362976Y-89537024D01*
X114422077Y-89614045D01*
X114459231Y-89703743D01*
X114473000Y-89808328D01*
X114473000Y-96791672D01*
X114459231Y-96896257D01*
X114422077Y-96985955D01*
X114362976Y-97062976D01*
X114285955Y-97122077D01*
X114196257Y-97159231D01*
X114091672Y-97173000D01*
X102108328Y-97173000D01*
X102003743Y-97159231D01*
X101914045Y-97122077D01*
X101837024Y-97062976D01*
X101777923Y-96985955D01*
X101740769Y-96896257D01*
X101727000Y-96791672D01*
X101727000Y-89808328D01*
X101740769Y-89703743D01*
X101777923Y-89614045D01*
X101837024Y-89537024D01*
X101914045Y-89477923D01*
X102003743Y-89440769D01*
X102108328Y-89427000D01*
X114091672Y-89427000D01*
X114196257Y-89440769D01*
G36*
X103696257Y-87440769D02*
G01*
X103785955Y-87477923D01*
X103862976Y-87537024D01*
X103922077Y-87614045D01*
X103959231Y-87703743D01*
X103973000Y-87808328D01*
X103973000Y-97791672D01*
X103959231Y-97896257D01*
X103922077Y-97985955D01*
X103862976Y-98062976D01*
X103785955Y-98122077D01*
X103696257Y-98159231D01*
X103591672Y-98173000D01*
X90108328Y-98173000D01*
X90003743Y-98159231D01*
X89914045Y-98122077D01*
X89837024Y-98062976D01*
X89777923Y-97985955D01*
X89740769Y-97896257D01*
X89727000Y-97791672D01*
X89727000Y-87808328D01*
X89740769Y-87703743D01*
X89777923Y-87614045D01*
X89837024Y-87537024D01*
X89914045Y-87477923D01*
X90003743Y-87440769D01*
X90108328Y-87427000D01*
X103591672Y-87427000D01*
X103696257Y-87440769D01*
G37*
X103696257Y-87440769D02*
X103785955Y-87477923D01*
X103862976Y-87537024D01*
X103922077Y-87614045D01*
X103959231Y-87703743D01*
X103973000Y-87808328D01*
X103973000Y-97791672D01*
X103959231Y-97896257D01*
X103922077Y-97985955D01*
X103862976Y-98062976D01*
X103785955Y-98122077D01*
X103696257Y-98159231D01*
X103591672Y-98173000D01*
X90108328Y-98173000D01*
X90003743Y-98159231D01*
X89914045Y-98122077D01*
X89837024Y-98062976D01*
X89777923Y-97985955D01*
X89740769Y-97896257D01*
X89727000Y-97791672D01*
X89727000Y-87808328D01*
X89740769Y-87703743D01*
X89777923Y-87614045D01*
X89837024Y-87537024D01*
X89914045Y-87477923D01*
X90003743Y-87440769D01*
X90108328Y-87427000D01*
X103591672Y-87427000D01*
X103696257Y-87440769D01*
G36*
X114321257Y-77540769D02*
G01*
X114410955Y-77577923D01*
X114487976Y-77637024D01*
X114547077Y-77714045D01*
X114584231Y-77803743D01*
X114598000Y-77908328D01*
X114598000Y-84891672D01*
X114584231Y-84996257D01*
X114547077Y-85085955D01*
X114487976Y-85162976D01*
X114410955Y-85222077D01*
X114321257Y-85259231D01*
X114216672Y-85273000D01*
X94683328Y-85273000D01*
X94578743Y-85259231D01*
X94489045Y-85222077D01*
X94412024Y-85162976D01*
X94352923Y-85085955D01*
X94315769Y-84996257D01*
X94302000Y-84891672D01*
X94302000Y-80408328D01*
X94315769Y-80303743D01*
X94352923Y-80214045D01*
X94412024Y-80137024D01*
X94489045Y-80077923D01*
X94578743Y-80040769D01*
X94683328Y-80027000D01*
X106017893Y-80027000D01*
X106034470Y-80025914D01*
X106163880Y-80008877D01*
X106195904Y-80000296D01*
X106316494Y-79950346D01*
X106345206Y-79933769D01*
X106448760Y-79854309D01*
X106461250Y-79843356D01*
X108662472Y-77642134D01*
X108746155Y-77577922D01*
X108835850Y-77540769D01*
X108940435Y-77527000D01*
X114216672Y-77527000D01*
X114321257Y-77540769D01*
G37*
X114321257Y-77540769D02*
X114410955Y-77577923D01*
X114487976Y-77637024D01*
X114547077Y-77714045D01*
X114584231Y-77803743D01*
X114598000Y-77908328D01*
X114598000Y-84891672D01*
X114584231Y-84996257D01*
X114547077Y-85085955D01*
X114487976Y-85162976D01*
X114410955Y-85222077D01*
X114321257Y-85259231D01*
X114216672Y-85273000D01*
X94683328Y-85273000D01*
X94578743Y-85259231D01*
X94489045Y-85222077D01*
X94412024Y-85162976D01*
X94352923Y-85085955D01*
X94315769Y-84996257D01*
X94302000Y-84891672D01*
X94302000Y-80408328D01*
X94315769Y-80303743D01*
X94352923Y-80214045D01*
X94412024Y-80137024D01*
X94489045Y-80077923D01*
X94578743Y-80040769D01*
X94683328Y-80027000D01*
X106017893Y-80027000D01*
X106034470Y-80025914D01*
X106163880Y-80008877D01*
X106195904Y-80000296D01*
X106316494Y-79950346D01*
X106345206Y-79933769D01*
X106448760Y-79854309D01*
X106461250Y-79843356D01*
X108662472Y-77642134D01*
X108746155Y-77577922D01*
X108835850Y-77540769D01*
X108940435Y-77527000D01*
X114216672Y-77527000D01*
X114321257Y-77540769D01*
G36*
X114096257Y-68640769D02*
G01*
X114185955Y-68677923D01*
X114262976Y-68737024D01*
X114322077Y-68814045D01*
X114359231Y-68903743D01*
X114373000Y-69008328D01*
X114373000Y-75991672D01*
X114359231Y-76096257D01*
X114322077Y-76185955D01*
X114262976Y-76262976D01*
X114185955Y-76322077D01*
X114096257Y-76359231D01*
X113991672Y-76373000D01*
X102008328Y-76373000D01*
X101903743Y-76359231D01*
X101814045Y-76322077D01*
X101737024Y-76262976D01*
X101677923Y-76185955D01*
X101640769Y-76096257D01*
X101627000Y-75991672D01*
X101627000Y-69008328D01*
X101640769Y-68903743D01*
X101677923Y-68814045D01*
X101737024Y-68737024D01*
X101814045Y-68677923D01*
X101903743Y-68640769D01*
X102008328Y-68627000D01*
X113991672Y-68627000D01*
X114096257Y-68640769D01*
G37*
X114096257Y-68640769D02*
X114185955Y-68677923D01*
X114262976Y-68737024D01*
X114322077Y-68814045D01*
X114359231Y-68903743D01*
X114373000Y-69008328D01*
X114373000Y-75991672D01*
X114359231Y-76096257D01*
X114322077Y-76185955D01*
X114262976Y-76262976D01*
X114185955Y-76322077D01*
X114096257Y-76359231D01*
X113991672Y-76373000D01*
X102008328Y-76373000D01*
X101903743Y-76359231D01*
X101814045Y-76322077D01*
X101737024Y-76262976D01*
X101677923Y-76185955D01*
X101640769Y-76096257D01*
X101627000Y-75991672D01*
X101627000Y-69008328D01*
X101640769Y-68903743D01*
X101677923Y-68814045D01*
X101737024Y-68737024D01*
X101814045Y-68677923D01*
X101903743Y-68640769D01*
X102008328Y-68627000D01*
X113991672Y-68627000D01*
X114096257Y-68640769D01*
G36*
X103919709Y-66390769D02*
G01*
X104009407Y-66427923D01*
X104086428Y-66487024D01*
X104145529Y-66564045D01*
X104182683Y-66653743D01*
X104196452Y-66758328D01*
X104196452Y-77241672D01*
X104182683Y-77346257D01*
X104145529Y-77435955D01*
X104086428Y-77512976D01*
X104009407Y-77572077D01*
X103919709Y-77609231D01*
X103815124Y-77623000D01*
X90331780Y-77623000D01*
X90227195Y-77609231D01*
X90137497Y-77572077D01*
X90060476Y-77512976D01*
X90001375Y-77435955D01*
X89964221Y-77346257D01*
X89950452Y-77241672D01*
X89950452Y-66758328D01*
X89964221Y-66653743D01*
X90001375Y-66564045D01*
X90060476Y-66487024D01*
X90137497Y-66427923D01*
X90227195Y-66390769D01*
X90331780Y-66377000D01*
X103815124Y-66377000D01*
X103919709Y-66390769D01*
G37*
X103919709Y-66390769D02*
X104009407Y-66427923D01*
X104086428Y-66487024D01*
X104145529Y-66564045D01*
X104182683Y-66653743D01*
X104196452Y-66758328D01*
X104196452Y-77241672D01*
X104182683Y-77346257D01*
X104145529Y-77435955D01*
X104086428Y-77512976D01*
X104009407Y-77572077D01*
X103919709Y-77609231D01*
X103815124Y-77623000D01*
X90331780Y-77623000D01*
X90227195Y-77609231D01*
X90137497Y-77572077D01*
X90060476Y-77512976D01*
X90001375Y-77435955D01*
X89964221Y-77346257D01*
X89950452Y-77241672D01*
X89950452Y-66758328D01*
X89964221Y-66653743D01*
X90001375Y-66564045D01*
X90060476Y-66487024D01*
X90137497Y-66427923D01*
X90227195Y-66390769D01*
X90331780Y-66377000D01*
X103815124Y-66377000D01*
X103919709Y-66390769D01*
M02*
