%FSLAX45Y45*%
G04 Gerber Fmt 4.5, Leading zero omitted, Abs format (unit mm)*
G04 Created by KiCad (PCBNEW (5.1.10)-1) date 2021-07-01 22:43:29*
%MOMM*%
%LPD*%
G01*
G04 APERTURE LIST*
%TA.AperFunction,Profile*%
%ADD10C,0.150000*%
%TD*%
%ADD11C,0.200000*%
%ADD12C,0.300000*%
G04 APERTURE END LIST*
D10*
X7300000Y-6100000D02*
G75*
G02*
X7700000Y-5700000I400000J0D01*
G01*
X7700000Y-11700000D02*
G75*
G02*
X7300000Y-11300000I0J400000D01*
G01*
X12300000Y-11300000D02*
G75*
G02*
X11900000Y-11700000I-400000J0D01*
G01*
X11900000Y-5700000D02*
G75*
G02*
X12300000Y-6100000I0J-400000D01*
G01*
X7700000Y-11700000D02*
X11900000Y-11700000D01*
X7700000Y-5700000D02*
X11900000Y-5700000D01*
X12300000Y-11300000D02*
X12300000Y-6100000D01*
X7300000Y-11300000D02*
X7300000Y-6100000D01*
D11*
X7532500Y-5932500D02*
X7867500Y-6267500D01*
X7867500Y-5932500D02*
X7532500Y-6267500D01*
X7532500Y-11132500D02*
X7867500Y-11467500D01*
X7867500Y-11132500D02*
X7532500Y-11467500D01*
X11732500Y-5932500D02*
X12067500Y-6267500D01*
X12067500Y-5932500D02*
X11732500Y-6267500D01*
X11732500Y-11132500D02*
X12067500Y-11467500D01*
X12067500Y-11132500D02*
X11732500Y-11467500D01*
D12*
X7578928Y-12173214D02*
X7578928Y-11873214D01*
X7650357Y-11873214D01*
X7693214Y-11887500D01*
X7721786Y-11916071D01*
X7736071Y-11944643D01*
X7750357Y-12001786D01*
X7750357Y-12044643D01*
X7736071Y-12101786D01*
X7721786Y-12130357D01*
X7693214Y-12158929D01*
X7650357Y-12173214D01*
X7578928Y-12173214D01*
X7878928Y-12173214D02*
X7878928Y-11973214D01*
X7878928Y-12030357D02*
X7893214Y-12001786D01*
X7907500Y-11987500D01*
X7936071Y-11973214D01*
X7964643Y-11973214D01*
X8064643Y-12173214D02*
X8064643Y-11973214D01*
X8064643Y-11873214D02*
X8050357Y-11887500D01*
X8064643Y-11901786D01*
X8078928Y-11887500D01*
X8064643Y-11873214D01*
X8064643Y-11901786D01*
X8250357Y-12173214D02*
X8221786Y-12158929D01*
X8207500Y-12130357D01*
X8207500Y-11873214D01*
X8407500Y-12173214D02*
X8378928Y-12158929D01*
X8364643Y-12130357D01*
X8364643Y-11873214D01*
X8750357Y-12173214D02*
X8750357Y-11873214D01*
X8850357Y-12087500D01*
X8950357Y-11873214D01*
X8950357Y-12173214D01*
X9221786Y-12173214D02*
X9221786Y-12016071D01*
X9207500Y-11987500D01*
X9178928Y-11973214D01*
X9121786Y-11973214D01*
X9093214Y-11987500D01*
X9221786Y-12158929D02*
X9193214Y-12173214D01*
X9121786Y-12173214D01*
X9093214Y-12158929D01*
X9078928Y-12130357D01*
X9078928Y-12101786D01*
X9093214Y-12073214D01*
X9121786Y-12058929D01*
X9193214Y-12058929D01*
X9221786Y-12044643D01*
X9364643Y-11973214D02*
X9364643Y-12273214D01*
X9364643Y-11987500D02*
X9393214Y-11973214D01*
X9450357Y-11973214D01*
X9478928Y-11987500D01*
X9493214Y-12001786D01*
X9507500Y-12030357D01*
X9507500Y-12116071D01*
X9493214Y-12144643D01*
X9478928Y-12158929D01*
X9450357Y-12173214D01*
X9393214Y-12173214D01*
X9364643Y-12158929D01*
X9636071Y-12144643D02*
X9650357Y-12158929D01*
X9636071Y-12173214D01*
X9621786Y-12158929D01*
X9636071Y-12144643D01*
X9636071Y-12173214D01*
X9636071Y-11987500D02*
X9650357Y-12001786D01*
X9636071Y-12016071D01*
X9621786Y-12001786D01*
X9636071Y-11987500D01*
X9636071Y-12016071D01*
X6957500Y-12500000D02*
X7292500Y-12835000D01*
X7292500Y-12500000D02*
X6957500Y-12835000D01*
X7550357Y-12503214D02*
X7736071Y-12503214D01*
X7636071Y-12617500D01*
X7678928Y-12617500D01*
X7707500Y-12631786D01*
X7721786Y-12646071D01*
X7736071Y-12674643D01*
X7736071Y-12746071D01*
X7721786Y-12774643D01*
X7707500Y-12788929D01*
X7678928Y-12803214D01*
X7593214Y-12803214D01*
X7564643Y-12788929D01*
X7550357Y-12774643D01*
X7864643Y-12774643D02*
X7878928Y-12788929D01*
X7864643Y-12803214D01*
X7850357Y-12788929D01*
X7864643Y-12774643D01*
X7864643Y-12803214D01*
X7978928Y-12503214D02*
X8164643Y-12503214D01*
X8064643Y-12617500D01*
X8107500Y-12617500D01*
X8136071Y-12631786D01*
X8150357Y-12646071D01*
X8164643Y-12674643D01*
X8164643Y-12746071D01*
X8150357Y-12774643D01*
X8136071Y-12788929D01*
X8107500Y-12803214D01*
X8021786Y-12803214D01*
X7993214Y-12788929D01*
X7978928Y-12774643D01*
X8436071Y-12503214D02*
X8293214Y-12503214D01*
X8278928Y-12646071D01*
X8293214Y-12631786D01*
X8321786Y-12617500D01*
X8393214Y-12617500D01*
X8421786Y-12631786D01*
X8436071Y-12646071D01*
X8450357Y-12674643D01*
X8450357Y-12746071D01*
X8436071Y-12774643D01*
X8421786Y-12788929D01*
X8393214Y-12803214D01*
X8321786Y-12803214D01*
X8293214Y-12788929D01*
X8278928Y-12774643D01*
X8636071Y-12503214D02*
X8664643Y-12503214D01*
X8693214Y-12517500D01*
X8707500Y-12531786D01*
X8721786Y-12560357D01*
X8736071Y-12617500D01*
X8736071Y-12688929D01*
X8721786Y-12746071D01*
X8707500Y-12774643D01*
X8693214Y-12788929D01*
X8664643Y-12803214D01*
X8636071Y-12803214D01*
X8607500Y-12788929D01*
X8593214Y-12774643D01*
X8578928Y-12746071D01*
X8564643Y-12688929D01*
X8564643Y-12617500D01*
X8578928Y-12560357D01*
X8593214Y-12531786D01*
X8607500Y-12517500D01*
X8636071Y-12503214D01*
X8864643Y-12803214D02*
X8864643Y-12603214D01*
X8864643Y-12631786D02*
X8878928Y-12617500D01*
X8907500Y-12603214D01*
X8950357Y-12603214D01*
X8978928Y-12617500D01*
X8993214Y-12646071D01*
X8993214Y-12803214D01*
X8993214Y-12646071D02*
X9007500Y-12617500D01*
X9036071Y-12603214D01*
X9078928Y-12603214D01*
X9107500Y-12617500D01*
X9121786Y-12646071D01*
X9121786Y-12803214D01*
X9264643Y-12803214D02*
X9264643Y-12603214D01*
X9264643Y-12631786D02*
X9278928Y-12617500D01*
X9307500Y-12603214D01*
X9350357Y-12603214D01*
X9378928Y-12617500D01*
X9393214Y-12646071D01*
X9393214Y-12803214D01*
X9393214Y-12646071D02*
X9407500Y-12617500D01*
X9436071Y-12603214D01*
X9478928Y-12603214D01*
X9507500Y-12617500D01*
X9521786Y-12646071D01*
X9521786Y-12803214D01*
X10107500Y-12488929D02*
X9850357Y-12874643D01*
X10493214Y-12503214D02*
X10521786Y-12503214D01*
X10550357Y-12517500D01*
X10564643Y-12531786D01*
X10578928Y-12560357D01*
X10593214Y-12617500D01*
X10593214Y-12688929D01*
X10578928Y-12746071D01*
X10564643Y-12774643D01*
X10550357Y-12788929D01*
X10521786Y-12803214D01*
X10493214Y-12803214D01*
X10464643Y-12788929D01*
X10450357Y-12774643D01*
X10436071Y-12746071D01*
X10421786Y-12688929D01*
X10421786Y-12617500D01*
X10436071Y-12560357D01*
X10450357Y-12531786D01*
X10464643Y-12517500D01*
X10493214Y-12503214D01*
X10721786Y-12774643D02*
X10736071Y-12788929D01*
X10721786Y-12803214D01*
X10707500Y-12788929D01*
X10721786Y-12774643D01*
X10721786Y-12803214D01*
X11021786Y-12803214D02*
X10850357Y-12803214D01*
X10936071Y-12803214D02*
X10936071Y-12503214D01*
X10907500Y-12546071D01*
X10878928Y-12574643D01*
X10850357Y-12588929D01*
X11121786Y-12503214D02*
X11307500Y-12503214D01*
X11207500Y-12617500D01*
X11250357Y-12617500D01*
X11278928Y-12631786D01*
X11293214Y-12646071D01*
X11307500Y-12674643D01*
X11307500Y-12746071D01*
X11293214Y-12774643D01*
X11278928Y-12788929D01*
X11250357Y-12803214D01*
X11164643Y-12803214D01*
X11136071Y-12788929D01*
X11121786Y-12774643D01*
X11593214Y-12803214D02*
X11421786Y-12803214D01*
X11507500Y-12803214D02*
X11507500Y-12503214D01*
X11478928Y-12546071D01*
X11450357Y-12574643D01*
X11421786Y-12588929D01*
X11736071Y-12803214D02*
X11793214Y-12803214D01*
X11821786Y-12788929D01*
X11836071Y-12774643D01*
X11864643Y-12731786D01*
X11878928Y-12674643D01*
X11878928Y-12560357D01*
X11864643Y-12531786D01*
X11850357Y-12517500D01*
X11821786Y-12503214D01*
X11764643Y-12503214D01*
X11736071Y-12517500D01*
X11721786Y-12531786D01*
X11707500Y-12560357D01*
X11707500Y-12631786D01*
X11721786Y-12660357D01*
X11736071Y-12674643D01*
X11764643Y-12688929D01*
X11821786Y-12688929D01*
X11850357Y-12674643D01*
X11864643Y-12660357D01*
X11878928Y-12631786D01*
X11993214Y-12503214D02*
X11993214Y-12560357D01*
X12107500Y-12503214D02*
X12107500Y-12560357D01*
X12550357Y-12917500D02*
X12536071Y-12903214D01*
X12507500Y-12860357D01*
X12493214Y-12831786D01*
X12478928Y-12788929D01*
X12464643Y-12717500D01*
X12464643Y-12660357D01*
X12478928Y-12588929D01*
X12493214Y-12546071D01*
X12507500Y-12517500D01*
X12536071Y-12474643D01*
X12550357Y-12460357D01*
X12793214Y-12603214D02*
X12793214Y-12803214D01*
X12721786Y-12488929D02*
X12650357Y-12703214D01*
X12836071Y-12703214D01*
X13178928Y-12803214D02*
X13178928Y-12503214D01*
X13307500Y-12803214D02*
X13307500Y-12646071D01*
X13293214Y-12617500D01*
X13264643Y-12603214D01*
X13221786Y-12603214D01*
X13193214Y-12617500D01*
X13178928Y-12631786D01*
X13493214Y-12803214D02*
X13464643Y-12788929D01*
X13450357Y-12774643D01*
X13436071Y-12746071D01*
X13436071Y-12660357D01*
X13450357Y-12631786D01*
X13464643Y-12617500D01*
X13493214Y-12603214D01*
X13536071Y-12603214D01*
X13564643Y-12617500D01*
X13578928Y-12631786D01*
X13593214Y-12660357D01*
X13593214Y-12746071D01*
X13578928Y-12774643D01*
X13564643Y-12788929D01*
X13536071Y-12803214D01*
X13493214Y-12803214D01*
X13764643Y-12803214D02*
X13736071Y-12788929D01*
X13721786Y-12760357D01*
X13721786Y-12503214D01*
X13993214Y-12788929D02*
X13964643Y-12803214D01*
X13907500Y-12803214D01*
X13878928Y-12788929D01*
X13864643Y-12760357D01*
X13864643Y-12646071D01*
X13878928Y-12617500D01*
X13907500Y-12603214D01*
X13964643Y-12603214D01*
X13993214Y-12617500D01*
X14007500Y-12646071D01*
X14007500Y-12674643D01*
X13864643Y-12703214D01*
X14121786Y-12788929D02*
X14150357Y-12803214D01*
X14207500Y-12803214D01*
X14236071Y-12788929D01*
X14250357Y-12760357D01*
X14250357Y-12746071D01*
X14236071Y-12717500D01*
X14207500Y-12703214D01*
X14164643Y-12703214D01*
X14136071Y-12688929D01*
X14121786Y-12660357D01*
X14121786Y-12646071D01*
X14136071Y-12617500D01*
X14164643Y-12603214D01*
X14207500Y-12603214D01*
X14236071Y-12617500D01*
X14350357Y-12917500D02*
X14364643Y-12903214D01*
X14393214Y-12860357D01*
X14407500Y-12831786D01*
X14421786Y-12788929D01*
X14436071Y-12717500D01*
X14436071Y-12660357D01*
X14421786Y-12588929D01*
X14407500Y-12546071D01*
X14393214Y-12517500D01*
X14364643Y-12474643D01*
X14350357Y-12460357D01*
X14893214Y-12917500D02*
X14878928Y-12903214D01*
X14850357Y-12860357D01*
X14836071Y-12831786D01*
X14821786Y-12788929D01*
X14807500Y-12717500D01*
X14807500Y-12660357D01*
X14821786Y-12588929D01*
X14836071Y-12546071D01*
X14850357Y-12517500D01*
X14878928Y-12474643D01*
X14893214Y-12460357D01*
X15007500Y-12603214D02*
X15007500Y-12803214D01*
X15007500Y-12631786D02*
X15021786Y-12617500D01*
X15050357Y-12603214D01*
X15093214Y-12603214D01*
X15121786Y-12617500D01*
X15136071Y-12646071D01*
X15136071Y-12803214D01*
X15321786Y-12803214D02*
X15293214Y-12788929D01*
X15278928Y-12774643D01*
X15264643Y-12746071D01*
X15264643Y-12660357D01*
X15278928Y-12631786D01*
X15293214Y-12617500D01*
X15321786Y-12603214D01*
X15364643Y-12603214D01*
X15393214Y-12617500D01*
X15407500Y-12631786D01*
X15421786Y-12660357D01*
X15421786Y-12746071D01*
X15407500Y-12774643D01*
X15393214Y-12788929D01*
X15364643Y-12803214D01*
X15321786Y-12803214D01*
X15507500Y-12603214D02*
X15621786Y-12603214D01*
X15550357Y-12503214D02*
X15550357Y-12760357D01*
X15564643Y-12788929D01*
X15593214Y-12803214D01*
X15621786Y-12803214D01*
X15950357Y-12603214D02*
X15950357Y-12903214D01*
X15950357Y-12617500D02*
X15978928Y-12603214D01*
X16036071Y-12603214D01*
X16064643Y-12617500D01*
X16078928Y-12631786D01*
X16093214Y-12660357D01*
X16093214Y-12746071D01*
X16078928Y-12774643D01*
X16064643Y-12788929D01*
X16036071Y-12803214D01*
X15978928Y-12803214D01*
X15950357Y-12788929D01*
X16264643Y-12803214D02*
X16236071Y-12788929D01*
X16221786Y-12760357D01*
X16221786Y-12503214D01*
X16507500Y-12803214D02*
X16507500Y-12646071D01*
X16493214Y-12617500D01*
X16464643Y-12603214D01*
X16407500Y-12603214D01*
X16378928Y-12617500D01*
X16507500Y-12788929D02*
X16478928Y-12803214D01*
X16407500Y-12803214D01*
X16378928Y-12788929D01*
X16364643Y-12760357D01*
X16364643Y-12731786D01*
X16378928Y-12703214D01*
X16407500Y-12688929D01*
X16478928Y-12688929D01*
X16507500Y-12674643D01*
X16607500Y-12603214D02*
X16721786Y-12603214D01*
X16650357Y-12503214D02*
X16650357Y-12760357D01*
X16664643Y-12788929D01*
X16693214Y-12803214D01*
X16721786Y-12803214D01*
X16936071Y-12788929D02*
X16907500Y-12803214D01*
X16850357Y-12803214D01*
X16821786Y-12788929D01*
X16807500Y-12760357D01*
X16807500Y-12646071D01*
X16821786Y-12617500D01*
X16850357Y-12603214D01*
X16907500Y-12603214D01*
X16936071Y-12617500D01*
X16950357Y-12646071D01*
X16950357Y-12674643D01*
X16807500Y-12703214D01*
X17207500Y-12803214D02*
X17207500Y-12503214D01*
X17207500Y-12788929D02*
X17178928Y-12803214D01*
X17121786Y-12803214D01*
X17093214Y-12788929D01*
X17078928Y-12774643D01*
X17064643Y-12746071D01*
X17064643Y-12660357D01*
X17078928Y-12631786D01*
X17093214Y-12617500D01*
X17121786Y-12603214D01*
X17178928Y-12603214D01*
X17207500Y-12617500D01*
X17321786Y-12917500D02*
X17336071Y-12903214D01*
X17364643Y-12860357D01*
X17378928Y-12831786D01*
X17393214Y-12788929D01*
X17407500Y-12717500D01*
X17407500Y-12660357D01*
X17393214Y-12588929D01*
X17378928Y-12546071D01*
X17364643Y-12517500D01*
X17336071Y-12474643D01*
X17321786Y-12460357D01*
M02*
