M48
; DRILL file {KiCad (5.1.5)-3} date 3/28/2020 9:50:33 PM
; FORMAT={-:-/ absolute / metric / decimal}
; #@! TF.CreationDate,2020-03-28T21:50:33-04:00
; #@! TF.GenerationSoftware,Kicad,Pcbnew,(5.1.5)-3
FMAT,2
METRIC
T1C0.400
T2C1.500
T3C1.650
T4C4.600
T5C3.350
%
G90
G05
T1
X94.35Y-101.4
X94.35Y-102.3
X94.35Y-103.2
X94.35Y-104.1
X94.35Y-105.0
X94.6Y-80.65
X94.6Y-81.55
X94.6Y-82.425
X94.6Y-83.35
X94.6Y-84.25
X95.6Y-101.4
X95.6Y-102.3
X95.6Y-103.2
X95.6Y-104.1
X95.6Y-105.0
X95.85Y-80.65
X95.85Y-81.55
X95.85Y-82.45
X95.85Y-83.35
X95.85Y-84.25
X96.85Y-101.4
X96.85Y-102.3
X96.85Y-103.2
X96.85Y-104.1
X96.85Y-105.0
X97.1Y-80.65
X97.1Y-81.55
X97.1Y-82.45
X97.1Y-83.35
X97.1Y-84.25
X98.15Y-101.4
X98.15Y-102.3
X98.15Y-103.2
X98.15Y-104.1
X98.15Y-105.0
X98.4Y-80.65
X98.4Y-81.55
X98.4Y-82.45
X98.4Y-83.35
X98.4Y-84.25
X99.4Y-101.4
X99.4Y-102.3
X99.4Y-103.2
X99.4Y-104.1
X99.4Y-105.0
X99.65Y-80.65
X99.65Y-81.55
X99.65Y-82.45
X99.65Y-83.35
X99.65Y-84.25
X100.65Y-101.4
X100.65Y-102.3
X100.65Y-103.2
X100.65Y-104.1
X100.65Y-105.0
X100.9Y-80.65
X100.9Y-81.55
X100.9Y-82.45
X100.9Y-83.35
X100.9Y-84.25
T2
X90.85Y-88.3
X90.85Y-91.3
X90.85Y-94.3
X90.85Y-97.3
X93.85Y-88.3
X93.85Y-91.3
X93.85Y-94.3
X93.85Y-97.3
X96.85Y-88.3
X96.85Y-91.3
X96.85Y-94.3
X96.85Y-97.3
X99.85Y-88.3
X99.85Y-91.3
X99.85Y-94.3
X99.85Y-97.3
X102.85Y-88.3
X102.85Y-91.3
X102.85Y-94.3
X102.85Y-97.3
X91.1Y-67.55
X91.1Y-70.55
X91.1Y-73.55
X91.1Y-76.55
X94.1Y-67.55
X94.1Y-70.55
X94.1Y-73.55
X94.1Y-76.55
X97.1Y-67.55
X97.1Y-70.55
X97.1Y-73.55
X97.1Y-76.55
X100.1Y-67.55
X100.1Y-70.55
X100.1Y-73.55
X100.1Y-76.55
X103.1Y-67.55
X103.1Y-70.55
X103.1Y-73.55
X103.1Y-76.55
T3
X78.6Y-98.4
X78.6Y-103.4
X78.6Y-77.3
X78.6Y-82.3
T4
X111.375Y-93.3
X118.325Y-93.3
X111.375Y-102.3
X118.325Y-102.3
X111.375Y-81.5
X118.325Y-81.5
X111.375Y-72.5
X118.325Y-72.5
T5
X119.0Y-113.0
X77.0Y-61.0
X119.0Y-61.0
X77.0Y-113.0
T0
M30
