G04 #@! TF.GenerationSoftware,KiCad,Pcbnew,(5.1.5)-3*
G04 #@! TF.CreationDate,2020-03-15T22:31:00-04:00*
G04 #@! TF.ProjectId,MOSTERFET,4d4f5354-4552-4464-9554-2e6b69636164,1.1*
G04 #@! TF.SameCoordinates,Original*
G04 #@! TF.FileFunction,Copper,L1,Top*
G04 #@! TF.FilePolarity,Positive*
%FSLAX46Y46*%
G04 Gerber Fmt 4.6, Leading zero omitted, Abs format (unit mm)*
G04 Created by KiCad (PCBNEW (5.1.5)-3) date 2020-03-15 22:31:00*
%MOMM*%
%LPD*%
G04 APERTURE LIST*
%ADD10C,0.150000*%
%ADD11C,4.000000*%
%ADD12R,0.900000X0.800000*%
%ADD13O,3.000000X2.350000*%
%ADD14R,3.000000X2.350000*%
%ADD15C,6.000000*%
%ADD16R,1.700000X2.000000*%
%ADD17R,1.250000X1.500000*%
%ADD18R,3.000000X3.000000*%
%ADD19R,0.800000X4.600000*%
%ADD20R,1.600000X1.600000*%
%ADD21R,1.300000X1.500000*%
%ADD22R,2.500000X2.000000*%
%ADD23C,0.600000*%
%ADD24C,0.400000*%
%ADD25C,6.000000*%
%ADD26C,0.254000*%
G04 APERTURE END LIST*
D10*
X74666666Y-117000000D02*
G75*
G03X74666666Y-117000000I-1666666J0D01*
G01*
X70500000Y-117000000D02*
X75500000Y-117000000D01*
X73000000Y-114500000D02*
X73000000Y-119500000D01*
X73000000Y-117000000D02*
X123000000Y-117000000D01*
X73000000Y-57000000D02*
X123000000Y-57000000D01*
X123000000Y-117000000D02*
X123000000Y-57000000D01*
X73000000Y-117000000D02*
X73000000Y-57000000D01*
X73000000Y-117000000D02*
X73250000Y-117000000D01*
X73000000Y-117000000D02*
X121000000Y-117000000D01*
D11*
X77000000Y-113000000D03*
X119000000Y-61000000D03*
D12*
X89500000Y-86100000D03*
X91500000Y-85150000D03*
X91500000Y-87050000D03*
D13*
X78600000Y-78300000D03*
D14*
X78600000Y-73300000D03*
D15*
X110625000Y-68000000D03*
X117575000Y-68000000D03*
D16*
X84600000Y-65300000D03*
X84600000Y-69300000D03*
D15*
X110625000Y-77000000D03*
X117575000Y-77000000D03*
D17*
X103900000Y-81850000D03*
X103900000Y-79350000D03*
D18*
X94100000Y-62800000D03*
X91100000Y-62800000D03*
X97100000Y-62800000D03*
X103100000Y-62800000D03*
X100100000Y-62800000D03*
D19*
X100910000Y-83825000D03*
X99640000Y-83825000D03*
X98370000Y-83825000D03*
X95830000Y-83825000D03*
X94560000Y-83825000D03*
X93290000Y-83825000D03*
D18*
X103100000Y-77800000D03*
X103100000Y-74800000D03*
X103100000Y-71800000D03*
X103100000Y-68800000D03*
X91100000Y-77800000D03*
X91100000Y-74800000D03*
X91100000Y-68800000D03*
X91100000Y-71800000D03*
X100100000Y-68800000D03*
X97100000Y-68800000D03*
X94100000Y-68800000D03*
X94100000Y-71800000D03*
X100100000Y-71800000D03*
X97100000Y-71800000D03*
X94100000Y-74800000D03*
X100100000Y-74800000D03*
X97100000Y-74800000D03*
X94100000Y-77800000D03*
X100100000Y-77800000D03*
X97100000Y-77800000D03*
X103100000Y-65800000D03*
X91100000Y-65800000D03*
X100100000Y-65800000D03*
X94100000Y-65800000D03*
X97100000Y-65800000D03*
D20*
X81550000Y-68670000D03*
X75050000Y-68670000D03*
X75050000Y-66130000D03*
X81550000Y-66130000D03*
D16*
X87850000Y-79725000D03*
X87850000Y-75725000D03*
D21*
X87600000Y-69150000D03*
X87600000Y-66450000D03*
D22*
X84550000Y-75625000D03*
X84550000Y-79625000D03*
D12*
X91400000Y-114850000D03*
X91400000Y-112950000D03*
X89400000Y-113900000D03*
D16*
X87650000Y-104000000D03*
X87650000Y-108000000D03*
D22*
X84350000Y-107900000D03*
X84350000Y-103900000D03*
D15*
X117475000Y-105000000D03*
X110525000Y-105000000D03*
D20*
X81450000Y-93930000D03*
X74950000Y-93930000D03*
X74950000Y-96470000D03*
X81450000Y-96470000D03*
D18*
X97000000Y-93600000D03*
X94000000Y-93600000D03*
X100000000Y-93600000D03*
X91000000Y-93600000D03*
X103000000Y-93600000D03*
X97000000Y-105600000D03*
X100000000Y-105600000D03*
X94000000Y-105600000D03*
X97000000Y-102600000D03*
X100000000Y-102600000D03*
X94000000Y-102600000D03*
X97000000Y-99600000D03*
X100000000Y-99600000D03*
X94000000Y-99600000D03*
X94000000Y-96600000D03*
X97000000Y-96600000D03*
X100000000Y-96600000D03*
X91000000Y-99600000D03*
X91000000Y-96600000D03*
X91000000Y-102600000D03*
X91000000Y-105600000D03*
X103000000Y-96600000D03*
X103000000Y-99600000D03*
X103000000Y-102600000D03*
X103000000Y-105600000D03*
D19*
X93190000Y-111625000D03*
X94460000Y-111625000D03*
X95730000Y-111625000D03*
X98270000Y-111625000D03*
X99540000Y-111625000D03*
X100810000Y-111625000D03*
D18*
X100000000Y-90600000D03*
X103000000Y-90600000D03*
X97000000Y-90600000D03*
X91000000Y-90600000D03*
X94000000Y-90600000D03*
D21*
X87500000Y-94250000D03*
X87500000Y-96950000D03*
D17*
X103800000Y-107150000D03*
X103800000Y-109650000D03*
D14*
X78500000Y-101100000D03*
D13*
X78500000Y-106100000D03*
D15*
X117475000Y-96000000D03*
X110525000Y-96000000D03*
D16*
X84500000Y-97100000D03*
X84500000Y-93100000D03*
D11*
X119000000Y-113000000D03*
X77000000Y-61000000D03*
D23*
X100800000Y-110600000D03*
X98300000Y-111500000D03*
X98300000Y-109700000D03*
X99550000Y-112400000D03*
X95750000Y-109700000D03*
X98300000Y-110600000D03*
X98300000Y-113300000D03*
X95750000Y-113300000D03*
X94500000Y-109700000D03*
X99550000Y-113300000D03*
X100800000Y-113300000D03*
X97000000Y-109700000D03*
X99550000Y-111500000D03*
X94500000Y-112400000D03*
X97000000Y-113300000D03*
X94500000Y-113300000D03*
X94500000Y-110600000D03*
X95750000Y-111500000D03*
X100800000Y-112400000D03*
X100800000Y-109700000D03*
X98300000Y-112400000D03*
X97000000Y-110600000D03*
X94500000Y-111500000D03*
X95750000Y-110600000D03*
X95750000Y-112400000D03*
X97000000Y-111500000D03*
X100800000Y-111500000D03*
X97000000Y-112400000D03*
X99550000Y-109700000D03*
X99550000Y-110600000D03*
X94600000Y-83700000D03*
X95850000Y-84600000D03*
X95850000Y-82800000D03*
X100900000Y-83700000D03*
X98400000Y-84600000D03*
X98400000Y-81900000D03*
X97100000Y-83700000D03*
X98400000Y-83700000D03*
X99650000Y-84600000D03*
X95850000Y-81900000D03*
X100900000Y-85500000D03*
X97100000Y-81900000D03*
X99650000Y-83700000D03*
X94600000Y-84600000D03*
X99650000Y-85500000D03*
X94600000Y-85500000D03*
X94600000Y-82800000D03*
X98400000Y-82800000D03*
X100900000Y-82800000D03*
X98400000Y-85500000D03*
X94600000Y-81900000D03*
X95850000Y-85500000D03*
X97100000Y-85500000D03*
X95850000Y-83700000D03*
X100900000Y-84600000D03*
X100900000Y-81900000D03*
X97100000Y-82800000D03*
X99650000Y-81900000D03*
X99650000Y-82800000D03*
X97100000Y-84600000D03*
D24*
X94460000Y-114560000D02*
X94460000Y-111625000D01*
X94500000Y-114600000D02*
X94460000Y-114560000D01*
X95450000Y-114850000D02*
X97000000Y-113300000D01*
X91400000Y-114850000D02*
X95450000Y-114850000D01*
X94560000Y-86760000D02*
X94560000Y-83825000D01*
X94600000Y-86800000D02*
X94560000Y-86760000D01*
X95550000Y-87050000D02*
X97100000Y-85500000D01*
X91500000Y-87050000D02*
X95550000Y-87050000D01*
X84600000Y-66000000D02*
X84600000Y-65300000D01*
X83770000Y-66130000D02*
X84600000Y-65300000D01*
X81550000Y-66130000D02*
X83770000Y-66130000D01*
D25*
X117475000Y-96000000D02*
X117475000Y-105000000D01*
X117575000Y-68000000D02*
X117575000Y-77000000D01*
D24*
X115325000Y-65750000D02*
X117575000Y-68000000D01*
X84600000Y-63900000D02*
X88300000Y-60200000D01*
X115325000Y-62525000D02*
X115325000Y-65750000D01*
X84600000Y-65300000D02*
X84600000Y-63900000D01*
X88300000Y-60200000D02*
X110700000Y-60200000D01*
X110700000Y-60200000D02*
X112300000Y-61800000D01*
X112300000Y-61800000D02*
X114600000Y-61800000D01*
X114600000Y-61800000D02*
X115325000Y-62525000D01*
X83670000Y-93930000D02*
X84500000Y-93100000D01*
X81450000Y-93930000D02*
X83670000Y-93930000D01*
X80250000Y-93930000D02*
X81450000Y-93930000D01*
X80195999Y-93984001D02*
X80250000Y-93930000D01*
X82800000Y-100575000D02*
X80195999Y-97970999D01*
X84092202Y-100575000D02*
X82800000Y-100575000D01*
X86200000Y-102682798D02*
X84092202Y-100575000D01*
X80195999Y-97970999D02*
X80195999Y-93984001D01*
X86200000Y-114200000D02*
X86200000Y-102682798D01*
X116875000Y-108425000D02*
X115225000Y-110075000D01*
X115225000Y-110075000D02*
X115225000Y-115775000D01*
X88100000Y-116100000D02*
X86200000Y-114200000D01*
X115225000Y-115775000D02*
X114900000Y-116100000D01*
X114900000Y-116100000D02*
X88100000Y-116100000D01*
X116875000Y-105600000D02*
X117475000Y-105000000D01*
X116875000Y-108425000D02*
X116875000Y-105600000D01*
X93165000Y-111600000D02*
X93190000Y-111625000D01*
X89400000Y-113900000D02*
X89400000Y-112300000D01*
X90075000Y-111625000D02*
X93190000Y-111625000D01*
X89400000Y-112300000D02*
X90075000Y-111625000D01*
X89875000Y-111625000D02*
X90075000Y-111625000D01*
X87650000Y-108000000D02*
X87650000Y-109400000D01*
X89400000Y-111150000D02*
X89200000Y-110950000D01*
X87650000Y-109400000D02*
X89200000Y-110950000D01*
X89200000Y-110950000D02*
X89875000Y-111625000D01*
X89400000Y-111525000D02*
X89400000Y-111150000D01*
X89400000Y-112300000D02*
X89400000Y-111525000D01*
X89625000Y-111750000D02*
X89400000Y-111525000D01*
X93265000Y-83800000D02*
X93290000Y-83825000D01*
X89500000Y-86100000D02*
X89500000Y-84500000D01*
X90550000Y-83825000D02*
X91225000Y-83825000D01*
X87850000Y-79725000D02*
X87850000Y-81125000D01*
X90175000Y-83825000D02*
X91225000Y-83825000D01*
X91225000Y-83825000D02*
X93290000Y-83825000D01*
X89950000Y-83225000D02*
X89650000Y-82925000D01*
X89950000Y-84050000D02*
X89950000Y-83225000D01*
X89650000Y-82925000D02*
X90550000Y-83825000D01*
X87850000Y-81125000D02*
X89650000Y-82925000D01*
X89950000Y-84050000D02*
X90175000Y-83825000D01*
X89500000Y-84500000D02*
X89950000Y-84050000D01*
X75050000Y-68670000D02*
X75050000Y-74275000D01*
X76400000Y-75625000D02*
X84550000Y-75625000D01*
X75050000Y-74275000D02*
X76400000Y-75625000D01*
X78600000Y-78300000D02*
X78600000Y-79125000D01*
X79100000Y-79625000D02*
X84550000Y-79625000D01*
X78600000Y-79125000D02*
X79100000Y-79625000D01*
X82700000Y-107900000D02*
X84350000Y-107900000D01*
X78725000Y-107900000D02*
X82700000Y-107900000D01*
X78500000Y-107675000D02*
X78725000Y-107900000D01*
X78500000Y-106100000D02*
X78500000Y-107675000D01*
X74950000Y-101675000D02*
X74950000Y-96470000D01*
X77175000Y-103900000D02*
X74950000Y-101675000D01*
X84350000Y-103900000D02*
X77175000Y-103900000D01*
X84600000Y-69300000D02*
X87450000Y-69300000D01*
X87450000Y-69300000D02*
X87600000Y-69150000D01*
X87850000Y-73975000D02*
X87850000Y-75725000D01*
X85245000Y-71370000D02*
X87850000Y-73975000D01*
X83050000Y-71370000D02*
X85245000Y-71370000D01*
X81550000Y-69870000D02*
X83050000Y-71370000D01*
X81550000Y-68670000D02*
X81550000Y-69870000D01*
X84500000Y-97100000D02*
X87350000Y-97100000D01*
X87350000Y-97100000D02*
X87500000Y-96950000D01*
X87650000Y-102500000D02*
X87650000Y-104000000D01*
X84625000Y-99475000D02*
X87650000Y-102500000D01*
X83255000Y-99475000D02*
X84625000Y-99475000D01*
X81450000Y-97670000D02*
X83255000Y-99475000D01*
X81450000Y-96470000D02*
X81450000Y-97670000D01*
X87500000Y-94250000D02*
X90350000Y-94250000D01*
X90350000Y-94250000D02*
X91000000Y-93600000D01*
X103800000Y-106400000D02*
X103000000Y-105600000D01*
X103800000Y-107150000D02*
X103800000Y-106400000D01*
X103900000Y-79350000D02*
X103900000Y-78600000D01*
X103900000Y-78600000D02*
X103100000Y-77800000D01*
X87600000Y-66450000D02*
X90450000Y-66450000D01*
X90450000Y-66450000D02*
X91100000Y-65800000D01*
X77330000Y-66130000D02*
X75050000Y-66130000D01*
X78600000Y-73300000D02*
X78600000Y-67400000D01*
X78600000Y-67400000D02*
X77330000Y-66130000D01*
X77230000Y-93930000D02*
X74950000Y-93930000D01*
X78500000Y-101100000D02*
X78500000Y-95200000D01*
X78500000Y-95200000D02*
X77230000Y-93930000D01*
D26*
G36*
X91127000Y-90473000D02*
G01*
X93873000Y-90473000D01*
X93873000Y-90453000D01*
X94127000Y-90453000D01*
X94127000Y-90473000D01*
X96873000Y-90473000D01*
X96873000Y-90453000D01*
X97127000Y-90453000D01*
X97127000Y-90473000D01*
X99873000Y-90473000D01*
X99873000Y-90453000D01*
X100127000Y-90453000D01*
X100127000Y-90473000D01*
X102873000Y-90473000D01*
X102873000Y-90453000D01*
X103127000Y-90453000D01*
X103127000Y-90473000D01*
X103147000Y-90473000D01*
X103147000Y-90727000D01*
X103127000Y-90727000D01*
X103127000Y-93473000D01*
X103147000Y-93473000D01*
X103147000Y-93727000D01*
X103127000Y-93727000D01*
X103127000Y-96473000D01*
X103147000Y-96473000D01*
X103147000Y-96727000D01*
X103127000Y-96727000D01*
X103127000Y-99473000D01*
X103147000Y-99473000D01*
X103147000Y-99727000D01*
X103127000Y-99727000D01*
X103127000Y-102473000D01*
X103147000Y-102473000D01*
X103147000Y-102727000D01*
X103127000Y-102727000D01*
X103127000Y-105473000D01*
X103147000Y-105473000D01*
X103147000Y-105727000D01*
X103127000Y-105727000D01*
X103127000Y-105747000D01*
X102873000Y-105747000D01*
X102873000Y-105727000D01*
X100127000Y-105727000D01*
X100127000Y-105747000D01*
X99873000Y-105747000D01*
X99873000Y-105727000D01*
X97127000Y-105727000D01*
X97127000Y-105747000D01*
X96873000Y-105747000D01*
X96873000Y-105727000D01*
X94127000Y-105727000D01*
X94127000Y-105747000D01*
X93873000Y-105747000D01*
X93873000Y-105727000D01*
X91127000Y-105727000D01*
X91127000Y-105747000D01*
X90873000Y-105747000D01*
X90873000Y-105727000D01*
X90853000Y-105727000D01*
X90853000Y-105473000D01*
X90873000Y-105473000D01*
X90873000Y-102727000D01*
X91127000Y-102727000D01*
X91127000Y-105473000D01*
X93873000Y-105473000D01*
X93873000Y-102727000D01*
X94127000Y-102727000D01*
X94127000Y-105473000D01*
X96873000Y-105473000D01*
X96873000Y-102727000D01*
X97127000Y-102727000D01*
X97127000Y-105473000D01*
X99873000Y-105473000D01*
X99873000Y-102727000D01*
X100127000Y-102727000D01*
X100127000Y-105473000D01*
X102873000Y-105473000D01*
X102873000Y-102727000D01*
X100127000Y-102727000D01*
X99873000Y-102727000D01*
X97127000Y-102727000D01*
X96873000Y-102727000D01*
X94127000Y-102727000D01*
X93873000Y-102727000D01*
X91127000Y-102727000D01*
X90873000Y-102727000D01*
X90853000Y-102727000D01*
X90853000Y-102473000D01*
X90873000Y-102473000D01*
X90873000Y-99727000D01*
X91127000Y-99727000D01*
X91127000Y-102473000D01*
X93873000Y-102473000D01*
X93873000Y-99727000D01*
X94127000Y-99727000D01*
X94127000Y-102473000D01*
X96873000Y-102473000D01*
X96873000Y-99727000D01*
X97127000Y-99727000D01*
X97127000Y-102473000D01*
X99873000Y-102473000D01*
X99873000Y-99727000D01*
X100127000Y-99727000D01*
X100127000Y-102473000D01*
X102873000Y-102473000D01*
X102873000Y-99727000D01*
X100127000Y-99727000D01*
X99873000Y-99727000D01*
X97127000Y-99727000D01*
X96873000Y-99727000D01*
X94127000Y-99727000D01*
X93873000Y-99727000D01*
X91127000Y-99727000D01*
X90873000Y-99727000D01*
X90853000Y-99727000D01*
X90853000Y-99473000D01*
X90873000Y-99473000D01*
X90873000Y-96727000D01*
X91127000Y-96727000D01*
X91127000Y-99473000D01*
X93873000Y-99473000D01*
X93873000Y-96727000D01*
X94127000Y-96727000D01*
X94127000Y-99473000D01*
X96873000Y-99473000D01*
X96873000Y-96727000D01*
X97127000Y-96727000D01*
X97127000Y-99473000D01*
X99873000Y-99473000D01*
X99873000Y-96727000D01*
X100127000Y-96727000D01*
X100127000Y-99473000D01*
X102873000Y-99473000D01*
X102873000Y-96727000D01*
X100127000Y-96727000D01*
X99873000Y-96727000D01*
X97127000Y-96727000D01*
X96873000Y-96727000D01*
X94127000Y-96727000D01*
X93873000Y-96727000D01*
X91127000Y-96727000D01*
X90873000Y-96727000D01*
X90853000Y-96727000D01*
X90853000Y-96473000D01*
X90873000Y-96473000D01*
X90873000Y-93727000D01*
X91127000Y-93727000D01*
X91127000Y-96473000D01*
X93873000Y-96473000D01*
X93873000Y-93727000D01*
X94127000Y-93727000D01*
X94127000Y-96473000D01*
X96873000Y-96473000D01*
X96873000Y-93727000D01*
X97127000Y-93727000D01*
X97127000Y-96473000D01*
X99873000Y-96473000D01*
X99873000Y-93727000D01*
X100127000Y-93727000D01*
X100127000Y-96473000D01*
X102873000Y-96473000D01*
X102873000Y-93727000D01*
X100127000Y-93727000D01*
X99873000Y-93727000D01*
X97127000Y-93727000D01*
X96873000Y-93727000D01*
X94127000Y-93727000D01*
X93873000Y-93727000D01*
X91127000Y-93727000D01*
X90873000Y-93727000D01*
X90853000Y-93727000D01*
X90853000Y-93473000D01*
X90873000Y-93473000D01*
X90873000Y-90727000D01*
X91127000Y-90727000D01*
X91127000Y-93473000D01*
X93873000Y-93473000D01*
X93873000Y-90727000D01*
X94127000Y-90727000D01*
X94127000Y-93473000D01*
X96873000Y-93473000D01*
X96873000Y-90727000D01*
X97127000Y-90727000D01*
X97127000Y-93473000D01*
X99873000Y-93473000D01*
X99873000Y-90727000D01*
X100127000Y-90727000D01*
X100127000Y-93473000D01*
X102873000Y-93473000D01*
X102873000Y-90727000D01*
X100127000Y-90727000D01*
X99873000Y-90727000D01*
X97127000Y-90727000D01*
X96873000Y-90727000D01*
X94127000Y-90727000D01*
X93873000Y-90727000D01*
X91127000Y-90727000D01*
X90873000Y-90727000D01*
X90853000Y-90727000D01*
X90853000Y-90473000D01*
X90873000Y-90473000D01*
X90873000Y-90453000D01*
X91127000Y-90453000D01*
X91127000Y-90473000D01*
G37*
X91127000Y-90473000D02*
X93873000Y-90473000D01*
X93873000Y-90453000D01*
X94127000Y-90453000D01*
X94127000Y-90473000D01*
X96873000Y-90473000D01*
X96873000Y-90453000D01*
X97127000Y-90453000D01*
X97127000Y-90473000D01*
X99873000Y-90473000D01*
X99873000Y-90453000D01*
X100127000Y-90453000D01*
X100127000Y-90473000D01*
X102873000Y-90473000D01*
X102873000Y-90453000D01*
X103127000Y-90453000D01*
X103127000Y-90473000D01*
X103147000Y-90473000D01*
X103147000Y-90727000D01*
X103127000Y-90727000D01*
X103127000Y-93473000D01*
X103147000Y-93473000D01*
X103147000Y-93727000D01*
X103127000Y-93727000D01*
X103127000Y-96473000D01*
X103147000Y-96473000D01*
X103147000Y-96727000D01*
X103127000Y-96727000D01*
X103127000Y-99473000D01*
X103147000Y-99473000D01*
X103147000Y-99727000D01*
X103127000Y-99727000D01*
X103127000Y-102473000D01*
X103147000Y-102473000D01*
X103147000Y-102727000D01*
X103127000Y-102727000D01*
X103127000Y-105473000D01*
X103147000Y-105473000D01*
X103147000Y-105727000D01*
X103127000Y-105727000D01*
X103127000Y-105747000D01*
X102873000Y-105747000D01*
X102873000Y-105727000D01*
X100127000Y-105727000D01*
X100127000Y-105747000D01*
X99873000Y-105747000D01*
X99873000Y-105727000D01*
X97127000Y-105727000D01*
X97127000Y-105747000D01*
X96873000Y-105747000D01*
X96873000Y-105727000D01*
X94127000Y-105727000D01*
X94127000Y-105747000D01*
X93873000Y-105747000D01*
X93873000Y-105727000D01*
X91127000Y-105727000D01*
X91127000Y-105747000D01*
X90873000Y-105747000D01*
X90873000Y-105727000D01*
X90853000Y-105727000D01*
X90853000Y-105473000D01*
X90873000Y-105473000D01*
X90873000Y-102727000D01*
X91127000Y-102727000D01*
X91127000Y-105473000D01*
X93873000Y-105473000D01*
X93873000Y-102727000D01*
X94127000Y-102727000D01*
X94127000Y-105473000D01*
X96873000Y-105473000D01*
X96873000Y-102727000D01*
X97127000Y-102727000D01*
X97127000Y-105473000D01*
X99873000Y-105473000D01*
X99873000Y-102727000D01*
X100127000Y-102727000D01*
X100127000Y-105473000D01*
X102873000Y-105473000D01*
X102873000Y-102727000D01*
X100127000Y-102727000D01*
X99873000Y-102727000D01*
X97127000Y-102727000D01*
X96873000Y-102727000D01*
X94127000Y-102727000D01*
X93873000Y-102727000D01*
X91127000Y-102727000D01*
X90873000Y-102727000D01*
X90853000Y-102727000D01*
X90853000Y-102473000D01*
X90873000Y-102473000D01*
X90873000Y-99727000D01*
X91127000Y-99727000D01*
X91127000Y-102473000D01*
X93873000Y-102473000D01*
X93873000Y-99727000D01*
X94127000Y-99727000D01*
X94127000Y-102473000D01*
X96873000Y-102473000D01*
X96873000Y-99727000D01*
X97127000Y-99727000D01*
X97127000Y-102473000D01*
X99873000Y-102473000D01*
X99873000Y-99727000D01*
X100127000Y-99727000D01*
X100127000Y-102473000D01*
X102873000Y-102473000D01*
X102873000Y-99727000D01*
X100127000Y-99727000D01*
X99873000Y-99727000D01*
X97127000Y-99727000D01*
X96873000Y-99727000D01*
X94127000Y-99727000D01*
X93873000Y-99727000D01*
X91127000Y-99727000D01*
X90873000Y-99727000D01*
X90853000Y-99727000D01*
X90853000Y-99473000D01*
X90873000Y-99473000D01*
X90873000Y-96727000D01*
X91127000Y-96727000D01*
X91127000Y-99473000D01*
X93873000Y-99473000D01*
X93873000Y-96727000D01*
X94127000Y-96727000D01*
X94127000Y-99473000D01*
X96873000Y-99473000D01*
X96873000Y-96727000D01*
X97127000Y-96727000D01*
X97127000Y-99473000D01*
X99873000Y-99473000D01*
X99873000Y-96727000D01*
X100127000Y-96727000D01*
X100127000Y-99473000D01*
X102873000Y-99473000D01*
X102873000Y-96727000D01*
X100127000Y-96727000D01*
X99873000Y-96727000D01*
X97127000Y-96727000D01*
X96873000Y-96727000D01*
X94127000Y-96727000D01*
X93873000Y-96727000D01*
X91127000Y-96727000D01*
X90873000Y-96727000D01*
X90853000Y-96727000D01*
X90853000Y-96473000D01*
X90873000Y-96473000D01*
X90873000Y-93727000D01*
X91127000Y-93727000D01*
X91127000Y-96473000D01*
X93873000Y-96473000D01*
X93873000Y-93727000D01*
X94127000Y-93727000D01*
X94127000Y-96473000D01*
X96873000Y-96473000D01*
X96873000Y-93727000D01*
X97127000Y-93727000D01*
X97127000Y-96473000D01*
X99873000Y-96473000D01*
X99873000Y-93727000D01*
X100127000Y-93727000D01*
X100127000Y-96473000D01*
X102873000Y-96473000D01*
X102873000Y-93727000D01*
X100127000Y-93727000D01*
X99873000Y-93727000D01*
X97127000Y-93727000D01*
X96873000Y-93727000D01*
X94127000Y-93727000D01*
X93873000Y-93727000D01*
X91127000Y-93727000D01*
X90873000Y-93727000D01*
X90853000Y-93727000D01*
X90853000Y-93473000D01*
X90873000Y-93473000D01*
X90873000Y-90727000D01*
X91127000Y-90727000D01*
X91127000Y-93473000D01*
X93873000Y-93473000D01*
X93873000Y-90727000D01*
X94127000Y-90727000D01*
X94127000Y-93473000D01*
X96873000Y-93473000D01*
X96873000Y-90727000D01*
X97127000Y-90727000D01*
X97127000Y-93473000D01*
X99873000Y-93473000D01*
X99873000Y-90727000D01*
X100127000Y-90727000D01*
X100127000Y-93473000D01*
X102873000Y-93473000D01*
X102873000Y-90727000D01*
X100127000Y-90727000D01*
X99873000Y-90727000D01*
X97127000Y-90727000D01*
X96873000Y-90727000D01*
X94127000Y-90727000D01*
X93873000Y-90727000D01*
X91127000Y-90727000D01*
X90873000Y-90727000D01*
X90853000Y-90727000D01*
X90853000Y-90473000D01*
X90873000Y-90473000D01*
X90873000Y-90453000D01*
X91127000Y-90453000D01*
X91127000Y-90473000D01*
G36*
X113873000Y-115473000D02*
G01*
X94127000Y-115473000D01*
X94127000Y-109227000D01*
X105000000Y-109227000D01*
X105024776Y-109224560D01*
X105048601Y-109217333D01*
X105070557Y-109205597D01*
X105089803Y-109189803D01*
X105105597Y-109170557D01*
X105117333Y-109148601D01*
X105124560Y-109124776D01*
X105127000Y-109100000D01*
X105127000Y-101127000D01*
X113873000Y-101127000D01*
X113873000Y-115473000D01*
G37*
X113873000Y-115473000D02*
X94127000Y-115473000D01*
X94127000Y-109227000D01*
X105000000Y-109227000D01*
X105024776Y-109224560D01*
X105048601Y-109217333D01*
X105070557Y-109205597D01*
X105089803Y-109189803D01*
X105105597Y-109170557D01*
X105117333Y-109148601D01*
X105124560Y-109124776D01*
X105127000Y-109100000D01*
X105127000Y-101127000D01*
X113873000Y-101127000D01*
X113873000Y-115473000D01*
G36*
X113873000Y-100373259D02*
G01*
X89627000Y-100422740D01*
X89627000Y-90726483D01*
X113873000Y-90627519D01*
X113873000Y-100373259D01*
G37*
X113873000Y-100373259D02*
X89627000Y-100422740D01*
X89627000Y-90726483D01*
X113873000Y-90627519D01*
X113873000Y-100373259D01*
G36*
X91227000Y-62673000D02*
G01*
X93973000Y-62673000D01*
X93973000Y-62653000D01*
X94227000Y-62653000D01*
X94227000Y-62673000D01*
X96973000Y-62673000D01*
X96973000Y-62653000D01*
X97227000Y-62653000D01*
X97227000Y-62673000D01*
X99973000Y-62673000D01*
X99973000Y-62653000D01*
X100227000Y-62653000D01*
X100227000Y-62673000D01*
X102973000Y-62673000D01*
X102973000Y-62653000D01*
X103227000Y-62653000D01*
X103227000Y-62673000D01*
X103247000Y-62673000D01*
X103247000Y-62927000D01*
X103227000Y-62927000D01*
X103227000Y-65673000D01*
X103247000Y-65673000D01*
X103247000Y-65927000D01*
X103227000Y-65927000D01*
X103227000Y-68673000D01*
X103247000Y-68673000D01*
X103247000Y-68927000D01*
X103227000Y-68927000D01*
X103227000Y-71673000D01*
X103247000Y-71673000D01*
X103247000Y-71927000D01*
X103227000Y-71927000D01*
X103227000Y-74673000D01*
X103247000Y-74673000D01*
X103247000Y-74927000D01*
X103227000Y-74927000D01*
X103227000Y-77673000D01*
X103247000Y-77673000D01*
X103247000Y-77927000D01*
X103227000Y-77927000D01*
X103227000Y-77947000D01*
X102973000Y-77947000D01*
X102973000Y-77927000D01*
X100227000Y-77927000D01*
X100227000Y-77947000D01*
X99973000Y-77947000D01*
X99973000Y-77927000D01*
X97227000Y-77927000D01*
X97227000Y-77947000D01*
X96973000Y-77947000D01*
X96973000Y-77927000D01*
X94227000Y-77927000D01*
X94227000Y-77947000D01*
X93973000Y-77947000D01*
X93973000Y-77927000D01*
X91227000Y-77927000D01*
X91227000Y-77947000D01*
X90973000Y-77947000D01*
X90973000Y-77927000D01*
X90953000Y-77927000D01*
X90953000Y-77673000D01*
X90973000Y-77673000D01*
X90973000Y-74927000D01*
X91227000Y-74927000D01*
X91227000Y-77673000D01*
X93973000Y-77673000D01*
X93973000Y-74927000D01*
X94227000Y-74927000D01*
X94227000Y-77673000D01*
X96973000Y-77673000D01*
X96973000Y-74927000D01*
X97227000Y-74927000D01*
X97227000Y-77673000D01*
X99973000Y-77673000D01*
X99973000Y-74927000D01*
X100227000Y-74927000D01*
X100227000Y-77673000D01*
X102973000Y-77673000D01*
X102973000Y-74927000D01*
X100227000Y-74927000D01*
X99973000Y-74927000D01*
X97227000Y-74927000D01*
X96973000Y-74927000D01*
X94227000Y-74927000D01*
X93973000Y-74927000D01*
X91227000Y-74927000D01*
X90973000Y-74927000D01*
X90953000Y-74927000D01*
X90953000Y-74673000D01*
X90973000Y-74673000D01*
X90973000Y-71927000D01*
X91227000Y-71927000D01*
X91227000Y-74673000D01*
X93973000Y-74673000D01*
X93973000Y-71927000D01*
X94227000Y-71927000D01*
X94227000Y-74673000D01*
X96973000Y-74673000D01*
X96973000Y-71927000D01*
X97227000Y-71927000D01*
X97227000Y-74673000D01*
X99973000Y-74673000D01*
X99973000Y-71927000D01*
X100227000Y-71927000D01*
X100227000Y-74673000D01*
X102973000Y-74673000D01*
X102973000Y-71927000D01*
X100227000Y-71927000D01*
X99973000Y-71927000D01*
X97227000Y-71927000D01*
X96973000Y-71927000D01*
X94227000Y-71927000D01*
X93973000Y-71927000D01*
X91227000Y-71927000D01*
X90973000Y-71927000D01*
X90953000Y-71927000D01*
X90953000Y-71673000D01*
X90973000Y-71673000D01*
X90973000Y-68927000D01*
X91227000Y-68927000D01*
X91227000Y-71673000D01*
X93973000Y-71673000D01*
X93973000Y-68927000D01*
X94227000Y-68927000D01*
X94227000Y-71673000D01*
X96973000Y-71673000D01*
X96973000Y-68927000D01*
X97227000Y-68927000D01*
X97227000Y-71673000D01*
X99973000Y-71673000D01*
X99973000Y-68927000D01*
X100227000Y-68927000D01*
X100227000Y-71673000D01*
X102973000Y-71673000D01*
X102973000Y-68927000D01*
X100227000Y-68927000D01*
X99973000Y-68927000D01*
X97227000Y-68927000D01*
X96973000Y-68927000D01*
X94227000Y-68927000D01*
X93973000Y-68927000D01*
X91227000Y-68927000D01*
X90973000Y-68927000D01*
X90953000Y-68927000D01*
X90953000Y-68673000D01*
X90973000Y-68673000D01*
X90973000Y-65927000D01*
X91227000Y-65927000D01*
X91227000Y-68673000D01*
X93973000Y-68673000D01*
X93973000Y-65927000D01*
X94227000Y-65927000D01*
X94227000Y-68673000D01*
X96973000Y-68673000D01*
X96973000Y-65927000D01*
X97227000Y-65927000D01*
X97227000Y-68673000D01*
X99973000Y-68673000D01*
X99973000Y-65927000D01*
X100227000Y-65927000D01*
X100227000Y-68673000D01*
X102973000Y-68673000D01*
X102973000Y-65927000D01*
X100227000Y-65927000D01*
X99973000Y-65927000D01*
X97227000Y-65927000D01*
X96973000Y-65927000D01*
X94227000Y-65927000D01*
X93973000Y-65927000D01*
X91227000Y-65927000D01*
X90973000Y-65927000D01*
X90953000Y-65927000D01*
X90953000Y-65673000D01*
X90973000Y-65673000D01*
X90973000Y-62927000D01*
X91227000Y-62927000D01*
X91227000Y-65673000D01*
X93973000Y-65673000D01*
X93973000Y-62927000D01*
X94227000Y-62927000D01*
X94227000Y-65673000D01*
X96973000Y-65673000D01*
X96973000Y-62927000D01*
X97227000Y-62927000D01*
X97227000Y-65673000D01*
X99973000Y-65673000D01*
X99973000Y-62927000D01*
X100227000Y-62927000D01*
X100227000Y-65673000D01*
X102973000Y-65673000D01*
X102973000Y-62927000D01*
X100227000Y-62927000D01*
X99973000Y-62927000D01*
X97227000Y-62927000D01*
X96973000Y-62927000D01*
X94227000Y-62927000D01*
X93973000Y-62927000D01*
X91227000Y-62927000D01*
X90973000Y-62927000D01*
X90953000Y-62927000D01*
X90953000Y-62673000D01*
X90973000Y-62673000D01*
X90973000Y-62653000D01*
X91227000Y-62653000D01*
X91227000Y-62673000D01*
G37*
X91227000Y-62673000D02*
X93973000Y-62673000D01*
X93973000Y-62653000D01*
X94227000Y-62653000D01*
X94227000Y-62673000D01*
X96973000Y-62673000D01*
X96973000Y-62653000D01*
X97227000Y-62653000D01*
X97227000Y-62673000D01*
X99973000Y-62673000D01*
X99973000Y-62653000D01*
X100227000Y-62653000D01*
X100227000Y-62673000D01*
X102973000Y-62673000D01*
X102973000Y-62653000D01*
X103227000Y-62653000D01*
X103227000Y-62673000D01*
X103247000Y-62673000D01*
X103247000Y-62927000D01*
X103227000Y-62927000D01*
X103227000Y-65673000D01*
X103247000Y-65673000D01*
X103247000Y-65927000D01*
X103227000Y-65927000D01*
X103227000Y-68673000D01*
X103247000Y-68673000D01*
X103247000Y-68927000D01*
X103227000Y-68927000D01*
X103227000Y-71673000D01*
X103247000Y-71673000D01*
X103247000Y-71927000D01*
X103227000Y-71927000D01*
X103227000Y-74673000D01*
X103247000Y-74673000D01*
X103247000Y-74927000D01*
X103227000Y-74927000D01*
X103227000Y-77673000D01*
X103247000Y-77673000D01*
X103247000Y-77927000D01*
X103227000Y-77927000D01*
X103227000Y-77947000D01*
X102973000Y-77947000D01*
X102973000Y-77927000D01*
X100227000Y-77927000D01*
X100227000Y-77947000D01*
X99973000Y-77947000D01*
X99973000Y-77927000D01*
X97227000Y-77927000D01*
X97227000Y-77947000D01*
X96973000Y-77947000D01*
X96973000Y-77927000D01*
X94227000Y-77927000D01*
X94227000Y-77947000D01*
X93973000Y-77947000D01*
X93973000Y-77927000D01*
X91227000Y-77927000D01*
X91227000Y-77947000D01*
X90973000Y-77947000D01*
X90973000Y-77927000D01*
X90953000Y-77927000D01*
X90953000Y-77673000D01*
X90973000Y-77673000D01*
X90973000Y-74927000D01*
X91227000Y-74927000D01*
X91227000Y-77673000D01*
X93973000Y-77673000D01*
X93973000Y-74927000D01*
X94227000Y-74927000D01*
X94227000Y-77673000D01*
X96973000Y-77673000D01*
X96973000Y-74927000D01*
X97227000Y-74927000D01*
X97227000Y-77673000D01*
X99973000Y-77673000D01*
X99973000Y-74927000D01*
X100227000Y-74927000D01*
X100227000Y-77673000D01*
X102973000Y-77673000D01*
X102973000Y-74927000D01*
X100227000Y-74927000D01*
X99973000Y-74927000D01*
X97227000Y-74927000D01*
X96973000Y-74927000D01*
X94227000Y-74927000D01*
X93973000Y-74927000D01*
X91227000Y-74927000D01*
X90973000Y-74927000D01*
X90953000Y-74927000D01*
X90953000Y-74673000D01*
X90973000Y-74673000D01*
X90973000Y-71927000D01*
X91227000Y-71927000D01*
X91227000Y-74673000D01*
X93973000Y-74673000D01*
X93973000Y-71927000D01*
X94227000Y-71927000D01*
X94227000Y-74673000D01*
X96973000Y-74673000D01*
X96973000Y-71927000D01*
X97227000Y-71927000D01*
X97227000Y-74673000D01*
X99973000Y-74673000D01*
X99973000Y-71927000D01*
X100227000Y-71927000D01*
X100227000Y-74673000D01*
X102973000Y-74673000D01*
X102973000Y-71927000D01*
X100227000Y-71927000D01*
X99973000Y-71927000D01*
X97227000Y-71927000D01*
X96973000Y-71927000D01*
X94227000Y-71927000D01*
X93973000Y-71927000D01*
X91227000Y-71927000D01*
X90973000Y-71927000D01*
X90953000Y-71927000D01*
X90953000Y-71673000D01*
X90973000Y-71673000D01*
X90973000Y-68927000D01*
X91227000Y-68927000D01*
X91227000Y-71673000D01*
X93973000Y-71673000D01*
X93973000Y-68927000D01*
X94227000Y-68927000D01*
X94227000Y-71673000D01*
X96973000Y-71673000D01*
X96973000Y-68927000D01*
X97227000Y-68927000D01*
X97227000Y-71673000D01*
X99973000Y-71673000D01*
X99973000Y-68927000D01*
X100227000Y-68927000D01*
X100227000Y-71673000D01*
X102973000Y-71673000D01*
X102973000Y-68927000D01*
X100227000Y-68927000D01*
X99973000Y-68927000D01*
X97227000Y-68927000D01*
X96973000Y-68927000D01*
X94227000Y-68927000D01*
X93973000Y-68927000D01*
X91227000Y-68927000D01*
X90973000Y-68927000D01*
X90953000Y-68927000D01*
X90953000Y-68673000D01*
X90973000Y-68673000D01*
X90973000Y-65927000D01*
X91227000Y-65927000D01*
X91227000Y-68673000D01*
X93973000Y-68673000D01*
X93973000Y-65927000D01*
X94227000Y-65927000D01*
X94227000Y-68673000D01*
X96973000Y-68673000D01*
X96973000Y-65927000D01*
X97227000Y-65927000D01*
X97227000Y-68673000D01*
X99973000Y-68673000D01*
X99973000Y-65927000D01*
X100227000Y-65927000D01*
X100227000Y-68673000D01*
X102973000Y-68673000D01*
X102973000Y-65927000D01*
X100227000Y-65927000D01*
X99973000Y-65927000D01*
X97227000Y-65927000D01*
X96973000Y-65927000D01*
X94227000Y-65927000D01*
X93973000Y-65927000D01*
X91227000Y-65927000D01*
X90973000Y-65927000D01*
X90953000Y-65927000D01*
X90953000Y-65673000D01*
X90973000Y-65673000D01*
X90973000Y-62927000D01*
X91227000Y-62927000D01*
X91227000Y-65673000D01*
X93973000Y-65673000D01*
X93973000Y-62927000D01*
X94227000Y-62927000D01*
X94227000Y-65673000D01*
X96973000Y-65673000D01*
X96973000Y-62927000D01*
X97227000Y-62927000D01*
X97227000Y-65673000D01*
X99973000Y-65673000D01*
X99973000Y-62927000D01*
X100227000Y-62927000D01*
X100227000Y-65673000D01*
X102973000Y-65673000D01*
X102973000Y-62927000D01*
X100227000Y-62927000D01*
X99973000Y-62927000D01*
X97227000Y-62927000D01*
X96973000Y-62927000D01*
X94227000Y-62927000D01*
X93973000Y-62927000D01*
X91227000Y-62927000D01*
X90973000Y-62927000D01*
X90953000Y-62927000D01*
X90953000Y-62673000D01*
X90973000Y-62673000D01*
X90973000Y-62653000D01*
X91227000Y-62653000D01*
X91227000Y-62673000D01*
G36*
X113973000Y-87673000D02*
G01*
X94227000Y-87673000D01*
X94227000Y-81427000D01*
X105100000Y-81427000D01*
X105124776Y-81424560D01*
X105148601Y-81417333D01*
X105170557Y-81405597D01*
X105189803Y-81389803D01*
X105205597Y-81370557D01*
X105217333Y-81348601D01*
X105224560Y-81324776D01*
X105227000Y-81300000D01*
X105227000Y-73127000D01*
X113973000Y-73127000D01*
X113973000Y-87673000D01*
G37*
X113973000Y-87673000D02*
X94227000Y-87673000D01*
X94227000Y-81427000D01*
X105100000Y-81427000D01*
X105124776Y-81424560D01*
X105148601Y-81417333D01*
X105170557Y-81405597D01*
X105189803Y-81389803D01*
X105205597Y-81370557D01*
X105217333Y-81348601D01*
X105224560Y-81324776D01*
X105227000Y-81300000D01*
X105227000Y-73127000D01*
X113973000Y-73127000D01*
X113973000Y-87673000D01*
G36*
X113873000Y-72373261D02*
G01*
X89875057Y-72422742D01*
X89728965Y-62926736D01*
X113873000Y-62877261D01*
X113873000Y-72373261D01*
G37*
X113873000Y-72373261D02*
X89875057Y-72422742D01*
X89728965Y-62926736D01*
X113873000Y-62877261D01*
X113873000Y-72373261D01*
M02*
