G04 #@! TF.GenerationSoftware,KiCad,Pcbnew,(5.1.5)-3*
G04 #@! TF.CreationDate,2020-03-15T22:31:00-04:00*
G04 #@! TF.ProjectId,MOSTERFET,4d4f5354-4552-4464-9554-2e6b69636164,1.1*
G04 #@! TF.SameCoordinates,Original*
G04 #@! TF.FileFunction,Legend,Top*
G04 #@! TF.FilePolarity,Positive*
%FSLAX46Y46*%
G04 Gerber Fmt 4.6, Leading zero omitted, Abs format (unit mm)*
G04 Created by KiCad (PCBNEW (5.1.5)-3) date 2020-03-15 22:31:00*
%MOMM*%
%LPD*%
G04 APERTURE LIST*
%ADD10C,0.150000*%
%ADD11C,0.200000*%
%ADD12C,0.100000*%
%ADD13C,0.120000*%
%ADD14C,0.300000*%
%ADD15C,0.010000*%
%ADD16C,0.250000*%
G04 APERTURE END LIST*
D10*
X74666666Y-117000000D02*
G75*
G03X74666666Y-117000000I-1666666J0D01*
G01*
X70500000Y-117000000D02*
X75500000Y-117000000D01*
X73000000Y-114500000D02*
X73000000Y-119500000D01*
D11*
X104552380Y-98248809D02*
X104552380Y-98058333D01*
X104600000Y-97963095D01*
X104695238Y-97867857D01*
X104885714Y-97820238D01*
X105219047Y-97820238D01*
X105409523Y-97867857D01*
X105504761Y-97963095D01*
X105552380Y-98058333D01*
X105552380Y-98248809D01*
X105504761Y-98344047D01*
X105409523Y-98439285D01*
X105219047Y-98486904D01*
X104885714Y-98486904D01*
X104695238Y-98439285D01*
X104600000Y-98344047D01*
X104552380Y-98248809D01*
X104885714Y-96963095D02*
X105552380Y-96963095D01*
X104885714Y-97391666D02*
X105409523Y-97391666D01*
X105504761Y-97344047D01*
X105552380Y-97248809D01*
X105552380Y-97105952D01*
X105504761Y-97010714D01*
X105457142Y-96963095D01*
X104885714Y-96629761D02*
X104885714Y-96248809D01*
X104552380Y-96486904D02*
X105409523Y-96486904D01*
X105504761Y-96439285D01*
X105552380Y-96344047D01*
X105552380Y-96248809D01*
X104885714Y-95915476D02*
X105885714Y-95915476D01*
X104933333Y-95915476D02*
X104885714Y-95820238D01*
X104885714Y-95629761D01*
X104933333Y-95534523D01*
X104980952Y-95486904D01*
X105076190Y-95439285D01*
X105361904Y-95439285D01*
X105457142Y-95486904D01*
X105504761Y-95534523D01*
X105552380Y-95629761D01*
X105552380Y-95820238D01*
X105504761Y-95915476D01*
X104885714Y-94582142D02*
X105552380Y-94582142D01*
X104885714Y-95010714D02*
X105409523Y-95010714D01*
X105504761Y-94963095D01*
X105552380Y-94867857D01*
X105552380Y-94725000D01*
X105504761Y-94629761D01*
X105457142Y-94582142D01*
X104885714Y-94248809D02*
X104885714Y-93867857D01*
X104552380Y-94105952D02*
X105409523Y-94105952D01*
X105504761Y-94058333D01*
X105552380Y-93963095D01*
X105552380Y-93867857D01*
X105802380Y-106926190D02*
X104802380Y-106926190D01*
X104802380Y-106545238D01*
X104850000Y-106450000D01*
X104897619Y-106402380D01*
X104992857Y-106354761D01*
X105135714Y-106354761D01*
X105230952Y-106402380D01*
X105278571Y-106450000D01*
X105326190Y-106545238D01*
X105326190Y-106926190D01*
X105802380Y-105783333D02*
X105754761Y-105878571D01*
X105707142Y-105926190D01*
X105611904Y-105973809D01*
X105326190Y-105973809D01*
X105230952Y-105926190D01*
X105183333Y-105878571D01*
X105135714Y-105783333D01*
X105135714Y-105640476D01*
X105183333Y-105545238D01*
X105230952Y-105497619D01*
X105326190Y-105450000D01*
X105611904Y-105450000D01*
X105707142Y-105497619D01*
X105754761Y-105545238D01*
X105802380Y-105640476D01*
X105802380Y-105783333D01*
X105135714Y-105116666D02*
X105802380Y-104926190D01*
X105326190Y-104735714D01*
X105802380Y-104545238D01*
X105135714Y-104354761D01*
X105754761Y-103592857D02*
X105802380Y-103688095D01*
X105802380Y-103878571D01*
X105754761Y-103973809D01*
X105659523Y-104021428D01*
X105278571Y-104021428D01*
X105183333Y-103973809D01*
X105135714Y-103878571D01*
X105135714Y-103688095D01*
X105183333Y-103592857D01*
X105278571Y-103545238D01*
X105373809Y-103545238D01*
X105469047Y-104021428D01*
X105802380Y-103116666D02*
X105135714Y-103116666D01*
X105326190Y-103116666D02*
X105230952Y-103069047D01*
X105183333Y-103021428D01*
X105135714Y-102926190D01*
X105135714Y-102830952D01*
X104802380Y-70248809D02*
X104802380Y-70058333D01*
X104850000Y-69963095D01*
X104945238Y-69867857D01*
X105135714Y-69820238D01*
X105469047Y-69820238D01*
X105659523Y-69867857D01*
X105754761Y-69963095D01*
X105802380Y-70058333D01*
X105802380Y-70248809D01*
X105754761Y-70344047D01*
X105659523Y-70439285D01*
X105469047Y-70486904D01*
X105135714Y-70486904D01*
X104945238Y-70439285D01*
X104850000Y-70344047D01*
X104802380Y-70248809D01*
X105135714Y-68963095D02*
X105802380Y-68963095D01*
X105135714Y-69391666D02*
X105659523Y-69391666D01*
X105754761Y-69344047D01*
X105802380Y-69248809D01*
X105802380Y-69105952D01*
X105754761Y-69010714D01*
X105707142Y-68963095D01*
X105135714Y-68629761D02*
X105135714Y-68248809D01*
X104802380Y-68486904D02*
X105659523Y-68486904D01*
X105754761Y-68439285D01*
X105802380Y-68344047D01*
X105802380Y-68248809D01*
X105135714Y-67915476D02*
X106135714Y-67915476D01*
X105183333Y-67915476D02*
X105135714Y-67820238D01*
X105135714Y-67629761D01*
X105183333Y-67534523D01*
X105230952Y-67486904D01*
X105326190Y-67439285D01*
X105611904Y-67439285D01*
X105707142Y-67486904D01*
X105754761Y-67534523D01*
X105802380Y-67629761D01*
X105802380Y-67820238D01*
X105754761Y-67915476D01*
X105135714Y-66582142D02*
X105802380Y-66582142D01*
X105135714Y-67010714D02*
X105659523Y-67010714D01*
X105754761Y-66963095D01*
X105802380Y-66867857D01*
X105802380Y-66725000D01*
X105754761Y-66629761D01*
X105707142Y-66582142D01*
X105135714Y-66248809D02*
X105135714Y-65867857D01*
X104802380Y-66105952D02*
X105659523Y-66105952D01*
X105754761Y-66058333D01*
X105802380Y-65963095D01*
X105802380Y-65867857D01*
X105902380Y-78976190D02*
X104902380Y-78976190D01*
X104902380Y-78595238D01*
X104950000Y-78500000D01*
X104997619Y-78452380D01*
X105092857Y-78404761D01*
X105235714Y-78404761D01*
X105330952Y-78452380D01*
X105378571Y-78500000D01*
X105426190Y-78595238D01*
X105426190Y-78976190D01*
X105902380Y-77833333D02*
X105854761Y-77928571D01*
X105807142Y-77976190D01*
X105711904Y-78023809D01*
X105426190Y-78023809D01*
X105330952Y-77976190D01*
X105283333Y-77928571D01*
X105235714Y-77833333D01*
X105235714Y-77690476D01*
X105283333Y-77595238D01*
X105330952Y-77547619D01*
X105426190Y-77500000D01*
X105711904Y-77500000D01*
X105807142Y-77547619D01*
X105854761Y-77595238D01*
X105902380Y-77690476D01*
X105902380Y-77833333D01*
X105235714Y-77166666D02*
X105902380Y-76976190D01*
X105426190Y-76785714D01*
X105902380Y-76595238D01*
X105235714Y-76404761D01*
X105854761Y-75642857D02*
X105902380Y-75738095D01*
X105902380Y-75928571D01*
X105854761Y-76023809D01*
X105759523Y-76071428D01*
X105378571Y-76071428D01*
X105283333Y-76023809D01*
X105235714Y-75928571D01*
X105235714Y-75738095D01*
X105283333Y-75642857D01*
X105378571Y-75595238D01*
X105473809Y-75595238D01*
X105569047Y-76071428D01*
X105902380Y-75166666D02*
X105235714Y-75166666D01*
X105426190Y-75166666D02*
X105330952Y-75119047D01*
X105283333Y-75071428D01*
X105235714Y-74976190D01*
X105235714Y-74880952D01*
D10*
X73000000Y-117000000D02*
X123000000Y-117000000D01*
X73000000Y-57000000D02*
X123000000Y-57000000D01*
X123000000Y-117000000D02*
X123000000Y-57000000D01*
X73000000Y-117000000D02*
X73000000Y-57000000D01*
D12*
X97560238Y-58652380D02*
X97893571Y-59652380D01*
X98226904Y-58652380D01*
X98941190Y-59604761D02*
X98845952Y-59652380D01*
X98655476Y-59652380D01*
X98560238Y-59604761D01*
X98512619Y-59509523D01*
X98512619Y-59128571D01*
X98560238Y-59033333D01*
X98655476Y-58985714D01*
X98845952Y-58985714D01*
X98941190Y-59033333D01*
X98988809Y-59128571D01*
X98988809Y-59223809D01*
X98512619Y-59319047D01*
X99417380Y-59652380D02*
X99417380Y-58985714D01*
X99417380Y-59176190D02*
X99465000Y-59080952D01*
X99512619Y-59033333D01*
X99607857Y-58985714D01*
X99703095Y-58985714D01*
X101322142Y-59652380D02*
X100750714Y-59652380D01*
X101036428Y-59652380D02*
X101036428Y-58652380D01*
X100941190Y-58795238D01*
X100845952Y-58890476D01*
X100750714Y-58938095D01*
X101750714Y-59557142D02*
X101798333Y-59604761D01*
X101750714Y-59652380D01*
X101703095Y-59604761D01*
X101750714Y-59557142D01*
X101750714Y-59652380D01*
X102750714Y-59652380D02*
X102179285Y-59652380D01*
X102465000Y-59652380D02*
X102465000Y-58652380D01*
X102369761Y-58795238D01*
X102274523Y-58890476D01*
X102179285Y-58938095D01*
D10*
X73000000Y-117000000D02*
X73250000Y-117000000D01*
X73000000Y-117000000D02*
X121000000Y-117000000D01*
D13*
X89740000Y-84520000D02*
X91200000Y-84520000D01*
X89740000Y-87680000D02*
X91900000Y-87680000D01*
X89740000Y-87680000D02*
X89740000Y-86750000D01*
X89740000Y-84520000D02*
X89740000Y-85450000D01*
X78900000Y-69880000D02*
X78600000Y-70480000D01*
X78300000Y-69880000D02*
X78900000Y-69880000D01*
X78600000Y-70480000D02*
X78300000Y-69880000D01*
X82420000Y-80920000D02*
X82420000Y-70680000D01*
X73680000Y-80920000D02*
X82420000Y-80920000D01*
X73680000Y-70680000D02*
X73680000Y-80920000D01*
X82420000Y-70680000D02*
X73680000Y-70680000D01*
D14*
X109400000Y-63875000D02*
X106300000Y-66250000D01*
X106300000Y-69750000D02*
X106300000Y-66250000D01*
X109400000Y-72125000D02*
X106300000Y-69750000D01*
X121900000Y-72125000D02*
X121900000Y-63875000D01*
X121900000Y-63875000D02*
X109400000Y-63875000D01*
X121900000Y-72125000D02*
X109400000Y-72125000D01*
D13*
X83530000Y-68300000D02*
X83530000Y-66300000D01*
X85670000Y-66300000D02*
X85670000Y-68300000D01*
D14*
X109400000Y-72875000D02*
X106300000Y-75250000D01*
X106300000Y-78750000D02*
X106300000Y-75250000D01*
X109400000Y-81125000D02*
X106300000Y-78750000D01*
X121900000Y-81125000D02*
X121900000Y-72875000D01*
X121900000Y-72875000D02*
X109400000Y-72875000D01*
X121900000Y-81125000D02*
X109400000Y-81125000D01*
D13*
X103050000Y-80100000D02*
X103050000Y-81100000D01*
X104750000Y-81100000D02*
X104750000Y-80100000D01*
X101610000Y-81000000D02*
X101610000Y-82100000D01*
X102300000Y-81000000D02*
X101610000Y-81000000D01*
X102300000Y-79500000D02*
X102300000Y-81000000D01*
X92590000Y-81000000D02*
X92590000Y-86125000D01*
X91900000Y-81000000D02*
X92590000Y-81000000D01*
X91900000Y-79500000D02*
X91900000Y-81000000D01*
D10*
X82550000Y-65150000D02*
X82550000Y-69650000D01*
X74050000Y-65150000D02*
X74050000Y-69650000D01*
X74050000Y-69650000D02*
X82550000Y-69650000D01*
X74050000Y-65150000D02*
X82550000Y-65150000D01*
D14*
X73900000Y-64750000D02*
G75*
G03X73900000Y-64750000I-250000J0D01*
G01*
D13*
X88920000Y-76725000D02*
X88920000Y-78725000D01*
X86780000Y-78725000D02*
X86780000Y-76725000D01*
X88350000Y-65600000D02*
X86850000Y-65600000D01*
X88350000Y-65600000D02*
X88350000Y-68800000D01*
X86850000Y-68800000D02*
X86850000Y-65600000D01*
X83070000Y-78625000D02*
X83070000Y-76625000D01*
X86030000Y-76625000D02*
X86030000Y-78625000D01*
X89640000Y-112320000D02*
X89640000Y-113250000D01*
X89640000Y-115480000D02*
X89640000Y-114550000D01*
X89640000Y-115480000D02*
X91800000Y-115480000D01*
X89640000Y-112320000D02*
X91100000Y-112320000D01*
X86580000Y-107000000D02*
X86580000Y-105000000D01*
X88720000Y-105000000D02*
X88720000Y-107000000D01*
X85830000Y-104900000D02*
X85830000Y-106900000D01*
X82870000Y-106900000D02*
X82870000Y-104900000D01*
D14*
X121800000Y-109125000D02*
X109300000Y-109125000D01*
X121800000Y-100875000D02*
X109300000Y-100875000D01*
X121800000Y-109125000D02*
X121800000Y-100875000D01*
X109300000Y-109125000D02*
X106200000Y-106750000D01*
X106200000Y-106750000D02*
X106200000Y-103250000D01*
X109300000Y-100875000D02*
X106200000Y-103250000D01*
X73800000Y-92550000D02*
G75*
G03X73800000Y-92550000I-250000J0D01*
G01*
D10*
X73950000Y-92950000D02*
X82450000Y-92950000D01*
X73950000Y-97450000D02*
X82450000Y-97450000D01*
X73950000Y-92950000D02*
X73950000Y-97450000D01*
X82450000Y-92950000D02*
X82450000Y-97450000D01*
D13*
X91800000Y-107300000D02*
X91800000Y-108800000D01*
X91800000Y-108800000D02*
X92490000Y-108800000D01*
X92490000Y-108800000D02*
X92490000Y-113925000D01*
X102200000Y-107300000D02*
X102200000Y-108800000D01*
X102200000Y-108800000D02*
X101510000Y-108800000D01*
X101510000Y-108800000D02*
X101510000Y-109900000D01*
X86750000Y-96600000D02*
X86750000Y-93400000D01*
X88250000Y-93400000D02*
X88250000Y-96600000D01*
X88250000Y-93400000D02*
X86750000Y-93400000D01*
X104650000Y-108900000D02*
X104650000Y-107900000D01*
X102950000Y-107900000D02*
X102950000Y-108900000D01*
X82320000Y-98480000D02*
X73580000Y-98480000D01*
X73580000Y-98480000D02*
X73580000Y-108720000D01*
X73580000Y-108720000D02*
X82320000Y-108720000D01*
X82320000Y-108720000D02*
X82320000Y-98480000D01*
X78500000Y-98280000D02*
X78200000Y-97680000D01*
X78200000Y-97680000D02*
X78800000Y-97680000D01*
X78800000Y-97680000D02*
X78500000Y-98280000D01*
D14*
X121800000Y-100125000D02*
X109300000Y-100125000D01*
X121800000Y-91875000D02*
X109300000Y-91875000D01*
X121800000Y-100125000D02*
X121800000Y-91875000D01*
X109300000Y-100125000D02*
X106200000Y-97750000D01*
X106200000Y-97750000D02*
X106200000Y-94250000D01*
X109300000Y-91875000D02*
X106200000Y-94250000D01*
D13*
X85570000Y-94100000D02*
X85570000Y-96100000D01*
X83430000Y-96100000D02*
X83430000Y-94100000D01*
D15*
G36*
X94377497Y-57775795D02*
G01*
X94385114Y-57821073D01*
X94395291Y-57932735D01*
X94406544Y-58092596D01*
X94414844Y-58234000D01*
X94422615Y-58423758D01*
X94421970Y-58544024D01*
X94413119Y-58589347D01*
X94401834Y-58572667D01*
X94373897Y-58516550D01*
X94358858Y-58530334D01*
X94339365Y-58545935D01*
X94296564Y-58489586D01*
X94289787Y-58477417D01*
X94228827Y-58395565D01*
X94170211Y-58361005D01*
X94169665Y-58361000D01*
X94095398Y-58331240D01*
X94064152Y-58302503D01*
X94007549Y-58273279D01*
X93917687Y-58257605D01*
X93825722Y-58256527D01*
X93762808Y-58271088D01*
X93753084Y-58292079D01*
X93758676Y-58345494D01*
X93762512Y-58457415D01*
X93763667Y-58577604D01*
X93766164Y-58719598D01*
X93777690Y-58794525D01*
X93804299Y-58819936D01*
X93845595Y-58815117D01*
X93940050Y-58822095D01*
X94023982Y-58861255D01*
X94142073Y-58907687D01*
X94265525Y-58916317D01*
X94361092Y-58914526D01*
X94391469Y-58938129D01*
X94383471Y-58974538D01*
X94367084Y-59056572D01*
X94355701Y-59186378D01*
X94352991Y-59264046D01*
X94347607Y-59375626D01*
X94337255Y-59432447D01*
X94328297Y-59429917D01*
X94275261Y-59380750D01*
X94254352Y-59377000D01*
X94191685Y-59348445D01*
X94109760Y-59278922D01*
X94102334Y-59271167D01*
X94011834Y-59198259D01*
X93927654Y-59165474D01*
X93923409Y-59165334D01*
X93877306Y-59175958D01*
X93856030Y-59221337D01*
X93853501Y-59321730D01*
X93856705Y-59387584D01*
X93869500Y-59609834D01*
X94198090Y-59609834D01*
X94364488Y-59612282D01*
X94460844Y-59621654D01*
X94501694Y-59640992D01*
X94501575Y-59673334D01*
X94464907Y-59810116D01*
X94435992Y-60000066D01*
X94418174Y-60211799D01*
X94414794Y-60413931D01*
X94417040Y-60467084D01*
X94424156Y-60632854D01*
X94420788Y-60715025D01*
X94406974Y-60713459D01*
X94382755Y-60628022D01*
X94377419Y-60604297D01*
X94347353Y-60523343D01*
X94312418Y-60500022D01*
X94310256Y-60501147D01*
X94267630Y-60488286D01*
X94246140Y-60448600D01*
X94205960Y-60329236D01*
X94182285Y-60276410D01*
X94167016Y-60275647D01*
X94159006Y-60292864D01*
X94109041Y-60320508D01*
X93991368Y-60307157D01*
X93985087Y-60305759D01*
X93854471Y-60294499D01*
X93783794Y-60337554D01*
X93764315Y-60424750D01*
X93739107Y-60473977D01*
X93724861Y-60477667D01*
X93675567Y-60444607D01*
X93664703Y-60424750D01*
X93645561Y-60395638D01*
X93640009Y-60427249D01*
X93620810Y-60465610D01*
X93586238Y-60446754D01*
X93557559Y-60389788D01*
X93552000Y-60348168D01*
X93537919Y-60275715D01*
X93502953Y-60274424D01*
X93458014Y-60336988D01*
X93419547Y-60436842D01*
X93378748Y-60542371D01*
X93344409Y-60564301D01*
X93334357Y-60553258D01*
X93323682Y-60495846D01*
X93314184Y-60370429D01*
X93306179Y-60193666D01*
X93299988Y-59982216D01*
X93295927Y-59752737D01*
X93294316Y-59521886D01*
X93295471Y-59306323D01*
X93299711Y-59122705D01*
X93305024Y-59017167D01*
X93315501Y-58784082D01*
X93315680Y-58554058D01*
X93306498Y-58346796D01*
X93288893Y-58181996D01*
X93263802Y-58079361D01*
X93260046Y-58071624D01*
X93227532Y-57991264D01*
X93228170Y-57951052D01*
X93277077Y-57940462D01*
X93391523Y-57929295D01*
X93552409Y-57919144D01*
X93675489Y-57913748D01*
X93949122Y-57894984D01*
X94144063Y-57861864D01*
X94232656Y-57830115D01*
X94323340Y-57788441D01*
X94374848Y-57774622D01*
X94377497Y-57775795D01*
G37*
X94377497Y-57775795D02*
X94385114Y-57821073D01*
X94395291Y-57932735D01*
X94406544Y-58092596D01*
X94414844Y-58234000D01*
X94422615Y-58423758D01*
X94421970Y-58544024D01*
X94413119Y-58589347D01*
X94401834Y-58572667D01*
X94373897Y-58516550D01*
X94358858Y-58530334D01*
X94339365Y-58545935D01*
X94296564Y-58489586D01*
X94289787Y-58477417D01*
X94228827Y-58395565D01*
X94170211Y-58361005D01*
X94169665Y-58361000D01*
X94095398Y-58331240D01*
X94064152Y-58302503D01*
X94007549Y-58273279D01*
X93917687Y-58257605D01*
X93825722Y-58256527D01*
X93762808Y-58271088D01*
X93753084Y-58292079D01*
X93758676Y-58345494D01*
X93762512Y-58457415D01*
X93763667Y-58577604D01*
X93766164Y-58719598D01*
X93777690Y-58794525D01*
X93804299Y-58819936D01*
X93845595Y-58815117D01*
X93940050Y-58822095D01*
X94023982Y-58861255D01*
X94142073Y-58907687D01*
X94265525Y-58916317D01*
X94361092Y-58914526D01*
X94391469Y-58938129D01*
X94383471Y-58974538D01*
X94367084Y-59056572D01*
X94355701Y-59186378D01*
X94352991Y-59264046D01*
X94347607Y-59375626D01*
X94337255Y-59432447D01*
X94328297Y-59429917D01*
X94275261Y-59380750D01*
X94254352Y-59377000D01*
X94191685Y-59348445D01*
X94109760Y-59278922D01*
X94102334Y-59271167D01*
X94011834Y-59198259D01*
X93927654Y-59165474D01*
X93923409Y-59165334D01*
X93877306Y-59175958D01*
X93856030Y-59221337D01*
X93853501Y-59321730D01*
X93856705Y-59387584D01*
X93869500Y-59609834D01*
X94198090Y-59609834D01*
X94364488Y-59612282D01*
X94460844Y-59621654D01*
X94501694Y-59640992D01*
X94501575Y-59673334D01*
X94464907Y-59810116D01*
X94435992Y-60000066D01*
X94418174Y-60211799D01*
X94414794Y-60413931D01*
X94417040Y-60467084D01*
X94424156Y-60632854D01*
X94420788Y-60715025D01*
X94406974Y-60713459D01*
X94382755Y-60628022D01*
X94377419Y-60604297D01*
X94347353Y-60523343D01*
X94312418Y-60500022D01*
X94310256Y-60501147D01*
X94267630Y-60488286D01*
X94246140Y-60448600D01*
X94205960Y-60329236D01*
X94182285Y-60276410D01*
X94167016Y-60275647D01*
X94159006Y-60292864D01*
X94109041Y-60320508D01*
X93991368Y-60307157D01*
X93985087Y-60305759D01*
X93854471Y-60294499D01*
X93783794Y-60337554D01*
X93764315Y-60424750D01*
X93739107Y-60473977D01*
X93724861Y-60477667D01*
X93675567Y-60444607D01*
X93664703Y-60424750D01*
X93645561Y-60395638D01*
X93640009Y-60427249D01*
X93620810Y-60465610D01*
X93586238Y-60446754D01*
X93557559Y-60389788D01*
X93552000Y-60348168D01*
X93537919Y-60275715D01*
X93502953Y-60274424D01*
X93458014Y-60336988D01*
X93419547Y-60436842D01*
X93378748Y-60542371D01*
X93344409Y-60564301D01*
X93334357Y-60553258D01*
X93323682Y-60495846D01*
X93314184Y-60370429D01*
X93306179Y-60193666D01*
X93299988Y-59982216D01*
X93295927Y-59752737D01*
X93294316Y-59521886D01*
X93295471Y-59306323D01*
X93299711Y-59122705D01*
X93305024Y-59017167D01*
X93315501Y-58784082D01*
X93315680Y-58554058D01*
X93306498Y-58346796D01*
X93288893Y-58181996D01*
X93263802Y-58079361D01*
X93260046Y-58071624D01*
X93227532Y-57991264D01*
X93228170Y-57951052D01*
X93277077Y-57940462D01*
X93391523Y-57929295D01*
X93552409Y-57919144D01*
X93675489Y-57913748D01*
X93949122Y-57894984D01*
X94144063Y-57861864D01*
X94232656Y-57830115D01*
X94323340Y-57788441D01*
X94374848Y-57774622D01*
X94377497Y-57775795D01*
G36*
X92521132Y-57763501D02*
G01*
X92619976Y-57789375D01*
X92766025Y-57806507D01*
X92879511Y-57810667D01*
X93019677Y-57812551D01*
X93092563Y-57823118D01*
X93115545Y-57849738D01*
X93106000Y-57899782D01*
X93104066Y-57905917D01*
X93085663Y-57988855D01*
X93061680Y-58131493D01*
X93036052Y-58309399D01*
X93023926Y-58403334D01*
X92999511Y-58585189D01*
X92979907Y-58690699D01*
X92962790Y-58727882D01*
X92945836Y-58704757D01*
X92941031Y-58689376D01*
X92906550Y-58613733D01*
X92870970Y-58596118D01*
X92842698Y-58573463D01*
X92814844Y-58489571D01*
X92805642Y-58441825D01*
X92777313Y-58264665D01*
X92649381Y-58508833D01*
X92603274Y-58359669D01*
X92546996Y-58245148D01*
X92481675Y-58211669D01*
X92403410Y-58234993D01*
X92363314Y-58310193D01*
X92356238Y-58449700D01*
X92359791Y-58506023D01*
X92375192Y-58699667D01*
X92800584Y-58699667D01*
X92774125Y-58831959D01*
X92757934Y-58955168D01*
X92747731Y-59112903D01*
X92746167Y-59181209D01*
X92743665Y-59304364D01*
X92734792Y-59353712D01*
X92714104Y-59340106D01*
X92688331Y-59296508D01*
X92640712Y-59234209D01*
X92613318Y-59250879D01*
X92587792Y-59255934D01*
X92548110Y-59193387D01*
X92539019Y-59172621D01*
X92491922Y-59082370D01*
X92450203Y-59039007D01*
X92446198Y-59038334D01*
X92431838Y-59077935D01*
X92420054Y-59185834D01*
X92412043Y-59345673D01*
X92409002Y-59541094D01*
X92409000Y-59546334D01*
X92405611Y-59769325D01*
X92395981Y-59934310D01*
X92380917Y-60031605D01*
X92366667Y-60054334D01*
X92337484Y-60091368D01*
X92323208Y-60181567D01*
X92322987Y-60191917D01*
X92304702Y-60313155D01*
X92264445Y-60404895D01*
X92226040Y-60445189D01*
X92201681Y-60427316D01*
X92178781Y-60339382D01*
X92174858Y-60320228D01*
X92152810Y-60221910D01*
X92136679Y-60199161D01*
X92117292Y-60244238D01*
X92110621Y-60266000D01*
X92089455Y-60375561D01*
X92075684Y-60519145D01*
X92073905Y-60562334D01*
X92064502Y-60675538D01*
X92044529Y-60707455D01*
X92032476Y-60695127D01*
X91998243Y-60659113D01*
X91977044Y-60694035D01*
X91954978Y-60704454D01*
X91930164Y-60645908D01*
X91917085Y-60556821D01*
X91906357Y-60409542D01*
X91899702Y-60230545D01*
X91898603Y-60160167D01*
X91893486Y-59973887D01*
X91882427Y-59870922D01*
X91865494Y-59851766D01*
X91858667Y-59863834D01*
X91838357Y-59882519D01*
X91824765Y-59824794D01*
X91817150Y-59686950D01*
X91816334Y-59652167D01*
X91809418Y-59497826D01*
X91796378Y-59426553D01*
X91776943Y-59436951D01*
X91775419Y-59440500D01*
X91764928Y-59427311D01*
X91756401Y-59339403D01*
X91750205Y-59186710D01*
X91746709Y-58979163D01*
X91746281Y-58726697D01*
X91746644Y-58664958D01*
X91752834Y-57804748D01*
X91877632Y-57829492D01*
X91995268Y-57830663D01*
X92146023Y-57803919D01*
X92210023Y-57785286D01*
X92355678Y-57745565D01*
X92457383Y-57743167D01*
X92521132Y-57763501D01*
G37*
X92521132Y-57763501D02*
X92619976Y-57789375D01*
X92766025Y-57806507D01*
X92879511Y-57810667D01*
X93019677Y-57812551D01*
X93092563Y-57823118D01*
X93115545Y-57849738D01*
X93106000Y-57899782D01*
X93104066Y-57905917D01*
X93085663Y-57988855D01*
X93061680Y-58131493D01*
X93036052Y-58309399D01*
X93023926Y-58403334D01*
X92999511Y-58585189D01*
X92979907Y-58690699D01*
X92962790Y-58727882D01*
X92945836Y-58704757D01*
X92941031Y-58689376D01*
X92906550Y-58613733D01*
X92870970Y-58596118D01*
X92842698Y-58573463D01*
X92814844Y-58489571D01*
X92805642Y-58441825D01*
X92777313Y-58264665D01*
X92649381Y-58508833D01*
X92603274Y-58359669D01*
X92546996Y-58245148D01*
X92481675Y-58211669D01*
X92403410Y-58234993D01*
X92363314Y-58310193D01*
X92356238Y-58449700D01*
X92359791Y-58506023D01*
X92375192Y-58699667D01*
X92800584Y-58699667D01*
X92774125Y-58831959D01*
X92757934Y-58955168D01*
X92747731Y-59112903D01*
X92746167Y-59181209D01*
X92743665Y-59304364D01*
X92734792Y-59353712D01*
X92714104Y-59340106D01*
X92688331Y-59296508D01*
X92640712Y-59234209D01*
X92613318Y-59250879D01*
X92587792Y-59255934D01*
X92548110Y-59193387D01*
X92539019Y-59172621D01*
X92491922Y-59082370D01*
X92450203Y-59039007D01*
X92446198Y-59038334D01*
X92431838Y-59077935D01*
X92420054Y-59185834D01*
X92412043Y-59345673D01*
X92409002Y-59541094D01*
X92409000Y-59546334D01*
X92405611Y-59769325D01*
X92395981Y-59934310D01*
X92380917Y-60031605D01*
X92366667Y-60054334D01*
X92337484Y-60091368D01*
X92323208Y-60181567D01*
X92322987Y-60191917D01*
X92304702Y-60313155D01*
X92264445Y-60404895D01*
X92226040Y-60445189D01*
X92201681Y-60427316D01*
X92178781Y-60339382D01*
X92174858Y-60320228D01*
X92152810Y-60221910D01*
X92136679Y-60199161D01*
X92117292Y-60244238D01*
X92110621Y-60266000D01*
X92089455Y-60375561D01*
X92075684Y-60519145D01*
X92073905Y-60562334D01*
X92064502Y-60675538D01*
X92044529Y-60707455D01*
X92032476Y-60695127D01*
X91998243Y-60659113D01*
X91977044Y-60694035D01*
X91954978Y-60704454D01*
X91930164Y-60645908D01*
X91917085Y-60556821D01*
X91906357Y-60409542D01*
X91899702Y-60230545D01*
X91898603Y-60160167D01*
X91893486Y-59973887D01*
X91882427Y-59870922D01*
X91865494Y-59851766D01*
X91858667Y-59863834D01*
X91838357Y-59882519D01*
X91824765Y-59824794D01*
X91817150Y-59686950D01*
X91816334Y-59652167D01*
X91809418Y-59497826D01*
X91796378Y-59426553D01*
X91776943Y-59436951D01*
X91775419Y-59440500D01*
X91764928Y-59427311D01*
X91756401Y-59339403D01*
X91750205Y-59186710D01*
X91746709Y-58979163D01*
X91746281Y-58726697D01*
X91746644Y-58664958D01*
X91752834Y-57804748D01*
X91877632Y-57829492D01*
X91995268Y-57830663D01*
X92146023Y-57803919D01*
X92210023Y-57785286D01*
X92355678Y-57745565D01*
X92457383Y-57743167D01*
X92521132Y-57763501D01*
G36*
X90128596Y-57778503D02*
G01*
X90193059Y-57818314D01*
X90217089Y-57839579D01*
X90326917Y-57923486D01*
X90444571Y-57993934D01*
X90532928Y-58056739D01*
X90597465Y-58155112D01*
X90649452Y-58294767D01*
X90702361Y-58532482D01*
X90692560Y-58720720D01*
X90617942Y-58869121D01*
X90501788Y-58971272D01*
X90386397Y-59037846D01*
X90288847Y-59077726D01*
X90261491Y-59082575D01*
X90243880Y-59104699D01*
X90289902Y-59170517D01*
X90401705Y-59282918D01*
X90429708Y-59308991D01*
X90672917Y-59533498D01*
X90655365Y-59952666D01*
X90651053Y-60156040D01*
X90654236Y-60348924D01*
X90664132Y-60501495D01*
X90671055Y-60551750D01*
X90689372Y-60660838D01*
X90696545Y-60724735D01*
X90695377Y-60731667D01*
X90664320Y-60704174D01*
X90621424Y-60657584D01*
X90572945Y-60583487D01*
X90505658Y-60457095D01*
X90433248Y-60304295D01*
X90425638Y-60287167D01*
X90360254Y-60143778D01*
X90320307Y-60071512D01*
X90299894Y-60062838D01*
X90293116Y-60110225D01*
X90292960Y-60117834D01*
X90285959Y-60197604D01*
X90264913Y-60201327D01*
X90250000Y-60181334D01*
X90219819Y-60150142D01*
X90208975Y-60193120D01*
X90208315Y-60222035D01*
X90203279Y-60276397D01*
X90183231Y-60268440D01*
X90139205Y-60191664D01*
X90123000Y-60160167D01*
X90068851Y-60024178D01*
X90039715Y-59893062D01*
X90038117Y-59865466D01*
X90015540Y-59749542D01*
X89959197Y-59612983D01*
X89933604Y-59567500D01*
X89870833Y-59469646D01*
X89838859Y-59438196D01*
X89825866Y-59466392D01*
X89822585Y-59504000D01*
X89804837Y-59706567D01*
X89780782Y-59876086D01*
X89753297Y-59999253D01*
X89725254Y-60062766D01*
X89702640Y-60059145D01*
X89681536Y-60067690D01*
X89659712Y-60146628D01*
X89642810Y-60266353D01*
X89617267Y-60455201D01*
X89588807Y-60570836D01*
X89559299Y-60610274D01*
X89530614Y-60570530D01*
X89509431Y-60479231D01*
X89484087Y-60369773D01*
X89457369Y-60340303D01*
X89441657Y-60355705D01*
X89418370Y-60359111D01*
X89405943Y-60281077D01*
X89403982Y-60206522D01*
X89401662Y-60084976D01*
X89390087Y-60034012D01*
X89360819Y-60039553D01*
X89323078Y-60071508D01*
X89289544Y-60098356D01*
X89266294Y-60099379D01*
X89250703Y-60062669D01*
X89240147Y-59976324D01*
X89232001Y-59828436D01*
X89224208Y-59622986D01*
X89216240Y-59388854D01*
X89208962Y-59155145D01*
X89203264Y-58951589D01*
X89200369Y-58826667D01*
X89181312Y-58621187D01*
X89136534Y-58386604D01*
X89104235Y-58267504D01*
X89754113Y-58267504D01*
X89763125Y-58409794D01*
X89765900Y-58445667D01*
X89782153Y-58641284D01*
X89797951Y-58765056D01*
X89819360Y-58829556D01*
X89852451Y-58847353D01*
X89903292Y-58831018D01*
X89942423Y-58811315D01*
X90056232Y-58737034D01*
X90137672Y-58664511D01*
X90192904Y-58563696D01*
X90187231Y-58448995D01*
X90148759Y-58332593D01*
X90102169Y-58300151D01*
X90046249Y-58351247D01*
X90022818Y-58391494D01*
X89960949Y-58509167D01*
X89931057Y-58390779D01*
X89902851Y-58314513D01*
X89876825Y-58296732D01*
X89876699Y-58296856D01*
X89840871Y-58283728D01*
X89796605Y-58224745D01*
X89769341Y-58185858D01*
X89755681Y-58196485D01*
X89754113Y-58267504D01*
X89104235Y-58267504D01*
X89093071Y-58226341D01*
X88990997Y-57901182D01*
X89281832Y-57925564D01*
X89451511Y-57934518D01*
X89545862Y-57925770D01*
X89572667Y-57901473D01*
X89608035Y-57862021D01*
X89656726Y-57853000D01*
X89748368Y-57842269D01*
X89878864Y-57815306D01*
X89930732Y-57802197D01*
X90052610Y-57774627D01*
X90128596Y-57778503D01*
G37*
X90128596Y-57778503D02*
X90193059Y-57818314D01*
X90217089Y-57839579D01*
X90326917Y-57923486D01*
X90444571Y-57993934D01*
X90532928Y-58056739D01*
X90597465Y-58155112D01*
X90649452Y-58294767D01*
X90702361Y-58532482D01*
X90692560Y-58720720D01*
X90617942Y-58869121D01*
X90501788Y-58971272D01*
X90386397Y-59037846D01*
X90288847Y-59077726D01*
X90261491Y-59082575D01*
X90243880Y-59104699D01*
X90289902Y-59170517D01*
X90401705Y-59282918D01*
X90429708Y-59308991D01*
X90672917Y-59533498D01*
X90655365Y-59952666D01*
X90651053Y-60156040D01*
X90654236Y-60348924D01*
X90664132Y-60501495D01*
X90671055Y-60551750D01*
X90689372Y-60660838D01*
X90696545Y-60724735D01*
X90695377Y-60731667D01*
X90664320Y-60704174D01*
X90621424Y-60657584D01*
X90572945Y-60583487D01*
X90505658Y-60457095D01*
X90433248Y-60304295D01*
X90425638Y-60287167D01*
X90360254Y-60143778D01*
X90320307Y-60071512D01*
X90299894Y-60062838D01*
X90293116Y-60110225D01*
X90292960Y-60117834D01*
X90285959Y-60197604D01*
X90264913Y-60201327D01*
X90250000Y-60181334D01*
X90219819Y-60150142D01*
X90208975Y-60193120D01*
X90208315Y-60222035D01*
X90203279Y-60276397D01*
X90183231Y-60268440D01*
X90139205Y-60191664D01*
X90123000Y-60160167D01*
X90068851Y-60024178D01*
X90039715Y-59893062D01*
X90038117Y-59865466D01*
X90015540Y-59749542D01*
X89959197Y-59612983D01*
X89933604Y-59567500D01*
X89870833Y-59469646D01*
X89838859Y-59438196D01*
X89825866Y-59466392D01*
X89822585Y-59504000D01*
X89804837Y-59706567D01*
X89780782Y-59876086D01*
X89753297Y-59999253D01*
X89725254Y-60062766D01*
X89702640Y-60059145D01*
X89681536Y-60067690D01*
X89659712Y-60146628D01*
X89642810Y-60266353D01*
X89617267Y-60455201D01*
X89588807Y-60570836D01*
X89559299Y-60610274D01*
X89530614Y-60570530D01*
X89509431Y-60479231D01*
X89484087Y-60369773D01*
X89457369Y-60340303D01*
X89441657Y-60355705D01*
X89418370Y-60359111D01*
X89405943Y-60281077D01*
X89403982Y-60206522D01*
X89401662Y-60084976D01*
X89390087Y-60034012D01*
X89360819Y-60039553D01*
X89323078Y-60071508D01*
X89289544Y-60098356D01*
X89266294Y-60099379D01*
X89250703Y-60062669D01*
X89240147Y-59976324D01*
X89232001Y-59828436D01*
X89224208Y-59622986D01*
X89216240Y-59388854D01*
X89208962Y-59155145D01*
X89203264Y-58951589D01*
X89200369Y-58826667D01*
X89181312Y-58621187D01*
X89136534Y-58386604D01*
X89104235Y-58267504D01*
X89754113Y-58267504D01*
X89763125Y-58409794D01*
X89765900Y-58445667D01*
X89782153Y-58641284D01*
X89797951Y-58765056D01*
X89819360Y-58829556D01*
X89852451Y-58847353D01*
X89903292Y-58831018D01*
X89942423Y-58811315D01*
X90056232Y-58737034D01*
X90137672Y-58664511D01*
X90192904Y-58563696D01*
X90187231Y-58448995D01*
X90148759Y-58332593D01*
X90102169Y-58300151D01*
X90046249Y-58351247D01*
X90022818Y-58391494D01*
X89960949Y-58509167D01*
X89931057Y-58390779D01*
X89902851Y-58314513D01*
X89876825Y-58296732D01*
X89876699Y-58296856D01*
X89840871Y-58283728D01*
X89796605Y-58224745D01*
X89769341Y-58185858D01*
X89755681Y-58196485D01*
X89754113Y-58267504D01*
X89104235Y-58267504D01*
X89093071Y-58226341D01*
X88990997Y-57901182D01*
X89281832Y-57925564D01*
X89451511Y-57934518D01*
X89545862Y-57925770D01*
X89572667Y-57901473D01*
X89608035Y-57862021D01*
X89656726Y-57853000D01*
X89748368Y-57842269D01*
X89878864Y-57815306D01*
X89930732Y-57802197D01*
X90052610Y-57774627D01*
X90128596Y-57778503D01*
G36*
X88750585Y-57784179D02*
G01*
X88767848Y-57847208D01*
X88770857Y-57948250D01*
X88780106Y-58110491D01*
X88799839Y-58285963D01*
X88805477Y-58322648D01*
X88818441Y-58458091D01*
X88813182Y-58569351D01*
X88805929Y-58597814D01*
X88782590Y-58645485D01*
X88772903Y-58617128D01*
X88770661Y-58572667D01*
X88760170Y-58505966D01*
X88734004Y-58519084D01*
X88731225Y-58523329D01*
X88698876Y-58549138D01*
X88673755Y-58496909D01*
X88672392Y-58491792D01*
X88619600Y-58407245D01*
X88571269Y-58375809D01*
X88472120Y-58327334D01*
X88433744Y-58301512D01*
X88347941Y-58266367D01*
X88257894Y-58255167D01*
X88196522Y-58258422D01*
X88162053Y-58280670D01*
X88147221Y-58340632D01*
X88144757Y-58457030D01*
X88145913Y-58543628D01*
X88150847Y-58696407D01*
X88162903Y-58781046D01*
X88186851Y-58814042D01*
X88223774Y-58812891D01*
X88311335Y-58821383D01*
X88393648Y-58861255D01*
X88511697Y-58907678D01*
X88635139Y-58916322D01*
X88731005Y-58913425D01*
X88763554Y-58937830D01*
X88753664Y-59002830D01*
X88736146Y-59107495D01*
X88724748Y-59248017D01*
X88723236Y-59292334D01*
X88716942Y-59393223D01*
X88705315Y-59436603D01*
X88697964Y-59429917D01*
X88644928Y-59380750D01*
X88624018Y-59377000D01*
X88561351Y-59348445D01*
X88479427Y-59278922D01*
X88472000Y-59271167D01*
X88382218Y-59198323D01*
X88299565Y-59165484D01*
X88295288Y-59165334D01*
X88245446Y-59181365D01*
X88222921Y-59243278D01*
X88218648Y-59345250D01*
X88225623Y-59488025D01*
X88256026Y-59575007D01*
X88325961Y-59618162D01*
X88451533Y-59629454D01*
X88593973Y-59624094D01*
X88750198Y-59617338D01*
X88838199Y-59621281D01*
X88874080Y-59639065D01*
X88873945Y-59673831D01*
X88872546Y-59678441D01*
X88830713Y-59863624D01*
X88802691Y-60094043D01*
X88792227Y-60330867D01*
X88796421Y-60467084D01*
X88803462Y-60624797D01*
X88798691Y-60711376D01*
X88783503Y-60722940D01*
X88759293Y-60655605D01*
X88747086Y-60604297D01*
X88716968Y-60523381D01*
X88681903Y-60500136D01*
X88679725Y-60501270D01*
X88645734Y-60482613D01*
X88616196Y-60404405D01*
X88614378Y-60395806D01*
X88585127Y-60311173D01*
X88548077Y-60264910D01*
X88519959Y-60271870D01*
X88514334Y-60307005D01*
X88483404Y-60334751D01*
X88461417Y-60331707D01*
X88314351Y-60291380D01*
X88226879Y-60285986D01*
X88179782Y-60319526D01*
X88153903Y-60395721D01*
X88130953Y-60480430D01*
X88105669Y-60491986D01*
X88067227Y-60448602D01*
X88021150Y-60405140D01*
X88007680Y-60427249D01*
X87990676Y-60466037D01*
X87957203Y-60448134D01*
X87928208Y-60392798D01*
X87921667Y-60348168D01*
X87908575Y-60275853D01*
X87875141Y-60276959D01*
X87830125Y-60345401D01*
X87794211Y-60436714D01*
X87754602Y-60535780D01*
X87723293Y-60564715D01*
X87699676Y-60520744D01*
X87683144Y-60401093D01*
X87673089Y-60202986D01*
X87668903Y-59923650D01*
X87668725Y-59863834D01*
X87668220Y-59634242D01*
X87667474Y-59429756D01*
X87666573Y-59267727D01*
X87665602Y-59165504D01*
X87665181Y-59144167D01*
X87667192Y-59064010D01*
X87674815Y-58925376D01*
X87686564Y-58754155D01*
X87690720Y-58699667D01*
X87701590Y-58482240D01*
X87693169Y-58319546D01*
X87663513Y-58183451D01*
X87652798Y-58150986D01*
X87616673Y-58037543D01*
X87599597Y-57962924D01*
X87600488Y-57948402D01*
X87645829Y-57940790D01*
X87757307Y-57931143D01*
X87916461Y-57920880D01*
X88047034Y-57914058D01*
X88274060Y-57897092D01*
X88458969Y-57871117D01*
X88582734Y-57838990D01*
X88600820Y-57830893D01*
X88701083Y-57783001D01*
X88750585Y-57784179D01*
G37*
X88750585Y-57784179D02*
X88767848Y-57847208D01*
X88770857Y-57948250D01*
X88780106Y-58110491D01*
X88799839Y-58285963D01*
X88805477Y-58322648D01*
X88818441Y-58458091D01*
X88813182Y-58569351D01*
X88805929Y-58597814D01*
X88782590Y-58645485D01*
X88772903Y-58617128D01*
X88770661Y-58572667D01*
X88760170Y-58505966D01*
X88734004Y-58519084D01*
X88731225Y-58523329D01*
X88698876Y-58549138D01*
X88673755Y-58496909D01*
X88672392Y-58491792D01*
X88619600Y-58407245D01*
X88571269Y-58375809D01*
X88472120Y-58327334D01*
X88433744Y-58301512D01*
X88347941Y-58266367D01*
X88257894Y-58255167D01*
X88196522Y-58258422D01*
X88162053Y-58280670D01*
X88147221Y-58340632D01*
X88144757Y-58457030D01*
X88145913Y-58543628D01*
X88150847Y-58696407D01*
X88162903Y-58781046D01*
X88186851Y-58814042D01*
X88223774Y-58812891D01*
X88311335Y-58821383D01*
X88393648Y-58861255D01*
X88511697Y-58907678D01*
X88635139Y-58916322D01*
X88731005Y-58913425D01*
X88763554Y-58937830D01*
X88753664Y-59002830D01*
X88736146Y-59107495D01*
X88724748Y-59248017D01*
X88723236Y-59292334D01*
X88716942Y-59393223D01*
X88705315Y-59436603D01*
X88697964Y-59429917D01*
X88644928Y-59380750D01*
X88624018Y-59377000D01*
X88561351Y-59348445D01*
X88479427Y-59278922D01*
X88472000Y-59271167D01*
X88382218Y-59198323D01*
X88299565Y-59165484D01*
X88295288Y-59165334D01*
X88245446Y-59181365D01*
X88222921Y-59243278D01*
X88218648Y-59345250D01*
X88225623Y-59488025D01*
X88256026Y-59575007D01*
X88325961Y-59618162D01*
X88451533Y-59629454D01*
X88593973Y-59624094D01*
X88750198Y-59617338D01*
X88838199Y-59621281D01*
X88874080Y-59639065D01*
X88873945Y-59673831D01*
X88872546Y-59678441D01*
X88830713Y-59863624D01*
X88802691Y-60094043D01*
X88792227Y-60330867D01*
X88796421Y-60467084D01*
X88803462Y-60624797D01*
X88798691Y-60711376D01*
X88783503Y-60722940D01*
X88759293Y-60655605D01*
X88747086Y-60604297D01*
X88716968Y-60523381D01*
X88681903Y-60500136D01*
X88679725Y-60501270D01*
X88645734Y-60482613D01*
X88616196Y-60404405D01*
X88614378Y-60395806D01*
X88585127Y-60311173D01*
X88548077Y-60264910D01*
X88519959Y-60271870D01*
X88514334Y-60307005D01*
X88483404Y-60334751D01*
X88461417Y-60331707D01*
X88314351Y-60291380D01*
X88226879Y-60285986D01*
X88179782Y-60319526D01*
X88153903Y-60395721D01*
X88130953Y-60480430D01*
X88105669Y-60491986D01*
X88067227Y-60448602D01*
X88021150Y-60405140D01*
X88007680Y-60427249D01*
X87990676Y-60466037D01*
X87957203Y-60448134D01*
X87928208Y-60392798D01*
X87921667Y-60348168D01*
X87908575Y-60275853D01*
X87875141Y-60276959D01*
X87830125Y-60345401D01*
X87794211Y-60436714D01*
X87754602Y-60535780D01*
X87723293Y-60564715D01*
X87699676Y-60520744D01*
X87683144Y-60401093D01*
X87673089Y-60202986D01*
X87668903Y-59923650D01*
X87668725Y-59863834D01*
X87668220Y-59634242D01*
X87667474Y-59429756D01*
X87666573Y-59267727D01*
X87665602Y-59165504D01*
X87665181Y-59144167D01*
X87667192Y-59064010D01*
X87674815Y-58925376D01*
X87686564Y-58754155D01*
X87690720Y-58699667D01*
X87701590Y-58482240D01*
X87693169Y-58319546D01*
X87663513Y-58183451D01*
X87652798Y-58150986D01*
X87616673Y-58037543D01*
X87599597Y-57962924D01*
X87600488Y-57948402D01*
X87645829Y-57940790D01*
X87757307Y-57931143D01*
X87916461Y-57920880D01*
X88047034Y-57914058D01*
X88274060Y-57897092D01*
X88458969Y-57871117D01*
X88582734Y-57838990D01*
X88600820Y-57830893D01*
X88701083Y-57783001D01*
X88750585Y-57784179D01*
G36*
X83227498Y-57829137D02*
G01*
X83375163Y-57847577D01*
X83586025Y-57881851D01*
X83603068Y-57884704D01*
X83721612Y-57911831D01*
X83795578Y-57958901D01*
X83855461Y-58050300D01*
X83884790Y-58109966D01*
X83952423Y-58273748D01*
X83984445Y-58422567D01*
X83988859Y-58599547D01*
X83986377Y-58657334D01*
X83978333Y-58748247D01*
X83963335Y-58763477D01*
X83938765Y-58720834D01*
X83919707Y-58707981D01*
X83911436Y-58774589D01*
X83913793Y-58922614D01*
X83916917Y-58990461D01*
X83917843Y-59269372D01*
X83887941Y-59473364D01*
X83875793Y-59512619D01*
X83835912Y-59647927D01*
X83794617Y-59822505D01*
X83769301Y-59951906D01*
X83737022Y-60090883D01*
X83701724Y-60176069D01*
X83670401Y-60199769D01*
X83650045Y-60154285D01*
X83646000Y-60087607D01*
X83642018Y-60027846D01*
X83615868Y-60028863D01*
X83556475Y-60079522D01*
X83474974Y-60175137D01*
X83430830Y-60254608D01*
X83380844Y-60321689D01*
X83335906Y-60326484D01*
X83277405Y-60345786D01*
X83220199Y-60441293D01*
X83163296Y-60578666D01*
X83122750Y-60432917D01*
X83082203Y-60287167D01*
X83047423Y-60475202D01*
X83018425Y-60622980D01*
X82996686Y-60692117D01*
X82975373Y-60687456D01*
X82947653Y-60613841D01*
X82930788Y-60557884D01*
X82875325Y-60405327D01*
X82806671Y-60260205D01*
X82790331Y-60231879D01*
X82680282Y-60015183D01*
X82598243Y-59781352D01*
X82552149Y-59558566D01*
X82549649Y-59377000D01*
X82559339Y-59218707D01*
X82553522Y-59035047D01*
X82545244Y-58953667D01*
X82534093Y-58796666D01*
X82534301Y-58794478D01*
X83026254Y-58794478D01*
X83028906Y-58979606D01*
X83046857Y-59172771D01*
X83078147Y-59349327D01*
X83120816Y-59484627D01*
X83153536Y-59538569D01*
X83242722Y-59636638D01*
X83316971Y-59544945D01*
X83372443Y-59450616D01*
X83429984Y-59313891D01*
X83455110Y-59238109D01*
X83492480Y-59086513D01*
X83514895Y-58945651D01*
X83517874Y-58893067D01*
X83516747Y-58763167D01*
X83444569Y-58879584D01*
X83376049Y-58971986D01*
X83332437Y-58984233D01*
X83310878Y-58915297D01*
X83307334Y-58830129D01*
X83296868Y-58685551D01*
X83270184Y-58580818D01*
X83234350Y-58527312D01*
X83196435Y-58536418D01*
X83167182Y-58604417D01*
X83151685Y-58635737D01*
X83142303Y-58584032D01*
X83141565Y-58572667D01*
X83133025Y-58499856D01*
X83108599Y-58504581D01*
X83074682Y-58546918D01*
X83040859Y-58642034D01*
X83026254Y-58794478D01*
X82534301Y-58794478D01*
X82548772Y-58642602D01*
X82593403Y-58455657D01*
X82608609Y-58403334D01*
X82663962Y-58232582D01*
X82717483Y-58117866D01*
X82785525Y-58032530D01*
X82884438Y-57949919D01*
X82888739Y-57946691D01*
X82973651Y-57885307D01*
X83045746Y-57846353D01*
X83124027Y-57828179D01*
X83227498Y-57829137D01*
G37*
X83227498Y-57829137D02*
X83375163Y-57847577D01*
X83586025Y-57881851D01*
X83603068Y-57884704D01*
X83721612Y-57911831D01*
X83795578Y-57958901D01*
X83855461Y-58050300D01*
X83884790Y-58109966D01*
X83952423Y-58273748D01*
X83984445Y-58422567D01*
X83988859Y-58599547D01*
X83986377Y-58657334D01*
X83978333Y-58748247D01*
X83963335Y-58763477D01*
X83938765Y-58720834D01*
X83919707Y-58707981D01*
X83911436Y-58774589D01*
X83913793Y-58922614D01*
X83916917Y-58990461D01*
X83917843Y-59269372D01*
X83887941Y-59473364D01*
X83875793Y-59512619D01*
X83835912Y-59647927D01*
X83794617Y-59822505D01*
X83769301Y-59951906D01*
X83737022Y-60090883D01*
X83701724Y-60176069D01*
X83670401Y-60199769D01*
X83650045Y-60154285D01*
X83646000Y-60087607D01*
X83642018Y-60027846D01*
X83615868Y-60028863D01*
X83556475Y-60079522D01*
X83474974Y-60175137D01*
X83430830Y-60254608D01*
X83380844Y-60321689D01*
X83335906Y-60326484D01*
X83277405Y-60345786D01*
X83220199Y-60441293D01*
X83163296Y-60578666D01*
X83122750Y-60432917D01*
X83082203Y-60287167D01*
X83047423Y-60475202D01*
X83018425Y-60622980D01*
X82996686Y-60692117D01*
X82975373Y-60687456D01*
X82947653Y-60613841D01*
X82930788Y-60557884D01*
X82875325Y-60405327D01*
X82806671Y-60260205D01*
X82790331Y-60231879D01*
X82680282Y-60015183D01*
X82598243Y-59781352D01*
X82552149Y-59558566D01*
X82549649Y-59377000D01*
X82559339Y-59218707D01*
X82553522Y-59035047D01*
X82545244Y-58953667D01*
X82534093Y-58796666D01*
X82534301Y-58794478D01*
X83026254Y-58794478D01*
X83028906Y-58979606D01*
X83046857Y-59172771D01*
X83078147Y-59349327D01*
X83120816Y-59484627D01*
X83153536Y-59538569D01*
X83242722Y-59636638D01*
X83316971Y-59544945D01*
X83372443Y-59450616D01*
X83429984Y-59313891D01*
X83455110Y-59238109D01*
X83492480Y-59086513D01*
X83514895Y-58945651D01*
X83517874Y-58893067D01*
X83516747Y-58763167D01*
X83444569Y-58879584D01*
X83376049Y-58971986D01*
X83332437Y-58984233D01*
X83310878Y-58915297D01*
X83307334Y-58830129D01*
X83296868Y-58685551D01*
X83270184Y-58580818D01*
X83234350Y-58527312D01*
X83196435Y-58536418D01*
X83167182Y-58604417D01*
X83151685Y-58635737D01*
X83142303Y-58584032D01*
X83141565Y-58572667D01*
X83133025Y-58499856D01*
X83108599Y-58504581D01*
X83074682Y-58546918D01*
X83040859Y-58642034D01*
X83026254Y-58794478D01*
X82534301Y-58794478D01*
X82548772Y-58642602D01*
X82593403Y-58455657D01*
X82608609Y-58403334D01*
X82663962Y-58232582D01*
X82717483Y-58117866D01*
X82785525Y-58032530D01*
X82884438Y-57949919D01*
X82888739Y-57946691D01*
X82973651Y-57885307D01*
X83045746Y-57846353D01*
X83124027Y-57828179D01*
X83227498Y-57829137D01*
G36*
X96297938Y-57807685D02*
G01*
X96313691Y-57913824D01*
X96328380Y-58068879D01*
X96340924Y-58254980D01*
X96350244Y-58454254D01*
X96355258Y-58648829D01*
X96354887Y-58820835D01*
X96351292Y-58911334D01*
X96327653Y-58978336D01*
X96287960Y-58994131D01*
X96262184Y-58950751D01*
X96261334Y-58935256D01*
X96246910Y-58852975D01*
X96216023Y-58755339D01*
X96181491Y-58677754D01*
X96154664Y-58672470D01*
X96127523Y-58713342D01*
X96090340Y-58765229D01*
X96048931Y-58755929D01*
X96003240Y-58717129D01*
X95935814Y-58669609D01*
X95900911Y-58664978D01*
X95896737Y-58714421D01*
X95906603Y-58822869D01*
X95926849Y-58957524D01*
X95946440Y-59101170D01*
X95963372Y-59283229D01*
X95977233Y-59488987D01*
X95987613Y-59703734D01*
X95994101Y-59912756D01*
X95996287Y-60101341D01*
X95993760Y-60254777D01*
X95986109Y-60358350D01*
X95972924Y-60397349D01*
X95966912Y-60393000D01*
X95931960Y-60350879D01*
X95921065Y-60381849D01*
X95920340Y-60393000D01*
X95907875Y-60418363D01*
X95882652Y-60371834D01*
X95860857Y-60342928D01*
X95841680Y-60381558D01*
X95821892Y-60495461D01*
X95817598Y-60527792D01*
X95785969Y-60696863D01*
X95748529Y-60782330D01*
X95709974Y-60784185D01*
X95675003Y-60702420D01*
X95648313Y-60537030D01*
X95647425Y-60528065D01*
X95627419Y-60343643D01*
X95610421Y-60230791D01*
X95597325Y-60193328D01*
X95589028Y-60235073D01*
X95587342Y-60271745D01*
X95564479Y-60396620D01*
X95527950Y-60491358D01*
X95502395Y-60533022D01*
X95483215Y-60535703D01*
X95467083Y-60488555D01*
X95450669Y-60380733D01*
X95430645Y-60201393D01*
X95426369Y-60160367D01*
X95404738Y-59973142D01*
X95382459Y-59815932D01*
X95362614Y-59708817D01*
X95351762Y-59674297D01*
X95337226Y-59612770D01*
X95323516Y-59489199D01*
X95312897Y-59326197D01*
X95310147Y-59258710D01*
X95299749Y-59077295D01*
X95283074Y-58917585D01*
X95263192Y-58806729D01*
X95256676Y-58786061D01*
X95229627Y-58725871D01*
X95211496Y-58728477D01*
X95192194Y-58802549D01*
X95182782Y-58849561D01*
X95158697Y-58940509D01*
X95136881Y-58972092D01*
X95130461Y-58963986D01*
X95093357Y-58927777D01*
X95077539Y-58931549D01*
X95047159Y-58909928D01*
X95016982Y-58829685D01*
X95013600Y-58815396D01*
X94995983Y-58744772D01*
X94979971Y-58727543D01*
X94957937Y-58772257D01*
X94922251Y-58887459D01*
X94909069Y-58932500D01*
X94834914Y-59186500D01*
X94783963Y-58953667D01*
X94749886Y-58778364D01*
X94715897Y-58571003D01*
X94685963Y-58359770D01*
X94664054Y-58172851D01*
X94654137Y-58038432D01*
X94653974Y-58030323D01*
X94659556Y-57971643D01*
X94693107Y-57948071D01*
X94776675Y-57951674D01*
X94845528Y-57961400D01*
X94976071Y-57973284D01*
X95061796Y-57954004D01*
X95137868Y-57896867D01*
X95220832Y-57835372D01*
X95291057Y-57834727D01*
X95323223Y-57849373D01*
X95432350Y-57879637D01*
X95594505Y-57893075D01*
X95779872Y-57890346D01*
X95958636Y-57872104D01*
X96100981Y-57839008D01*
X96119696Y-57831833D01*
X96218962Y-57791373D01*
X96277205Y-57769561D01*
X96282200Y-57768333D01*
X96297938Y-57807685D01*
G37*
X96297938Y-57807685D02*
X96313691Y-57913824D01*
X96328380Y-58068879D01*
X96340924Y-58254980D01*
X96350244Y-58454254D01*
X96355258Y-58648829D01*
X96354887Y-58820835D01*
X96351292Y-58911334D01*
X96327653Y-58978336D01*
X96287960Y-58994131D01*
X96262184Y-58950751D01*
X96261334Y-58935256D01*
X96246910Y-58852975D01*
X96216023Y-58755339D01*
X96181491Y-58677754D01*
X96154664Y-58672470D01*
X96127523Y-58713342D01*
X96090340Y-58765229D01*
X96048931Y-58755929D01*
X96003240Y-58717129D01*
X95935814Y-58669609D01*
X95900911Y-58664978D01*
X95896737Y-58714421D01*
X95906603Y-58822869D01*
X95926849Y-58957524D01*
X95946440Y-59101170D01*
X95963372Y-59283229D01*
X95977233Y-59488987D01*
X95987613Y-59703734D01*
X95994101Y-59912756D01*
X95996287Y-60101341D01*
X95993760Y-60254777D01*
X95986109Y-60358350D01*
X95972924Y-60397349D01*
X95966912Y-60393000D01*
X95931960Y-60350879D01*
X95921065Y-60381849D01*
X95920340Y-60393000D01*
X95907875Y-60418363D01*
X95882652Y-60371834D01*
X95860857Y-60342928D01*
X95841680Y-60381558D01*
X95821892Y-60495461D01*
X95817598Y-60527792D01*
X95785969Y-60696863D01*
X95748529Y-60782330D01*
X95709974Y-60784185D01*
X95675003Y-60702420D01*
X95648313Y-60537030D01*
X95647425Y-60528065D01*
X95627419Y-60343643D01*
X95610421Y-60230791D01*
X95597325Y-60193328D01*
X95589028Y-60235073D01*
X95587342Y-60271745D01*
X95564479Y-60396620D01*
X95527950Y-60491358D01*
X95502395Y-60533022D01*
X95483215Y-60535703D01*
X95467083Y-60488555D01*
X95450669Y-60380733D01*
X95430645Y-60201393D01*
X95426369Y-60160367D01*
X95404738Y-59973142D01*
X95382459Y-59815932D01*
X95362614Y-59708817D01*
X95351762Y-59674297D01*
X95337226Y-59612770D01*
X95323516Y-59489199D01*
X95312897Y-59326197D01*
X95310147Y-59258710D01*
X95299749Y-59077295D01*
X95283074Y-58917585D01*
X95263192Y-58806729D01*
X95256676Y-58786061D01*
X95229627Y-58725871D01*
X95211496Y-58728477D01*
X95192194Y-58802549D01*
X95182782Y-58849561D01*
X95158697Y-58940509D01*
X95136881Y-58972092D01*
X95130461Y-58963986D01*
X95093357Y-58927777D01*
X95077539Y-58931549D01*
X95047159Y-58909928D01*
X95016982Y-58829685D01*
X95013600Y-58815396D01*
X94995983Y-58744772D01*
X94979971Y-58727543D01*
X94957937Y-58772257D01*
X94922251Y-58887459D01*
X94909069Y-58932500D01*
X94834914Y-59186500D01*
X94783963Y-58953667D01*
X94749886Y-58778364D01*
X94715897Y-58571003D01*
X94685963Y-58359770D01*
X94664054Y-58172851D01*
X94654137Y-58038432D01*
X94653974Y-58030323D01*
X94659556Y-57971643D01*
X94693107Y-57948071D01*
X94776675Y-57951674D01*
X94845528Y-57961400D01*
X94976071Y-57973284D01*
X95061796Y-57954004D01*
X95137868Y-57896867D01*
X95220832Y-57835372D01*
X95291057Y-57834727D01*
X95323223Y-57849373D01*
X95432350Y-57879637D01*
X95594505Y-57893075D01*
X95779872Y-57890346D01*
X95958636Y-57872104D01*
X96100981Y-57839008D01*
X96119696Y-57831833D01*
X96218962Y-57791373D01*
X96277205Y-57769561D01*
X96282200Y-57768333D01*
X96297938Y-57807685D01*
G36*
X87407938Y-57807685D02*
G01*
X87423691Y-57913824D01*
X87438380Y-58068879D01*
X87450924Y-58254980D01*
X87460244Y-58454254D01*
X87465258Y-58648829D01*
X87464887Y-58820835D01*
X87461292Y-58911334D01*
X87437653Y-58978336D01*
X87397960Y-58994131D01*
X87372184Y-58950751D01*
X87371334Y-58935256D01*
X87356910Y-58852975D01*
X87326023Y-58755339D01*
X87291491Y-58677754D01*
X87264664Y-58672470D01*
X87237523Y-58713342D01*
X87200340Y-58765229D01*
X87158931Y-58755929D01*
X87113240Y-58717129D01*
X87045814Y-58669609D01*
X87010911Y-58664978D01*
X87006737Y-58714421D01*
X87016603Y-58822869D01*
X87036849Y-58957524D01*
X87056440Y-59101170D01*
X87073372Y-59283229D01*
X87087233Y-59488987D01*
X87097613Y-59703734D01*
X87104101Y-59912756D01*
X87106287Y-60101341D01*
X87103760Y-60254777D01*
X87096109Y-60358350D01*
X87082924Y-60397349D01*
X87076912Y-60393000D01*
X87041960Y-60350879D01*
X87031065Y-60381849D01*
X87030340Y-60393000D01*
X87017875Y-60418363D01*
X86992652Y-60371834D01*
X86970857Y-60342928D01*
X86951680Y-60381558D01*
X86931892Y-60495461D01*
X86927598Y-60527792D01*
X86897344Y-60682054D01*
X86858593Y-60770659D01*
X86817703Y-60788717D01*
X86781036Y-60731341D01*
X86762977Y-60654332D01*
X86743447Y-60501002D01*
X86730893Y-60339559D01*
X86730457Y-60329500D01*
X86724519Y-60236499D01*
X86716351Y-60224366D01*
X86705943Y-60277297D01*
X86671280Y-60408853D01*
X86632775Y-60501333D01*
X86605884Y-60545553D01*
X86586994Y-60547062D01*
X86572476Y-60494764D01*
X86558700Y-60377565D01*
X86546417Y-60237349D01*
X86527658Y-60055105D01*
X86504713Y-59894024D01*
X86481659Y-59781285D01*
X86474718Y-59759313D01*
X86454172Y-59667637D01*
X86435818Y-59519254D01*
X86422891Y-59342118D01*
X86420726Y-59292334D01*
X86410548Y-59108720D01*
X86395319Y-58942821D01*
X86377920Y-58824360D01*
X86373532Y-58805500D01*
X86339527Y-58678500D01*
X86288086Y-58869000D01*
X86258100Y-58963628D01*
X86237567Y-58997657D01*
X86232490Y-58982918D01*
X86212913Y-58929833D01*
X86191154Y-58929315D01*
X86158222Y-58909280D01*
X86126444Y-58830008D01*
X86122879Y-58815396D01*
X86091783Y-58678500D01*
X86017666Y-58911334D01*
X85973270Y-59030728D01*
X85937895Y-59087487D01*
X85920369Y-59080667D01*
X85894758Y-58982526D01*
X85864149Y-58823304D01*
X85832295Y-58626136D01*
X85802948Y-58414154D01*
X85780797Y-58220029D01*
X85752078Y-57930891D01*
X85950234Y-57960606D01*
X86081820Y-57973272D01*
X86167351Y-57956235D01*
X86242517Y-57901852D01*
X86247868Y-57896867D01*
X86330832Y-57835372D01*
X86401057Y-57834727D01*
X86433223Y-57849373D01*
X86542350Y-57879637D01*
X86704505Y-57893075D01*
X86889872Y-57890346D01*
X87068636Y-57872104D01*
X87210981Y-57839008D01*
X87229696Y-57831833D01*
X87328962Y-57791373D01*
X87387205Y-57769561D01*
X87392200Y-57768333D01*
X87407938Y-57807685D01*
G37*
X87407938Y-57807685D02*
X87423691Y-57913824D01*
X87438380Y-58068879D01*
X87450924Y-58254980D01*
X87460244Y-58454254D01*
X87465258Y-58648829D01*
X87464887Y-58820835D01*
X87461292Y-58911334D01*
X87437653Y-58978336D01*
X87397960Y-58994131D01*
X87372184Y-58950751D01*
X87371334Y-58935256D01*
X87356910Y-58852975D01*
X87326023Y-58755339D01*
X87291491Y-58677754D01*
X87264664Y-58672470D01*
X87237523Y-58713342D01*
X87200340Y-58765229D01*
X87158931Y-58755929D01*
X87113240Y-58717129D01*
X87045814Y-58669609D01*
X87010911Y-58664978D01*
X87006737Y-58714421D01*
X87016603Y-58822869D01*
X87036849Y-58957524D01*
X87056440Y-59101170D01*
X87073372Y-59283229D01*
X87087233Y-59488987D01*
X87097613Y-59703734D01*
X87104101Y-59912756D01*
X87106287Y-60101341D01*
X87103760Y-60254777D01*
X87096109Y-60358350D01*
X87082924Y-60397349D01*
X87076912Y-60393000D01*
X87041960Y-60350879D01*
X87031065Y-60381849D01*
X87030340Y-60393000D01*
X87017875Y-60418363D01*
X86992652Y-60371834D01*
X86970857Y-60342928D01*
X86951680Y-60381558D01*
X86931892Y-60495461D01*
X86927598Y-60527792D01*
X86897344Y-60682054D01*
X86858593Y-60770659D01*
X86817703Y-60788717D01*
X86781036Y-60731341D01*
X86762977Y-60654332D01*
X86743447Y-60501002D01*
X86730893Y-60339559D01*
X86730457Y-60329500D01*
X86724519Y-60236499D01*
X86716351Y-60224366D01*
X86705943Y-60277297D01*
X86671280Y-60408853D01*
X86632775Y-60501333D01*
X86605884Y-60545553D01*
X86586994Y-60547062D01*
X86572476Y-60494764D01*
X86558700Y-60377565D01*
X86546417Y-60237349D01*
X86527658Y-60055105D01*
X86504713Y-59894024D01*
X86481659Y-59781285D01*
X86474718Y-59759313D01*
X86454172Y-59667637D01*
X86435818Y-59519254D01*
X86422891Y-59342118D01*
X86420726Y-59292334D01*
X86410548Y-59108720D01*
X86395319Y-58942821D01*
X86377920Y-58824360D01*
X86373532Y-58805500D01*
X86339527Y-58678500D01*
X86288086Y-58869000D01*
X86258100Y-58963628D01*
X86237567Y-58997657D01*
X86232490Y-58982918D01*
X86212913Y-58929833D01*
X86191154Y-58929315D01*
X86158222Y-58909280D01*
X86126444Y-58830008D01*
X86122879Y-58815396D01*
X86091783Y-58678500D01*
X86017666Y-58911334D01*
X85973270Y-59030728D01*
X85937895Y-59087487D01*
X85920369Y-59080667D01*
X85894758Y-58982526D01*
X85864149Y-58823304D01*
X85832295Y-58626136D01*
X85802948Y-58414154D01*
X85780797Y-58220029D01*
X85752078Y-57930891D01*
X85950234Y-57960606D01*
X86081820Y-57973272D01*
X86167351Y-57956235D01*
X86242517Y-57901852D01*
X86247868Y-57896867D01*
X86330832Y-57835372D01*
X86401057Y-57834727D01*
X86433223Y-57849373D01*
X86542350Y-57879637D01*
X86704505Y-57893075D01*
X86889872Y-57890346D01*
X87068636Y-57872104D01*
X87210981Y-57839008D01*
X87229696Y-57831833D01*
X87328962Y-57791373D01*
X87387205Y-57769561D01*
X87392200Y-57768333D01*
X87407938Y-57807685D01*
G36*
X85499492Y-57941778D02*
G01*
X85491616Y-58097569D01*
X85497291Y-58279688D01*
X85504772Y-58361000D01*
X85505781Y-58674017D01*
X85439835Y-58953667D01*
X85407897Y-58985012D01*
X85367039Y-58952544D01*
X85327915Y-58874823D01*
X85301174Y-58770410D01*
X85295500Y-58702159D01*
X85292380Y-58606522D01*
X85279700Y-58586665D01*
X85248407Y-58633705D01*
X85240383Y-58648078D01*
X85184444Y-58712009D01*
X85142558Y-58695406D01*
X85127667Y-58612474D01*
X85095568Y-58536699D01*
X85064167Y-58515025D01*
X85009656Y-58514145D01*
X85000667Y-58531662D01*
X84982011Y-58573084D01*
X84938119Y-58551996D01*
X84887103Y-58478616D01*
X84879854Y-58463508D01*
X84825634Y-58385678D01*
X84761860Y-58383434D01*
X84679469Y-58458201D01*
X84646498Y-58500221D01*
X84592401Y-58580954D01*
X84589531Y-58633195D01*
X84636206Y-58694552D01*
X84637728Y-58696235D01*
X84736999Y-58768689D01*
X84833089Y-58805886D01*
X84922339Y-58844273D01*
X85053788Y-58922301D01*
X85205483Y-59024351D01*
X85355476Y-59134805D01*
X85481816Y-59238045D01*
X85562553Y-59318451D01*
X85572167Y-59331762D01*
X85613579Y-59423121D01*
X85640998Y-59515046D01*
X85652461Y-59612733D01*
X85652179Y-59730431D01*
X85642612Y-59845338D01*
X85626220Y-59934652D01*
X85605464Y-59975571D01*
X85592151Y-59967754D01*
X85569649Y-59975458D01*
X85545238Y-60052203D01*
X85529197Y-60144141D01*
X85505442Y-60289791D01*
X85479129Y-60411380D01*
X85465536Y-60456500D01*
X85440517Y-60507996D01*
X85421261Y-60488612D01*
X85402804Y-60424750D01*
X85367889Y-60343595D01*
X85327316Y-60306655D01*
X85299988Y-60326658D01*
X85297000Y-60353520D01*
X85264609Y-60380428D01*
X85222319Y-60375003D01*
X85139726Y-60388143D01*
X85071682Y-60483215D01*
X85023772Y-60638176D01*
X84988830Y-60730642D01*
X84951018Y-60744406D01*
X84923001Y-60683993D01*
X84916000Y-60599670D01*
X84904964Y-60518742D01*
X84878221Y-60496151D01*
X84876409Y-60497139D01*
X84845409Y-60477765D01*
X84821472Y-60398168D01*
X84819329Y-60383220D01*
X84805666Y-60295870D01*
X84791343Y-60285547D01*
X84769083Y-60340976D01*
X84732706Y-60405624D01*
X84685252Y-60394665D01*
X84682028Y-60392055D01*
X84644551Y-60381599D01*
X84617355Y-60433428D01*
X84597765Y-60528746D01*
X84569987Y-60662447D01*
X84539843Y-60757127D01*
X84513400Y-60800311D01*
X84496723Y-60779525D01*
X84493954Y-60742250D01*
X84476986Y-60667874D01*
X84450334Y-60647000D01*
X84423788Y-60609270D01*
X84407096Y-60514390D01*
X84404747Y-60467084D01*
X84401493Y-60287167D01*
X84350165Y-60456500D01*
X84315528Y-60548752D01*
X84286805Y-60571983D01*
X84262606Y-60522572D01*
X84241537Y-60396899D01*
X84222208Y-60191343D01*
X84216141Y-60107782D01*
X84197052Y-59915891D01*
X84169103Y-59735967D01*
X84137524Y-59600019D01*
X84129069Y-59575046D01*
X84095535Y-59474190D01*
X84098657Y-59438461D01*
X84121377Y-59445809D01*
X84186639Y-59486172D01*
X84293829Y-59553258D01*
X84363372Y-59597014D01*
X84523256Y-59678969D01*
X84685301Y-59712406D01*
X84778974Y-59715667D01*
X84909270Y-59713217D01*
X84973164Y-59700067D01*
X84988897Y-59667518D01*
X84978705Y-59620417D01*
X84910812Y-59507674D01*
X84788906Y-59401308D01*
X84638730Y-59315478D01*
X84486028Y-59264341D01*
X84356543Y-59262054D01*
X84337723Y-59267910D01*
X84281811Y-59249783D01*
X84226578Y-59169116D01*
X84181585Y-59047571D01*
X84156393Y-58906807D01*
X84154000Y-58851692D01*
X84142883Y-58745768D01*
X84115712Y-58681671D01*
X84111667Y-58678500D01*
X84072138Y-58608380D01*
X84074196Y-58488876D01*
X84114131Y-58342133D01*
X84188232Y-58190296D01*
X84195401Y-58178788D01*
X84276549Y-58061795D01*
X84344070Y-58002072D01*
X84422695Y-57981410D01*
X84465384Y-57980000D01*
X84577728Y-57964041D01*
X84654481Y-57925321D01*
X84657200Y-57922284D01*
X84723410Y-57886006D01*
X84843914Y-57853013D01*
X84948134Y-57836213D01*
X85118346Y-57815081D01*
X85283620Y-57792551D01*
X85356558Y-57781624D01*
X85521949Y-57755388D01*
X85499492Y-57941778D01*
G37*
X85499492Y-57941778D02*
X85491616Y-58097569D01*
X85497291Y-58279688D01*
X85504772Y-58361000D01*
X85505781Y-58674017D01*
X85439835Y-58953667D01*
X85407897Y-58985012D01*
X85367039Y-58952544D01*
X85327915Y-58874823D01*
X85301174Y-58770410D01*
X85295500Y-58702159D01*
X85292380Y-58606522D01*
X85279700Y-58586665D01*
X85248407Y-58633705D01*
X85240383Y-58648078D01*
X85184444Y-58712009D01*
X85142558Y-58695406D01*
X85127667Y-58612474D01*
X85095568Y-58536699D01*
X85064167Y-58515025D01*
X85009656Y-58514145D01*
X85000667Y-58531662D01*
X84982011Y-58573084D01*
X84938119Y-58551996D01*
X84887103Y-58478616D01*
X84879854Y-58463508D01*
X84825634Y-58385678D01*
X84761860Y-58383434D01*
X84679469Y-58458201D01*
X84646498Y-58500221D01*
X84592401Y-58580954D01*
X84589531Y-58633195D01*
X84636206Y-58694552D01*
X84637728Y-58696235D01*
X84736999Y-58768689D01*
X84833089Y-58805886D01*
X84922339Y-58844273D01*
X85053788Y-58922301D01*
X85205483Y-59024351D01*
X85355476Y-59134805D01*
X85481816Y-59238045D01*
X85562553Y-59318451D01*
X85572167Y-59331762D01*
X85613579Y-59423121D01*
X85640998Y-59515046D01*
X85652461Y-59612733D01*
X85652179Y-59730431D01*
X85642612Y-59845338D01*
X85626220Y-59934652D01*
X85605464Y-59975571D01*
X85592151Y-59967754D01*
X85569649Y-59975458D01*
X85545238Y-60052203D01*
X85529197Y-60144141D01*
X85505442Y-60289791D01*
X85479129Y-60411380D01*
X85465536Y-60456500D01*
X85440517Y-60507996D01*
X85421261Y-60488612D01*
X85402804Y-60424750D01*
X85367889Y-60343595D01*
X85327316Y-60306655D01*
X85299988Y-60326658D01*
X85297000Y-60353520D01*
X85264609Y-60380428D01*
X85222319Y-60375003D01*
X85139726Y-60388143D01*
X85071682Y-60483215D01*
X85023772Y-60638176D01*
X84988830Y-60730642D01*
X84951018Y-60744406D01*
X84923001Y-60683993D01*
X84916000Y-60599670D01*
X84904964Y-60518742D01*
X84878221Y-60496151D01*
X84876409Y-60497139D01*
X84845409Y-60477765D01*
X84821472Y-60398168D01*
X84819329Y-60383220D01*
X84805666Y-60295870D01*
X84791343Y-60285547D01*
X84769083Y-60340976D01*
X84732706Y-60405624D01*
X84685252Y-60394665D01*
X84682028Y-60392055D01*
X84644551Y-60381599D01*
X84617355Y-60433428D01*
X84597765Y-60528746D01*
X84569987Y-60662447D01*
X84539843Y-60757127D01*
X84513400Y-60800311D01*
X84496723Y-60779525D01*
X84493954Y-60742250D01*
X84476986Y-60667874D01*
X84450334Y-60647000D01*
X84423788Y-60609270D01*
X84407096Y-60514390D01*
X84404747Y-60467084D01*
X84401493Y-60287167D01*
X84350165Y-60456500D01*
X84315528Y-60548752D01*
X84286805Y-60571983D01*
X84262606Y-60522572D01*
X84241537Y-60396899D01*
X84222208Y-60191343D01*
X84216141Y-60107782D01*
X84197052Y-59915891D01*
X84169103Y-59735967D01*
X84137524Y-59600019D01*
X84129069Y-59575046D01*
X84095535Y-59474190D01*
X84098657Y-59438461D01*
X84121377Y-59445809D01*
X84186639Y-59486172D01*
X84293829Y-59553258D01*
X84363372Y-59597014D01*
X84523256Y-59678969D01*
X84685301Y-59712406D01*
X84778974Y-59715667D01*
X84909270Y-59713217D01*
X84973164Y-59700067D01*
X84988897Y-59667518D01*
X84978705Y-59620417D01*
X84910812Y-59507674D01*
X84788906Y-59401308D01*
X84638730Y-59315478D01*
X84486028Y-59264341D01*
X84356543Y-59262054D01*
X84337723Y-59267910D01*
X84281811Y-59249783D01*
X84226578Y-59169116D01*
X84181585Y-59047571D01*
X84156393Y-58906807D01*
X84154000Y-58851692D01*
X84142883Y-58745768D01*
X84115712Y-58681671D01*
X84111667Y-58678500D01*
X84072138Y-58608380D01*
X84074196Y-58488876D01*
X84114131Y-58342133D01*
X84188232Y-58190296D01*
X84195401Y-58178788D01*
X84276549Y-58061795D01*
X84344070Y-58002072D01*
X84422695Y-57981410D01*
X84465384Y-57980000D01*
X84577728Y-57964041D01*
X84654481Y-57925321D01*
X84657200Y-57922284D01*
X84723410Y-57886006D01*
X84843914Y-57853013D01*
X84948134Y-57836213D01*
X85118346Y-57815081D01*
X85283620Y-57792551D01*
X85356558Y-57781624D01*
X85521949Y-57755388D01*
X85499492Y-57941778D01*
G36*
X82424599Y-57772205D02*
G01*
X82442318Y-57778206D01*
X82441439Y-57822938D01*
X82425462Y-57923272D01*
X82411249Y-57994249D01*
X82393885Y-58132051D01*
X82385796Y-58320023D01*
X82388134Y-58524059D01*
X82391224Y-58586377D01*
X82401801Y-58762082D01*
X82410469Y-58906511D01*
X82415942Y-58998197D01*
X82417056Y-59017167D01*
X82417533Y-59127749D01*
X82410479Y-59274744D01*
X82397879Y-59438843D01*
X82381720Y-59600737D01*
X82363989Y-59741117D01*
X82346673Y-59840674D01*
X82331758Y-59880099D01*
X82328480Y-59878057D01*
X82312154Y-59890248D01*
X82299804Y-59975912D01*
X82292629Y-60123902D01*
X82291334Y-60223667D01*
X82284157Y-60461435D01*
X82265821Y-60617098D01*
X82238421Y-60690199D01*
X82204055Y-60680279D01*
X82164817Y-60586879D01*
X82122804Y-60409542D01*
X82097667Y-60266000D01*
X82067415Y-60075500D01*
X81994384Y-60244834D01*
X81921353Y-60414167D01*
X81890525Y-60176562D01*
X81874519Y-59989118D01*
X81869602Y-59789154D01*
X81871797Y-59710895D01*
X81879504Y-59489027D01*
X81878193Y-59302769D01*
X81868732Y-59163988D01*
X81851989Y-59084548D01*
X81828832Y-59076312D01*
X81825667Y-59080667D01*
X81800728Y-59159712D01*
X81785798Y-59284823D01*
X81783982Y-59342752D01*
X81775912Y-59465252D01*
X81756206Y-59548482D01*
X81744134Y-59565563D01*
X81723657Y-59615963D01*
X81701928Y-59730401D01*
X81682440Y-59888380D01*
X81675174Y-59970228D01*
X81654565Y-60177601D01*
X81631406Y-60301400D01*
X81605136Y-60342697D01*
X81575198Y-60302561D01*
X81548363Y-60213084D01*
X81514477Y-60075500D01*
X81498056Y-60213084D01*
X81479250Y-60317028D01*
X81449632Y-60345319D01*
X81397568Y-60306968D01*
X81388726Y-60297750D01*
X81350747Y-60227718D01*
X81303040Y-60098887D01*
X81252803Y-59935417D01*
X81207228Y-59761469D01*
X81173511Y-59601203D01*
X81164956Y-59546334D01*
X81142931Y-59392426D01*
X81120775Y-59250000D01*
X81098923Y-59160406D01*
X81077552Y-59144540D01*
X81058856Y-59191482D01*
X81045031Y-59290313D01*
X81038271Y-59430111D01*
X81040771Y-59599955D01*
X81042684Y-59638530D01*
X81049324Y-59865989D01*
X81041514Y-60034656D01*
X81020208Y-60136577D01*
X80986360Y-60163796D01*
X80980046Y-60160813D01*
X80964481Y-60190263D01*
X80951084Y-60286064D01*
X80942078Y-60429900D01*
X80940390Y-60487499D01*
X80934409Y-60682039D01*
X80925404Y-60798594D01*
X80911683Y-60843836D01*
X80891554Y-60824436D01*
X80869619Y-60766607D01*
X80846239Y-60675437D01*
X80816442Y-60532051D01*
X80787434Y-60371834D01*
X80737696Y-60075500D01*
X80684873Y-60213084D01*
X80639750Y-60304998D01*
X80598444Y-60349811D01*
X80593859Y-60350667D01*
X80579781Y-60310836D01*
X80567033Y-60201352D01*
X80556741Y-60037230D01*
X80550030Y-59833483D01*
X80548637Y-59747417D01*
X80544528Y-59460074D01*
X80538694Y-59136644D01*
X80531948Y-58818806D01*
X80525784Y-58572667D01*
X80519706Y-58352915D01*
X80514294Y-58156773D01*
X80510074Y-58003383D01*
X80507575Y-57911888D01*
X80507340Y-57903168D01*
X80515202Y-57810071D01*
X80556143Y-57782420D01*
X80645918Y-57813288D01*
X80676631Y-57828712D01*
X80803320Y-57871460D01*
X80956516Y-57894199D01*
X80993187Y-57895334D01*
X81180911Y-57895334D01*
X81211086Y-58138750D01*
X81238937Y-58303087D01*
X81277114Y-58456759D01*
X81300630Y-58524920D01*
X81339144Y-58660167D01*
X81361771Y-58820729D01*
X81363786Y-58863587D01*
X81367571Y-59059500D01*
X81426469Y-58847834D01*
X81461126Y-58705383D01*
X81482721Y-58582293D01*
X81486184Y-58539427D01*
X81510006Y-58431225D01*
X81554659Y-58339428D01*
X81603906Y-58197813D01*
X81607576Y-58026436D01*
X81592834Y-57816704D01*
X81889167Y-57793431D01*
X82147930Y-57775451D01*
X82326971Y-57768360D01*
X82424599Y-57772205D01*
G37*
X82424599Y-57772205D02*
X82442318Y-57778206D01*
X82441439Y-57822938D01*
X82425462Y-57923272D01*
X82411249Y-57994249D01*
X82393885Y-58132051D01*
X82385796Y-58320023D01*
X82388134Y-58524059D01*
X82391224Y-58586377D01*
X82401801Y-58762082D01*
X82410469Y-58906511D01*
X82415942Y-58998197D01*
X82417056Y-59017167D01*
X82417533Y-59127749D01*
X82410479Y-59274744D01*
X82397879Y-59438843D01*
X82381720Y-59600737D01*
X82363989Y-59741117D01*
X82346673Y-59840674D01*
X82331758Y-59880099D01*
X82328480Y-59878057D01*
X82312154Y-59890248D01*
X82299804Y-59975912D01*
X82292629Y-60123902D01*
X82291334Y-60223667D01*
X82284157Y-60461435D01*
X82265821Y-60617098D01*
X82238421Y-60690199D01*
X82204055Y-60680279D01*
X82164817Y-60586879D01*
X82122804Y-60409542D01*
X82097667Y-60266000D01*
X82067415Y-60075500D01*
X81994384Y-60244834D01*
X81921353Y-60414167D01*
X81890525Y-60176562D01*
X81874519Y-59989118D01*
X81869602Y-59789154D01*
X81871797Y-59710895D01*
X81879504Y-59489027D01*
X81878193Y-59302769D01*
X81868732Y-59163988D01*
X81851989Y-59084548D01*
X81828832Y-59076312D01*
X81825667Y-59080667D01*
X81800728Y-59159712D01*
X81785798Y-59284823D01*
X81783982Y-59342752D01*
X81775912Y-59465252D01*
X81756206Y-59548482D01*
X81744134Y-59565563D01*
X81723657Y-59615963D01*
X81701928Y-59730401D01*
X81682440Y-59888380D01*
X81675174Y-59970228D01*
X81654565Y-60177601D01*
X81631406Y-60301400D01*
X81605136Y-60342697D01*
X81575198Y-60302561D01*
X81548363Y-60213084D01*
X81514477Y-60075500D01*
X81498056Y-60213084D01*
X81479250Y-60317028D01*
X81449632Y-60345319D01*
X81397568Y-60306968D01*
X81388726Y-60297750D01*
X81350747Y-60227718D01*
X81303040Y-60098887D01*
X81252803Y-59935417D01*
X81207228Y-59761469D01*
X81173511Y-59601203D01*
X81164956Y-59546334D01*
X81142931Y-59392426D01*
X81120775Y-59250000D01*
X81098923Y-59160406D01*
X81077552Y-59144540D01*
X81058856Y-59191482D01*
X81045031Y-59290313D01*
X81038271Y-59430111D01*
X81040771Y-59599955D01*
X81042684Y-59638530D01*
X81049324Y-59865989D01*
X81041514Y-60034656D01*
X81020208Y-60136577D01*
X80986360Y-60163796D01*
X80980046Y-60160813D01*
X80964481Y-60190263D01*
X80951084Y-60286064D01*
X80942078Y-60429900D01*
X80940390Y-60487499D01*
X80934409Y-60682039D01*
X80925404Y-60798594D01*
X80911683Y-60843836D01*
X80891554Y-60824436D01*
X80869619Y-60766607D01*
X80846239Y-60675437D01*
X80816442Y-60532051D01*
X80787434Y-60371834D01*
X80737696Y-60075500D01*
X80684873Y-60213084D01*
X80639750Y-60304998D01*
X80598444Y-60349811D01*
X80593859Y-60350667D01*
X80579781Y-60310836D01*
X80567033Y-60201352D01*
X80556741Y-60037230D01*
X80550030Y-59833483D01*
X80548637Y-59747417D01*
X80544528Y-59460074D01*
X80538694Y-59136644D01*
X80531948Y-58818806D01*
X80525784Y-58572667D01*
X80519706Y-58352915D01*
X80514294Y-58156773D01*
X80510074Y-58003383D01*
X80507575Y-57911888D01*
X80507340Y-57903168D01*
X80515202Y-57810071D01*
X80556143Y-57782420D01*
X80645918Y-57813288D01*
X80676631Y-57828712D01*
X80803320Y-57871460D01*
X80956516Y-57894199D01*
X80993187Y-57895334D01*
X81180911Y-57895334D01*
X81211086Y-58138750D01*
X81238937Y-58303087D01*
X81277114Y-58456759D01*
X81300630Y-58524920D01*
X81339144Y-58660167D01*
X81361771Y-58820729D01*
X81363786Y-58863587D01*
X81367571Y-59059500D01*
X81426469Y-58847834D01*
X81461126Y-58705383D01*
X81482721Y-58582293D01*
X81486184Y-58539427D01*
X81510006Y-58431225D01*
X81554659Y-58339428D01*
X81603906Y-58197813D01*
X81607576Y-58026436D01*
X81592834Y-57816704D01*
X81889167Y-57793431D01*
X82147930Y-57775451D01*
X82326971Y-57768360D01*
X82424599Y-57772205D01*
G36*
X106378629Y-88519066D02*
G01*
X106418111Y-88519467D01*
X106533800Y-88522259D01*
X106630689Y-88530550D01*
X106712081Y-88545232D01*
X106781277Y-88567193D01*
X106841580Y-88597322D01*
X106896292Y-88636510D01*
X106915833Y-88653532D01*
X106948250Y-88693363D01*
X106977480Y-88747413D01*
X107000009Y-88807323D01*
X107012321Y-88864739D01*
X107013600Y-88885956D01*
X107005583Y-88944769D01*
X106984101Y-89009013D01*
X106953001Y-89069821D01*
X106916134Y-89118330D01*
X106910146Y-89124182D01*
X106859421Y-89165321D01*
X106803875Y-89197435D01*
X106740304Y-89221365D01*
X106665506Y-89237953D01*
X106576278Y-89248041D01*
X106469418Y-89252469D01*
X106420472Y-89252845D01*
X106358238Y-89252545D01*
X106314472Y-89251292D01*
X106285069Y-89248554D01*
X106265921Y-89243801D01*
X106252923Y-89236501D01*
X106245955Y-89230267D01*
X106239374Y-89222694D01*
X106234212Y-89212924D01*
X106230297Y-89198340D01*
X106227457Y-89176326D01*
X106225520Y-89144264D01*
X106224316Y-89099536D01*
X106223672Y-89039526D01*
X106223417Y-88961617D01*
X106223378Y-88885956D01*
X106223130Y-88785041D01*
X106223183Y-88704427D01*
X106224143Y-88665822D01*
X106370133Y-88665822D01*
X106370133Y-89106089D01*
X106463266Y-89106004D01*
X106519307Y-89104396D01*
X106578001Y-89100256D01*
X106626972Y-89094464D01*
X106628462Y-89094226D01*
X106707608Y-89075090D01*
X106768998Y-89045287D01*
X106815695Y-89002878D01*
X106845365Y-88956961D01*
X106863647Y-88906026D01*
X106862229Y-88858200D01*
X106841012Y-88806933D01*
X106799511Y-88753899D01*
X106742002Y-88714600D01*
X106667250Y-88688331D01*
X106617292Y-88679035D01*
X106560584Y-88672507D01*
X106500481Y-88667782D01*
X106449361Y-88665817D01*
X106446333Y-88665808D01*
X106370133Y-88665822D01*
X106224143Y-88665822D01*
X106224740Y-88641851D01*
X106229002Y-88595055D01*
X106237170Y-88561778D01*
X106250444Y-88539759D01*
X106270026Y-88526739D01*
X106297117Y-88520457D01*
X106332918Y-88518653D01*
X106378629Y-88519066D01*
G37*
X106378629Y-88519066D02*
X106418111Y-88519467D01*
X106533800Y-88522259D01*
X106630689Y-88530550D01*
X106712081Y-88545232D01*
X106781277Y-88567193D01*
X106841580Y-88597322D01*
X106896292Y-88636510D01*
X106915833Y-88653532D01*
X106948250Y-88693363D01*
X106977480Y-88747413D01*
X107000009Y-88807323D01*
X107012321Y-88864739D01*
X107013600Y-88885956D01*
X107005583Y-88944769D01*
X106984101Y-89009013D01*
X106953001Y-89069821D01*
X106916134Y-89118330D01*
X106910146Y-89124182D01*
X106859421Y-89165321D01*
X106803875Y-89197435D01*
X106740304Y-89221365D01*
X106665506Y-89237953D01*
X106576278Y-89248041D01*
X106469418Y-89252469D01*
X106420472Y-89252845D01*
X106358238Y-89252545D01*
X106314472Y-89251292D01*
X106285069Y-89248554D01*
X106265921Y-89243801D01*
X106252923Y-89236501D01*
X106245955Y-89230267D01*
X106239374Y-89222694D01*
X106234212Y-89212924D01*
X106230297Y-89198340D01*
X106227457Y-89176326D01*
X106225520Y-89144264D01*
X106224316Y-89099536D01*
X106223672Y-89039526D01*
X106223417Y-88961617D01*
X106223378Y-88885956D01*
X106223130Y-88785041D01*
X106223183Y-88704427D01*
X106224143Y-88665822D01*
X106370133Y-88665822D01*
X106370133Y-89106089D01*
X106463266Y-89106004D01*
X106519307Y-89104396D01*
X106578001Y-89100256D01*
X106626972Y-89094464D01*
X106628462Y-89094226D01*
X106707608Y-89075090D01*
X106768998Y-89045287D01*
X106815695Y-89002878D01*
X106845365Y-88956961D01*
X106863647Y-88906026D01*
X106862229Y-88858200D01*
X106841012Y-88806933D01*
X106799511Y-88753899D01*
X106742002Y-88714600D01*
X106667250Y-88688331D01*
X106617292Y-88679035D01*
X106560584Y-88672507D01*
X106500481Y-88667782D01*
X106449361Y-88665817D01*
X106446333Y-88665808D01*
X106370133Y-88665822D01*
X106224143Y-88665822D01*
X106224740Y-88641851D01*
X106229002Y-88595055D01*
X106237170Y-88561778D01*
X106250444Y-88539759D01*
X106270026Y-88526739D01*
X106297117Y-88520457D01*
X106332918Y-88518653D01*
X106378629Y-88519066D01*
G36*
X107787206Y-88519146D02*
G01*
X107856614Y-88519518D01*
X107909003Y-88520385D01*
X107947153Y-88521946D01*
X107973841Y-88524403D01*
X107991847Y-88527957D01*
X108003951Y-88532810D01*
X108012931Y-88539161D01*
X108016182Y-88542084D01*
X108035957Y-88573142D01*
X108039518Y-88608828D01*
X108026509Y-88640510D01*
X108020494Y-88646913D01*
X108010765Y-88653121D01*
X107995099Y-88657910D01*
X107970592Y-88661514D01*
X107934339Y-88664164D01*
X107883435Y-88666095D01*
X107814974Y-88667539D01*
X107752383Y-88668418D01*
X107504666Y-88671467D01*
X107501281Y-88736378D01*
X107497895Y-88801289D01*
X107666042Y-88801289D01*
X107739041Y-88801919D01*
X107792483Y-88804553D01*
X107829372Y-88810309D01*
X107852712Y-88820304D01*
X107865506Y-88835656D01*
X107870758Y-88857482D01*
X107871555Y-88877738D01*
X107869077Y-88902592D01*
X107859723Y-88920906D01*
X107840617Y-88933637D01*
X107808882Y-88941741D01*
X107761641Y-88946176D01*
X107696017Y-88947899D01*
X107660199Y-88948045D01*
X107499022Y-88948045D01*
X107499022Y-89106089D01*
X107747378Y-89106089D01*
X107828787Y-89106202D01*
X107890658Y-89106712D01*
X107936032Y-89107870D01*
X107967946Y-89109930D01*
X107989441Y-89113146D01*
X108003557Y-89117772D01*
X108013332Y-89124059D01*
X108018311Y-89128667D01*
X108035390Y-89155560D01*
X108040889Y-89179467D01*
X108033037Y-89208667D01*
X108018311Y-89230267D01*
X108010454Y-89237066D01*
X108000312Y-89242346D01*
X107985156Y-89246298D01*
X107962259Y-89249113D01*
X107928891Y-89250982D01*
X107882325Y-89252098D01*
X107819833Y-89252651D01*
X107738686Y-89252833D01*
X107696578Y-89252845D01*
X107606402Y-89252765D01*
X107536076Y-89252398D01*
X107482871Y-89251552D01*
X107444060Y-89250036D01*
X107416913Y-89247659D01*
X107398702Y-89244229D01*
X107386700Y-89239554D01*
X107378178Y-89233444D01*
X107374844Y-89230267D01*
X107368245Y-89222670D01*
X107363073Y-89212870D01*
X107359154Y-89198239D01*
X107356316Y-89176152D01*
X107354385Y-89143982D01*
X107353188Y-89099103D01*
X107352552Y-89038889D01*
X107352303Y-88960713D01*
X107352266Y-88887923D01*
X107352300Y-88794707D01*
X107352535Y-88721431D01*
X107353170Y-88665458D01*
X107354406Y-88624151D01*
X107356444Y-88594872D01*
X107359483Y-88574984D01*
X107363723Y-88561850D01*
X107369365Y-88552832D01*
X107376609Y-88545293D01*
X107378394Y-88543612D01*
X107387055Y-88536172D01*
X107397118Y-88530409D01*
X107411375Y-88526112D01*
X107432617Y-88523064D01*
X107463636Y-88521051D01*
X107507223Y-88519860D01*
X107566169Y-88519275D01*
X107643266Y-88519083D01*
X107697999Y-88519067D01*
X107787206Y-88519146D01*
G37*
X107787206Y-88519146D02*
X107856614Y-88519518D01*
X107909003Y-88520385D01*
X107947153Y-88521946D01*
X107973841Y-88524403D01*
X107991847Y-88527957D01*
X108003951Y-88532810D01*
X108012931Y-88539161D01*
X108016182Y-88542084D01*
X108035957Y-88573142D01*
X108039518Y-88608828D01*
X108026509Y-88640510D01*
X108020494Y-88646913D01*
X108010765Y-88653121D01*
X107995099Y-88657910D01*
X107970592Y-88661514D01*
X107934339Y-88664164D01*
X107883435Y-88666095D01*
X107814974Y-88667539D01*
X107752383Y-88668418D01*
X107504666Y-88671467D01*
X107501281Y-88736378D01*
X107497895Y-88801289D01*
X107666042Y-88801289D01*
X107739041Y-88801919D01*
X107792483Y-88804553D01*
X107829372Y-88810309D01*
X107852712Y-88820304D01*
X107865506Y-88835656D01*
X107870758Y-88857482D01*
X107871555Y-88877738D01*
X107869077Y-88902592D01*
X107859723Y-88920906D01*
X107840617Y-88933637D01*
X107808882Y-88941741D01*
X107761641Y-88946176D01*
X107696017Y-88947899D01*
X107660199Y-88948045D01*
X107499022Y-88948045D01*
X107499022Y-89106089D01*
X107747378Y-89106089D01*
X107828787Y-89106202D01*
X107890658Y-89106712D01*
X107936032Y-89107870D01*
X107967946Y-89109930D01*
X107989441Y-89113146D01*
X108003557Y-89117772D01*
X108013332Y-89124059D01*
X108018311Y-89128667D01*
X108035390Y-89155560D01*
X108040889Y-89179467D01*
X108033037Y-89208667D01*
X108018311Y-89230267D01*
X108010454Y-89237066D01*
X108000312Y-89242346D01*
X107985156Y-89246298D01*
X107962259Y-89249113D01*
X107928891Y-89250982D01*
X107882325Y-89252098D01*
X107819833Y-89252651D01*
X107738686Y-89252833D01*
X107696578Y-89252845D01*
X107606402Y-89252765D01*
X107536076Y-89252398D01*
X107482871Y-89251552D01*
X107444060Y-89250036D01*
X107416913Y-89247659D01*
X107398702Y-89244229D01*
X107386700Y-89239554D01*
X107378178Y-89233444D01*
X107374844Y-89230267D01*
X107368245Y-89222670D01*
X107363073Y-89212870D01*
X107359154Y-89198239D01*
X107356316Y-89176152D01*
X107354385Y-89143982D01*
X107353188Y-89099103D01*
X107352552Y-89038889D01*
X107352303Y-88960713D01*
X107352266Y-88887923D01*
X107352300Y-88794707D01*
X107352535Y-88721431D01*
X107353170Y-88665458D01*
X107354406Y-88624151D01*
X107356444Y-88594872D01*
X107359483Y-88574984D01*
X107363723Y-88561850D01*
X107369365Y-88552832D01*
X107376609Y-88545293D01*
X107378394Y-88543612D01*
X107387055Y-88536172D01*
X107397118Y-88530409D01*
X107411375Y-88526112D01*
X107432617Y-88523064D01*
X107463636Y-88521051D01*
X107507223Y-88519860D01*
X107566169Y-88519275D01*
X107643266Y-88519083D01*
X107697999Y-88519067D01*
X107787206Y-88519146D01*
G36*
X108808297Y-88520351D02*
G01*
X108883112Y-88525581D01*
X108952694Y-88533750D01*
X109012998Y-88544550D01*
X109059980Y-88557673D01*
X109089594Y-88572813D01*
X109094140Y-88577269D01*
X109109946Y-88611850D01*
X109105153Y-88647351D01*
X109080636Y-88677725D01*
X109079466Y-88678596D01*
X109065046Y-88687954D01*
X109049992Y-88692876D01*
X109028995Y-88693473D01*
X108996743Y-88689861D01*
X108947927Y-88682154D01*
X108944000Y-88681505D01*
X108871261Y-88672569D01*
X108792783Y-88668161D01*
X108714073Y-88668119D01*
X108640639Y-88672279D01*
X108577989Y-88680479D01*
X108531630Y-88692557D01*
X108528584Y-88693771D01*
X108494952Y-88712615D01*
X108483136Y-88731685D01*
X108492386Y-88750439D01*
X108521953Y-88768337D01*
X108571089Y-88784837D01*
X108639043Y-88799396D01*
X108684355Y-88806406D01*
X108778544Y-88819889D01*
X108853456Y-88832214D01*
X108912283Y-88844449D01*
X108958215Y-88857661D01*
X108994445Y-88872917D01*
X109024162Y-88891285D01*
X109050558Y-88913831D01*
X109071770Y-88935971D01*
X109096935Y-88966819D01*
X109109319Y-88993345D01*
X109113192Y-89026026D01*
X109113333Y-89037995D01*
X109110424Y-89077712D01*
X109098798Y-89107259D01*
X109078677Y-89133486D01*
X109037784Y-89173576D01*
X108992183Y-89204149D01*
X108938487Y-89226203D01*
X108873308Y-89240735D01*
X108793256Y-89248741D01*
X108694943Y-89251218D01*
X108678711Y-89251177D01*
X108613151Y-89249818D01*
X108548134Y-89246730D01*
X108490748Y-89242356D01*
X108448078Y-89237140D01*
X108444628Y-89236541D01*
X108402204Y-89226491D01*
X108366220Y-89213796D01*
X108345850Y-89202190D01*
X108326893Y-89171572D01*
X108325573Y-89135918D01*
X108341915Y-89104144D01*
X108345571Y-89100551D01*
X108360685Y-89089876D01*
X108379585Y-89085276D01*
X108408838Y-89086059D01*
X108444349Y-89090127D01*
X108484030Y-89093762D01*
X108539655Y-89096828D01*
X108604594Y-89099053D01*
X108672215Y-89100164D01*
X108690000Y-89100237D01*
X108757872Y-89099964D01*
X108807546Y-89098646D01*
X108843390Y-89095827D01*
X108869776Y-89091050D01*
X108891074Y-89083857D01*
X108903874Y-89077867D01*
X108932000Y-89061233D01*
X108949932Y-89046168D01*
X108952553Y-89041897D01*
X108947024Y-89024263D01*
X108920740Y-89007192D01*
X108875522Y-88991458D01*
X108813192Y-88977838D01*
X108794829Y-88974804D01*
X108698910Y-88959738D01*
X108622359Y-88947146D01*
X108562220Y-88936111D01*
X108515540Y-88925720D01*
X108479363Y-88915056D01*
X108450735Y-88903205D01*
X108426702Y-88889251D01*
X108404308Y-88872281D01*
X108380598Y-88851378D01*
X108372620Y-88844049D01*
X108344647Y-88816699D01*
X108329840Y-88795029D01*
X108324048Y-88770232D01*
X108323111Y-88738983D01*
X108333425Y-88677705D01*
X108364248Y-88625640D01*
X108415405Y-88582958D01*
X108486717Y-88549825D01*
X108537600Y-88534964D01*
X108592900Y-88525366D01*
X108659147Y-88519936D01*
X108732294Y-88518367D01*
X108808297Y-88520351D01*
G37*
X108808297Y-88520351D02*
X108883112Y-88525581D01*
X108952694Y-88533750D01*
X109012998Y-88544550D01*
X109059980Y-88557673D01*
X109089594Y-88572813D01*
X109094140Y-88577269D01*
X109109946Y-88611850D01*
X109105153Y-88647351D01*
X109080636Y-88677725D01*
X109079466Y-88678596D01*
X109065046Y-88687954D01*
X109049992Y-88692876D01*
X109028995Y-88693473D01*
X108996743Y-88689861D01*
X108947927Y-88682154D01*
X108944000Y-88681505D01*
X108871261Y-88672569D01*
X108792783Y-88668161D01*
X108714073Y-88668119D01*
X108640639Y-88672279D01*
X108577989Y-88680479D01*
X108531630Y-88692557D01*
X108528584Y-88693771D01*
X108494952Y-88712615D01*
X108483136Y-88731685D01*
X108492386Y-88750439D01*
X108521953Y-88768337D01*
X108571089Y-88784837D01*
X108639043Y-88799396D01*
X108684355Y-88806406D01*
X108778544Y-88819889D01*
X108853456Y-88832214D01*
X108912283Y-88844449D01*
X108958215Y-88857661D01*
X108994445Y-88872917D01*
X109024162Y-88891285D01*
X109050558Y-88913831D01*
X109071770Y-88935971D01*
X109096935Y-88966819D01*
X109109319Y-88993345D01*
X109113192Y-89026026D01*
X109113333Y-89037995D01*
X109110424Y-89077712D01*
X109098798Y-89107259D01*
X109078677Y-89133486D01*
X109037784Y-89173576D01*
X108992183Y-89204149D01*
X108938487Y-89226203D01*
X108873308Y-89240735D01*
X108793256Y-89248741D01*
X108694943Y-89251218D01*
X108678711Y-89251177D01*
X108613151Y-89249818D01*
X108548134Y-89246730D01*
X108490748Y-89242356D01*
X108448078Y-89237140D01*
X108444628Y-89236541D01*
X108402204Y-89226491D01*
X108366220Y-89213796D01*
X108345850Y-89202190D01*
X108326893Y-89171572D01*
X108325573Y-89135918D01*
X108341915Y-89104144D01*
X108345571Y-89100551D01*
X108360685Y-89089876D01*
X108379585Y-89085276D01*
X108408838Y-89086059D01*
X108444349Y-89090127D01*
X108484030Y-89093762D01*
X108539655Y-89096828D01*
X108604594Y-89099053D01*
X108672215Y-89100164D01*
X108690000Y-89100237D01*
X108757872Y-89099964D01*
X108807546Y-89098646D01*
X108843390Y-89095827D01*
X108869776Y-89091050D01*
X108891074Y-89083857D01*
X108903874Y-89077867D01*
X108932000Y-89061233D01*
X108949932Y-89046168D01*
X108952553Y-89041897D01*
X108947024Y-89024263D01*
X108920740Y-89007192D01*
X108875522Y-88991458D01*
X108813192Y-88977838D01*
X108794829Y-88974804D01*
X108698910Y-88959738D01*
X108622359Y-88947146D01*
X108562220Y-88936111D01*
X108515540Y-88925720D01*
X108479363Y-88915056D01*
X108450735Y-88903205D01*
X108426702Y-88889251D01*
X108404308Y-88872281D01*
X108380598Y-88851378D01*
X108372620Y-88844049D01*
X108344647Y-88816699D01*
X108329840Y-88795029D01*
X108324048Y-88770232D01*
X108323111Y-88738983D01*
X108333425Y-88677705D01*
X108364248Y-88625640D01*
X108415405Y-88582958D01*
X108486717Y-88549825D01*
X108537600Y-88534964D01*
X108592900Y-88525366D01*
X108659147Y-88519936D01*
X108732294Y-88518367D01*
X108808297Y-88520351D01*
G36*
X109576178Y-88541645D02*
G01*
X109582758Y-88549218D01*
X109587921Y-88558987D01*
X109591836Y-88573571D01*
X109594676Y-88595585D01*
X109596613Y-88627648D01*
X109597817Y-88672375D01*
X109598461Y-88732385D01*
X109598716Y-88810294D01*
X109598755Y-88885956D01*
X109598686Y-88979802D01*
X109598362Y-89053689D01*
X109597614Y-89110232D01*
X109596268Y-89152049D01*
X109594154Y-89181757D01*
X109591100Y-89201973D01*
X109586934Y-89215314D01*
X109581484Y-89224398D01*
X109576178Y-89230267D01*
X109543174Y-89249947D01*
X109508009Y-89248181D01*
X109476545Y-89226717D01*
X109469316Y-89218337D01*
X109463666Y-89208614D01*
X109459401Y-89194861D01*
X109456327Y-89174389D01*
X109454248Y-89144512D01*
X109452970Y-89102541D01*
X109452299Y-89045789D01*
X109452041Y-88971567D01*
X109452000Y-88887537D01*
X109452000Y-88574485D01*
X109479709Y-88546776D01*
X109513863Y-88523463D01*
X109546994Y-88522623D01*
X109576178Y-88541645D01*
G37*
X109576178Y-88541645D02*
X109582758Y-88549218D01*
X109587921Y-88558987D01*
X109591836Y-88573571D01*
X109594676Y-88595585D01*
X109596613Y-88627648D01*
X109597817Y-88672375D01*
X109598461Y-88732385D01*
X109598716Y-88810294D01*
X109598755Y-88885956D01*
X109598686Y-88979802D01*
X109598362Y-89053689D01*
X109597614Y-89110232D01*
X109596268Y-89152049D01*
X109594154Y-89181757D01*
X109591100Y-89201973D01*
X109586934Y-89215314D01*
X109581484Y-89224398D01*
X109576178Y-89230267D01*
X109543174Y-89249947D01*
X109508009Y-89248181D01*
X109476545Y-89226717D01*
X109469316Y-89218337D01*
X109463666Y-89208614D01*
X109459401Y-89194861D01*
X109456327Y-89174389D01*
X109454248Y-89144512D01*
X109452970Y-89102541D01*
X109452299Y-89045789D01*
X109452041Y-88971567D01*
X109452000Y-88887537D01*
X109452000Y-88574485D01*
X109479709Y-88546776D01*
X109513863Y-88523463D01*
X109546994Y-88522623D01*
X109576178Y-88541645D01*
G36*
X110549919Y-88524599D02*
G01*
X110618435Y-88536095D01*
X110671057Y-88553967D01*
X110705292Y-88577499D01*
X110714621Y-88590924D01*
X110724107Y-88622148D01*
X110717723Y-88650395D01*
X110697570Y-88677182D01*
X110666255Y-88689713D01*
X110620817Y-88688696D01*
X110585674Y-88681906D01*
X110507581Y-88668971D01*
X110427774Y-88667742D01*
X110338445Y-88678241D01*
X110313771Y-88682690D01*
X110230709Y-88706108D01*
X110165727Y-88740945D01*
X110119539Y-88786604D01*
X110092855Y-88842494D01*
X110087337Y-88871388D01*
X110090949Y-88930012D01*
X110114271Y-88981879D01*
X110155176Y-89025978D01*
X110211541Y-89061299D01*
X110281240Y-89086829D01*
X110362148Y-89101559D01*
X110452140Y-89104478D01*
X110549090Y-89094575D01*
X110554564Y-89093641D01*
X110593125Y-89086459D01*
X110614506Y-89079521D01*
X110623773Y-89069227D01*
X110625994Y-89051976D01*
X110626044Y-89042841D01*
X110626044Y-89004489D01*
X110557569Y-89004489D01*
X110497100Y-89000347D01*
X110455835Y-88987147D01*
X110431825Y-88963730D01*
X110423123Y-88928936D01*
X110423017Y-88924394D01*
X110428108Y-88894654D01*
X110445567Y-88873419D01*
X110478061Y-88859366D01*
X110528257Y-88851173D01*
X110576877Y-88848161D01*
X110647544Y-88846433D01*
X110698802Y-88849070D01*
X110733761Y-88858800D01*
X110755530Y-88878353D01*
X110767220Y-88910456D01*
X110771940Y-88957838D01*
X110772800Y-89020071D01*
X110771391Y-89089535D01*
X110767152Y-89136786D01*
X110760064Y-89162012D01*
X110758689Y-89163988D01*
X110719772Y-89195508D01*
X110662714Y-89220470D01*
X110591131Y-89238340D01*
X110508642Y-89248586D01*
X110418861Y-89250673D01*
X110325408Y-89244068D01*
X110270444Y-89235956D01*
X110184234Y-89211554D01*
X110104108Y-89171662D01*
X110037023Y-89119887D01*
X110026827Y-89109539D01*
X109993698Y-89066035D01*
X109963806Y-89012118D01*
X109940643Y-88955592D01*
X109927702Y-88904259D01*
X109926142Y-88884544D01*
X109932782Y-88843419D01*
X109950432Y-88792252D01*
X109975703Y-88738394D01*
X110005211Y-88689195D01*
X110031281Y-88656334D01*
X110092235Y-88607452D01*
X110171031Y-88568545D01*
X110264843Y-88540494D01*
X110370850Y-88524179D01*
X110468000Y-88520192D01*
X110549919Y-88524599D01*
G37*
X110549919Y-88524599D02*
X110618435Y-88536095D01*
X110671057Y-88553967D01*
X110705292Y-88577499D01*
X110714621Y-88590924D01*
X110724107Y-88622148D01*
X110717723Y-88650395D01*
X110697570Y-88677182D01*
X110666255Y-88689713D01*
X110620817Y-88688696D01*
X110585674Y-88681906D01*
X110507581Y-88668971D01*
X110427774Y-88667742D01*
X110338445Y-88678241D01*
X110313771Y-88682690D01*
X110230709Y-88706108D01*
X110165727Y-88740945D01*
X110119539Y-88786604D01*
X110092855Y-88842494D01*
X110087337Y-88871388D01*
X110090949Y-88930012D01*
X110114271Y-88981879D01*
X110155176Y-89025978D01*
X110211541Y-89061299D01*
X110281240Y-89086829D01*
X110362148Y-89101559D01*
X110452140Y-89104478D01*
X110549090Y-89094575D01*
X110554564Y-89093641D01*
X110593125Y-89086459D01*
X110614506Y-89079521D01*
X110623773Y-89069227D01*
X110625994Y-89051976D01*
X110626044Y-89042841D01*
X110626044Y-89004489D01*
X110557569Y-89004489D01*
X110497100Y-89000347D01*
X110455835Y-88987147D01*
X110431825Y-88963730D01*
X110423123Y-88928936D01*
X110423017Y-88924394D01*
X110428108Y-88894654D01*
X110445567Y-88873419D01*
X110478061Y-88859366D01*
X110528257Y-88851173D01*
X110576877Y-88848161D01*
X110647544Y-88846433D01*
X110698802Y-88849070D01*
X110733761Y-88858800D01*
X110755530Y-88878353D01*
X110767220Y-88910456D01*
X110771940Y-88957838D01*
X110772800Y-89020071D01*
X110771391Y-89089535D01*
X110767152Y-89136786D01*
X110760064Y-89162012D01*
X110758689Y-89163988D01*
X110719772Y-89195508D01*
X110662714Y-89220470D01*
X110591131Y-89238340D01*
X110508642Y-89248586D01*
X110418861Y-89250673D01*
X110325408Y-89244068D01*
X110270444Y-89235956D01*
X110184234Y-89211554D01*
X110104108Y-89171662D01*
X110037023Y-89119887D01*
X110026827Y-89109539D01*
X109993698Y-89066035D01*
X109963806Y-89012118D01*
X109940643Y-88955592D01*
X109927702Y-88904259D01*
X109926142Y-88884544D01*
X109932782Y-88843419D01*
X109950432Y-88792252D01*
X109975703Y-88738394D01*
X110005211Y-88689195D01*
X110031281Y-88656334D01*
X110092235Y-88607452D01*
X110171031Y-88568545D01*
X110264843Y-88540494D01*
X110370850Y-88524179D01*
X110468000Y-88520192D01*
X110549919Y-88524599D01*
G36*
X111199886Y-88523448D02*
G01*
X111223452Y-88537273D01*
X111254265Y-88559881D01*
X111293922Y-88592338D01*
X111344020Y-88635708D01*
X111406157Y-88691058D01*
X111481928Y-88759451D01*
X111568666Y-88838084D01*
X111749289Y-89001878D01*
X111754933Y-88782029D01*
X111756971Y-88706351D01*
X111758937Y-88649994D01*
X111761266Y-88609706D01*
X111764394Y-88582235D01*
X111768755Y-88564329D01*
X111774784Y-88552737D01*
X111782916Y-88544208D01*
X111787228Y-88540623D01*
X111821759Y-88521670D01*
X111854617Y-88524441D01*
X111880682Y-88540633D01*
X111907333Y-88562199D01*
X111910648Y-88877151D01*
X111911565Y-88969779D01*
X111912032Y-89042544D01*
X111911887Y-89098161D01*
X111910968Y-89139342D01*
X111909113Y-89168803D01*
X111906161Y-89189255D01*
X111901950Y-89203413D01*
X111896318Y-89213991D01*
X111890073Y-89222474D01*
X111876561Y-89238207D01*
X111863117Y-89248636D01*
X111847876Y-89252639D01*
X111828974Y-89249094D01*
X111804545Y-89236879D01*
X111772727Y-89214871D01*
X111731652Y-89181949D01*
X111679458Y-89136991D01*
X111614278Y-89078875D01*
X111540444Y-89012099D01*
X111275155Y-88771458D01*
X111269511Y-88990589D01*
X111267469Y-89066128D01*
X111265498Y-89122354D01*
X111263161Y-89162524D01*
X111260019Y-89189896D01*
X111255636Y-89207728D01*
X111249576Y-89219279D01*
X111241400Y-89227807D01*
X111237216Y-89231282D01*
X111200235Y-89250372D01*
X111165292Y-89247493D01*
X111134864Y-89223100D01*
X111127903Y-89213286D01*
X111122477Y-89201826D01*
X111118397Y-89185968D01*
X111115471Y-89162963D01*
X111113508Y-89130062D01*
X111112317Y-89084516D01*
X111111708Y-89023573D01*
X111111489Y-88944486D01*
X111111466Y-88885956D01*
X111111540Y-88794407D01*
X111111887Y-88722687D01*
X111112699Y-88668045D01*
X111114167Y-88627732D01*
X111116481Y-88598998D01*
X111119833Y-88579093D01*
X111124412Y-88565268D01*
X111130411Y-88554772D01*
X111134864Y-88548811D01*
X111146150Y-88534691D01*
X111156699Y-88524029D01*
X111168107Y-88517892D01*
X111181970Y-88517343D01*
X111199886Y-88523448D01*
G37*
X111199886Y-88523448D02*
X111223452Y-88537273D01*
X111254265Y-88559881D01*
X111293922Y-88592338D01*
X111344020Y-88635708D01*
X111406157Y-88691058D01*
X111481928Y-88759451D01*
X111568666Y-88838084D01*
X111749289Y-89001878D01*
X111754933Y-88782029D01*
X111756971Y-88706351D01*
X111758937Y-88649994D01*
X111761266Y-88609706D01*
X111764394Y-88582235D01*
X111768755Y-88564329D01*
X111774784Y-88552737D01*
X111782916Y-88544208D01*
X111787228Y-88540623D01*
X111821759Y-88521670D01*
X111854617Y-88524441D01*
X111880682Y-88540633D01*
X111907333Y-88562199D01*
X111910648Y-88877151D01*
X111911565Y-88969779D01*
X111912032Y-89042544D01*
X111911887Y-89098161D01*
X111910968Y-89139342D01*
X111909113Y-89168803D01*
X111906161Y-89189255D01*
X111901950Y-89203413D01*
X111896318Y-89213991D01*
X111890073Y-89222474D01*
X111876561Y-89238207D01*
X111863117Y-89248636D01*
X111847876Y-89252639D01*
X111828974Y-89249094D01*
X111804545Y-89236879D01*
X111772727Y-89214871D01*
X111731652Y-89181949D01*
X111679458Y-89136991D01*
X111614278Y-89078875D01*
X111540444Y-89012099D01*
X111275155Y-88771458D01*
X111269511Y-88990589D01*
X111267469Y-89066128D01*
X111265498Y-89122354D01*
X111263161Y-89162524D01*
X111260019Y-89189896D01*
X111255636Y-89207728D01*
X111249576Y-89219279D01*
X111241400Y-89227807D01*
X111237216Y-89231282D01*
X111200235Y-89250372D01*
X111165292Y-89247493D01*
X111134864Y-89223100D01*
X111127903Y-89213286D01*
X111122477Y-89201826D01*
X111118397Y-89185968D01*
X111115471Y-89162963D01*
X111113508Y-89130062D01*
X111112317Y-89084516D01*
X111111708Y-89023573D01*
X111111489Y-88944486D01*
X111111466Y-88885956D01*
X111111540Y-88794407D01*
X111111887Y-88722687D01*
X111112699Y-88668045D01*
X111114167Y-88627732D01*
X111116481Y-88598998D01*
X111119833Y-88579093D01*
X111124412Y-88565268D01*
X111130411Y-88554772D01*
X111134864Y-88548811D01*
X111146150Y-88534691D01*
X111156699Y-88524029D01*
X111168107Y-88517892D01*
X111181970Y-88517343D01*
X111199886Y-88523448D01*
G36*
X112730343Y-88519260D02*
G01*
X112806701Y-88520174D01*
X112865217Y-88522311D01*
X112908255Y-88526175D01*
X112938183Y-88532267D01*
X112957368Y-88541090D01*
X112968176Y-88553146D01*
X112972973Y-88568939D01*
X112974127Y-88588970D01*
X112974133Y-88591335D01*
X112973131Y-88613992D01*
X112968396Y-88631503D01*
X112957333Y-88644574D01*
X112937348Y-88653913D01*
X112905846Y-88660227D01*
X112860232Y-88664222D01*
X112797913Y-88666606D01*
X112716293Y-88668086D01*
X112691277Y-88668414D01*
X112449200Y-88671467D01*
X112445814Y-88736378D01*
X112442429Y-88801289D01*
X112610576Y-88801289D01*
X112676266Y-88801531D01*
X112723172Y-88802556D01*
X112755083Y-88804811D01*
X112775791Y-88808742D01*
X112789084Y-88814798D01*
X112798755Y-88823424D01*
X112798817Y-88823493D01*
X112816356Y-88857112D01*
X112815722Y-88893448D01*
X112797314Y-88924423D01*
X112793671Y-88927607D01*
X112780741Y-88935812D01*
X112763024Y-88941521D01*
X112736570Y-88945162D01*
X112697432Y-88947167D01*
X112641662Y-88947964D01*
X112605994Y-88948045D01*
X112443555Y-88948045D01*
X112443555Y-89106089D01*
X112690161Y-89106089D01*
X112771580Y-89106231D01*
X112833410Y-89106814D01*
X112878637Y-89108068D01*
X112910248Y-89110227D01*
X112931231Y-89113523D01*
X112944573Y-89118189D01*
X112953261Y-89124457D01*
X112955450Y-89126733D01*
X112971614Y-89158280D01*
X112972797Y-89194168D01*
X112959536Y-89225285D01*
X112949043Y-89235271D01*
X112938129Y-89240769D01*
X112921217Y-89245022D01*
X112895633Y-89248180D01*
X112858701Y-89250392D01*
X112807746Y-89251806D01*
X112740094Y-89252572D01*
X112653069Y-89252838D01*
X112633394Y-89252845D01*
X112544911Y-89252787D01*
X112476227Y-89252467D01*
X112424564Y-89251667D01*
X112387145Y-89250167D01*
X112361190Y-89247749D01*
X112343922Y-89244194D01*
X112332562Y-89239282D01*
X112324332Y-89232795D01*
X112319817Y-89228138D01*
X112313021Y-89219889D01*
X112307712Y-89209669D01*
X112303706Y-89194800D01*
X112300821Y-89172602D01*
X112298874Y-89140393D01*
X112297681Y-89095496D01*
X112297061Y-89035228D01*
X112296829Y-88956911D01*
X112296800Y-88890994D01*
X112296871Y-88798628D01*
X112297208Y-88726117D01*
X112297998Y-88670737D01*
X112299426Y-88629765D01*
X112301679Y-88600478D01*
X112304943Y-88580153D01*
X112309404Y-88566066D01*
X112315248Y-88555495D01*
X112320197Y-88548811D01*
X112343594Y-88519067D01*
X112633774Y-88519067D01*
X112730343Y-88519260D01*
G37*
X112730343Y-88519260D02*
X112806701Y-88520174D01*
X112865217Y-88522311D01*
X112908255Y-88526175D01*
X112938183Y-88532267D01*
X112957368Y-88541090D01*
X112968176Y-88553146D01*
X112972973Y-88568939D01*
X112974127Y-88588970D01*
X112974133Y-88591335D01*
X112973131Y-88613992D01*
X112968396Y-88631503D01*
X112957333Y-88644574D01*
X112937348Y-88653913D01*
X112905846Y-88660227D01*
X112860232Y-88664222D01*
X112797913Y-88666606D01*
X112716293Y-88668086D01*
X112691277Y-88668414D01*
X112449200Y-88671467D01*
X112445814Y-88736378D01*
X112442429Y-88801289D01*
X112610576Y-88801289D01*
X112676266Y-88801531D01*
X112723172Y-88802556D01*
X112755083Y-88804811D01*
X112775791Y-88808742D01*
X112789084Y-88814798D01*
X112798755Y-88823424D01*
X112798817Y-88823493D01*
X112816356Y-88857112D01*
X112815722Y-88893448D01*
X112797314Y-88924423D01*
X112793671Y-88927607D01*
X112780741Y-88935812D01*
X112763024Y-88941521D01*
X112736570Y-88945162D01*
X112697432Y-88947167D01*
X112641662Y-88947964D01*
X112605994Y-88948045D01*
X112443555Y-88948045D01*
X112443555Y-89106089D01*
X112690161Y-89106089D01*
X112771580Y-89106231D01*
X112833410Y-89106814D01*
X112878637Y-89108068D01*
X112910248Y-89110227D01*
X112931231Y-89113523D01*
X112944573Y-89118189D01*
X112953261Y-89124457D01*
X112955450Y-89126733D01*
X112971614Y-89158280D01*
X112972797Y-89194168D01*
X112959536Y-89225285D01*
X112949043Y-89235271D01*
X112938129Y-89240769D01*
X112921217Y-89245022D01*
X112895633Y-89248180D01*
X112858701Y-89250392D01*
X112807746Y-89251806D01*
X112740094Y-89252572D01*
X112653069Y-89252838D01*
X112633394Y-89252845D01*
X112544911Y-89252787D01*
X112476227Y-89252467D01*
X112424564Y-89251667D01*
X112387145Y-89250167D01*
X112361190Y-89247749D01*
X112343922Y-89244194D01*
X112332562Y-89239282D01*
X112324332Y-89232795D01*
X112319817Y-89228138D01*
X112313021Y-89219889D01*
X112307712Y-89209669D01*
X112303706Y-89194800D01*
X112300821Y-89172602D01*
X112298874Y-89140393D01*
X112297681Y-89095496D01*
X112297061Y-89035228D01*
X112296829Y-88956911D01*
X112296800Y-88890994D01*
X112296871Y-88798628D01*
X112297208Y-88726117D01*
X112297998Y-88670737D01*
X112299426Y-88629765D01*
X112301679Y-88600478D01*
X112304943Y-88580153D01*
X112309404Y-88566066D01*
X112315248Y-88555495D01*
X112320197Y-88548811D01*
X112343594Y-88519067D01*
X112633774Y-88519067D01*
X112730343Y-88519260D01*
G36*
X113518309Y-88519275D02*
G01*
X113647288Y-88523636D01*
X113756991Y-88536861D01*
X113849226Y-88559741D01*
X113925802Y-88593070D01*
X113988527Y-88637638D01*
X114039212Y-88694236D01*
X114079663Y-88763658D01*
X114080459Y-88765351D01*
X114104601Y-88827483D01*
X114113203Y-88882509D01*
X114106231Y-88937887D01*
X114083654Y-89001073D01*
X114079372Y-89010689D01*
X114050172Y-89066966D01*
X114017356Y-89110451D01*
X113975002Y-89147417D01*
X113917190Y-89184135D01*
X113913831Y-89186052D01*
X113863504Y-89210227D01*
X113806621Y-89228282D01*
X113739527Y-89240839D01*
X113658565Y-89248522D01*
X113560082Y-89251953D01*
X113525286Y-89252251D01*
X113359594Y-89252845D01*
X113336197Y-89223100D01*
X113329257Y-89213319D01*
X113323842Y-89201897D01*
X113319765Y-89186095D01*
X113316837Y-89163175D01*
X113314867Y-89130396D01*
X113314225Y-89106089D01*
X113470844Y-89106089D01*
X113564726Y-89106089D01*
X113619664Y-89104483D01*
X113676060Y-89100255D01*
X113722345Y-89094292D01*
X113725139Y-89093790D01*
X113807348Y-89071736D01*
X113871114Y-89038600D01*
X113918452Y-88992847D01*
X113951382Y-88932939D01*
X113957108Y-88917061D01*
X113962721Y-88892333D01*
X113960291Y-88867902D01*
X113948467Y-88835400D01*
X113941340Y-88819434D01*
X113918000Y-88777006D01*
X113889880Y-88747240D01*
X113858940Y-88726511D01*
X113796966Y-88699537D01*
X113717651Y-88679998D01*
X113625253Y-88668746D01*
X113558333Y-88666270D01*
X113470844Y-88665822D01*
X113470844Y-89106089D01*
X113314225Y-89106089D01*
X113313668Y-89085021D01*
X113313050Y-89024311D01*
X113312825Y-88945526D01*
X113312800Y-88883920D01*
X113312800Y-88574485D01*
X113340509Y-88546776D01*
X113352806Y-88535544D01*
X113366103Y-88527853D01*
X113384672Y-88523040D01*
X113412786Y-88520446D01*
X113454717Y-88519410D01*
X113514737Y-88519270D01*
X113518309Y-88519275D01*
G37*
X113518309Y-88519275D02*
X113647288Y-88523636D01*
X113756991Y-88536861D01*
X113849226Y-88559741D01*
X113925802Y-88593070D01*
X113988527Y-88637638D01*
X114039212Y-88694236D01*
X114079663Y-88763658D01*
X114080459Y-88765351D01*
X114104601Y-88827483D01*
X114113203Y-88882509D01*
X114106231Y-88937887D01*
X114083654Y-89001073D01*
X114079372Y-89010689D01*
X114050172Y-89066966D01*
X114017356Y-89110451D01*
X113975002Y-89147417D01*
X113917190Y-89184135D01*
X113913831Y-89186052D01*
X113863504Y-89210227D01*
X113806621Y-89228282D01*
X113739527Y-89240839D01*
X113658565Y-89248522D01*
X113560082Y-89251953D01*
X113525286Y-89252251D01*
X113359594Y-89252845D01*
X113336197Y-89223100D01*
X113329257Y-89213319D01*
X113323842Y-89201897D01*
X113319765Y-89186095D01*
X113316837Y-89163175D01*
X113314867Y-89130396D01*
X113314225Y-89106089D01*
X113470844Y-89106089D01*
X113564726Y-89106089D01*
X113619664Y-89104483D01*
X113676060Y-89100255D01*
X113722345Y-89094292D01*
X113725139Y-89093790D01*
X113807348Y-89071736D01*
X113871114Y-89038600D01*
X113918452Y-88992847D01*
X113951382Y-88932939D01*
X113957108Y-88917061D01*
X113962721Y-88892333D01*
X113960291Y-88867902D01*
X113948467Y-88835400D01*
X113941340Y-88819434D01*
X113918000Y-88777006D01*
X113889880Y-88747240D01*
X113858940Y-88726511D01*
X113796966Y-88699537D01*
X113717651Y-88679998D01*
X113625253Y-88668746D01*
X113558333Y-88666270D01*
X113470844Y-88665822D01*
X113470844Y-89106089D01*
X113314225Y-89106089D01*
X113313668Y-89085021D01*
X113313050Y-89024311D01*
X113312825Y-88945526D01*
X113312800Y-88883920D01*
X113312800Y-88574485D01*
X113340509Y-88546776D01*
X113352806Y-88535544D01*
X113366103Y-88527853D01*
X113384672Y-88523040D01*
X113412786Y-88520446D01*
X113454717Y-88519410D01*
X113514737Y-88519270D01*
X113518309Y-88519275D01*
G36*
X116244665Y-88521034D02*
G01*
X116264255Y-88528035D01*
X116265010Y-88528377D01*
X116291613Y-88548678D01*
X116306270Y-88569561D01*
X116309138Y-88579352D01*
X116308996Y-88592361D01*
X116304961Y-88610895D01*
X116296146Y-88637257D01*
X116281669Y-88673752D01*
X116260645Y-88722687D01*
X116232188Y-88786365D01*
X116195415Y-88867093D01*
X116175175Y-88911216D01*
X116138625Y-88989985D01*
X116104315Y-89062423D01*
X116073552Y-89125880D01*
X116047648Y-89177708D01*
X116027910Y-89215259D01*
X116015650Y-89235884D01*
X116013224Y-89238733D01*
X115982183Y-89251302D01*
X115947121Y-89249619D01*
X115919000Y-89234332D01*
X115917854Y-89233089D01*
X115906668Y-89216154D01*
X115887904Y-89183170D01*
X115863875Y-89138380D01*
X115836897Y-89086032D01*
X115827201Y-89066742D01*
X115754014Y-88920150D01*
X115674240Y-89079393D01*
X115645767Y-89134415D01*
X115619350Y-89182132D01*
X115597148Y-89218893D01*
X115581319Y-89241044D01*
X115575954Y-89245741D01*
X115534257Y-89252102D01*
X115499849Y-89238733D01*
X115489728Y-89224446D01*
X115472214Y-89192692D01*
X115448735Y-89146597D01*
X115420720Y-89089285D01*
X115389599Y-89023880D01*
X115356799Y-88953507D01*
X115323750Y-88881291D01*
X115291881Y-88810355D01*
X115262619Y-88743825D01*
X115237395Y-88684826D01*
X115217636Y-88636481D01*
X115204772Y-88601915D01*
X115200231Y-88584253D01*
X115200277Y-88583613D01*
X115211326Y-88561388D01*
X115233410Y-88538753D01*
X115234710Y-88537768D01*
X115261853Y-88522425D01*
X115286958Y-88522574D01*
X115296368Y-88525466D01*
X115307834Y-88531718D01*
X115320010Y-88544014D01*
X115334357Y-88564908D01*
X115352336Y-88596949D01*
X115375407Y-88642688D01*
X115405030Y-88704677D01*
X115431745Y-88761898D01*
X115462480Y-88828226D01*
X115490021Y-88887874D01*
X115512938Y-88937725D01*
X115529798Y-88974664D01*
X115539173Y-88995573D01*
X115540540Y-88998845D01*
X115546689Y-88993497D01*
X115560822Y-88971109D01*
X115581057Y-88934946D01*
X115605515Y-88888277D01*
X115615248Y-88869022D01*
X115648217Y-88804004D01*
X115673643Y-88756654D01*
X115693612Y-88724219D01*
X115710210Y-88703946D01*
X115725524Y-88693082D01*
X115741640Y-88688875D01*
X115752143Y-88688400D01*
X115770670Y-88690042D01*
X115786904Y-88696831D01*
X115803035Y-88711566D01*
X115821251Y-88737044D01*
X115843739Y-88776061D01*
X115872689Y-88831414D01*
X115888662Y-88862903D01*
X115914570Y-88913087D01*
X115937167Y-88954704D01*
X115954458Y-88984242D01*
X115964450Y-88998189D01*
X115965809Y-88998770D01*
X115972261Y-88987793D01*
X115986708Y-88959290D01*
X116007703Y-88916244D01*
X116033797Y-88861638D01*
X116063546Y-88798454D01*
X116078180Y-88767071D01*
X116116250Y-88686078D01*
X116146905Y-88623756D01*
X116171737Y-88578071D01*
X116192337Y-88546989D01*
X116210298Y-88528478D01*
X116227210Y-88520504D01*
X116244665Y-88521034D01*
G37*
X116244665Y-88521034D02*
X116264255Y-88528035D01*
X116265010Y-88528377D01*
X116291613Y-88548678D01*
X116306270Y-88569561D01*
X116309138Y-88579352D01*
X116308996Y-88592361D01*
X116304961Y-88610895D01*
X116296146Y-88637257D01*
X116281669Y-88673752D01*
X116260645Y-88722687D01*
X116232188Y-88786365D01*
X116195415Y-88867093D01*
X116175175Y-88911216D01*
X116138625Y-88989985D01*
X116104315Y-89062423D01*
X116073552Y-89125880D01*
X116047648Y-89177708D01*
X116027910Y-89215259D01*
X116015650Y-89235884D01*
X116013224Y-89238733D01*
X115982183Y-89251302D01*
X115947121Y-89249619D01*
X115919000Y-89234332D01*
X115917854Y-89233089D01*
X115906668Y-89216154D01*
X115887904Y-89183170D01*
X115863875Y-89138380D01*
X115836897Y-89086032D01*
X115827201Y-89066742D01*
X115754014Y-88920150D01*
X115674240Y-89079393D01*
X115645767Y-89134415D01*
X115619350Y-89182132D01*
X115597148Y-89218893D01*
X115581319Y-89241044D01*
X115575954Y-89245741D01*
X115534257Y-89252102D01*
X115499849Y-89238733D01*
X115489728Y-89224446D01*
X115472214Y-89192692D01*
X115448735Y-89146597D01*
X115420720Y-89089285D01*
X115389599Y-89023880D01*
X115356799Y-88953507D01*
X115323750Y-88881291D01*
X115291881Y-88810355D01*
X115262619Y-88743825D01*
X115237395Y-88684826D01*
X115217636Y-88636481D01*
X115204772Y-88601915D01*
X115200231Y-88584253D01*
X115200277Y-88583613D01*
X115211326Y-88561388D01*
X115233410Y-88538753D01*
X115234710Y-88537768D01*
X115261853Y-88522425D01*
X115286958Y-88522574D01*
X115296368Y-88525466D01*
X115307834Y-88531718D01*
X115320010Y-88544014D01*
X115334357Y-88564908D01*
X115352336Y-88596949D01*
X115375407Y-88642688D01*
X115405030Y-88704677D01*
X115431745Y-88761898D01*
X115462480Y-88828226D01*
X115490021Y-88887874D01*
X115512938Y-88937725D01*
X115529798Y-88974664D01*
X115539173Y-88995573D01*
X115540540Y-88998845D01*
X115546689Y-88993497D01*
X115560822Y-88971109D01*
X115581057Y-88934946D01*
X115605515Y-88888277D01*
X115615248Y-88869022D01*
X115648217Y-88804004D01*
X115673643Y-88756654D01*
X115693612Y-88724219D01*
X115710210Y-88703946D01*
X115725524Y-88693082D01*
X115741640Y-88688875D01*
X115752143Y-88688400D01*
X115770670Y-88690042D01*
X115786904Y-88696831D01*
X115803035Y-88711566D01*
X115821251Y-88737044D01*
X115843739Y-88776061D01*
X115872689Y-88831414D01*
X115888662Y-88862903D01*
X115914570Y-88913087D01*
X115937167Y-88954704D01*
X115954458Y-88984242D01*
X115964450Y-88998189D01*
X115965809Y-88998770D01*
X115972261Y-88987793D01*
X115986708Y-88959290D01*
X116007703Y-88916244D01*
X116033797Y-88861638D01*
X116063546Y-88798454D01*
X116078180Y-88767071D01*
X116116250Y-88686078D01*
X116146905Y-88623756D01*
X116171737Y-88578071D01*
X116192337Y-88546989D01*
X116210298Y-88528478D01*
X116227210Y-88520504D01*
X116244665Y-88521034D01*
G36*
X116688614Y-88525877D02*
G01*
X116712327Y-88540647D01*
X116738978Y-88562227D01*
X116738978Y-88883773D01*
X116738893Y-88977830D01*
X116738529Y-89051932D01*
X116737724Y-89108704D01*
X116736313Y-89150768D01*
X116734133Y-89180748D01*
X116731021Y-89201267D01*
X116726814Y-89214949D01*
X116721348Y-89224416D01*
X116717472Y-89229082D01*
X116686034Y-89249575D01*
X116650233Y-89248739D01*
X116618873Y-89231264D01*
X116592222Y-89209684D01*
X116592222Y-88562227D01*
X116618873Y-88540647D01*
X116644594Y-88524949D01*
X116665600Y-88519067D01*
X116688614Y-88525877D01*
G37*
X116688614Y-88525877D02*
X116712327Y-88540647D01*
X116738978Y-88562227D01*
X116738978Y-88883773D01*
X116738893Y-88977830D01*
X116738529Y-89051932D01*
X116737724Y-89108704D01*
X116736313Y-89150768D01*
X116734133Y-89180748D01*
X116731021Y-89201267D01*
X116726814Y-89214949D01*
X116721348Y-89224416D01*
X116717472Y-89229082D01*
X116686034Y-89249575D01*
X116650233Y-89248739D01*
X116618873Y-89231264D01*
X116592222Y-89209684D01*
X116592222Y-88562227D01*
X116618873Y-88540647D01*
X116644594Y-88524949D01*
X116665600Y-88519067D01*
X116688614Y-88525877D01*
G36*
X117463065Y-88519163D02*
G01*
X117541772Y-88519542D01*
X117602863Y-88520333D01*
X117648817Y-88521670D01*
X117682114Y-88523683D01*
X117705236Y-88526506D01*
X117720662Y-88530269D01*
X117730871Y-88535105D01*
X117735813Y-88538822D01*
X117761457Y-88571358D01*
X117764559Y-88605138D01*
X117748711Y-88635826D01*
X117738348Y-88648089D01*
X117727196Y-88656450D01*
X117711035Y-88661657D01*
X117685642Y-88664457D01*
X117646798Y-88665596D01*
X117590280Y-88665821D01*
X117579180Y-88665822D01*
X117433244Y-88665822D01*
X117433244Y-88936756D01*
X117433148Y-89022154D01*
X117432711Y-89087864D01*
X117431712Y-89136774D01*
X117429928Y-89171773D01*
X117427137Y-89195749D01*
X117423117Y-89211593D01*
X117417645Y-89222191D01*
X117410666Y-89230267D01*
X117377734Y-89250112D01*
X117343354Y-89248548D01*
X117312176Y-89225906D01*
X117309886Y-89223100D01*
X117302429Y-89212492D01*
X117296747Y-89200081D01*
X117292601Y-89182850D01*
X117289750Y-89157784D01*
X117287954Y-89121867D01*
X117286972Y-89072083D01*
X117286564Y-89005417D01*
X117286489Y-88929589D01*
X117286489Y-88665822D01*
X117147127Y-88665822D01*
X117087322Y-88665418D01*
X117045918Y-88663840D01*
X117018748Y-88660547D01*
X117001646Y-88654992D01*
X116990443Y-88646631D01*
X116989083Y-88645178D01*
X116972725Y-88611939D01*
X116974172Y-88574362D01*
X116992978Y-88541645D01*
X117000250Y-88535298D01*
X117009627Y-88530266D01*
X117023609Y-88526396D01*
X117044696Y-88523537D01*
X117075389Y-88521535D01*
X117118189Y-88520239D01*
X117175595Y-88519498D01*
X117250110Y-88519158D01*
X117344233Y-88519068D01*
X117364260Y-88519067D01*
X117463065Y-88519163D01*
G37*
X117463065Y-88519163D02*
X117541772Y-88519542D01*
X117602863Y-88520333D01*
X117648817Y-88521670D01*
X117682114Y-88523683D01*
X117705236Y-88526506D01*
X117720662Y-88530269D01*
X117730871Y-88535105D01*
X117735813Y-88538822D01*
X117761457Y-88571358D01*
X117764559Y-88605138D01*
X117748711Y-88635826D01*
X117738348Y-88648089D01*
X117727196Y-88656450D01*
X117711035Y-88661657D01*
X117685642Y-88664457D01*
X117646798Y-88665596D01*
X117590280Y-88665821D01*
X117579180Y-88665822D01*
X117433244Y-88665822D01*
X117433244Y-88936756D01*
X117433148Y-89022154D01*
X117432711Y-89087864D01*
X117431712Y-89136774D01*
X117429928Y-89171773D01*
X117427137Y-89195749D01*
X117423117Y-89211593D01*
X117417645Y-89222191D01*
X117410666Y-89230267D01*
X117377734Y-89250112D01*
X117343354Y-89248548D01*
X117312176Y-89225906D01*
X117309886Y-89223100D01*
X117302429Y-89212492D01*
X117296747Y-89200081D01*
X117292601Y-89182850D01*
X117289750Y-89157784D01*
X117287954Y-89121867D01*
X117286972Y-89072083D01*
X117286564Y-89005417D01*
X117286489Y-88929589D01*
X117286489Y-88665822D01*
X117147127Y-88665822D01*
X117087322Y-88665418D01*
X117045918Y-88663840D01*
X117018748Y-88660547D01*
X117001646Y-88654992D01*
X116990443Y-88646631D01*
X116989083Y-88645178D01*
X116972725Y-88611939D01*
X116974172Y-88574362D01*
X116992978Y-88541645D01*
X117000250Y-88535298D01*
X117009627Y-88530266D01*
X117023609Y-88526396D01*
X117044696Y-88523537D01*
X117075389Y-88521535D01*
X117118189Y-88520239D01*
X117175595Y-88519498D01*
X117250110Y-88519158D01*
X117344233Y-88519068D01*
X117364260Y-88519067D01*
X117463065Y-88519163D01*
G36*
X118728823Y-88524533D02*
G01*
X118760202Y-88546776D01*
X118787911Y-88574485D01*
X118787911Y-88883920D01*
X118787838Y-88975799D01*
X118787495Y-89047840D01*
X118786692Y-89102780D01*
X118785241Y-89143360D01*
X118782952Y-89172317D01*
X118779636Y-89192391D01*
X118775105Y-89206321D01*
X118769169Y-89216845D01*
X118764514Y-89223100D01*
X118733783Y-89247673D01*
X118698496Y-89250341D01*
X118666245Y-89235271D01*
X118655588Y-89226374D01*
X118648464Y-89214557D01*
X118644167Y-89195526D01*
X118641991Y-89164992D01*
X118641228Y-89118662D01*
X118641155Y-89082871D01*
X118641155Y-88948045D01*
X118144444Y-88948045D01*
X118144444Y-89070700D01*
X118143931Y-89126787D01*
X118141876Y-89165333D01*
X118137508Y-89191361D01*
X118130056Y-89209897D01*
X118121047Y-89223100D01*
X118090144Y-89247604D01*
X118055196Y-89250506D01*
X118021738Y-89233089D01*
X118012604Y-89223959D01*
X118006152Y-89211855D01*
X118001897Y-89193001D01*
X117999352Y-89163620D01*
X117998029Y-89119937D01*
X117997443Y-89058175D01*
X117997375Y-89044000D01*
X117996891Y-88927631D01*
X117996641Y-88831727D01*
X117996723Y-88754177D01*
X117997231Y-88692869D01*
X117998262Y-88645690D01*
X117999913Y-88610530D01*
X118002279Y-88585276D01*
X118005457Y-88567817D01*
X118009544Y-88556041D01*
X118014634Y-88547835D01*
X118020266Y-88541645D01*
X118052128Y-88521844D01*
X118085357Y-88524533D01*
X118116735Y-88546776D01*
X118129433Y-88561126D01*
X118137526Y-88576978D01*
X118142042Y-88599554D01*
X118144006Y-88634078D01*
X118144444Y-88685776D01*
X118144444Y-88801289D01*
X118641155Y-88801289D01*
X118641155Y-88682756D01*
X118641662Y-88628148D01*
X118643698Y-88591275D01*
X118648035Y-88567307D01*
X118655447Y-88551415D01*
X118663733Y-88541645D01*
X118695594Y-88521844D01*
X118728823Y-88524533D01*
G37*
X118728823Y-88524533D02*
X118760202Y-88546776D01*
X118787911Y-88574485D01*
X118787911Y-88883920D01*
X118787838Y-88975799D01*
X118787495Y-89047840D01*
X118786692Y-89102780D01*
X118785241Y-89143360D01*
X118782952Y-89172317D01*
X118779636Y-89192391D01*
X118775105Y-89206321D01*
X118769169Y-89216845D01*
X118764514Y-89223100D01*
X118733783Y-89247673D01*
X118698496Y-89250341D01*
X118666245Y-89235271D01*
X118655588Y-89226374D01*
X118648464Y-89214557D01*
X118644167Y-89195526D01*
X118641991Y-89164992D01*
X118641228Y-89118662D01*
X118641155Y-89082871D01*
X118641155Y-88948045D01*
X118144444Y-88948045D01*
X118144444Y-89070700D01*
X118143931Y-89126787D01*
X118141876Y-89165333D01*
X118137508Y-89191361D01*
X118130056Y-89209897D01*
X118121047Y-89223100D01*
X118090144Y-89247604D01*
X118055196Y-89250506D01*
X118021738Y-89233089D01*
X118012604Y-89223959D01*
X118006152Y-89211855D01*
X118001897Y-89193001D01*
X117999352Y-89163620D01*
X117998029Y-89119937D01*
X117997443Y-89058175D01*
X117997375Y-89044000D01*
X117996891Y-88927631D01*
X117996641Y-88831727D01*
X117996723Y-88754177D01*
X117997231Y-88692869D01*
X117998262Y-88645690D01*
X117999913Y-88610530D01*
X118002279Y-88585276D01*
X118005457Y-88567817D01*
X118009544Y-88556041D01*
X118014634Y-88547835D01*
X118020266Y-88541645D01*
X118052128Y-88521844D01*
X118085357Y-88524533D01*
X118116735Y-88546776D01*
X118129433Y-88561126D01*
X118137526Y-88576978D01*
X118142042Y-88599554D01*
X118144006Y-88634078D01*
X118144444Y-88685776D01*
X118144444Y-88801289D01*
X118641155Y-88801289D01*
X118641155Y-88682756D01*
X118641662Y-88628148D01*
X118643698Y-88591275D01*
X118648035Y-88567307D01*
X118655447Y-88551415D01*
X118663733Y-88541645D01*
X118695594Y-88521844D01*
X118728823Y-88524533D01*
G36*
X109553600Y-83739054D02*
G01*
X109564465Y-83852993D01*
X109596082Y-83960616D01*
X109646985Y-84059615D01*
X109715707Y-84147684D01*
X109800781Y-84222516D01*
X109897768Y-84280384D01*
X110004036Y-84320005D01*
X110111050Y-84338573D01*
X110216700Y-84337434D01*
X110318875Y-84317930D01*
X110415466Y-84281406D01*
X110504362Y-84229205D01*
X110583454Y-84162673D01*
X110650631Y-84083152D01*
X110703783Y-83991987D01*
X110740801Y-83890523D01*
X110759573Y-83780102D01*
X110761511Y-83730206D01*
X110761511Y-83642267D01*
X110813440Y-83642267D01*
X110849747Y-83645111D01*
X110876645Y-83656911D01*
X110903751Y-83680649D01*
X110942133Y-83719031D01*
X110942133Y-85910602D01*
X110942124Y-86172739D01*
X110942092Y-86413241D01*
X110942028Y-86633048D01*
X110941924Y-86833101D01*
X110941773Y-87014344D01*
X110941566Y-87177716D01*
X110941294Y-87324160D01*
X110940950Y-87454617D01*
X110940526Y-87570029D01*
X110940013Y-87671338D01*
X110939403Y-87759484D01*
X110938688Y-87835410D01*
X110937860Y-87900057D01*
X110936911Y-87954367D01*
X110935833Y-87999280D01*
X110934617Y-88035740D01*
X110933255Y-88064687D01*
X110931739Y-88087063D01*
X110930062Y-88103809D01*
X110928214Y-88115868D01*
X110926187Y-88124180D01*
X110923975Y-88129687D01*
X110922892Y-88131537D01*
X110918729Y-88138549D01*
X110915195Y-88144996D01*
X110911365Y-88150900D01*
X110906318Y-88156286D01*
X110899129Y-88161178D01*
X110888877Y-88165598D01*
X110874636Y-88169572D01*
X110855486Y-88173121D01*
X110830501Y-88176270D01*
X110798760Y-88179042D01*
X110759338Y-88181461D01*
X110711314Y-88183551D01*
X110653763Y-88185335D01*
X110585763Y-88186837D01*
X110506390Y-88188080D01*
X110414721Y-88189089D01*
X110309834Y-88189885D01*
X110190804Y-88190494D01*
X110056710Y-88190939D01*
X109906627Y-88191243D01*
X109739633Y-88191430D01*
X109554804Y-88191524D01*
X109351217Y-88191548D01*
X109127950Y-88191525D01*
X108884078Y-88191480D01*
X108618679Y-88191437D01*
X108580296Y-88191432D01*
X108313318Y-88191389D01*
X108067998Y-88191318D01*
X107843417Y-88191213D01*
X107638655Y-88191066D01*
X107452794Y-88190869D01*
X107284912Y-88190616D01*
X107134092Y-88190300D01*
X106999413Y-88189913D01*
X106879956Y-88189447D01*
X106774801Y-88188897D01*
X106683029Y-88188253D01*
X106603721Y-88187511D01*
X106535957Y-88186661D01*
X106478818Y-88185697D01*
X106431383Y-88184611D01*
X106392734Y-88183397D01*
X106361951Y-88182047D01*
X106338115Y-88180555D01*
X106320306Y-88178911D01*
X106307605Y-88177111D01*
X106299092Y-88175145D01*
X106294734Y-88173477D01*
X106286272Y-88169906D01*
X106278503Y-88167270D01*
X106271398Y-88164634D01*
X106264927Y-88161062D01*
X106259061Y-88155621D01*
X106253771Y-88147375D01*
X106249026Y-88135390D01*
X106244798Y-88118731D01*
X106241057Y-88096463D01*
X106237773Y-88067652D01*
X106234917Y-88031363D01*
X106232460Y-87986661D01*
X106230371Y-87932611D01*
X106228622Y-87868279D01*
X106227183Y-87792730D01*
X106226024Y-87705030D01*
X106225117Y-87604243D01*
X106224431Y-87489434D01*
X106223937Y-87359670D01*
X106223605Y-87214015D01*
X106223407Y-87051535D01*
X106223313Y-86871295D01*
X106223292Y-86672360D01*
X106223315Y-86453796D01*
X106223354Y-86214668D01*
X106223378Y-85954040D01*
X106223378Y-85911889D01*
X106223364Y-85648992D01*
X106223339Y-85407732D01*
X106223329Y-85187165D01*
X106223358Y-84986352D01*
X106223452Y-84804349D01*
X106223638Y-84640216D01*
X106223941Y-84493011D01*
X106224386Y-84361792D01*
X106224966Y-84251867D01*
X106527803Y-84251867D01*
X106567593Y-84309711D01*
X106578764Y-84325479D01*
X106588834Y-84339441D01*
X106597862Y-84352784D01*
X106605903Y-84366693D01*
X106613014Y-84382356D01*
X106619253Y-84400958D01*
X106624675Y-84423686D01*
X106629338Y-84451727D01*
X106633299Y-84486267D01*
X106636615Y-84528492D01*
X106639341Y-84579589D01*
X106641536Y-84640744D01*
X106643255Y-84713144D01*
X106644556Y-84797975D01*
X106645495Y-84896422D01*
X106646130Y-85009674D01*
X106646516Y-85138916D01*
X106646712Y-85285334D01*
X106646773Y-85450116D01*
X106646757Y-85634447D01*
X106646720Y-85839513D01*
X106646711Y-85962133D01*
X106646735Y-86179082D01*
X106646769Y-86374642D01*
X106646757Y-86549999D01*
X106646642Y-86706341D01*
X106646370Y-86844857D01*
X106645882Y-86966734D01*
X106645124Y-87073160D01*
X106644038Y-87165322D01*
X106642569Y-87244409D01*
X106640660Y-87311608D01*
X106638256Y-87368107D01*
X106635299Y-87415093D01*
X106631734Y-87453755D01*
X106627505Y-87485280D01*
X106622554Y-87510855D01*
X106616827Y-87531670D01*
X106610267Y-87548911D01*
X106602817Y-87563765D01*
X106594421Y-87577422D01*
X106585024Y-87591069D01*
X106574568Y-87605893D01*
X106568477Y-87614783D01*
X106529704Y-87672400D01*
X107061268Y-87672400D01*
X107184517Y-87672365D01*
X107287013Y-87672215D01*
X107370580Y-87671878D01*
X107437044Y-87671286D01*
X107488229Y-87670367D01*
X107525959Y-87669051D01*
X107552060Y-87667269D01*
X107568356Y-87664951D01*
X107576672Y-87662026D01*
X107578832Y-87658424D01*
X107576661Y-87654075D01*
X107575465Y-87652645D01*
X107550315Y-87615573D01*
X107524417Y-87562772D01*
X107500808Y-87500770D01*
X107492539Y-87474357D01*
X107487922Y-87456416D01*
X107484021Y-87435355D01*
X107480752Y-87409089D01*
X107478034Y-87375532D01*
X107475785Y-87332599D01*
X107473923Y-87278204D01*
X107472364Y-87210262D01*
X107471028Y-87126688D01*
X107469831Y-87025395D01*
X107468692Y-86904300D01*
X107468315Y-86859600D01*
X107467298Y-86734449D01*
X107466540Y-86630082D01*
X107466097Y-86544707D01*
X107466030Y-86476533D01*
X107466395Y-86423765D01*
X107467252Y-86384614D01*
X107468659Y-86357285D01*
X107470675Y-86339986D01*
X107473357Y-86330926D01*
X107476764Y-86328312D01*
X107480956Y-86330351D01*
X107485429Y-86334667D01*
X107495784Y-86347602D01*
X107517842Y-86376676D01*
X107550043Y-86419759D01*
X107590826Y-86474718D01*
X107638630Y-86539423D01*
X107691895Y-86611742D01*
X107749060Y-86689544D01*
X107808563Y-86770698D01*
X107868845Y-86853072D01*
X107928345Y-86934536D01*
X107985502Y-87012957D01*
X108038755Y-87086204D01*
X108086543Y-87152147D01*
X108127307Y-87208654D01*
X108159484Y-87253593D01*
X108181515Y-87284834D01*
X108186083Y-87291466D01*
X108209004Y-87328369D01*
X108235812Y-87376359D01*
X108261211Y-87425897D01*
X108264432Y-87432577D01*
X108286110Y-87480772D01*
X108298696Y-87518334D01*
X108304426Y-87554160D01*
X108305544Y-87596200D01*
X108304910Y-87672400D01*
X109459349Y-87672400D01*
X109368185Y-87578669D01*
X109321388Y-87528775D01*
X109271101Y-87472295D01*
X109225056Y-87418026D01*
X109204631Y-87392673D01*
X109174193Y-87353128D01*
X109134138Y-87299916D01*
X109085639Y-87234667D01*
X109029865Y-87159011D01*
X108967989Y-87074577D01*
X108901181Y-86982994D01*
X108830613Y-86885892D01*
X108757455Y-86784901D01*
X108682879Y-86681650D01*
X108608056Y-86577768D01*
X108534157Y-86474885D01*
X108462354Y-86374631D01*
X108393816Y-86278636D01*
X108329716Y-86188527D01*
X108271225Y-86105936D01*
X108219514Y-86032492D01*
X108175753Y-85969824D01*
X108141115Y-85919561D01*
X108116770Y-85883334D01*
X108103889Y-85862771D01*
X108102131Y-85858668D01*
X108110090Y-85847342D01*
X108130885Y-85820162D01*
X108163153Y-85778829D01*
X108205530Y-85725044D01*
X108256653Y-85660506D01*
X108315159Y-85586918D01*
X108379686Y-85505978D01*
X108448869Y-85419388D01*
X108521347Y-85328848D01*
X108595754Y-85236060D01*
X108655483Y-85161702D01*
X109666489Y-85161702D01*
X109672398Y-85174659D01*
X109686728Y-85196908D01*
X109687775Y-85198391D01*
X109706562Y-85228544D01*
X109726209Y-85265375D01*
X109730108Y-85273511D01*
X109733644Y-85281940D01*
X109736770Y-85292059D01*
X109739514Y-85305260D01*
X109741908Y-85322938D01*
X109743981Y-85346484D01*
X109745765Y-85377293D01*
X109747288Y-85416757D01*
X109748581Y-85466269D01*
X109749674Y-85527223D01*
X109750597Y-85601011D01*
X109751381Y-85689028D01*
X109752055Y-85792665D01*
X109752650Y-85913316D01*
X109753195Y-86052374D01*
X109753721Y-86211232D01*
X109754255Y-86390089D01*
X109754794Y-86575207D01*
X109755228Y-86739145D01*
X109755491Y-86883303D01*
X109755516Y-87009079D01*
X109755235Y-87117871D01*
X109754581Y-87211077D01*
X109753486Y-87290097D01*
X109751882Y-87356328D01*
X109749703Y-87411170D01*
X109746881Y-87456021D01*
X109743349Y-87492278D01*
X109739039Y-87521341D01*
X109733883Y-87544609D01*
X109727815Y-87563479D01*
X109720767Y-87579351D01*
X109712671Y-87593622D01*
X109703460Y-87607691D01*
X109694960Y-87620158D01*
X109677824Y-87646452D01*
X109667678Y-87664037D01*
X109666489Y-87667257D01*
X109677396Y-87668334D01*
X109708589Y-87669335D01*
X109757777Y-87670235D01*
X109822667Y-87671010D01*
X109900970Y-87671637D01*
X109990393Y-87672091D01*
X110088644Y-87672349D01*
X110157555Y-87672400D01*
X110262548Y-87672180D01*
X110359390Y-87671548D01*
X110445893Y-87670549D01*
X110519868Y-87669227D01*
X110579126Y-87667626D01*
X110621480Y-87665791D01*
X110644740Y-87663765D01*
X110648622Y-87662493D01*
X110640924Y-87647591D01*
X110632926Y-87639560D01*
X110619754Y-87622434D01*
X110602515Y-87592183D01*
X110590593Y-87567622D01*
X110563955Y-87508711D01*
X110560880Y-86331845D01*
X110557805Y-85154978D01*
X110112147Y-85154978D01*
X110014330Y-85155142D01*
X109923936Y-85155611D01*
X109843370Y-85156347D01*
X109775038Y-85157316D01*
X109721344Y-85158480D01*
X109684695Y-85159803D01*
X109667496Y-85161249D01*
X109666489Y-85161702D01*
X108655483Y-85161702D01*
X108670730Y-85142722D01*
X108744910Y-85050537D01*
X108816931Y-84961204D01*
X108885431Y-84876424D01*
X108949045Y-84797898D01*
X109006412Y-84727326D01*
X109056167Y-84666409D01*
X109096948Y-84616847D01*
X109114112Y-84596178D01*
X109200404Y-84495516D01*
X109277003Y-84412259D01*
X109345817Y-84344438D01*
X109408752Y-84290089D01*
X109418133Y-84282722D01*
X109457644Y-84252117D01*
X108325884Y-84251867D01*
X108331173Y-84299844D01*
X108327870Y-84357188D01*
X108306339Y-84425463D01*
X108266365Y-84505212D01*
X108221057Y-84577495D01*
X108204839Y-84600140D01*
X108176786Y-84637696D01*
X108138570Y-84688021D01*
X108091863Y-84748973D01*
X108038339Y-84818411D01*
X107979669Y-84894194D01*
X107917525Y-84974180D01*
X107853579Y-85056228D01*
X107789505Y-85138196D01*
X107726973Y-85217943D01*
X107667657Y-85293327D01*
X107613229Y-85362207D01*
X107565361Y-85422442D01*
X107525725Y-85471889D01*
X107495994Y-85508408D01*
X107477839Y-85529858D01*
X107474780Y-85533156D01*
X107471921Y-85525149D01*
X107469707Y-85494855D01*
X107468143Y-85442556D01*
X107467233Y-85368531D01*
X107466980Y-85273063D01*
X107467387Y-85156434D01*
X107468296Y-85036445D01*
X107469618Y-84904333D01*
X107471143Y-84792594D01*
X107473119Y-84699025D01*
X107475794Y-84621419D01*
X107479418Y-84557574D01*
X107484239Y-84505283D01*
X107490506Y-84462344D01*
X107498468Y-84426551D01*
X107508373Y-84395700D01*
X107520469Y-84367586D01*
X107535007Y-84340005D01*
X107549689Y-84314966D01*
X107587686Y-84251867D01*
X106527803Y-84251867D01*
X106224966Y-84251867D01*
X106224999Y-84245617D01*
X106225805Y-84143544D01*
X106226830Y-84054633D01*
X106228100Y-83977941D01*
X106229640Y-83912527D01*
X106231476Y-83857449D01*
X106233633Y-83811765D01*
X106236137Y-83774534D01*
X106239013Y-83744813D01*
X106242287Y-83721662D01*
X106245985Y-83704139D01*
X106250131Y-83691301D01*
X106254753Y-83682208D01*
X106259874Y-83675918D01*
X106265522Y-83671488D01*
X106271721Y-83667978D01*
X106278496Y-83664445D01*
X106284492Y-83660876D01*
X106289725Y-83658300D01*
X106297901Y-83655972D01*
X106310114Y-83653878D01*
X106327459Y-83652007D01*
X106351031Y-83650347D01*
X106381923Y-83648884D01*
X106421232Y-83647608D01*
X106470050Y-83646504D01*
X106529473Y-83645561D01*
X106600596Y-83644767D01*
X106684512Y-83644109D01*
X106782317Y-83643575D01*
X106895106Y-83643153D01*
X107023971Y-83642829D01*
X107170009Y-83642592D01*
X107334314Y-83642430D01*
X107517980Y-83642330D01*
X107722103Y-83642280D01*
X107933247Y-83642267D01*
X109553600Y-83642267D01*
X109553600Y-83739054D01*
G37*
X109553600Y-83739054D02*
X109564465Y-83852993D01*
X109596082Y-83960616D01*
X109646985Y-84059615D01*
X109715707Y-84147684D01*
X109800781Y-84222516D01*
X109897768Y-84280384D01*
X110004036Y-84320005D01*
X110111050Y-84338573D01*
X110216700Y-84337434D01*
X110318875Y-84317930D01*
X110415466Y-84281406D01*
X110504362Y-84229205D01*
X110583454Y-84162673D01*
X110650631Y-84083152D01*
X110703783Y-83991987D01*
X110740801Y-83890523D01*
X110759573Y-83780102D01*
X110761511Y-83730206D01*
X110761511Y-83642267D01*
X110813440Y-83642267D01*
X110849747Y-83645111D01*
X110876645Y-83656911D01*
X110903751Y-83680649D01*
X110942133Y-83719031D01*
X110942133Y-85910602D01*
X110942124Y-86172739D01*
X110942092Y-86413241D01*
X110942028Y-86633048D01*
X110941924Y-86833101D01*
X110941773Y-87014344D01*
X110941566Y-87177716D01*
X110941294Y-87324160D01*
X110940950Y-87454617D01*
X110940526Y-87570029D01*
X110940013Y-87671338D01*
X110939403Y-87759484D01*
X110938688Y-87835410D01*
X110937860Y-87900057D01*
X110936911Y-87954367D01*
X110935833Y-87999280D01*
X110934617Y-88035740D01*
X110933255Y-88064687D01*
X110931739Y-88087063D01*
X110930062Y-88103809D01*
X110928214Y-88115868D01*
X110926187Y-88124180D01*
X110923975Y-88129687D01*
X110922892Y-88131537D01*
X110918729Y-88138549D01*
X110915195Y-88144996D01*
X110911365Y-88150900D01*
X110906318Y-88156286D01*
X110899129Y-88161178D01*
X110888877Y-88165598D01*
X110874636Y-88169572D01*
X110855486Y-88173121D01*
X110830501Y-88176270D01*
X110798760Y-88179042D01*
X110759338Y-88181461D01*
X110711314Y-88183551D01*
X110653763Y-88185335D01*
X110585763Y-88186837D01*
X110506390Y-88188080D01*
X110414721Y-88189089D01*
X110309834Y-88189885D01*
X110190804Y-88190494D01*
X110056710Y-88190939D01*
X109906627Y-88191243D01*
X109739633Y-88191430D01*
X109554804Y-88191524D01*
X109351217Y-88191548D01*
X109127950Y-88191525D01*
X108884078Y-88191480D01*
X108618679Y-88191437D01*
X108580296Y-88191432D01*
X108313318Y-88191389D01*
X108067998Y-88191318D01*
X107843417Y-88191213D01*
X107638655Y-88191066D01*
X107452794Y-88190869D01*
X107284912Y-88190616D01*
X107134092Y-88190300D01*
X106999413Y-88189913D01*
X106879956Y-88189447D01*
X106774801Y-88188897D01*
X106683029Y-88188253D01*
X106603721Y-88187511D01*
X106535957Y-88186661D01*
X106478818Y-88185697D01*
X106431383Y-88184611D01*
X106392734Y-88183397D01*
X106361951Y-88182047D01*
X106338115Y-88180555D01*
X106320306Y-88178911D01*
X106307605Y-88177111D01*
X106299092Y-88175145D01*
X106294734Y-88173477D01*
X106286272Y-88169906D01*
X106278503Y-88167270D01*
X106271398Y-88164634D01*
X106264927Y-88161062D01*
X106259061Y-88155621D01*
X106253771Y-88147375D01*
X106249026Y-88135390D01*
X106244798Y-88118731D01*
X106241057Y-88096463D01*
X106237773Y-88067652D01*
X106234917Y-88031363D01*
X106232460Y-87986661D01*
X106230371Y-87932611D01*
X106228622Y-87868279D01*
X106227183Y-87792730D01*
X106226024Y-87705030D01*
X106225117Y-87604243D01*
X106224431Y-87489434D01*
X106223937Y-87359670D01*
X106223605Y-87214015D01*
X106223407Y-87051535D01*
X106223313Y-86871295D01*
X106223292Y-86672360D01*
X106223315Y-86453796D01*
X106223354Y-86214668D01*
X106223378Y-85954040D01*
X106223378Y-85911889D01*
X106223364Y-85648992D01*
X106223339Y-85407732D01*
X106223329Y-85187165D01*
X106223358Y-84986352D01*
X106223452Y-84804349D01*
X106223638Y-84640216D01*
X106223941Y-84493011D01*
X106224386Y-84361792D01*
X106224966Y-84251867D01*
X106527803Y-84251867D01*
X106567593Y-84309711D01*
X106578764Y-84325479D01*
X106588834Y-84339441D01*
X106597862Y-84352784D01*
X106605903Y-84366693D01*
X106613014Y-84382356D01*
X106619253Y-84400958D01*
X106624675Y-84423686D01*
X106629338Y-84451727D01*
X106633299Y-84486267D01*
X106636615Y-84528492D01*
X106639341Y-84579589D01*
X106641536Y-84640744D01*
X106643255Y-84713144D01*
X106644556Y-84797975D01*
X106645495Y-84896422D01*
X106646130Y-85009674D01*
X106646516Y-85138916D01*
X106646712Y-85285334D01*
X106646773Y-85450116D01*
X106646757Y-85634447D01*
X106646720Y-85839513D01*
X106646711Y-85962133D01*
X106646735Y-86179082D01*
X106646769Y-86374642D01*
X106646757Y-86549999D01*
X106646642Y-86706341D01*
X106646370Y-86844857D01*
X106645882Y-86966734D01*
X106645124Y-87073160D01*
X106644038Y-87165322D01*
X106642569Y-87244409D01*
X106640660Y-87311608D01*
X106638256Y-87368107D01*
X106635299Y-87415093D01*
X106631734Y-87453755D01*
X106627505Y-87485280D01*
X106622554Y-87510855D01*
X106616827Y-87531670D01*
X106610267Y-87548911D01*
X106602817Y-87563765D01*
X106594421Y-87577422D01*
X106585024Y-87591069D01*
X106574568Y-87605893D01*
X106568477Y-87614783D01*
X106529704Y-87672400D01*
X107061268Y-87672400D01*
X107184517Y-87672365D01*
X107287013Y-87672215D01*
X107370580Y-87671878D01*
X107437044Y-87671286D01*
X107488229Y-87670367D01*
X107525959Y-87669051D01*
X107552060Y-87667269D01*
X107568356Y-87664951D01*
X107576672Y-87662026D01*
X107578832Y-87658424D01*
X107576661Y-87654075D01*
X107575465Y-87652645D01*
X107550315Y-87615573D01*
X107524417Y-87562772D01*
X107500808Y-87500770D01*
X107492539Y-87474357D01*
X107487922Y-87456416D01*
X107484021Y-87435355D01*
X107480752Y-87409089D01*
X107478034Y-87375532D01*
X107475785Y-87332599D01*
X107473923Y-87278204D01*
X107472364Y-87210262D01*
X107471028Y-87126688D01*
X107469831Y-87025395D01*
X107468692Y-86904300D01*
X107468315Y-86859600D01*
X107467298Y-86734449D01*
X107466540Y-86630082D01*
X107466097Y-86544707D01*
X107466030Y-86476533D01*
X107466395Y-86423765D01*
X107467252Y-86384614D01*
X107468659Y-86357285D01*
X107470675Y-86339986D01*
X107473357Y-86330926D01*
X107476764Y-86328312D01*
X107480956Y-86330351D01*
X107485429Y-86334667D01*
X107495784Y-86347602D01*
X107517842Y-86376676D01*
X107550043Y-86419759D01*
X107590826Y-86474718D01*
X107638630Y-86539423D01*
X107691895Y-86611742D01*
X107749060Y-86689544D01*
X107808563Y-86770698D01*
X107868845Y-86853072D01*
X107928345Y-86934536D01*
X107985502Y-87012957D01*
X108038755Y-87086204D01*
X108086543Y-87152147D01*
X108127307Y-87208654D01*
X108159484Y-87253593D01*
X108181515Y-87284834D01*
X108186083Y-87291466D01*
X108209004Y-87328369D01*
X108235812Y-87376359D01*
X108261211Y-87425897D01*
X108264432Y-87432577D01*
X108286110Y-87480772D01*
X108298696Y-87518334D01*
X108304426Y-87554160D01*
X108305544Y-87596200D01*
X108304910Y-87672400D01*
X109459349Y-87672400D01*
X109368185Y-87578669D01*
X109321388Y-87528775D01*
X109271101Y-87472295D01*
X109225056Y-87418026D01*
X109204631Y-87392673D01*
X109174193Y-87353128D01*
X109134138Y-87299916D01*
X109085639Y-87234667D01*
X109029865Y-87159011D01*
X108967989Y-87074577D01*
X108901181Y-86982994D01*
X108830613Y-86885892D01*
X108757455Y-86784901D01*
X108682879Y-86681650D01*
X108608056Y-86577768D01*
X108534157Y-86474885D01*
X108462354Y-86374631D01*
X108393816Y-86278636D01*
X108329716Y-86188527D01*
X108271225Y-86105936D01*
X108219514Y-86032492D01*
X108175753Y-85969824D01*
X108141115Y-85919561D01*
X108116770Y-85883334D01*
X108103889Y-85862771D01*
X108102131Y-85858668D01*
X108110090Y-85847342D01*
X108130885Y-85820162D01*
X108163153Y-85778829D01*
X108205530Y-85725044D01*
X108256653Y-85660506D01*
X108315159Y-85586918D01*
X108379686Y-85505978D01*
X108448869Y-85419388D01*
X108521347Y-85328848D01*
X108595754Y-85236060D01*
X108655483Y-85161702D01*
X109666489Y-85161702D01*
X109672398Y-85174659D01*
X109686728Y-85196908D01*
X109687775Y-85198391D01*
X109706562Y-85228544D01*
X109726209Y-85265375D01*
X109730108Y-85273511D01*
X109733644Y-85281940D01*
X109736770Y-85292059D01*
X109739514Y-85305260D01*
X109741908Y-85322938D01*
X109743981Y-85346484D01*
X109745765Y-85377293D01*
X109747288Y-85416757D01*
X109748581Y-85466269D01*
X109749674Y-85527223D01*
X109750597Y-85601011D01*
X109751381Y-85689028D01*
X109752055Y-85792665D01*
X109752650Y-85913316D01*
X109753195Y-86052374D01*
X109753721Y-86211232D01*
X109754255Y-86390089D01*
X109754794Y-86575207D01*
X109755228Y-86739145D01*
X109755491Y-86883303D01*
X109755516Y-87009079D01*
X109755235Y-87117871D01*
X109754581Y-87211077D01*
X109753486Y-87290097D01*
X109751882Y-87356328D01*
X109749703Y-87411170D01*
X109746881Y-87456021D01*
X109743349Y-87492278D01*
X109739039Y-87521341D01*
X109733883Y-87544609D01*
X109727815Y-87563479D01*
X109720767Y-87579351D01*
X109712671Y-87593622D01*
X109703460Y-87607691D01*
X109694960Y-87620158D01*
X109677824Y-87646452D01*
X109667678Y-87664037D01*
X109666489Y-87667257D01*
X109677396Y-87668334D01*
X109708589Y-87669335D01*
X109757777Y-87670235D01*
X109822667Y-87671010D01*
X109900970Y-87671637D01*
X109990393Y-87672091D01*
X110088644Y-87672349D01*
X110157555Y-87672400D01*
X110262548Y-87672180D01*
X110359390Y-87671548D01*
X110445893Y-87670549D01*
X110519868Y-87669227D01*
X110579126Y-87667626D01*
X110621480Y-87665791D01*
X110644740Y-87663765D01*
X110648622Y-87662493D01*
X110640924Y-87647591D01*
X110632926Y-87639560D01*
X110619754Y-87622434D01*
X110602515Y-87592183D01*
X110590593Y-87567622D01*
X110563955Y-87508711D01*
X110560880Y-86331845D01*
X110557805Y-85154978D01*
X110112147Y-85154978D01*
X110014330Y-85155142D01*
X109923936Y-85155611D01*
X109843370Y-85156347D01*
X109775038Y-85157316D01*
X109721344Y-85158480D01*
X109684695Y-85159803D01*
X109667496Y-85161249D01*
X109666489Y-85161702D01*
X108655483Y-85161702D01*
X108670730Y-85142722D01*
X108744910Y-85050537D01*
X108816931Y-84961204D01*
X108885431Y-84876424D01*
X108949045Y-84797898D01*
X109006412Y-84727326D01*
X109056167Y-84666409D01*
X109096948Y-84616847D01*
X109114112Y-84596178D01*
X109200404Y-84495516D01*
X109277003Y-84412259D01*
X109345817Y-84344438D01*
X109408752Y-84290089D01*
X109418133Y-84282722D01*
X109457644Y-84252117D01*
X108325884Y-84251867D01*
X108331173Y-84299844D01*
X108327870Y-84357188D01*
X108306339Y-84425463D01*
X108266365Y-84505212D01*
X108221057Y-84577495D01*
X108204839Y-84600140D01*
X108176786Y-84637696D01*
X108138570Y-84688021D01*
X108091863Y-84748973D01*
X108038339Y-84818411D01*
X107979669Y-84894194D01*
X107917525Y-84974180D01*
X107853579Y-85056228D01*
X107789505Y-85138196D01*
X107726973Y-85217943D01*
X107667657Y-85293327D01*
X107613229Y-85362207D01*
X107565361Y-85422442D01*
X107525725Y-85471889D01*
X107495994Y-85508408D01*
X107477839Y-85529858D01*
X107474780Y-85533156D01*
X107471921Y-85525149D01*
X107469707Y-85494855D01*
X107468143Y-85442556D01*
X107467233Y-85368531D01*
X107466980Y-85273063D01*
X107467387Y-85156434D01*
X107468296Y-85036445D01*
X107469618Y-84904333D01*
X107471143Y-84792594D01*
X107473119Y-84699025D01*
X107475794Y-84621419D01*
X107479418Y-84557574D01*
X107484239Y-84505283D01*
X107490506Y-84462344D01*
X107498468Y-84426551D01*
X107508373Y-84395700D01*
X107520469Y-84367586D01*
X107535007Y-84340005D01*
X107549689Y-84314966D01*
X107587686Y-84251867D01*
X106527803Y-84251867D01*
X106224966Y-84251867D01*
X106224999Y-84245617D01*
X106225805Y-84143544D01*
X106226830Y-84054633D01*
X106228100Y-83977941D01*
X106229640Y-83912527D01*
X106231476Y-83857449D01*
X106233633Y-83811765D01*
X106236137Y-83774534D01*
X106239013Y-83744813D01*
X106242287Y-83721662D01*
X106245985Y-83704139D01*
X106250131Y-83691301D01*
X106254753Y-83682208D01*
X106259874Y-83675918D01*
X106265522Y-83671488D01*
X106271721Y-83667978D01*
X106278496Y-83664445D01*
X106284492Y-83660876D01*
X106289725Y-83658300D01*
X106297901Y-83655972D01*
X106310114Y-83653878D01*
X106327459Y-83652007D01*
X106351031Y-83650347D01*
X106381923Y-83648884D01*
X106421232Y-83647608D01*
X106470050Y-83646504D01*
X106529473Y-83645561D01*
X106600596Y-83644767D01*
X106684512Y-83644109D01*
X106782317Y-83643575D01*
X106895106Y-83643153D01*
X107023971Y-83642829D01*
X107170009Y-83642592D01*
X107334314Y-83642430D01*
X107517980Y-83642330D01*
X107722103Y-83642280D01*
X107933247Y-83642267D01*
X109553600Y-83642267D01*
X109553600Y-83739054D01*
G36*
X112828429Y-84199071D02*
G01*
X112988570Y-84220245D01*
X113152510Y-84260385D01*
X113322313Y-84319889D01*
X113500043Y-84399154D01*
X113511310Y-84404699D01*
X113569005Y-84432725D01*
X113620552Y-84456802D01*
X113662191Y-84475249D01*
X113690162Y-84486386D01*
X113699733Y-84488933D01*
X113718950Y-84493941D01*
X113723561Y-84498147D01*
X113718458Y-84508580D01*
X113702418Y-84534868D01*
X113677288Y-84574257D01*
X113644914Y-84623991D01*
X113607143Y-84681315D01*
X113565822Y-84743476D01*
X113522798Y-84807718D01*
X113479917Y-84871285D01*
X113439026Y-84931425D01*
X113401971Y-84985380D01*
X113370600Y-85030397D01*
X113346759Y-85063721D01*
X113332294Y-85082597D01*
X113330309Y-85084787D01*
X113320191Y-85080138D01*
X113297850Y-85062962D01*
X113267280Y-85036440D01*
X113251536Y-85021964D01*
X113155047Y-84946682D01*
X113048336Y-84891241D01*
X112932832Y-84856141D01*
X112809962Y-84841880D01*
X112740561Y-84843051D01*
X112619423Y-84860212D01*
X112510205Y-84896094D01*
X112412582Y-84950959D01*
X112326228Y-85025070D01*
X112250815Y-85118688D01*
X112186018Y-85232076D01*
X112148601Y-85318667D01*
X112104748Y-85454366D01*
X112072428Y-85601850D01*
X112051557Y-85757314D01*
X112042051Y-85916956D01*
X112043827Y-86076973D01*
X112056803Y-86233561D01*
X112080894Y-86382918D01*
X112116018Y-86521240D01*
X112162092Y-86644724D01*
X112178373Y-86678978D01*
X112246620Y-86793064D01*
X112327079Y-86889557D01*
X112418570Y-86967670D01*
X112519911Y-87026617D01*
X112629920Y-87065612D01*
X112747415Y-87083868D01*
X112788883Y-87085211D01*
X112910441Y-87074290D01*
X113030878Y-87041474D01*
X113148666Y-86987439D01*
X113262277Y-86912865D01*
X113353685Y-86834539D01*
X113400215Y-86790008D01*
X113581483Y-87087271D01*
X113626580Y-87161433D01*
X113667819Y-87229646D01*
X113703735Y-87289459D01*
X113732866Y-87338420D01*
X113753750Y-87374079D01*
X113764924Y-87393984D01*
X113766375Y-87397079D01*
X113758146Y-87406718D01*
X113732567Y-87423999D01*
X113692873Y-87447283D01*
X113642297Y-87474934D01*
X113584074Y-87505315D01*
X113521437Y-87536790D01*
X113457621Y-87567722D01*
X113395860Y-87596473D01*
X113339388Y-87621408D01*
X113291438Y-87640889D01*
X113267986Y-87649318D01*
X113134221Y-87687133D01*
X112996327Y-87712136D01*
X112848622Y-87725140D01*
X112721833Y-87727468D01*
X112653878Y-87726373D01*
X112588277Y-87724275D01*
X112530847Y-87721434D01*
X112487403Y-87718106D01*
X112473298Y-87716422D01*
X112334284Y-87687587D01*
X112192757Y-87642468D01*
X112055275Y-87583750D01*
X111928394Y-87514120D01*
X111850889Y-87461441D01*
X111723481Y-87353239D01*
X111605178Y-87226671D01*
X111498172Y-87084866D01*
X111404652Y-86930951D01*
X111326810Y-86768053D01*
X111282956Y-86650756D01*
X111232708Y-86467128D01*
X111199209Y-86272581D01*
X111182449Y-86071325D01*
X111182416Y-85867568D01*
X111199101Y-85665521D01*
X111232493Y-85469392D01*
X111282580Y-85283391D01*
X111286397Y-85271803D01*
X111349281Y-85109750D01*
X111426028Y-84961832D01*
X111519242Y-84823865D01*
X111631527Y-84691661D01*
X111675392Y-84646399D01*
X111811534Y-84522457D01*
X111951491Y-84419915D01*
X112097411Y-84337656D01*
X112251442Y-84274564D01*
X112415732Y-84229523D01*
X112511289Y-84212033D01*
X112670023Y-84196466D01*
X112828429Y-84199071D01*
G37*
X112828429Y-84199071D02*
X112988570Y-84220245D01*
X113152510Y-84260385D01*
X113322313Y-84319889D01*
X113500043Y-84399154D01*
X113511310Y-84404699D01*
X113569005Y-84432725D01*
X113620552Y-84456802D01*
X113662191Y-84475249D01*
X113690162Y-84486386D01*
X113699733Y-84488933D01*
X113718950Y-84493941D01*
X113723561Y-84498147D01*
X113718458Y-84508580D01*
X113702418Y-84534868D01*
X113677288Y-84574257D01*
X113644914Y-84623991D01*
X113607143Y-84681315D01*
X113565822Y-84743476D01*
X113522798Y-84807718D01*
X113479917Y-84871285D01*
X113439026Y-84931425D01*
X113401971Y-84985380D01*
X113370600Y-85030397D01*
X113346759Y-85063721D01*
X113332294Y-85082597D01*
X113330309Y-85084787D01*
X113320191Y-85080138D01*
X113297850Y-85062962D01*
X113267280Y-85036440D01*
X113251536Y-85021964D01*
X113155047Y-84946682D01*
X113048336Y-84891241D01*
X112932832Y-84856141D01*
X112809962Y-84841880D01*
X112740561Y-84843051D01*
X112619423Y-84860212D01*
X112510205Y-84896094D01*
X112412582Y-84950959D01*
X112326228Y-85025070D01*
X112250815Y-85118688D01*
X112186018Y-85232076D01*
X112148601Y-85318667D01*
X112104748Y-85454366D01*
X112072428Y-85601850D01*
X112051557Y-85757314D01*
X112042051Y-85916956D01*
X112043827Y-86076973D01*
X112056803Y-86233561D01*
X112080894Y-86382918D01*
X112116018Y-86521240D01*
X112162092Y-86644724D01*
X112178373Y-86678978D01*
X112246620Y-86793064D01*
X112327079Y-86889557D01*
X112418570Y-86967670D01*
X112519911Y-87026617D01*
X112629920Y-87065612D01*
X112747415Y-87083868D01*
X112788883Y-87085211D01*
X112910441Y-87074290D01*
X113030878Y-87041474D01*
X113148666Y-86987439D01*
X113262277Y-86912865D01*
X113353685Y-86834539D01*
X113400215Y-86790008D01*
X113581483Y-87087271D01*
X113626580Y-87161433D01*
X113667819Y-87229646D01*
X113703735Y-87289459D01*
X113732866Y-87338420D01*
X113753750Y-87374079D01*
X113764924Y-87393984D01*
X113766375Y-87397079D01*
X113758146Y-87406718D01*
X113732567Y-87423999D01*
X113692873Y-87447283D01*
X113642297Y-87474934D01*
X113584074Y-87505315D01*
X113521437Y-87536790D01*
X113457621Y-87567722D01*
X113395860Y-87596473D01*
X113339388Y-87621408D01*
X113291438Y-87640889D01*
X113267986Y-87649318D01*
X113134221Y-87687133D01*
X112996327Y-87712136D01*
X112848622Y-87725140D01*
X112721833Y-87727468D01*
X112653878Y-87726373D01*
X112588277Y-87724275D01*
X112530847Y-87721434D01*
X112487403Y-87718106D01*
X112473298Y-87716422D01*
X112334284Y-87687587D01*
X112192757Y-87642468D01*
X112055275Y-87583750D01*
X111928394Y-87514120D01*
X111850889Y-87461441D01*
X111723481Y-87353239D01*
X111605178Y-87226671D01*
X111498172Y-87084866D01*
X111404652Y-86930951D01*
X111326810Y-86768053D01*
X111282956Y-86650756D01*
X111232708Y-86467128D01*
X111199209Y-86272581D01*
X111182449Y-86071325D01*
X111182416Y-85867568D01*
X111199101Y-85665521D01*
X111232493Y-85469392D01*
X111282580Y-85283391D01*
X111286397Y-85271803D01*
X111349281Y-85109750D01*
X111426028Y-84961832D01*
X111519242Y-84823865D01*
X111631527Y-84691661D01*
X111675392Y-84646399D01*
X111811534Y-84522457D01*
X111951491Y-84419915D01*
X112097411Y-84337656D01*
X112251442Y-84274564D01*
X112415732Y-84229523D01*
X112511289Y-84212033D01*
X112670023Y-84196466D01*
X112828429Y-84199071D01*
G36*
X115173574Y-85116552D02*
G01*
X115325492Y-85136567D01*
X115460756Y-85170202D01*
X115580239Y-85217725D01*
X115684815Y-85279405D01*
X115762424Y-85342965D01*
X115831265Y-85417099D01*
X115885006Y-85496871D01*
X115927910Y-85589091D01*
X115943384Y-85632161D01*
X115956244Y-85671142D01*
X115967446Y-85707289D01*
X115977120Y-85742434D01*
X115985396Y-85778410D01*
X115992403Y-85817050D01*
X115998272Y-85860185D01*
X116003131Y-85909649D01*
X116007110Y-85967273D01*
X116010340Y-86034891D01*
X116012949Y-86114334D01*
X116015067Y-86207436D01*
X116016824Y-86316027D01*
X116018349Y-86441942D01*
X116019772Y-86587012D01*
X116021025Y-86729778D01*
X116022351Y-86885968D01*
X116023556Y-87021239D01*
X116024766Y-87137246D01*
X116026106Y-87235645D01*
X116027700Y-87318093D01*
X116029675Y-87386246D01*
X116032156Y-87441760D01*
X116035269Y-87486292D01*
X116039138Y-87521498D01*
X116043889Y-87549034D01*
X116049648Y-87570556D01*
X116056539Y-87587722D01*
X116064689Y-87602186D01*
X116074223Y-87615606D01*
X116085266Y-87629638D01*
X116089566Y-87635071D01*
X116105386Y-87657910D01*
X116112422Y-87673463D01*
X116112444Y-87673922D01*
X116101567Y-87676121D01*
X116070582Y-87678147D01*
X116021957Y-87679942D01*
X115958163Y-87681451D01*
X115881669Y-87682616D01*
X115794944Y-87683380D01*
X115700457Y-87683686D01*
X115689550Y-87683689D01*
X115266657Y-87683689D01*
X115263395Y-87587622D01*
X115260133Y-87491556D01*
X115198044Y-87542543D01*
X115100714Y-87610057D01*
X114990813Y-87664749D01*
X114904349Y-87694978D01*
X114835278Y-87709666D01*
X114751925Y-87719659D01*
X114662159Y-87724646D01*
X114573845Y-87724313D01*
X114494851Y-87718351D01*
X114458622Y-87712638D01*
X114318603Y-87674776D01*
X114192178Y-87619932D01*
X114080260Y-87548924D01*
X113983762Y-87462568D01*
X113903600Y-87361679D01*
X113840687Y-87247076D01*
X113796312Y-87120984D01*
X113783978Y-87064401D01*
X113776368Y-87002202D01*
X113772739Y-86927363D01*
X113772245Y-86893467D01*
X113772310Y-86890282D01*
X114532248Y-86890282D01*
X114541541Y-86965333D01*
X114569728Y-87029160D01*
X114618197Y-87084798D01*
X114623254Y-87089211D01*
X114671548Y-87124037D01*
X114723257Y-87146620D01*
X114783989Y-87158540D01*
X114859352Y-87161383D01*
X114877459Y-87160978D01*
X114931278Y-87158325D01*
X114971308Y-87152909D01*
X115006324Y-87142745D01*
X115045103Y-87125850D01*
X115055745Y-87120672D01*
X115116396Y-87084844D01*
X115163215Y-87042212D01*
X115175952Y-87026973D01*
X115220622Y-86970462D01*
X115220622Y-86774586D01*
X115220086Y-86695939D01*
X115218396Y-86637988D01*
X115215428Y-86598875D01*
X115211057Y-86576741D01*
X115206972Y-86570274D01*
X115191047Y-86567111D01*
X115157264Y-86564488D01*
X115110340Y-86562655D01*
X115054993Y-86561857D01*
X115046106Y-86561842D01*
X114925330Y-86567096D01*
X114822660Y-86583263D01*
X114736106Y-86610961D01*
X114663681Y-86650808D01*
X114608751Y-86697758D01*
X114564204Y-86755645D01*
X114539480Y-86818693D01*
X114532248Y-86890282D01*
X113772310Y-86890282D01*
X113774178Y-86799712D01*
X113782522Y-86720812D01*
X113798768Y-86649590D01*
X113824405Y-86578864D01*
X113848401Y-86526493D01*
X113907020Y-86431196D01*
X113985117Y-86343170D01*
X114080315Y-86264017D01*
X114190238Y-86195340D01*
X114312510Y-86138741D01*
X114444755Y-86095821D01*
X114509422Y-86080882D01*
X114645604Y-86058777D01*
X114794049Y-86044194D01*
X114945505Y-86037813D01*
X115072064Y-86039445D01*
X115233950Y-86046224D01*
X115226530Y-85987245D01*
X115207238Y-85888092D01*
X115176104Y-85807372D01*
X115132269Y-85744466D01*
X115074871Y-85698756D01*
X115003048Y-85669622D01*
X114915941Y-85656447D01*
X114812686Y-85658611D01*
X114774711Y-85662612D01*
X114633520Y-85687780D01*
X114496707Y-85728814D01*
X114402178Y-85766815D01*
X114357018Y-85786190D01*
X114318585Y-85801760D01*
X114292234Y-85811405D01*
X114284546Y-85813452D01*
X114274802Y-85804374D01*
X114258083Y-85775405D01*
X114234232Y-85726217D01*
X114203093Y-85656484D01*
X114164507Y-85565879D01*
X114157910Y-85550089D01*
X114127853Y-85477772D01*
X114100874Y-85412425D01*
X114078136Y-85356906D01*
X114060806Y-85314072D01*
X114050048Y-85286781D01*
X114046941Y-85277942D01*
X114056940Y-85273187D01*
X114083217Y-85267910D01*
X114111489Y-85264231D01*
X114141646Y-85259474D01*
X114189433Y-85250028D01*
X114250612Y-85236820D01*
X114320946Y-85220776D01*
X114396194Y-85202820D01*
X114424755Y-85195797D01*
X114529816Y-85170209D01*
X114617480Y-85150147D01*
X114692068Y-85134969D01*
X114757903Y-85124035D01*
X114819307Y-85116704D01*
X114880602Y-85112335D01*
X114946110Y-85110287D01*
X115004128Y-85109889D01*
X115173574Y-85116552D01*
G37*
X115173574Y-85116552D02*
X115325492Y-85136567D01*
X115460756Y-85170202D01*
X115580239Y-85217725D01*
X115684815Y-85279405D01*
X115762424Y-85342965D01*
X115831265Y-85417099D01*
X115885006Y-85496871D01*
X115927910Y-85589091D01*
X115943384Y-85632161D01*
X115956244Y-85671142D01*
X115967446Y-85707289D01*
X115977120Y-85742434D01*
X115985396Y-85778410D01*
X115992403Y-85817050D01*
X115998272Y-85860185D01*
X116003131Y-85909649D01*
X116007110Y-85967273D01*
X116010340Y-86034891D01*
X116012949Y-86114334D01*
X116015067Y-86207436D01*
X116016824Y-86316027D01*
X116018349Y-86441942D01*
X116019772Y-86587012D01*
X116021025Y-86729778D01*
X116022351Y-86885968D01*
X116023556Y-87021239D01*
X116024766Y-87137246D01*
X116026106Y-87235645D01*
X116027700Y-87318093D01*
X116029675Y-87386246D01*
X116032156Y-87441760D01*
X116035269Y-87486292D01*
X116039138Y-87521498D01*
X116043889Y-87549034D01*
X116049648Y-87570556D01*
X116056539Y-87587722D01*
X116064689Y-87602186D01*
X116074223Y-87615606D01*
X116085266Y-87629638D01*
X116089566Y-87635071D01*
X116105386Y-87657910D01*
X116112422Y-87673463D01*
X116112444Y-87673922D01*
X116101567Y-87676121D01*
X116070582Y-87678147D01*
X116021957Y-87679942D01*
X115958163Y-87681451D01*
X115881669Y-87682616D01*
X115794944Y-87683380D01*
X115700457Y-87683686D01*
X115689550Y-87683689D01*
X115266657Y-87683689D01*
X115263395Y-87587622D01*
X115260133Y-87491556D01*
X115198044Y-87542543D01*
X115100714Y-87610057D01*
X114990813Y-87664749D01*
X114904349Y-87694978D01*
X114835278Y-87709666D01*
X114751925Y-87719659D01*
X114662159Y-87724646D01*
X114573845Y-87724313D01*
X114494851Y-87718351D01*
X114458622Y-87712638D01*
X114318603Y-87674776D01*
X114192178Y-87619932D01*
X114080260Y-87548924D01*
X113983762Y-87462568D01*
X113903600Y-87361679D01*
X113840687Y-87247076D01*
X113796312Y-87120984D01*
X113783978Y-87064401D01*
X113776368Y-87002202D01*
X113772739Y-86927363D01*
X113772245Y-86893467D01*
X113772310Y-86890282D01*
X114532248Y-86890282D01*
X114541541Y-86965333D01*
X114569728Y-87029160D01*
X114618197Y-87084798D01*
X114623254Y-87089211D01*
X114671548Y-87124037D01*
X114723257Y-87146620D01*
X114783989Y-87158540D01*
X114859352Y-87161383D01*
X114877459Y-87160978D01*
X114931278Y-87158325D01*
X114971308Y-87152909D01*
X115006324Y-87142745D01*
X115045103Y-87125850D01*
X115055745Y-87120672D01*
X115116396Y-87084844D01*
X115163215Y-87042212D01*
X115175952Y-87026973D01*
X115220622Y-86970462D01*
X115220622Y-86774586D01*
X115220086Y-86695939D01*
X115218396Y-86637988D01*
X115215428Y-86598875D01*
X115211057Y-86576741D01*
X115206972Y-86570274D01*
X115191047Y-86567111D01*
X115157264Y-86564488D01*
X115110340Y-86562655D01*
X115054993Y-86561857D01*
X115046106Y-86561842D01*
X114925330Y-86567096D01*
X114822660Y-86583263D01*
X114736106Y-86610961D01*
X114663681Y-86650808D01*
X114608751Y-86697758D01*
X114564204Y-86755645D01*
X114539480Y-86818693D01*
X114532248Y-86890282D01*
X113772310Y-86890282D01*
X113774178Y-86799712D01*
X113782522Y-86720812D01*
X113798768Y-86649590D01*
X113824405Y-86578864D01*
X113848401Y-86526493D01*
X113907020Y-86431196D01*
X113985117Y-86343170D01*
X114080315Y-86264017D01*
X114190238Y-86195340D01*
X114312510Y-86138741D01*
X114444755Y-86095821D01*
X114509422Y-86080882D01*
X114645604Y-86058777D01*
X114794049Y-86044194D01*
X114945505Y-86037813D01*
X115072064Y-86039445D01*
X115233950Y-86046224D01*
X115226530Y-85987245D01*
X115207238Y-85888092D01*
X115176104Y-85807372D01*
X115132269Y-85744466D01*
X115074871Y-85698756D01*
X115003048Y-85669622D01*
X114915941Y-85656447D01*
X114812686Y-85658611D01*
X114774711Y-85662612D01*
X114633520Y-85687780D01*
X114496707Y-85728814D01*
X114402178Y-85766815D01*
X114357018Y-85786190D01*
X114318585Y-85801760D01*
X114292234Y-85811405D01*
X114284546Y-85813452D01*
X114274802Y-85804374D01*
X114258083Y-85775405D01*
X114234232Y-85726217D01*
X114203093Y-85656484D01*
X114164507Y-85565879D01*
X114157910Y-85550089D01*
X114127853Y-85477772D01*
X114100874Y-85412425D01*
X114078136Y-85356906D01*
X114060806Y-85314072D01*
X114050048Y-85286781D01*
X114046941Y-85277942D01*
X114056940Y-85273187D01*
X114083217Y-85267910D01*
X114111489Y-85264231D01*
X114141646Y-85259474D01*
X114189433Y-85250028D01*
X114250612Y-85236820D01*
X114320946Y-85220776D01*
X114396194Y-85202820D01*
X114424755Y-85195797D01*
X114529816Y-85170209D01*
X114617480Y-85150147D01*
X114692068Y-85134969D01*
X114757903Y-85124035D01*
X114819307Y-85116704D01*
X114880602Y-85112335D01*
X114946110Y-85110287D01*
X115004128Y-85109889D01*
X115173574Y-85116552D01*
G36*
X118686507Y-85722245D02*
G01*
X118686526Y-85956662D01*
X118686552Y-86169603D01*
X118686625Y-86362168D01*
X118686782Y-86535459D01*
X118687064Y-86690576D01*
X118687509Y-86828620D01*
X118688156Y-86950692D01*
X118689045Y-87057894D01*
X118690213Y-87151326D01*
X118691701Y-87232090D01*
X118693546Y-87301286D01*
X118695789Y-87360015D01*
X118698469Y-87409379D01*
X118701623Y-87450478D01*
X118705292Y-87484413D01*
X118709513Y-87512286D01*
X118714327Y-87535198D01*
X118719773Y-87554249D01*
X118725888Y-87570540D01*
X118732712Y-87585173D01*
X118740285Y-87599249D01*
X118748645Y-87613868D01*
X118753839Y-87622974D01*
X118788104Y-87683689D01*
X117929955Y-87683689D01*
X117929955Y-87587733D01*
X117929224Y-87544370D01*
X117927272Y-87511205D01*
X117924463Y-87493424D01*
X117923221Y-87491778D01*
X117911799Y-87498662D01*
X117889084Y-87516505D01*
X117866385Y-87535879D01*
X117811800Y-87576614D01*
X117742321Y-87617617D01*
X117665270Y-87655123D01*
X117587965Y-87685364D01*
X117557113Y-87695012D01*
X117488616Y-87709578D01*
X117405764Y-87719539D01*
X117316371Y-87724583D01*
X117228248Y-87724396D01*
X117149207Y-87718666D01*
X117111511Y-87712858D01*
X116973414Y-87674797D01*
X116846113Y-87617073D01*
X116730292Y-87540211D01*
X116626637Y-87444739D01*
X116535833Y-87331179D01*
X116469031Y-87220381D01*
X116414164Y-87103625D01*
X116372163Y-86984276D01*
X116342167Y-86858283D01*
X116323311Y-86721594D01*
X116314732Y-86570158D01*
X116314006Y-86492711D01*
X116316100Y-86435934D01*
X117145217Y-86435934D01*
X117145424Y-86529002D01*
X117148337Y-86616692D01*
X117154000Y-86693772D01*
X117162455Y-86755009D01*
X117165038Y-86767350D01*
X117196840Y-86874633D01*
X117238498Y-86961658D01*
X117290363Y-87028642D01*
X117352781Y-87075805D01*
X117426100Y-87103365D01*
X117510669Y-87111541D01*
X117606835Y-87100551D01*
X117670311Y-87084829D01*
X117719454Y-87066639D01*
X117773583Y-87040791D01*
X117814244Y-87017089D01*
X117884800Y-86970721D01*
X117884800Y-85820530D01*
X117817392Y-85776962D01*
X117738867Y-85736040D01*
X117654681Y-85709389D01*
X117569557Y-85697465D01*
X117488216Y-85700722D01*
X117415380Y-85719615D01*
X117383426Y-85735184D01*
X117325501Y-85778181D01*
X117276544Y-85834953D01*
X117235390Y-85907575D01*
X117200874Y-85998121D01*
X117171833Y-86108666D01*
X117170552Y-86114533D01*
X117160381Y-86176788D01*
X117152739Y-86254594D01*
X117147670Y-86342720D01*
X117145217Y-86435934D01*
X116316100Y-86435934D01*
X116321857Y-86279895D01*
X116343802Y-86084059D01*
X116379786Y-85905332D01*
X116429759Y-85743845D01*
X116493668Y-85599726D01*
X116571462Y-85473106D01*
X116663089Y-85364115D01*
X116768497Y-85272883D01*
X116813662Y-85241932D01*
X116914611Y-85185785D01*
X117017901Y-85146174D01*
X117127989Y-85122014D01*
X117249330Y-85112219D01*
X117341836Y-85113265D01*
X117471490Y-85124231D01*
X117584084Y-85146046D01*
X117682875Y-85179714D01*
X117771121Y-85226236D01*
X117819986Y-85260448D01*
X117849353Y-85282362D01*
X117871043Y-85297333D01*
X117879253Y-85301733D01*
X117880868Y-85290904D01*
X117882159Y-85260251D01*
X117883138Y-85212526D01*
X117883817Y-85150479D01*
X117884210Y-85076862D01*
X117884330Y-84994427D01*
X117884188Y-84905925D01*
X117883797Y-84814107D01*
X117883171Y-84721724D01*
X117882320Y-84631528D01*
X117881260Y-84546271D01*
X117880001Y-84468703D01*
X117878556Y-84401576D01*
X117876938Y-84347641D01*
X117875161Y-84309650D01*
X117874669Y-84302667D01*
X117867092Y-84232251D01*
X117855531Y-84177102D01*
X117837792Y-84129981D01*
X117811682Y-84083647D01*
X117805415Y-84074067D01*
X117780983Y-84037378D01*
X118686311Y-84037378D01*
X118686507Y-85722245D01*
G37*
X118686507Y-85722245D02*
X118686526Y-85956662D01*
X118686552Y-86169603D01*
X118686625Y-86362168D01*
X118686782Y-86535459D01*
X118687064Y-86690576D01*
X118687509Y-86828620D01*
X118688156Y-86950692D01*
X118689045Y-87057894D01*
X118690213Y-87151326D01*
X118691701Y-87232090D01*
X118693546Y-87301286D01*
X118695789Y-87360015D01*
X118698469Y-87409379D01*
X118701623Y-87450478D01*
X118705292Y-87484413D01*
X118709513Y-87512286D01*
X118714327Y-87535198D01*
X118719773Y-87554249D01*
X118725888Y-87570540D01*
X118732712Y-87585173D01*
X118740285Y-87599249D01*
X118748645Y-87613868D01*
X118753839Y-87622974D01*
X118788104Y-87683689D01*
X117929955Y-87683689D01*
X117929955Y-87587733D01*
X117929224Y-87544370D01*
X117927272Y-87511205D01*
X117924463Y-87493424D01*
X117923221Y-87491778D01*
X117911799Y-87498662D01*
X117889084Y-87516505D01*
X117866385Y-87535879D01*
X117811800Y-87576614D01*
X117742321Y-87617617D01*
X117665270Y-87655123D01*
X117587965Y-87685364D01*
X117557113Y-87695012D01*
X117488616Y-87709578D01*
X117405764Y-87719539D01*
X117316371Y-87724583D01*
X117228248Y-87724396D01*
X117149207Y-87718666D01*
X117111511Y-87712858D01*
X116973414Y-87674797D01*
X116846113Y-87617073D01*
X116730292Y-87540211D01*
X116626637Y-87444739D01*
X116535833Y-87331179D01*
X116469031Y-87220381D01*
X116414164Y-87103625D01*
X116372163Y-86984276D01*
X116342167Y-86858283D01*
X116323311Y-86721594D01*
X116314732Y-86570158D01*
X116314006Y-86492711D01*
X116316100Y-86435934D01*
X117145217Y-86435934D01*
X117145424Y-86529002D01*
X117148337Y-86616692D01*
X117154000Y-86693772D01*
X117162455Y-86755009D01*
X117165038Y-86767350D01*
X117196840Y-86874633D01*
X117238498Y-86961658D01*
X117290363Y-87028642D01*
X117352781Y-87075805D01*
X117426100Y-87103365D01*
X117510669Y-87111541D01*
X117606835Y-87100551D01*
X117670311Y-87084829D01*
X117719454Y-87066639D01*
X117773583Y-87040791D01*
X117814244Y-87017089D01*
X117884800Y-86970721D01*
X117884800Y-85820530D01*
X117817392Y-85776962D01*
X117738867Y-85736040D01*
X117654681Y-85709389D01*
X117569557Y-85697465D01*
X117488216Y-85700722D01*
X117415380Y-85719615D01*
X117383426Y-85735184D01*
X117325501Y-85778181D01*
X117276544Y-85834953D01*
X117235390Y-85907575D01*
X117200874Y-85998121D01*
X117171833Y-86108666D01*
X117170552Y-86114533D01*
X117160381Y-86176788D01*
X117152739Y-86254594D01*
X117147670Y-86342720D01*
X117145217Y-86435934D01*
X116316100Y-86435934D01*
X116321857Y-86279895D01*
X116343802Y-86084059D01*
X116379786Y-85905332D01*
X116429759Y-85743845D01*
X116493668Y-85599726D01*
X116571462Y-85473106D01*
X116663089Y-85364115D01*
X116768497Y-85272883D01*
X116813662Y-85241932D01*
X116914611Y-85185785D01*
X117017901Y-85146174D01*
X117127989Y-85122014D01*
X117249330Y-85112219D01*
X117341836Y-85113265D01*
X117471490Y-85124231D01*
X117584084Y-85146046D01*
X117682875Y-85179714D01*
X117771121Y-85226236D01*
X117819986Y-85260448D01*
X117849353Y-85282362D01*
X117871043Y-85297333D01*
X117879253Y-85301733D01*
X117880868Y-85290904D01*
X117882159Y-85260251D01*
X117883138Y-85212526D01*
X117883817Y-85150479D01*
X117884210Y-85076862D01*
X117884330Y-84994427D01*
X117884188Y-84905925D01*
X117883797Y-84814107D01*
X117883171Y-84721724D01*
X117882320Y-84631528D01*
X117881260Y-84546271D01*
X117880001Y-84468703D01*
X117878556Y-84401576D01*
X117876938Y-84347641D01*
X117875161Y-84309650D01*
X117874669Y-84302667D01*
X117867092Y-84232251D01*
X117855531Y-84177102D01*
X117837792Y-84129981D01*
X117811682Y-84083647D01*
X117805415Y-84074067D01*
X117780983Y-84037378D01*
X118686311Y-84037378D01*
X118686507Y-85722245D01*
G36*
X110226957Y-83276571D02*
G01*
X110323232Y-83300809D01*
X110409816Y-83343641D01*
X110484627Y-83403419D01*
X110545582Y-83478494D01*
X110590601Y-83567220D01*
X110616864Y-83663530D01*
X110622714Y-83760795D01*
X110607860Y-83854654D01*
X110574160Y-83942511D01*
X110523472Y-84021770D01*
X110457655Y-84089836D01*
X110378566Y-84144112D01*
X110288066Y-84182002D01*
X110236800Y-84194426D01*
X110192302Y-84201947D01*
X110158001Y-84204919D01*
X110125040Y-84203094D01*
X110084566Y-84196225D01*
X110051469Y-84189250D01*
X109958053Y-84157741D01*
X109874381Y-84106617D01*
X109802335Y-84037429D01*
X109743800Y-83951728D01*
X109729852Y-83924489D01*
X109713414Y-83888122D01*
X109703106Y-83857582D01*
X109697540Y-83825450D01*
X109695331Y-83784307D01*
X109695052Y-83738222D01*
X109699139Y-83653865D01*
X109712554Y-83584586D01*
X109737744Y-83523961D01*
X109777154Y-83465567D01*
X109815702Y-83421302D01*
X109887594Y-83355484D01*
X109962687Y-83310053D01*
X110045438Y-83282850D01*
X110123072Y-83272576D01*
X110226957Y-83276571D01*
G37*
X110226957Y-83276571D02*
X110323232Y-83300809D01*
X110409816Y-83343641D01*
X110484627Y-83403419D01*
X110545582Y-83478494D01*
X110590601Y-83567220D01*
X110616864Y-83663530D01*
X110622714Y-83760795D01*
X110607860Y-83854654D01*
X110574160Y-83942511D01*
X110523472Y-84021770D01*
X110457655Y-84089836D01*
X110378566Y-84144112D01*
X110288066Y-84182002D01*
X110236800Y-84194426D01*
X110192302Y-84201947D01*
X110158001Y-84204919D01*
X110125040Y-84203094D01*
X110084566Y-84196225D01*
X110051469Y-84189250D01*
X109958053Y-84157741D01*
X109874381Y-84106617D01*
X109802335Y-84037429D01*
X109743800Y-83951728D01*
X109729852Y-83924489D01*
X109713414Y-83888122D01*
X109703106Y-83857582D01*
X109697540Y-83825450D01*
X109695331Y-83784307D01*
X109695052Y-83738222D01*
X109699139Y-83653865D01*
X109712554Y-83584586D01*
X109737744Y-83523961D01*
X109777154Y-83465567D01*
X109815702Y-83421302D01*
X109887594Y-83355484D01*
X109962687Y-83310053D01*
X110045438Y-83282850D01*
X110123072Y-83272576D01*
X110226957Y-83276571D01*
G36*
X80746536Y-83600427D02*
G01*
X80859118Y-84197618D01*
X81274531Y-84368865D01*
X81689945Y-84540112D01*
X82188302Y-84201233D01*
X82327869Y-84106877D01*
X82454029Y-84022630D01*
X82560896Y-83952338D01*
X82642583Y-83899847D01*
X82693202Y-83869004D01*
X82706987Y-83862353D01*
X82731821Y-83879458D01*
X82784889Y-83926744D01*
X82860241Y-83998172D01*
X82951930Y-84087700D01*
X83054008Y-84189289D01*
X83160527Y-84296898D01*
X83265537Y-84404487D01*
X83363092Y-84506015D01*
X83447243Y-84595441D01*
X83512041Y-84666726D01*
X83551538Y-84713828D01*
X83560981Y-84729592D01*
X83547392Y-84758653D01*
X83509294Y-84822321D01*
X83450694Y-84914367D01*
X83375598Y-85028564D01*
X83288009Y-85158684D01*
X83237255Y-85232901D01*
X83144746Y-85368422D01*
X83062541Y-85490716D01*
X82994631Y-85593695D01*
X82945001Y-85671273D01*
X82917641Y-85717361D01*
X82913530Y-85727047D01*
X82922850Y-85754574D01*
X82948255Y-85818728D01*
X82985912Y-85910490D01*
X83031987Y-86020839D01*
X83082647Y-86140755D01*
X83134060Y-86261219D01*
X83182390Y-86373209D01*
X83223807Y-86467707D01*
X83254475Y-86535692D01*
X83270562Y-86568143D01*
X83271512Y-86569420D01*
X83296773Y-86575617D01*
X83364046Y-86589440D01*
X83466361Y-86609532D01*
X83596742Y-86634534D01*
X83748217Y-86663086D01*
X83836594Y-86679551D01*
X83998453Y-86710369D01*
X84144650Y-86739694D01*
X84267788Y-86765921D01*
X84360470Y-86787446D01*
X84415302Y-86802665D01*
X84426324Y-86807493D01*
X84437119Y-86840174D01*
X84445830Y-86913985D01*
X84452461Y-87020292D01*
X84457019Y-87150467D01*
X84459510Y-87295876D01*
X84459939Y-87447890D01*
X84458312Y-87597877D01*
X84454636Y-87737206D01*
X84448916Y-87857245D01*
X84441158Y-87949365D01*
X84431369Y-88004932D01*
X84425497Y-88016500D01*
X84390400Y-88030365D01*
X84316029Y-88050188D01*
X84212224Y-88073639D01*
X84088820Y-88098391D01*
X84045742Y-88106398D01*
X83838048Y-88144441D01*
X83673985Y-88175079D01*
X83548131Y-88199529D01*
X83455066Y-88219009D01*
X83389368Y-88234736D01*
X83345618Y-88247928D01*
X83318393Y-88259804D01*
X83302273Y-88271580D01*
X83300018Y-88273908D01*
X83277504Y-88311400D01*
X83243159Y-88384365D01*
X83200412Y-88483867D01*
X83152693Y-88600973D01*
X83103431Y-88726748D01*
X83056056Y-88852257D01*
X83013996Y-88968565D01*
X82980681Y-89066739D01*
X82959542Y-89137843D01*
X82954006Y-89172942D01*
X82954467Y-89174172D01*
X82973224Y-89202861D01*
X83015777Y-89265985D01*
X83077654Y-89356973D01*
X83154383Y-89469255D01*
X83241492Y-89596260D01*
X83266299Y-89632353D01*
X83354753Y-89763203D01*
X83432589Y-89882591D01*
X83495567Y-89983662D01*
X83539446Y-90059559D01*
X83559986Y-90103427D01*
X83560981Y-90108817D01*
X83543723Y-90137144D01*
X83496036Y-90193261D01*
X83424051Y-90271137D01*
X83333898Y-90364740D01*
X83231706Y-90468041D01*
X83123606Y-90575006D01*
X83015729Y-90679606D01*
X82914205Y-90775809D01*
X82825163Y-90857584D01*
X82754734Y-90918900D01*
X82709048Y-90953726D01*
X82696410Y-90959412D01*
X82666992Y-90946020D01*
X82606762Y-90909899D01*
X82525530Y-90857136D01*
X82463031Y-90814667D01*
X82349786Y-90736740D01*
X82215675Y-90644984D01*
X82081156Y-90553375D01*
X82008834Y-90504346D01*
X81764039Y-90338770D01*
X81558551Y-90449875D01*
X81464937Y-90498548D01*
X81385331Y-90536381D01*
X81331468Y-90557958D01*
X81317758Y-90560961D01*
X81301271Y-90538793D01*
X81268746Y-90476149D01*
X81222609Y-90378809D01*
X81165291Y-90252549D01*
X81099217Y-90103150D01*
X81026816Y-89936388D01*
X80950517Y-89758042D01*
X80872747Y-89573891D01*
X80795935Y-89389712D01*
X80722507Y-89211285D01*
X80654893Y-89044387D01*
X80595521Y-88894797D01*
X80546817Y-88768293D01*
X80511211Y-88670654D01*
X80491131Y-88607657D01*
X80487901Y-88586021D01*
X80513497Y-88558424D01*
X80569539Y-88513625D01*
X80644312Y-88460934D01*
X80650588Y-88456765D01*
X80843846Y-88302069D01*
X80999675Y-88121591D01*
X81116725Y-87921102D01*
X81193646Y-87706374D01*
X81229087Y-87483177D01*
X81221698Y-87257281D01*
X81170128Y-87034459D01*
X81073027Y-86820479D01*
X81044459Y-86773664D01*
X80895869Y-86584618D01*
X80720328Y-86432812D01*
X80523911Y-86319034D01*
X80312694Y-86244075D01*
X80092754Y-86208722D01*
X79870164Y-86213767D01*
X79651002Y-86259999D01*
X79441343Y-86348206D01*
X79247262Y-86479179D01*
X79187227Y-86532337D01*
X79034436Y-86698739D01*
X78923098Y-86873912D01*
X78846724Y-87070266D01*
X78804188Y-87264717D01*
X78793687Y-87483342D01*
X78828701Y-87703052D01*
X78905674Y-87916420D01*
X79021048Y-88116022D01*
X79171266Y-88294429D01*
X79352774Y-88444217D01*
X79376628Y-88460006D01*
X79452202Y-88511712D01*
X79509652Y-88556512D01*
X79537118Y-88585117D01*
X79537518Y-88586021D01*
X79531621Y-88616964D01*
X79508246Y-88687191D01*
X79469822Y-88790925D01*
X79418778Y-88922390D01*
X79357543Y-89075807D01*
X79288545Y-89245401D01*
X79214214Y-89425393D01*
X79136979Y-89610008D01*
X79059269Y-89793468D01*
X78983512Y-89969996D01*
X78912138Y-90133814D01*
X78847575Y-90279147D01*
X78792253Y-90400217D01*
X78748601Y-90491247D01*
X78719047Y-90546460D01*
X78707145Y-90560961D01*
X78670778Y-90549669D01*
X78602731Y-90519385D01*
X78514737Y-90475520D01*
X78466351Y-90449875D01*
X78260864Y-90338770D01*
X78016069Y-90504346D01*
X77891107Y-90589170D01*
X77754296Y-90682516D01*
X77626089Y-90770408D01*
X77561872Y-90814667D01*
X77471552Y-90875318D01*
X77395072Y-90923381D01*
X77342408Y-90952770D01*
X77325303Y-90958982D01*
X77300406Y-90942223D01*
X77245306Y-90895436D01*
X77165344Y-90823480D01*
X77065861Y-90731212D01*
X76952201Y-90623490D01*
X76880316Y-90554326D01*
X76754552Y-90430757D01*
X76645864Y-90320234D01*
X76558646Y-90227485D01*
X76497290Y-90157237D01*
X76466192Y-90114220D01*
X76463209Y-90105490D01*
X76477054Y-90072284D01*
X76515313Y-90005142D01*
X76573742Y-89910863D01*
X76648098Y-89796245D01*
X76734136Y-89668083D01*
X76758603Y-89632353D01*
X76847755Y-89502489D01*
X76927739Y-89385569D01*
X76994081Y-89288162D01*
X77042312Y-89216839D01*
X77067958Y-89178170D01*
X77070436Y-89174172D01*
X77066730Y-89143355D01*
X77047062Y-89075599D01*
X77014861Y-88979839D01*
X76973556Y-88865009D01*
X76926576Y-88740044D01*
X76877350Y-88613879D01*
X76829309Y-88495448D01*
X76785882Y-88393685D01*
X76750497Y-88317526D01*
X76726585Y-88275904D01*
X76724885Y-88273908D01*
X76710263Y-88262013D01*
X76685566Y-88250250D01*
X76645373Y-88237401D01*
X76584264Y-88222249D01*
X76496818Y-88203576D01*
X76377613Y-88180165D01*
X76221228Y-88150797D01*
X76022244Y-88114255D01*
X75979161Y-88106398D01*
X75851471Y-88081727D01*
X75740154Y-88057593D01*
X75655046Y-88036324D01*
X75605984Y-88020248D01*
X75599406Y-88016500D01*
X75588565Y-87983273D01*
X75579754Y-87909021D01*
X75572977Y-87802376D01*
X75568241Y-87671967D01*
X75565551Y-87526427D01*
X75564914Y-87374386D01*
X75566335Y-87224476D01*
X75569821Y-87085328D01*
X75575377Y-86965572D01*
X75583009Y-86873841D01*
X75592723Y-86818766D01*
X75598579Y-86807493D01*
X75631181Y-86796123D01*
X75705419Y-86777624D01*
X75813897Y-86753602D01*
X75949218Y-86725662D01*
X76103986Y-86695408D01*
X76188308Y-86679551D01*
X76348297Y-86649644D01*
X76490968Y-86622550D01*
X76609349Y-86599631D01*
X76696466Y-86582243D01*
X76745346Y-86571747D01*
X76753391Y-86569420D01*
X76766988Y-86543186D01*
X76795730Y-86479995D01*
X76835786Y-86388877D01*
X76883325Y-86278857D01*
X76934516Y-86158965D01*
X76985527Y-86038227D01*
X77032527Y-85925671D01*
X77071685Y-85830326D01*
X77099170Y-85761217D01*
X77111150Y-85727374D01*
X77111373Y-85725895D01*
X77097792Y-85699197D01*
X77059716Y-85637760D01*
X77001148Y-85547689D01*
X76926089Y-85435090D01*
X76838541Y-85306070D01*
X76787648Y-85231961D01*
X76694910Y-85096077D01*
X76612542Y-84972709D01*
X76544562Y-84868097D01*
X76494989Y-84788483D01*
X76467843Y-84740107D01*
X76463922Y-84729262D01*
X76480776Y-84704020D01*
X76527369Y-84650124D01*
X76597749Y-84573613D01*
X76685966Y-84480523D01*
X76786066Y-84376895D01*
X76892099Y-84268764D01*
X76998112Y-84162170D01*
X77098153Y-84063150D01*
X77186271Y-83977742D01*
X77256514Y-83911985D01*
X77302929Y-83871916D01*
X77318457Y-83862353D01*
X77343740Y-83875800D01*
X77404212Y-83913575D01*
X77493993Y-83971835D01*
X77607204Y-84046734D01*
X77737964Y-84134425D01*
X77836600Y-84201233D01*
X78334958Y-84540112D01*
X78750371Y-84368865D01*
X79165785Y-84197618D01*
X79278367Y-83600427D01*
X79390950Y-83003235D01*
X80633953Y-83003235D01*
X80746536Y-83600427D01*
G37*
X80746536Y-83600427D02*
X80859118Y-84197618D01*
X81274531Y-84368865D01*
X81689945Y-84540112D01*
X82188302Y-84201233D01*
X82327869Y-84106877D01*
X82454029Y-84022630D01*
X82560896Y-83952338D01*
X82642583Y-83899847D01*
X82693202Y-83869004D01*
X82706987Y-83862353D01*
X82731821Y-83879458D01*
X82784889Y-83926744D01*
X82860241Y-83998172D01*
X82951930Y-84087700D01*
X83054008Y-84189289D01*
X83160527Y-84296898D01*
X83265537Y-84404487D01*
X83363092Y-84506015D01*
X83447243Y-84595441D01*
X83512041Y-84666726D01*
X83551538Y-84713828D01*
X83560981Y-84729592D01*
X83547392Y-84758653D01*
X83509294Y-84822321D01*
X83450694Y-84914367D01*
X83375598Y-85028564D01*
X83288009Y-85158684D01*
X83237255Y-85232901D01*
X83144746Y-85368422D01*
X83062541Y-85490716D01*
X82994631Y-85593695D01*
X82945001Y-85671273D01*
X82917641Y-85717361D01*
X82913530Y-85727047D01*
X82922850Y-85754574D01*
X82948255Y-85818728D01*
X82985912Y-85910490D01*
X83031987Y-86020839D01*
X83082647Y-86140755D01*
X83134060Y-86261219D01*
X83182390Y-86373209D01*
X83223807Y-86467707D01*
X83254475Y-86535692D01*
X83270562Y-86568143D01*
X83271512Y-86569420D01*
X83296773Y-86575617D01*
X83364046Y-86589440D01*
X83466361Y-86609532D01*
X83596742Y-86634534D01*
X83748217Y-86663086D01*
X83836594Y-86679551D01*
X83998453Y-86710369D01*
X84144650Y-86739694D01*
X84267788Y-86765921D01*
X84360470Y-86787446D01*
X84415302Y-86802665D01*
X84426324Y-86807493D01*
X84437119Y-86840174D01*
X84445830Y-86913985D01*
X84452461Y-87020292D01*
X84457019Y-87150467D01*
X84459510Y-87295876D01*
X84459939Y-87447890D01*
X84458312Y-87597877D01*
X84454636Y-87737206D01*
X84448916Y-87857245D01*
X84441158Y-87949365D01*
X84431369Y-88004932D01*
X84425497Y-88016500D01*
X84390400Y-88030365D01*
X84316029Y-88050188D01*
X84212224Y-88073639D01*
X84088820Y-88098391D01*
X84045742Y-88106398D01*
X83838048Y-88144441D01*
X83673985Y-88175079D01*
X83548131Y-88199529D01*
X83455066Y-88219009D01*
X83389368Y-88234736D01*
X83345618Y-88247928D01*
X83318393Y-88259804D01*
X83302273Y-88271580D01*
X83300018Y-88273908D01*
X83277504Y-88311400D01*
X83243159Y-88384365D01*
X83200412Y-88483867D01*
X83152693Y-88600973D01*
X83103431Y-88726748D01*
X83056056Y-88852257D01*
X83013996Y-88968565D01*
X82980681Y-89066739D01*
X82959542Y-89137843D01*
X82954006Y-89172942D01*
X82954467Y-89174172D01*
X82973224Y-89202861D01*
X83015777Y-89265985D01*
X83077654Y-89356973D01*
X83154383Y-89469255D01*
X83241492Y-89596260D01*
X83266299Y-89632353D01*
X83354753Y-89763203D01*
X83432589Y-89882591D01*
X83495567Y-89983662D01*
X83539446Y-90059559D01*
X83559986Y-90103427D01*
X83560981Y-90108817D01*
X83543723Y-90137144D01*
X83496036Y-90193261D01*
X83424051Y-90271137D01*
X83333898Y-90364740D01*
X83231706Y-90468041D01*
X83123606Y-90575006D01*
X83015729Y-90679606D01*
X82914205Y-90775809D01*
X82825163Y-90857584D01*
X82754734Y-90918900D01*
X82709048Y-90953726D01*
X82696410Y-90959412D01*
X82666992Y-90946020D01*
X82606762Y-90909899D01*
X82525530Y-90857136D01*
X82463031Y-90814667D01*
X82349786Y-90736740D01*
X82215675Y-90644984D01*
X82081156Y-90553375D01*
X82008834Y-90504346D01*
X81764039Y-90338770D01*
X81558551Y-90449875D01*
X81464937Y-90498548D01*
X81385331Y-90536381D01*
X81331468Y-90557958D01*
X81317758Y-90560961D01*
X81301271Y-90538793D01*
X81268746Y-90476149D01*
X81222609Y-90378809D01*
X81165291Y-90252549D01*
X81099217Y-90103150D01*
X81026816Y-89936388D01*
X80950517Y-89758042D01*
X80872747Y-89573891D01*
X80795935Y-89389712D01*
X80722507Y-89211285D01*
X80654893Y-89044387D01*
X80595521Y-88894797D01*
X80546817Y-88768293D01*
X80511211Y-88670654D01*
X80491131Y-88607657D01*
X80487901Y-88586021D01*
X80513497Y-88558424D01*
X80569539Y-88513625D01*
X80644312Y-88460934D01*
X80650588Y-88456765D01*
X80843846Y-88302069D01*
X80999675Y-88121591D01*
X81116725Y-87921102D01*
X81193646Y-87706374D01*
X81229087Y-87483177D01*
X81221698Y-87257281D01*
X81170128Y-87034459D01*
X81073027Y-86820479D01*
X81044459Y-86773664D01*
X80895869Y-86584618D01*
X80720328Y-86432812D01*
X80523911Y-86319034D01*
X80312694Y-86244075D01*
X80092754Y-86208722D01*
X79870164Y-86213767D01*
X79651002Y-86259999D01*
X79441343Y-86348206D01*
X79247262Y-86479179D01*
X79187227Y-86532337D01*
X79034436Y-86698739D01*
X78923098Y-86873912D01*
X78846724Y-87070266D01*
X78804188Y-87264717D01*
X78793687Y-87483342D01*
X78828701Y-87703052D01*
X78905674Y-87916420D01*
X79021048Y-88116022D01*
X79171266Y-88294429D01*
X79352774Y-88444217D01*
X79376628Y-88460006D01*
X79452202Y-88511712D01*
X79509652Y-88556512D01*
X79537118Y-88585117D01*
X79537518Y-88586021D01*
X79531621Y-88616964D01*
X79508246Y-88687191D01*
X79469822Y-88790925D01*
X79418778Y-88922390D01*
X79357543Y-89075807D01*
X79288545Y-89245401D01*
X79214214Y-89425393D01*
X79136979Y-89610008D01*
X79059269Y-89793468D01*
X78983512Y-89969996D01*
X78912138Y-90133814D01*
X78847575Y-90279147D01*
X78792253Y-90400217D01*
X78748601Y-90491247D01*
X78719047Y-90546460D01*
X78707145Y-90560961D01*
X78670778Y-90549669D01*
X78602731Y-90519385D01*
X78514737Y-90475520D01*
X78466351Y-90449875D01*
X78260864Y-90338770D01*
X78016069Y-90504346D01*
X77891107Y-90589170D01*
X77754296Y-90682516D01*
X77626089Y-90770408D01*
X77561872Y-90814667D01*
X77471552Y-90875318D01*
X77395072Y-90923381D01*
X77342408Y-90952770D01*
X77325303Y-90958982D01*
X77300406Y-90942223D01*
X77245306Y-90895436D01*
X77165344Y-90823480D01*
X77065861Y-90731212D01*
X76952201Y-90623490D01*
X76880316Y-90554326D01*
X76754552Y-90430757D01*
X76645864Y-90320234D01*
X76558646Y-90227485D01*
X76497290Y-90157237D01*
X76466192Y-90114220D01*
X76463209Y-90105490D01*
X76477054Y-90072284D01*
X76515313Y-90005142D01*
X76573742Y-89910863D01*
X76648098Y-89796245D01*
X76734136Y-89668083D01*
X76758603Y-89632353D01*
X76847755Y-89502489D01*
X76927739Y-89385569D01*
X76994081Y-89288162D01*
X77042312Y-89216839D01*
X77067958Y-89178170D01*
X77070436Y-89174172D01*
X77066730Y-89143355D01*
X77047062Y-89075599D01*
X77014861Y-88979839D01*
X76973556Y-88865009D01*
X76926576Y-88740044D01*
X76877350Y-88613879D01*
X76829309Y-88495448D01*
X76785882Y-88393685D01*
X76750497Y-88317526D01*
X76726585Y-88275904D01*
X76724885Y-88273908D01*
X76710263Y-88262013D01*
X76685566Y-88250250D01*
X76645373Y-88237401D01*
X76584264Y-88222249D01*
X76496818Y-88203576D01*
X76377613Y-88180165D01*
X76221228Y-88150797D01*
X76022244Y-88114255D01*
X75979161Y-88106398D01*
X75851471Y-88081727D01*
X75740154Y-88057593D01*
X75655046Y-88036324D01*
X75605984Y-88020248D01*
X75599406Y-88016500D01*
X75588565Y-87983273D01*
X75579754Y-87909021D01*
X75572977Y-87802376D01*
X75568241Y-87671967D01*
X75565551Y-87526427D01*
X75564914Y-87374386D01*
X75566335Y-87224476D01*
X75569821Y-87085328D01*
X75575377Y-86965572D01*
X75583009Y-86873841D01*
X75592723Y-86818766D01*
X75598579Y-86807493D01*
X75631181Y-86796123D01*
X75705419Y-86777624D01*
X75813897Y-86753602D01*
X75949218Y-86725662D01*
X76103986Y-86695408D01*
X76188308Y-86679551D01*
X76348297Y-86649644D01*
X76490968Y-86622550D01*
X76609349Y-86599631D01*
X76696466Y-86582243D01*
X76745346Y-86571747D01*
X76753391Y-86569420D01*
X76766988Y-86543186D01*
X76795730Y-86479995D01*
X76835786Y-86388877D01*
X76883325Y-86278857D01*
X76934516Y-86158965D01*
X76985527Y-86038227D01*
X77032527Y-85925671D01*
X77071685Y-85830326D01*
X77099170Y-85761217D01*
X77111150Y-85727374D01*
X77111373Y-85725895D01*
X77097792Y-85699197D01*
X77059716Y-85637760D01*
X77001148Y-85547689D01*
X76926089Y-85435090D01*
X76838541Y-85306070D01*
X76787648Y-85231961D01*
X76694910Y-85096077D01*
X76612542Y-84972709D01*
X76544562Y-84868097D01*
X76494989Y-84788483D01*
X76467843Y-84740107D01*
X76463922Y-84729262D01*
X76480776Y-84704020D01*
X76527369Y-84650124D01*
X76597749Y-84573613D01*
X76685966Y-84480523D01*
X76786066Y-84376895D01*
X76892099Y-84268764D01*
X76998112Y-84162170D01*
X77098153Y-84063150D01*
X77186271Y-83977742D01*
X77256514Y-83911985D01*
X77302929Y-83871916D01*
X77318457Y-83862353D01*
X77343740Y-83875800D01*
X77404212Y-83913575D01*
X77493993Y-83971835D01*
X77607204Y-84046734D01*
X77737964Y-84134425D01*
X77836600Y-84201233D01*
X78334958Y-84540112D01*
X78750371Y-84368865D01*
X79165785Y-84197618D01*
X79278367Y-83600427D01*
X79390950Y-83003235D01*
X80633953Y-83003235D01*
X80746536Y-83600427D01*
D16*
X121178571Y-82357142D02*
X122321428Y-82357142D01*
X121750000Y-82928571D02*
X121750000Y-81785714D01*
D10*
X84057142Y-71852380D02*
X83723809Y-71376190D01*
X83485714Y-71852380D02*
X83485714Y-70852380D01*
X83866666Y-70852380D01*
X83961904Y-70900000D01*
X84009523Y-70947619D01*
X84057142Y-71042857D01*
X84057142Y-71185714D01*
X84009523Y-71280952D01*
X83961904Y-71328571D01*
X83866666Y-71376190D01*
X83485714Y-71376190D01*
X84438095Y-70947619D02*
X84485714Y-70900000D01*
X84580952Y-70852380D01*
X84819047Y-70852380D01*
X84914285Y-70900000D01*
X84961904Y-70947619D01*
X85009523Y-71042857D01*
X85009523Y-71138095D01*
X84961904Y-71280952D01*
X84390476Y-71852380D01*
X85009523Y-71852380D01*
X85914285Y-70852380D02*
X85438095Y-70852380D01*
X85390476Y-71328571D01*
X85438095Y-71280952D01*
X85533333Y-71233333D01*
X85771428Y-71233333D01*
X85866666Y-71280952D01*
X85914285Y-71328571D01*
X85961904Y-71423809D01*
X85961904Y-71661904D01*
X85914285Y-71757142D01*
X85866666Y-71804761D01*
X85771428Y-71852380D01*
X85533333Y-71852380D01*
X85438095Y-71804761D01*
X85390476Y-71757142D01*
D16*
X121428571Y-62607142D02*
X122571428Y-62607142D01*
X122000000Y-63178571D02*
X122000000Y-62035714D01*
D10*
X87207142Y-74177380D02*
X86873809Y-73701190D01*
X86635714Y-74177380D02*
X86635714Y-73177380D01*
X87016666Y-73177380D01*
X87111904Y-73225000D01*
X87159523Y-73272619D01*
X87207142Y-73367857D01*
X87207142Y-73510714D01*
X87159523Y-73605952D01*
X87111904Y-73653571D01*
X87016666Y-73701190D01*
X86635714Y-73701190D01*
X87588095Y-73272619D02*
X87635714Y-73225000D01*
X87730952Y-73177380D01*
X87969047Y-73177380D01*
X88064285Y-73225000D01*
X88111904Y-73272619D01*
X88159523Y-73367857D01*
X88159523Y-73463095D01*
X88111904Y-73605952D01*
X87540476Y-74177380D01*
X88159523Y-74177380D01*
X89111904Y-74177380D02*
X88540476Y-74177380D01*
X88826190Y-74177380D02*
X88826190Y-73177380D01*
X88730952Y-73320238D01*
X88635714Y-73415476D01*
X88540476Y-73463095D01*
X86585714Y-71852380D02*
X86585714Y-70852380D01*
X86823809Y-70852380D01*
X86966666Y-70900000D01*
X87061904Y-70995238D01*
X87109523Y-71090476D01*
X87157142Y-71280952D01*
X87157142Y-71423809D01*
X87109523Y-71614285D01*
X87061904Y-71709523D01*
X86966666Y-71804761D01*
X86823809Y-71852380D01*
X86585714Y-71852380D01*
X87538095Y-70947619D02*
X87585714Y-70900000D01*
X87680952Y-70852380D01*
X87919047Y-70852380D01*
X88014285Y-70900000D01*
X88061904Y-70947619D01*
X88109523Y-71042857D01*
X88109523Y-71138095D01*
X88061904Y-71280952D01*
X87490476Y-71852380D01*
X88109523Y-71852380D01*
X88442857Y-70852380D02*
X89061904Y-70852380D01*
X88728571Y-71233333D01*
X88871428Y-71233333D01*
X88966666Y-71280952D01*
X89014285Y-71328571D01*
X89061904Y-71423809D01*
X89061904Y-71661904D01*
X89014285Y-71757142D01*
X88966666Y-71804761D01*
X88871428Y-71852380D01*
X88585714Y-71852380D01*
X88490476Y-71804761D01*
X88442857Y-71757142D01*
X83907142Y-74077380D02*
X83573809Y-73601190D01*
X83335714Y-74077380D02*
X83335714Y-73077380D01*
X83716666Y-73077380D01*
X83811904Y-73125000D01*
X83859523Y-73172619D01*
X83907142Y-73267857D01*
X83907142Y-73410714D01*
X83859523Y-73505952D01*
X83811904Y-73553571D01*
X83716666Y-73601190D01*
X83335714Y-73601190D01*
X84288095Y-73172619D02*
X84335714Y-73125000D01*
X84430952Y-73077380D01*
X84669047Y-73077380D01*
X84764285Y-73125000D01*
X84811904Y-73172619D01*
X84859523Y-73267857D01*
X84859523Y-73363095D01*
X84811904Y-73505952D01*
X84240476Y-74077380D01*
X84859523Y-74077380D01*
X85192857Y-73077380D02*
X85811904Y-73077380D01*
X85478571Y-73458333D01*
X85621428Y-73458333D01*
X85716666Y-73505952D01*
X85764285Y-73553571D01*
X85811904Y-73648809D01*
X85811904Y-73886904D01*
X85764285Y-73982142D01*
X85716666Y-74029761D01*
X85621428Y-74077380D01*
X85335714Y-74077380D01*
X85240476Y-74029761D01*
X85192857Y-73982142D01*
X87007142Y-102452380D02*
X86673809Y-101976190D01*
X86435714Y-102452380D02*
X86435714Y-101452380D01*
X86816666Y-101452380D01*
X86911904Y-101500000D01*
X86959523Y-101547619D01*
X87007142Y-101642857D01*
X87007142Y-101785714D01*
X86959523Y-101880952D01*
X86911904Y-101928571D01*
X86816666Y-101976190D01*
X86435714Y-101976190D01*
X87959523Y-102452380D02*
X87388095Y-102452380D01*
X87673809Y-102452380D02*
X87673809Y-101452380D01*
X87578571Y-101595238D01*
X87483333Y-101690476D01*
X87388095Y-101738095D01*
X88911904Y-102452380D02*
X88340476Y-102452380D01*
X88626190Y-102452380D02*
X88626190Y-101452380D01*
X88530952Y-101595238D01*
X88435714Y-101690476D01*
X88340476Y-101738095D01*
X83707142Y-102352380D02*
X83373809Y-101876190D01*
X83135714Y-102352380D02*
X83135714Y-101352380D01*
X83516666Y-101352380D01*
X83611904Y-101400000D01*
X83659523Y-101447619D01*
X83707142Y-101542857D01*
X83707142Y-101685714D01*
X83659523Y-101780952D01*
X83611904Y-101828571D01*
X83516666Y-101876190D01*
X83135714Y-101876190D01*
X84659523Y-102352380D02*
X84088095Y-102352380D01*
X84373809Y-102352380D02*
X84373809Y-101352380D01*
X84278571Y-101495238D01*
X84183333Y-101590476D01*
X84088095Y-101638095D01*
X84992857Y-101352380D02*
X85611904Y-101352380D01*
X85278571Y-101733333D01*
X85421428Y-101733333D01*
X85516666Y-101780952D01*
X85564285Y-101828571D01*
X85611904Y-101923809D01*
X85611904Y-102161904D01*
X85564285Y-102257142D01*
X85516666Y-102304761D01*
X85421428Y-102352380D01*
X85135714Y-102352380D01*
X85040476Y-102304761D01*
X84992857Y-102257142D01*
D16*
X121178571Y-90857142D02*
X122321428Y-90857142D01*
X121750000Y-91428571D02*
X121750000Y-90285714D01*
D10*
X86385714Y-99652380D02*
X86385714Y-98652380D01*
X86623809Y-98652380D01*
X86766666Y-98700000D01*
X86861904Y-98795238D01*
X86909523Y-98890476D01*
X86957142Y-99080952D01*
X86957142Y-99223809D01*
X86909523Y-99414285D01*
X86861904Y-99509523D01*
X86766666Y-99604761D01*
X86623809Y-99652380D01*
X86385714Y-99652380D01*
X87909523Y-99652380D02*
X87338095Y-99652380D01*
X87623809Y-99652380D02*
X87623809Y-98652380D01*
X87528571Y-98795238D01*
X87433333Y-98890476D01*
X87338095Y-98938095D01*
X88242857Y-98652380D02*
X88861904Y-98652380D01*
X88528571Y-99033333D01*
X88671428Y-99033333D01*
X88766666Y-99080952D01*
X88814285Y-99128571D01*
X88861904Y-99223809D01*
X88861904Y-99461904D01*
X88814285Y-99557142D01*
X88766666Y-99604761D01*
X88671428Y-99652380D01*
X88385714Y-99652380D01*
X88290476Y-99604761D01*
X88242857Y-99557142D01*
D16*
X121178571Y-110107142D02*
X122321428Y-110107142D01*
X121750000Y-110678571D02*
X121750000Y-109535714D01*
D10*
X83957142Y-99652380D02*
X83623809Y-99176190D01*
X83385714Y-99652380D02*
X83385714Y-98652380D01*
X83766666Y-98652380D01*
X83861904Y-98700000D01*
X83909523Y-98747619D01*
X83957142Y-98842857D01*
X83957142Y-98985714D01*
X83909523Y-99080952D01*
X83861904Y-99128571D01*
X83766666Y-99176190D01*
X83385714Y-99176190D01*
X84909523Y-99652380D02*
X84338095Y-99652380D01*
X84623809Y-99652380D02*
X84623809Y-98652380D01*
X84528571Y-98795238D01*
X84433333Y-98890476D01*
X84338095Y-98938095D01*
X85814285Y-98652380D02*
X85338095Y-98652380D01*
X85290476Y-99128571D01*
X85338095Y-99080952D01*
X85433333Y-99033333D01*
X85671428Y-99033333D01*
X85766666Y-99080952D01*
X85814285Y-99128571D01*
X85861904Y-99223809D01*
X85861904Y-99461904D01*
X85814285Y-99557142D01*
X85766666Y-99604761D01*
X85671428Y-99652380D01*
X85433333Y-99652380D01*
X85338095Y-99604761D01*
X85290476Y-99557142D01*
M02*
