M48
; DRILL file {KiCad (5.1.5)-3} date 3/15/2020 10:31:04 PM
; FORMAT={-:-/ absolute / metric / decimal}
; #@! TF.CreationDate,2020-03-15T22:31:04-04:00
; #@! TF.GenerationSoftware,Kicad,Pcbnew,(5.1.5)-3
FMAT,2
METRIC
T1C0.400
T2C1.500
T3C1.650
T4C4.600
T5C3.350
%
G90
G05
T1
X94.5Y-109.7
X94.5Y-110.6
X94.5Y-111.5
X94.5Y-112.4
X94.5Y-113.3
X94.6Y-81.9
X94.6Y-82.8
X94.6Y-83.7
X94.6Y-84.6
X94.6Y-85.5
X95.75Y-109.7
X95.75Y-110.6
X95.75Y-111.5
X95.75Y-112.4
X95.75Y-113.3
X95.85Y-81.9
X95.85Y-82.8
X95.85Y-83.7
X95.85Y-84.6
X95.85Y-85.5
X97.0Y-109.7
X97.0Y-110.6
X97.0Y-111.5
X97.0Y-112.4
X97.0Y-113.3
X97.1Y-81.9
X97.1Y-82.8
X97.1Y-83.7
X97.1Y-84.6
X97.1Y-85.5
X98.3Y-109.7
X98.3Y-110.6
X98.3Y-111.5
X98.3Y-112.4
X98.3Y-113.3
X98.4Y-81.9
X98.4Y-82.8
X98.4Y-83.7
X98.4Y-84.6
X98.4Y-85.5
X99.55Y-109.7
X99.55Y-110.6
X99.55Y-111.5
X99.55Y-112.4
X99.55Y-113.3
X99.65Y-81.9
X99.65Y-82.8
X99.65Y-83.7
X99.65Y-84.6
X99.65Y-85.5
X100.8Y-109.7
X100.8Y-110.6
X100.8Y-111.5
X100.8Y-112.4
X100.8Y-113.3
X100.9Y-81.9
X100.9Y-82.8
X100.9Y-83.7
X100.9Y-84.6
X100.9Y-85.5
T2
X91.1Y-62.8
X91.1Y-65.8
X91.1Y-68.8
X91.1Y-71.8
X91.1Y-74.8
X91.1Y-77.8
X94.1Y-62.8
X94.1Y-65.8
X94.1Y-68.8
X94.1Y-71.8
X94.1Y-74.8
X94.1Y-77.8
X97.1Y-62.8
X97.1Y-65.8
X97.1Y-68.8
X97.1Y-71.8
X97.1Y-74.8
X97.1Y-77.8
X100.1Y-62.8
X100.1Y-65.8
X100.1Y-68.8
X100.1Y-71.8
X100.1Y-74.8
X100.1Y-77.8
X103.1Y-62.8
X103.1Y-65.8
X103.1Y-68.8
X103.1Y-71.8
X103.1Y-74.8
X103.1Y-77.8
X91.0Y-90.6
X91.0Y-93.6
X91.0Y-96.6
X91.0Y-99.6
X91.0Y-102.6
X91.0Y-105.6
X94.0Y-90.6
X94.0Y-93.6
X94.0Y-96.6
X94.0Y-99.6
X94.0Y-102.6
X94.0Y-105.6
X97.0Y-90.6
X97.0Y-93.6
X97.0Y-96.6
X97.0Y-99.6
X97.0Y-102.6
X97.0Y-105.6
X100.0Y-90.6
X100.0Y-93.6
X100.0Y-96.6
X100.0Y-99.6
X100.0Y-102.6
X100.0Y-105.6
X103.0Y-90.6
X103.0Y-93.6
X103.0Y-96.6
X103.0Y-99.6
X103.0Y-102.6
X103.0Y-105.6
T3
X78.5Y-101.1
X78.5Y-106.1
X78.6Y-73.3
X78.6Y-78.3
T4
X110.625Y-68.0
X117.575Y-68.0
X110.525Y-105.0
X117.475Y-105.0
X110.525Y-96.0
X117.475Y-96.0
X110.625Y-77.0
X117.575Y-77.0
T5
X77.0Y-61.0
X77.0Y-113.0
X119.0Y-113.0
X119.0Y-61.0
T0
M30
