G04 #@! TF.GenerationSoftware,KiCad,Pcbnew,(5.1.5)-3*
G04 #@! TF.CreationDate,2020-03-28T10:17:00-04:00*
G04 #@! TF.ProjectId,MOSTERFET,4d4f5354-4552-4464-9554-2e6b69636164,1.1*
G04 #@! TF.SameCoordinates,Original*
G04 #@! TF.FileFunction,Soldermask,Top*
G04 #@! TF.FilePolarity,Negative*
%FSLAX46Y46*%
G04 Gerber Fmt 4.6, Leading zero omitted, Abs format (unit mm)*
G04 Created by KiCad (PCBNEW (5.1.5)-3) date 2020-03-28 10:17:00*
%MOMM*%
%LPD*%
G04 APERTURE LIST*
%ADD10C,0.150000*%
%ADD11C,0.100000*%
G04 APERTURE END LIST*
D10*
X73000000Y-61000000D02*
G75*
G02X77000000Y-57000000I4000000J0D01*
G01*
X77000000Y-117000000D02*
G75*
G02X73000000Y-113000000I0J4000000D01*
G01*
X123000000Y-113000000D02*
G75*
G02X119000000Y-117000000I-4000000J0D01*
G01*
X119000000Y-57000000D02*
G75*
G02X123000000Y-61000000I0J-4000000D01*
G01*
X74666666Y-117000000D02*
G75*
G03X74666666Y-117000000I-1666666J0D01*
G01*
X70500000Y-117000000D02*
X75500000Y-117000000D01*
X73000000Y-114500000D02*
X73000000Y-119500000D01*
X77000000Y-117000000D02*
X119000000Y-117000000D01*
X77000000Y-57000000D02*
X119000000Y-57000000D01*
X123000000Y-113000000D02*
X123000000Y-61000000D01*
X73000000Y-113000000D02*
X73000000Y-61000000D01*
X73000000Y-117000000D02*
X73250000Y-117000000D01*
D11*
G36*
X119293582Y-111019215D02*
G01*
X119583381Y-111076859D01*
X119947356Y-111227623D01*
X120274921Y-111446495D01*
X120274923Y-111446497D01*
X120274926Y-111446499D01*
X120553501Y-111725074D01*
X120553503Y-111725077D01*
X120553505Y-111725079D01*
X120772377Y-112052644D01*
X120923141Y-112416619D01*
X121000000Y-112803018D01*
X121000000Y-113196982D01*
X120923141Y-113583381D01*
X120772377Y-113947356D01*
X120553505Y-114274921D01*
X120553503Y-114274923D01*
X120553501Y-114274926D01*
X120274926Y-114553501D01*
X120274923Y-114553503D01*
X120274921Y-114553505D01*
X119947356Y-114772377D01*
X119583381Y-114923141D01*
X119293582Y-114980785D01*
X119196983Y-115000000D01*
X118803017Y-115000000D01*
X118706418Y-114980785D01*
X118416619Y-114923141D01*
X118052644Y-114772377D01*
X117725079Y-114553505D01*
X117725077Y-114553503D01*
X117725074Y-114553501D01*
X117446499Y-114274926D01*
X117446497Y-114274923D01*
X117446495Y-114274921D01*
X117227623Y-113947356D01*
X117076859Y-113583381D01*
X117000000Y-113196982D01*
X117000000Y-112803018D01*
X117076859Y-112416619D01*
X117227623Y-112052644D01*
X117446495Y-111725079D01*
X117446497Y-111725077D01*
X117446499Y-111725074D01*
X117725074Y-111446499D01*
X117725077Y-111446497D01*
X117725079Y-111446495D01*
X118052644Y-111227623D01*
X118416619Y-111076859D01*
X118706418Y-111019215D01*
X118803017Y-111000000D01*
X119196983Y-111000000D01*
X119293582Y-111019215D01*
G37*
G36*
X77293582Y-111019215D02*
G01*
X77583381Y-111076859D01*
X77947356Y-111227623D01*
X78274921Y-111446495D01*
X78274923Y-111446497D01*
X78274926Y-111446499D01*
X78553501Y-111725074D01*
X78553503Y-111725077D01*
X78553505Y-111725079D01*
X78772377Y-112052644D01*
X78923141Y-112416619D01*
X79000000Y-112803018D01*
X79000000Y-113196982D01*
X78923141Y-113583381D01*
X78772377Y-113947356D01*
X78553505Y-114274921D01*
X78553503Y-114274923D01*
X78553501Y-114274926D01*
X78274926Y-114553501D01*
X78274923Y-114553503D01*
X78274921Y-114553505D01*
X77947356Y-114772377D01*
X77583381Y-114923141D01*
X77293582Y-114980785D01*
X77196983Y-115000000D01*
X76803017Y-115000000D01*
X76706418Y-114980785D01*
X76416619Y-114923141D01*
X76052644Y-114772377D01*
X75725079Y-114553505D01*
X75725077Y-114553503D01*
X75725074Y-114553501D01*
X75446499Y-114274926D01*
X75446497Y-114274923D01*
X75446495Y-114274921D01*
X75227623Y-113947356D01*
X75076859Y-113583381D01*
X75000000Y-113196982D01*
X75000000Y-112803018D01*
X75076859Y-112416619D01*
X75227623Y-112052644D01*
X75446495Y-111725079D01*
X75446497Y-111725077D01*
X75446499Y-111725074D01*
X75725074Y-111446499D01*
X75725077Y-111446497D01*
X75725079Y-111446495D01*
X76052644Y-111227623D01*
X76416619Y-111076859D01*
X76706418Y-111019215D01*
X76803017Y-111000000D01*
X77196983Y-111000000D01*
X77293582Y-111019215D01*
G37*
G36*
X91800000Y-106650000D02*
G01*
X90900000Y-106650000D01*
X90900000Y-105850000D01*
X91800000Y-105850000D01*
X91800000Y-106650000D01*
G37*
G36*
X88600000Y-106300000D02*
G01*
X86900000Y-106300000D01*
X86900000Y-104300000D01*
X88600000Y-104300000D01*
X88600000Y-106300000D01*
G37*
G36*
X85700000Y-106200000D02*
G01*
X83200000Y-106200000D01*
X83200000Y-104200000D01*
X85700000Y-104200000D01*
X85700000Y-106200000D01*
G37*
G36*
X101200000Y-105700000D02*
G01*
X93900000Y-105700000D01*
X93900000Y-101000000D01*
X101200000Y-101000000D01*
X101200000Y-105700000D01*
G37*
G36*
X89800000Y-105700000D02*
G01*
X88900000Y-105700000D01*
X88900000Y-104900000D01*
X89800000Y-104900000D01*
X89800000Y-105700000D01*
G37*
G36*
X93440000Y-105625000D02*
G01*
X92640000Y-105625000D01*
X92640000Y-101025000D01*
X93440000Y-101025000D01*
X93440000Y-105625000D01*
G37*
G36*
X112250068Y-99415288D02*
G01*
X112250070Y-99415289D01*
X112250071Y-99415289D01*
X112796034Y-99641434D01*
X113287384Y-99969744D01*
X113287386Y-99969746D01*
X113287389Y-99969748D01*
X113705252Y-100387611D01*
X113705254Y-100387614D01*
X113705256Y-100387616D01*
X114033566Y-100878966D01*
X114094055Y-101025000D01*
X114259712Y-101424932D01*
X114375000Y-102004526D01*
X114375000Y-102595474D01*
X114260788Y-103169660D01*
X114259711Y-103175071D01*
X114033566Y-103721034D01*
X113705256Y-104212384D01*
X113705254Y-104212386D01*
X113705252Y-104212389D01*
X113287389Y-104630252D01*
X113287386Y-104630254D01*
X113287384Y-104630256D01*
X112796034Y-104958566D01*
X112250071Y-105184711D01*
X112250070Y-105184711D01*
X112250068Y-105184712D01*
X111670474Y-105300000D01*
X111079526Y-105300000D01*
X110499932Y-105184712D01*
X110499930Y-105184711D01*
X110499929Y-105184711D01*
X109953966Y-104958566D01*
X109462616Y-104630256D01*
X109462614Y-104630254D01*
X109462611Y-104630252D01*
X109044748Y-104212389D01*
X109044746Y-104212386D01*
X109044744Y-104212384D01*
X108716434Y-103721034D01*
X108490289Y-103175071D01*
X108489213Y-103169660D01*
X108375000Y-102595474D01*
X108375000Y-102004526D01*
X108490288Y-101424932D01*
X108655945Y-101025000D01*
X108716434Y-100878966D01*
X109044744Y-100387616D01*
X109044746Y-100387614D01*
X109044748Y-100387611D01*
X109462611Y-99969748D01*
X109462614Y-99969746D01*
X109462616Y-99969744D01*
X109953966Y-99641434D01*
X110499929Y-99415289D01*
X110499930Y-99415289D01*
X110499932Y-99415288D01*
X111079526Y-99300000D01*
X111670474Y-99300000D01*
X112250068Y-99415288D01*
G37*
G36*
X119200068Y-99415288D02*
G01*
X119200070Y-99415289D01*
X119200071Y-99415289D01*
X119746034Y-99641434D01*
X120237384Y-99969744D01*
X120237386Y-99969746D01*
X120237389Y-99969748D01*
X120655252Y-100387611D01*
X120655254Y-100387614D01*
X120655256Y-100387616D01*
X120983566Y-100878966D01*
X121044055Y-101025000D01*
X121209712Y-101424932D01*
X121325000Y-102004526D01*
X121325000Y-102595474D01*
X121210788Y-103169660D01*
X121209711Y-103175071D01*
X120983566Y-103721034D01*
X120655256Y-104212384D01*
X120655254Y-104212386D01*
X120655252Y-104212389D01*
X120237389Y-104630252D01*
X120237386Y-104630254D01*
X120237384Y-104630256D01*
X119746034Y-104958566D01*
X119200071Y-105184711D01*
X119200070Y-105184711D01*
X119200068Y-105184712D01*
X118620474Y-105300000D01*
X118029526Y-105300000D01*
X117449932Y-105184712D01*
X117449930Y-105184711D01*
X117449929Y-105184711D01*
X116903966Y-104958566D01*
X116412616Y-104630256D01*
X116412614Y-104630254D01*
X116412611Y-104630252D01*
X115994748Y-104212389D01*
X115994746Y-104212386D01*
X115994744Y-104212384D01*
X115666434Y-103721034D01*
X115440289Y-103175071D01*
X115439213Y-103169660D01*
X115325000Y-102595474D01*
X115325000Y-102004526D01*
X115440288Y-101424932D01*
X115605945Y-101025000D01*
X115666434Y-100878966D01*
X115994744Y-100387616D01*
X115994746Y-100387614D01*
X115994748Y-100387611D01*
X116412611Y-99969748D01*
X116412614Y-99969746D01*
X116412616Y-99969744D01*
X116903966Y-99641434D01*
X117449929Y-99415289D01*
X117449930Y-99415289D01*
X117449932Y-99415288D01*
X118029526Y-99300000D01*
X118620474Y-99300000D01*
X119200068Y-99415288D01*
G37*
G36*
X91800000Y-104750000D02*
G01*
X90900000Y-104750000D01*
X90900000Y-103950000D01*
X91800000Y-103950000D01*
X91800000Y-104750000D01*
G37*
G36*
X79155340Y-102242002D02*
G01*
X79376829Y-102309189D01*
X79376831Y-102309190D01*
X79580955Y-102418297D01*
X79759871Y-102565129D01*
X79906703Y-102744045D01*
X79906704Y-102744047D01*
X80015811Y-102948171D01*
X80082998Y-103169660D01*
X80105685Y-103400000D01*
X80082998Y-103630340D01*
X80015811Y-103851829D01*
X80015810Y-103851831D01*
X79906703Y-104055955D01*
X79759871Y-104234871D01*
X79580955Y-104381703D01*
X79580953Y-104381704D01*
X79376829Y-104490811D01*
X79155340Y-104557998D01*
X78982720Y-104575000D01*
X78217280Y-104575000D01*
X78044660Y-104557998D01*
X77823171Y-104490811D01*
X77619047Y-104381704D01*
X77619045Y-104381703D01*
X77440129Y-104234871D01*
X77293297Y-104055955D01*
X77184190Y-103851831D01*
X77184189Y-103851829D01*
X77117002Y-103630340D01*
X77094315Y-103400000D01*
X77117002Y-103169660D01*
X77184189Y-102948171D01*
X77293296Y-102744047D01*
X77293297Y-102744045D01*
X77440129Y-102565129D01*
X77619045Y-102418297D01*
X77823169Y-102309190D01*
X77823171Y-102309189D01*
X78044660Y-102242002D01*
X78217280Y-102225000D01*
X78982720Y-102225000D01*
X79155340Y-102242002D01*
G37*
G36*
X88600000Y-102300000D02*
G01*
X86900000Y-102300000D01*
X86900000Y-100300000D01*
X88600000Y-100300000D01*
X88600000Y-102300000D01*
G37*
G36*
X103975000Y-102300000D02*
G01*
X102725000Y-102300000D01*
X102725000Y-100800000D01*
X103975000Y-100800000D01*
X103975000Y-102300000D01*
G37*
G36*
X85700000Y-102200000D02*
G01*
X83200000Y-102200000D01*
X83200000Y-100200000D01*
X85700000Y-100200000D01*
X85700000Y-102200000D01*
G37*
G36*
X104350000Y-98800000D02*
G01*
X104038499Y-98800000D01*
X104026111Y-98801220D01*
X104014199Y-98804834D01*
X104003221Y-98810702D01*
X103993598Y-98818598D01*
X103985702Y-98828221D01*
X103979834Y-98839199D01*
X103976220Y-98851111D01*
X103975000Y-98863499D01*
X103975000Y-99800000D01*
X102725000Y-99800000D01*
X102725000Y-98863499D01*
X102723780Y-98851111D01*
X102720166Y-98839199D01*
X102714298Y-98828221D01*
X102706402Y-98818598D01*
X102696779Y-98810702D01*
X102685801Y-98804834D01*
X102673889Y-98801220D01*
X102661501Y-98800000D01*
X89350000Y-98800000D01*
X89350000Y-86800000D01*
X104350000Y-86800000D01*
X104350000Y-98800000D01*
G37*
G36*
X80100000Y-99575000D02*
G01*
X77100000Y-99575000D01*
X77100000Y-97225000D01*
X80100000Y-97225000D01*
X80100000Y-99575000D01*
G37*
G36*
X112250068Y-90415288D02*
G01*
X112250070Y-90415289D01*
X112250071Y-90415289D01*
X112796034Y-90641434D01*
X113287384Y-90969744D01*
X113287386Y-90969746D01*
X113287389Y-90969748D01*
X113705252Y-91387611D01*
X113705254Y-91387614D01*
X113705256Y-91387616D01*
X114033566Y-91878966D01*
X114259711Y-92424929D01*
X114375000Y-93004527D01*
X114375000Y-93595473D01*
X114259711Y-94175071D01*
X114033566Y-94721034D01*
X113705256Y-95212384D01*
X113705254Y-95212386D01*
X113705252Y-95212389D01*
X113287389Y-95630252D01*
X113287386Y-95630254D01*
X113287384Y-95630256D01*
X112796034Y-95958566D01*
X112250071Y-96184711D01*
X112250070Y-96184711D01*
X112250068Y-96184712D01*
X111670474Y-96300000D01*
X111079526Y-96300000D01*
X110499932Y-96184712D01*
X110499930Y-96184711D01*
X110499929Y-96184711D01*
X109953966Y-95958566D01*
X109462616Y-95630256D01*
X109462614Y-95630254D01*
X109462611Y-95630252D01*
X109044748Y-95212389D01*
X109044746Y-95212386D01*
X109044744Y-95212384D01*
X108716434Y-94721034D01*
X108490289Y-94175071D01*
X108375000Y-93595473D01*
X108375000Y-93004527D01*
X108490289Y-92424929D01*
X108716434Y-91878966D01*
X109044744Y-91387616D01*
X109044746Y-91387614D01*
X109044748Y-91387611D01*
X109462611Y-90969748D01*
X109462614Y-90969746D01*
X109462616Y-90969744D01*
X109953966Y-90641434D01*
X110499929Y-90415289D01*
X110499930Y-90415289D01*
X110499932Y-90415288D01*
X111079526Y-90300000D01*
X111670474Y-90300000D01*
X112250068Y-90415288D01*
G37*
G36*
X119200068Y-90415288D02*
G01*
X119200070Y-90415289D01*
X119200071Y-90415289D01*
X119746034Y-90641434D01*
X120237384Y-90969744D01*
X120237386Y-90969746D01*
X120237389Y-90969748D01*
X120655252Y-91387611D01*
X120655254Y-91387614D01*
X120655256Y-91387616D01*
X120983566Y-91878966D01*
X121209711Y-92424929D01*
X121325000Y-93004527D01*
X121325000Y-93595473D01*
X121209711Y-94175071D01*
X120983566Y-94721034D01*
X120655256Y-95212384D01*
X120655254Y-95212386D01*
X120655252Y-95212389D01*
X120237389Y-95630252D01*
X120237386Y-95630254D01*
X120237384Y-95630256D01*
X119746034Y-95958566D01*
X119200071Y-96184711D01*
X119200070Y-96184711D01*
X119200068Y-96184712D01*
X118620474Y-96300000D01*
X118029526Y-96300000D01*
X117449932Y-96184712D01*
X117449930Y-96184711D01*
X117449929Y-96184711D01*
X116903966Y-95958566D01*
X116412616Y-95630256D01*
X116412614Y-95630254D01*
X116412611Y-95630252D01*
X115994748Y-95212389D01*
X115994746Y-95212386D01*
X115994744Y-95212384D01*
X115666434Y-94721034D01*
X115440289Y-94175071D01*
X115325000Y-93595473D01*
X115325000Y-93004527D01*
X115440289Y-92424929D01*
X115666434Y-91878966D01*
X115994744Y-91387616D01*
X115994746Y-91387614D01*
X115994748Y-91387611D01*
X116412611Y-90969748D01*
X116412614Y-90969746D01*
X116412616Y-90969744D01*
X116903966Y-90641434D01*
X117449929Y-90415289D01*
X117449930Y-90415289D01*
X117449932Y-90415288D01*
X118029526Y-90300000D01*
X118620474Y-90300000D01*
X119200068Y-90415288D01*
G37*
G36*
X85450000Y-95400000D02*
G01*
X83750000Y-95400000D01*
X83750000Y-93400000D01*
X85450000Y-93400000D01*
X85450000Y-95400000D01*
G37*
G36*
X88250000Y-95000000D02*
G01*
X86950000Y-95000000D01*
X86950000Y-93500000D01*
X88250000Y-93500000D01*
X88250000Y-95000000D01*
G37*
G36*
X82350000Y-94570000D02*
G01*
X80750000Y-94570000D01*
X80750000Y-92970000D01*
X82350000Y-92970000D01*
X82350000Y-94570000D01*
G37*
G36*
X75850000Y-94570000D02*
G01*
X74250000Y-94570000D01*
X74250000Y-92970000D01*
X75850000Y-92970000D01*
X75850000Y-94570000D01*
G37*
G36*
X88250000Y-92300000D02*
G01*
X86950000Y-92300000D01*
X86950000Y-90800000D01*
X88250000Y-90800000D01*
X88250000Y-92300000D01*
G37*
G36*
X75850000Y-92030000D02*
G01*
X74250000Y-92030000D01*
X74250000Y-90430000D01*
X75850000Y-90430000D01*
X75850000Y-92030000D01*
G37*
G36*
X82350000Y-92030000D02*
G01*
X80750000Y-92030000D01*
X80750000Y-90430000D01*
X82350000Y-90430000D01*
X82350000Y-92030000D01*
G37*
G36*
X85450000Y-91400000D02*
G01*
X83750000Y-91400000D01*
X83750000Y-89400000D01*
X85450000Y-89400000D01*
X85450000Y-91400000D01*
G37*
G36*
X76750000Y-89100000D02*
G01*
X74750000Y-89100000D01*
X74750000Y-87400000D01*
X76750000Y-87400000D01*
X76750000Y-89100000D01*
G37*
G36*
X80750000Y-89100000D02*
G01*
X78750000Y-89100000D01*
X78750000Y-87400000D01*
X80750000Y-87400000D01*
X80750000Y-89100000D01*
G37*
G36*
X92200000Y-85100000D02*
G01*
X91300000Y-85100000D01*
X91300000Y-84300000D01*
X92200000Y-84300000D01*
X92200000Y-85100000D01*
G37*
G36*
X101450000Y-84959993D02*
G01*
X94150000Y-84959993D01*
X94150000Y-80259993D01*
X101450000Y-80259993D01*
X101450000Y-84959993D01*
G37*
G36*
X93690000Y-84875000D02*
G01*
X92890000Y-84875000D01*
X92890000Y-80275000D01*
X93690000Y-80275000D01*
X93690000Y-84875000D01*
G37*
G36*
X88700000Y-84725000D02*
G01*
X87000000Y-84725000D01*
X87000000Y-82725000D01*
X88700000Y-82725000D01*
X88700000Y-84725000D01*
G37*
G36*
X85800000Y-84625000D02*
G01*
X83300000Y-84625000D01*
X83300000Y-82625000D01*
X85800000Y-82625000D01*
X85800000Y-84625000D01*
G37*
G36*
X119200068Y-78615288D02*
G01*
X119200070Y-78615289D01*
X119200071Y-78615289D01*
X119746034Y-78841434D01*
X120237384Y-79169744D01*
X120237386Y-79169746D01*
X120237389Y-79169748D01*
X120655252Y-79587611D01*
X120655254Y-79587614D01*
X120655256Y-79587616D01*
X120983566Y-80078966D01*
X121209711Y-80624929D01*
X121209712Y-80624932D01*
X121325000Y-81204526D01*
X121325000Y-81795474D01*
X121270461Y-82069663D01*
X121209711Y-82375071D01*
X120983566Y-82921034D01*
X120655256Y-83412384D01*
X120655254Y-83412386D01*
X120655252Y-83412389D01*
X120237389Y-83830252D01*
X120237386Y-83830254D01*
X120237384Y-83830256D01*
X119746034Y-84158566D01*
X119200071Y-84384711D01*
X119200070Y-84384711D01*
X119200068Y-84384712D01*
X118620474Y-84500000D01*
X118029526Y-84500000D01*
X117449932Y-84384712D01*
X117449930Y-84384711D01*
X117449929Y-84384711D01*
X116903966Y-84158566D01*
X116412616Y-83830256D01*
X116412614Y-83830254D01*
X116412611Y-83830252D01*
X115994748Y-83412389D01*
X115994746Y-83412386D01*
X115994744Y-83412384D01*
X115666434Y-82921034D01*
X115440289Y-82375071D01*
X115379540Y-82069663D01*
X115325000Y-81795474D01*
X115325000Y-81204526D01*
X115440288Y-80624932D01*
X115440289Y-80624929D01*
X115666434Y-80078966D01*
X115994744Y-79587616D01*
X115994746Y-79587614D01*
X115994748Y-79587611D01*
X116412611Y-79169748D01*
X116412614Y-79169746D01*
X116412616Y-79169744D01*
X116903966Y-78841434D01*
X117449929Y-78615289D01*
X117449930Y-78615289D01*
X117449932Y-78615288D01*
X118029526Y-78500000D01*
X118620474Y-78500000D01*
X119200068Y-78615288D01*
G37*
G36*
X112250068Y-78615288D02*
G01*
X112250070Y-78615289D01*
X112250071Y-78615289D01*
X112796034Y-78841434D01*
X113287384Y-79169744D01*
X113287386Y-79169746D01*
X113287389Y-79169748D01*
X113705252Y-79587611D01*
X113705254Y-79587614D01*
X113705256Y-79587616D01*
X114033566Y-80078966D01*
X114259711Y-80624929D01*
X114259712Y-80624932D01*
X114375000Y-81204526D01*
X114375000Y-81795474D01*
X114320461Y-82069663D01*
X114259711Y-82375071D01*
X114033566Y-82921034D01*
X113705256Y-83412384D01*
X113705254Y-83412386D01*
X113705252Y-83412389D01*
X113287389Y-83830252D01*
X113287386Y-83830254D01*
X113287384Y-83830256D01*
X112796034Y-84158566D01*
X112250071Y-84384711D01*
X112250070Y-84384711D01*
X112250068Y-84384712D01*
X111670474Y-84500000D01*
X111079526Y-84500000D01*
X110499932Y-84384712D01*
X110499930Y-84384711D01*
X110499929Y-84384711D01*
X109953966Y-84158566D01*
X109462616Y-83830256D01*
X109462614Y-83830254D01*
X109462611Y-83830252D01*
X109044748Y-83412389D01*
X109044746Y-83412386D01*
X109044744Y-83412384D01*
X108716434Y-82921034D01*
X108490289Y-82375071D01*
X108429540Y-82069663D01*
X108375000Y-81795474D01*
X108375000Y-81204526D01*
X108490288Y-80624932D01*
X108490289Y-80624929D01*
X108716434Y-80078966D01*
X109044744Y-79587616D01*
X109044746Y-79587614D01*
X109044748Y-79587611D01*
X109462611Y-79169748D01*
X109462614Y-79169746D01*
X109462616Y-79169744D01*
X109953966Y-78841434D01*
X110499929Y-78615289D01*
X110499930Y-78615289D01*
X110499932Y-78615288D01*
X111079526Y-78500000D01*
X111670474Y-78500000D01*
X112250068Y-78615288D01*
G37*
G36*
X90200000Y-84150000D02*
G01*
X89300000Y-84150000D01*
X89300000Y-83350000D01*
X90200000Y-83350000D01*
X90200000Y-84150000D01*
G37*
G36*
X79155340Y-81142002D02*
G01*
X79376829Y-81209189D01*
X79376831Y-81209190D01*
X79580955Y-81318297D01*
X79759871Y-81465129D01*
X79906703Y-81644045D01*
X79906704Y-81644047D01*
X80015811Y-81848171D01*
X80082998Y-82069660D01*
X80105685Y-82300000D01*
X80082998Y-82530340D01*
X80023949Y-82725000D01*
X80015810Y-82751831D01*
X79906703Y-82955955D01*
X79759871Y-83134871D01*
X79580955Y-83281703D01*
X79580953Y-83281704D01*
X79376829Y-83390811D01*
X79155340Y-83457998D01*
X78982720Y-83475000D01*
X78217280Y-83475000D01*
X78044660Y-83457998D01*
X77823171Y-83390811D01*
X77619047Y-83281704D01*
X77619045Y-83281703D01*
X77440129Y-83134871D01*
X77293297Y-82955955D01*
X77184190Y-82751831D01*
X77176051Y-82725000D01*
X77117002Y-82530340D01*
X77094315Y-82300000D01*
X77117002Y-82069660D01*
X77184189Y-81848171D01*
X77293296Y-81644047D01*
X77293297Y-81644045D01*
X77440129Y-81465129D01*
X77619045Y-81318297D01*
X77823169Y-81209190D01*
X77823171Y-81209189D01*
X78044660Y-81142002D01*
X78217280Y-81125000D01*
X78982720Y-81125000D01*
X79155340Y-81142002D01*
G37*
G36*
X92200000Y-83200000D02*
G01*
X91300000Y-83200000D01*
X91300000Y-82400000D01*
X92200000Y-82400000D01*
X92200000Y-83200000D01*
G37*
G36*
X104125000Y-81750000D02*
G01*
X102875000Y-81750000D01*
X102875000Y-80250000D01*
X104125000Y-80250000D01*
X104125000Y-81750000D01*
G37*
G36*
X88700000Y-80725000D02*
G01*
X87000000Y-80725000D01*
X87000000Y-78725000D01*
X88700000Y-78725000D01*
X88700000Y-80725000D01*
G37*
G36*
X85800000Y-80625000D02*
G01*
X83300000Y-80625000D01*
X83300000Y-78625000D01*
X85800000Y-78625000D01*
X85800000Y-80625000D01*
G37*
G36*
X104600000Y-78050000D02*
G01*
X104188499Y-78050000D01*
X104176111Y-78051220D01*
X104164199Y-78054834D01*
X104153221Y-78060702D01*
X104143598Y-78068598D01*
X104135702Y-78078221D01*
X104129834Y-78089199D01*
X104126220Y-78101111D01*
X104125000Y-78113499D01*
X104125000Y-79250000D01*
X102875000Y-79250000D01*
X102875000Y-78113499D01*
X102873780Y-78101111D01*
X102870166Y-78089199D01*
X102864298Y-78078221D01*
X102856402Y-78068598D01*
X102846779Y-78060702D01*
X102835801Y-78054834D01*
X102823889Y-78051220D01*
X102811501Y-78050000D01*
X89600000Y-78050000D01*
X89600000Y-66050000D01*
X104600000Y-66050000D01*
X104600000Y-78050000D01*
G37*
G36*
X80100000Y-78475000D02*
G01*
X77100000Y-78475000D01*
X77100000Y-76125000D01*
X80100000Y-76125000D01*
X80100000Y-78475000D01*
G37*
G36*
X119200068Y-69615288D02*
G01*
X119200070Y-69615289D01*
X119200071Y-69615289D01*
X119746034Y-69841434D01*
X120237384Y-70169744D01*
X120237386Y-70169746D01*
X120237389Y-70169748D01*
X120655252Y-70587611D01*
X120655254Y-70587614D01*
X120655256Y-70587616D01*
X120983566Y-71078966D01*
X121209711Y-71624929D01*
X121325000Y-72204527D01*
X121325000Y-72795473D01*
X121209711Y-73375071D01*
X120983566Y-73921034D01*
X120655256Y-74412384D01*
X120655254Y-74412386D01*
X120655252Y-74412389D01*
X120237389Y-74830252D01*
X120237386Y-74830254D01*
X120237384Y-74830256D01*
X119746034Y-75158566D01*
X119200071Y-75384711D01*
X119200070Y-75384711D01*
X119200068Y-75384712D01*
X118620474Y-75500000D01*
X118029526Y-75500000D01*
X117449932Y-75384712D01*
X117449930Y-75384711D01*
X117449929Y-75384711D01*
X116903966Y-75158566D01*
X116412616Y-74830256D01*
X116412614Y-74830254D01*
X116412611Y-74830252D01*
X115994748Y-74412389D01*
X115994746Y-74412386D01*
X115994744Y-74412384D01*
X115666434Y-73921034D01*
X115440289Y-73375071D01*
X115325000Y-72795473D01*
X115325000Y-72204527D01*
X115440289Y-71624929D01*
X115666434Y-71078966D01*
X115994744Y-70587616D01*
X115994746Y-70587614D01*
X115994748Y-70587611D01*
X116412611Y-70169748D01*
X116412614Y-70169746D01*
X116412616Y-70169744D01*
X116903966Y-69841434D01*
X117449929Y-69615289D01*
X117449930Y-69615289D01*
X117449932Y-69615288D01*
X118029526Y-69500000D01*
X118620474Y-69500000D01*
X119200068Y-69615288D01*
G37*
G36*
X112250068Y-69615288D02*
G01*
X112250070Y-69615289D01*
X112250071Y-69615289D01*
X112796034Y-69841434D01*
X113287384Y-70169744D01*
X113287386Y-70169746D01*
X113287389Y-70169748D01*
X113705252Y-70587611D01*
X113705254Y-70587614D01*
X113705256Y-70587616D01*
X114033566Y-71078966D01*
X114259711Y-71624929D01*
X114375000Y-72204527D01*
X114375000Y-72795473D01*
X114259711Y-73375071D01*
X114033566Y-73921034D01*
X113705256Y-74412384D01*
X113705254Y-74412386D01*
X113705252Y-74412389D01*
X113287389Y-74830252D01*
X113287386Y-74830254D01*
X113287384Y-74830256D01*
X112796034Y-75158566D01*
X112250071Y-75384711D01*
X112250070Y-75384711D01*
X112250068Y-75384712D01*
X111670474Y-75500000D01*
X111079526Y-75500000D01*
X110499932Y-75384712D01*
X110499930Y-75384711D01*
X110499929Y-75384711D01*
X109953966Y-75158566D01*
X109462616Y-74830256D01*
X109462614Y-74830254D01*
X109462611Y-74830252D01*
X109044748Y-74412389D01*
X109044746Y-74412386D01*
X109044744Y-74412384D01*
X108716434Y-73921034D01*
X108490289Y-73375071D01*
X108375000Y-72795473D01*
X108375000Y-72204527D01*
X108490289Y-71624929D01*
X108716434Y-71078966D01*
X109044744Y-70587616D01*
X109044746Y-70587614D01*
X109044748Y-70587611D01*
X109462611Y-70169748D01*
X109462614Y-70169746D01*
X109462616Y-70169744D01*
X109953966Y-69841434D01*
X110499929Y-69615289D01*
X110499930Y-69615289D01*
X110499932Y-69615288D01*
X111079526Y-69500000D01*
X111670474Y-69500000D01*
X112250068Y-69615288D01*
G37*
G36*
X85450000Y-74300000D02*
G01*
X83750000Y-74300000D01*
X83750000Y-72300000D01*
X85450000Y-72300000D01*
X85450000Y-74300000D01*
G37*
G36*
X88250000Y-73900000D02*
G01*
X86950000Y-73900000D01*
X86950000Y-72400000D01*
X88250000Y-72400000D01*
X88250000Y-73900000D01*
G37*
G36*
X82350000Y-73470000D02*
G01*
X80750000Y-73470000D01*
X80750000Y-71870000D01*
X82350000Y-71870000D01*
X82350000Y-73470000D01*
G37*
G36*
X75850000Y-73470000D02*
G01*
X74250000Y-73470000D01*
X74250000Y-71870000D01*
X75850000Y-71870000D01*
X75850000Y-73470000D01*
G37*
G36*
X88250000Y-71200000D02*
G01*
X86950000Y-71200000D01*
X86950000Y-69700000D01*
X88250000Y-69700000D01*
X88250000Y-71200000D01*
G37*
G36*
X75850000Y-70930000D02*
G01*
X74250000Y-70930000D01*
X74250000Y-69330000D01*
X75850000Y-69330000D01*
X75850000Y-70930000D01*
G37*
G36*
X82350000Y-70930000D02*
G01*
X80750000Y-70930000D01*
X80750000Y-69330000D01*
X82350000Y-69330000D01*
X82350000Y-70930000D01*
G37*
G36*
X85450000Y-70300000D02*
G01*
X83750000Y-70300000D01*
X83750000Y-68300000D01*
X85450000Y-68300000D01*
X85450000Y-70300000D01*
G37*
G36*
X80900000Y-68250000D02*
G01*
X78900000Y-68250000D01*
X78900000Y-66550000D01*
X80900000Y-66550000D01*
X80900000Y-68250000D01*
G37*
G36*
X76900000Y-68250000D02*
G01*
X74900000Y-68250000D01*
X74900000Y-66550000D01*
X76900000Y-66550000D01*
X76900000Y-68250000D01*
G37*
G36*
X119293582Y-59019215D02*
G01*
X119583381Y-59076859D01*
X119947356Y-59227623D01*
X120274921Y-59446495D01*
X120274923Y-59446497D01*
X120274926Y-59446499D01*
X120553501Y-59725074D01*
X120553503Y-59725077D01*
X120553505Y-59725079D01*
X120772377Y-60052644D01*
X120923141Y-60416619D01*
X121000000Y-60803018D01*
X121000000Y-61196982D01*
X120923141Y-61583381D01*
X120772377Y-61947356D01*
X120553505Y-62274921D01*
X120553503Y-62274923D01*
X120553501Y-62274926D01*
X120274926Y-62553501D01*
X120274923Y-62553503D01*
X120274921Y-62553505D01*
X119947356Y-62772377D01*
X119583381Y-62923141D01*
X119293582Y-62980785D01*
X119196983Y-63000000D01*
X118803017Y-63000000D01*
X118706418Y-62980785D01*
X118416619Y-62923141D01*
X118052644Y-62772377D01*
X117725079Y-62553505D01*
X117725077Y-62553503D01*
X117725074Y-62553501D01*
X117446499Y-62274926D01*
X117446497Y-62274923D01*
X117446495Y-62274921D01*
X117227623Y-61947356D01*
X117076859Y-61583381D01*
X117000000Y-61196982D01*
X117000000Y-60803018D01*
X117076859Y-60416619D01*
X117227623Y-60052644D01*
X117446495Y-59725079D01*
X117446497Y-59725077D01*
X117446499Y-59725074D01*
X117725074Y-59446499D01*
X117725077Y-59446497D01*
X117725079Y-59446495D01*
X118052644Y-59227623D01*
X118416619Y-59076859D01*
X118706418Y-59019215D01*
X118803017Y-59000000D01*
X119196983Y-59000000D01*
X119293582Y-59019215D01*
G37*
G36*
X77293582Y-59019215D02*
G01*
X77583381Y-59076859D01*
X77947356Y-59227623D01*
X78274921Y-59446495D01*
X78274923Y-59446497D01*
X78274926Y-59446499D01*
X78553501Y-59725074D01*
X78553503Y-59725077D01*
X78553505Y-59725079D01*
X78772377Y-60052644D01*
X78923141Y-60416619D01*
X79000000Y-60803018D01*
X79000000Y-61196982D01*
X78923141Y-61583381D01*
X78772377Y-61947356D01*
X78553505Y-62274921D01*
X78553503Y-62274923D01*
X78553501Y-62274926D01*
X78274926Y-62553501D01*
X78274923Y-62553503D01*
X78274921Y-62553505D01*
X77947356Y-62772377D01*
X77583381Y-62923141D01*
X77293582Y-62980785D01*
X77196983Y-63000000D01*
X76803017Y-63000000D01*
X76706418Y-62980785D01*
X76416619Y-62923141D01*
X76052644Y-62772377D01*
X75725079Y-62553505D01*
X75725077Y-62553503D01*
X75725074Y-62553501D01*
X75446499Y-62274926D01*
X75446497Y-62274923D01*
X75446495Y-62274921D01*
X75227623Y-61947356D01*
X75076859Y-61583381D01*
X75000000Y-61196982D01*
X75000000Y-60803018D01*
X75076859Y-60416619D01*
X75227623Y-60052644D01*
X75446495Y-59725079D01*
X75446497Y-59725077D01*
X75446499Y-59725074D01*
X75725074Y-59446499D01*
X75725077Y-59446497D01*
X75725079Y-59446495D01*
X76052644Y-59227623D01*
X76416619Y-59076859D01*
X76706418Y-59019215D01*
X76803017Y-59000000D01*
X77196983Y-59000000D01*
X77293582Y-59019215D01*
G37*
M02*
