G04 #@! TF.GenerationSoftware,KiCad,Pcbnew,(5.1.10)-1*
G04 #@! TF.CreationDate,2021-07-01T22:43:24-04:00*
G04 #@! TF.ProjectId,MOSTERFET,4d4f5354-4552-4464-9554-2e6b69636164,1.2*
G04 #@! TF.SameCoordinates,Original*
G04 #@! TF.FileFunction,Copper,L1,Top*
G04 #@! TF.FilePolarity,Positive*
%FSLAX46Y46*%
G04 Gerber Fmt 4.6, Leading zero omitted, Abs format (unit mm)*
G04 Created by KiCad (PCBNEW (5.1.10)-1) date 2021-07-01 22:43:24*
%MOMM*%
%LPD*%
G01*
G04 APERTURE LIST*
G04 #@! TA.AperFunction,Profile*
%ADD10C,0.150000*%
G04 #@! TD*
G04 #@! TA.AperFunction,SMDPad,CuDef*
%ADD11R,0.800000X4.600000*%
G04 #@! TD*
G04 #@! TA.AperFunction,ComponentPad*
%ADD12R,3.000000X3.000000*%
G04 #@! TD*
G04 #@! TA.AperFunction,SMDPad,CuDef*
%ADD13R,0.800000X0.900000*%
G04 #@! TD*
G04 #@! TA.AperFunction,SMDPad,CuDef*
%ADD14R,1.250000X1.500000*%
G04 #@! TD*
G04 #@! TA.AperFunction,WasherPad*
%ADD15C,4.000000*%
G04 #@! TD*
G04 #@! TA.AperFunction,ComponentPad*
%ADD16O,3.000000X2.350000*%
G04 #@! TD*
G04 #@! TA.AperFunction,ComponentPad*
%ADD17R,3.000000X2.350000*%
G04 #@! TD*
G04 #@! TA.AperFunction,ComponentPad*
%ADD18C,6.000000*%
G04 #@! TD*
G04 #@! TA.AperFunction,SMDPad,CuDef*
%ADD19R,2.000000X1.700000*%
G04 #@! TD*
G04 #@! TA.AperFunction,SMDPad,CuDef*
%ADD20R,1.600000X1.600000*%
G04 #@! TD*
G04 #@! TA.AperFunction,SMDPad,CuDef*
%ADD21R,1.300000X1.500000*%
G04 #@! TD*
G04 #@! TA.AperFunction,SMDPad,CuDef*
%ADD22R,2.500000X2.000000*%
G04 #@! TD*
G04 #@! TA.AperFunction,ViaPad*
%ADD23C,0.600000*%
G04 #@! TD*
G04 #@! TA.AperFunction,Conductor*
%ADD24C,0.750000*%
G04 #@! TD*
G04 #@! TA.AperFunction,Conductor*
%ADD25C,0.400000*%
G04 #@! TD*
G04 #@! TA.AperFunction,Conductor*
%ADD26C,0.254000*%
G04 #@! TD*
G04 #@! TA.AperFunction,Conductor*
%ADD27C,0.100000*%
G04 #@! TD*
G04 APERTURE END LIST*
D10*
X73000000Y-61000000D02*
G75*
G02*
X77000000Y-57000000I4000000J0D01*
G01*
X77000000Y-117000000D02*
G75*
G02*
X73000000Y-113000000I0J4000000D01*
G01*
X123000000Y-113000000D02*
G75*
G02*
X119000000Y-117000000I-4000000J0D01*
G01*
X119000000Y-57000000D02*
G75*
G02*
X123000000Y-61000000I0J-4000000D01*
G01*
X77000000Y-117000000D02*
X119000000Y-117000000D01*
X77000000Y-57000000D02*
X119000000Y-57000000D01*
X123000000Y-113000000D02*
X123000000Y-61000000D01*
X73000000Y-113000000D02*
X73000000Y-61000000D01*
D11*
X100910000Y-83575000D03*
X99640000Y-83575000D03*
X98370000Y-83575000D03*
X95830000Y-83575000D03*
X94560000Y-83575000D03*
X93290000Y-83575000D03*
D12*
X103100000Y-77550000D03*
X103100000Y-74550000D03*
X103100000Y-71550000D03*
X103100000Y-68550000D03*
X91100000Y-77550000D03*
X91100000Y-74550000D03*
X91100000Y-68550000D03*
X91100000Y-71550000D03*
X100100000Y-68550000D03*
X97100000Y-68550000D03*
X94100000Y-68550000D03*
X94100000Y-71550000D03*
X100100000Y-71550000D03*
X97100000Y-71550000D03*
X94100000Y-74550000D03*
X100100000Y-74550000D03*
X97100000Y-74550000D03*
X94100000Y-77550000D03*
X100100000Y-77550000D03*
X97100000Y-77550000D03*
D13*
X87820000Y-104260000D03*
X89720000Y-104260000D03*
X88770000Y-102260000D03*
D14*
X103500000Y-82000000D03*
X103500000Y-79500000D03*
D11*
X100660000Y-104325000D03*
X99390000Y-104325000D03*
X98120000Y-104325000D03*
X95580000Y-104325000D03*
X94310000Y-104325000D03*
X93040000Y-104325000D03*
D12*
X102850000Y-98300000D03*
X102850000Y-95300000D03*
X102850000Y-92300000D03*
X102850000Y-89300000D03*
X90850000Y-98300000D03*
X90850000Y-95300000D03*
X90850000Y-89300000D03*
X90850000Y-92300000D03*
X99850000Y-89300000D03*
X96850000Y-89300000D03*
X93850000Y-89300000D03*
X93850000Y-92300000D03*
X99850000Y-92300000D03*
X96850000Y-92300000D03*
X93850000Y-95300000D03*
X99850000Y-95300000D03*
X96850000Y-95300000D03*
X93850000Y-98300000D03*
X99850000Y-98300000D03*
X96850000Y-98300000D03*
D15*
X77000000Y-113000000D03*
X119000000Y-61000000D03*
D13*
X89100000Y-81800000D03*
X90050000Y-83800000D03*
X88150000Y-83800000D03*
D16*
X78600000Y-83300000D03*
D17*
X78600000Y-78300000D03*
D18*
X111375000Y-73500000D03*
X118325000Y-73500000D03*
D19*
X82400000Y-68400000D03*
X86400000Y-68400000D03*
D18*
X111375000Y-82500000D03*
X118325000Y-82500000D03*
D20*
X81550000Y-73670000D03*
X75050000Y-73670000D03*
X75050000Y-71130000D03*
X81550000Y-71130000D03*
D19*
X84100000Y-73900000D03*
X88100000Y-73900000D03*
D21*
X88500000Y-68550000D03*
X88500000Y-71250000D03*
D22*
X84550000Y-80625000D03*
X84550000Y-84625000D03*
D19*
X84000000Y-95000000D03*
X88000000Y-95000000D03*
D22*
X84450000Y-106200000D03*
X84450000Y-102200000D03*
D18*
X118325000Y-103300000D03*
X111375000Y-103300000D03*
D20*
X81550000Y-92230000D03*
X75050000Y-92230000D03*
X75050000Y-94770000D03*
X81550000Y-94770000D03*
D21*
X88300000Y-91950000D03*
X88300000Y-89250000D03*
D14*
X103350000Y-100050000D03*
X103350000Y-102550000D03*
D17*
X78600000Y-99400000D03*
D16*
X78600000Y-104400000D03*
D18*
X118325000Y-94300000D03*
X111375000Y-94300000D03*
D19*
X86200000Y-89200000D03*
X82200000Y-89200000D03*
D15*
X119000000Y-113000000D03*
X77000000Y-61000000D03*
D19*
X75600000Y-89700000D03*
X79600000Y-89700000D03*
X79800000Y-67700000D03*
X75800000Y-67700000D03*
D23*
X100650000Y-103300000D03*
X98150000Y-104200000D03*
X98150000Y-102400000D03*
X99400000Y-105100000D03*
X95600000Y-102400000D03*
X98150000Y-103300000D03*
X98150000Y-106000000D03*
X95600000Y-106000000D03*
X94350000Y-102400000D03*
X99400000Y-106000000D03*
X100650000Y-106000000D03*
X96850000Y-102400000D03*
X99400000Y-104200000D03*
X94350000Y-105100000D03*
X96850000Y-106000000D03*
X94350000Y-103300000D03*
X95600000Y-104200000D03*
X100650000Y-105100000D03*
X100650000Y-102400000D03*
X98150000Y-105100000D03*
X96850000Y-103300000D03*
X95600000Y-103300000D03*
X95600000Y-105100000D03*
X96850000Y-104200000D03*
X100650000Y-104200000D03*
X96850000Y-105100000D03*
X99400000Y-102400000D03*
X99400000Y-103300000D03*
X95850000Y-84350000D03*
X95850000Y-82550000D03*
X100900000Y-83450000D03*
X98400000Y-84350000D03*
X98400000Y-81650000D03*
X97100000Y-83450000D03*
X98400000Y-83450000D03*
X99650000Y-84350000D03*
X95850000Y-81650000D03*
X100900000Y-85250000D03*
X97100000Y-81650000D03*
X99650000Y-83450000D03*
X94600000Y-84350000D03*
X99650000Y-85250000D03*
X94600000Y-82550000D03*
X98400000Y-82550000D03*
X100900000Y-82550000D03*
X98400000Y-85250000D03*
X94600000Y-81650000D03*
X95850000Y-85250000D03*
X95850000Y-83450000D03*
X100900000Y-84350000D03*
X100900000Y-81650000D03*
X97100000Y-82550000D03*
X99650000Y-81650000D03*
X99650000Y-82550000D03*
X97100000Y-84350000D03*
X97100000Y-85250000D03*
D24*
X87820000Y-104260000D02*
X87820000Y-105930000D01*
X87820000Y-105930000D02*
X89500000Y-107610000D01*
D25*
X94310000Y-107025000D02*
X94310000Y-104325000D01*
D24*
X93725000Y-107610000D02*
X94310000Y-107025000D01*
X89500000Y-107610000D02*
X93725000Y-107610000D01*
X88150000Y-83800000D02*
X88150000Y-85550000D01*
X88150000Y-85550000D02*
X89400000Y-86800000D01*
X89400000Y-86800000D02*
X94000000Y-86800000D01*
X95830000Y-84970000D02*
X95830000Y-83575000D01*
X94000000Y-86800000D02*
X95830000Y-84970000D01*
X88150000Y-83550000D02*
X88150000Y-83800000D01*
X86429001Y-81829001D02*
X88150000Y-83550000D01*
X86429001Y-77829001D02*
X86429001Y-81829001D01*
X85729001Y-77129001D02*
X86429001Y-77829001D01*
X84029001Y-67046799D02*
X84029001Y-70329001D01*
X83903201Y-66920999D02*
X84029001Y-67046799D01*
X80379001Y-66920999D02*
X83903201Y-66920999D01*
X79800000Y-67500000D02*
X80379001Y-66920999D01*
X85729001Y-72029001D02*
X85729001Y-77129001D01*
X84029001Y-70329001D02*
X85729001Y-72029001D01*
X79800000Y-67700000D02*
X79800000Y-67500000D01*
X79600000Y-88000000D02*
X79600000Y-89700000D01*
X83500000Y-87500000D02*
X80100000Y-87500000D01*
X83703201Y-87703201D02*
X83500000Y-87500000D01*
X83703201Y-87720999D02*
X83703201Y-87703201D01*
X83829001Y-87846799D02*
X83703201Y-87720999D01*
X83829001Y-91870999D02*
X83829001Y-87846799D01*
X80100000Y-87500000D02*
X79600000Y-88000000D01*
X86000000Y-94017798D02*
X83853201Y-91870999D01*
X83853201Y-91870999D02*
X83829001Y-91870999D01*
X86000000Y-99500000D02*
X86000000Y-94017798D01*
X86983011Y-100483011D02*
X86000000Y-99500000D01*
X86983011Y-103423011D02*
X86983011Y-100483011D01*
X87820000Y-104260000D02*
X86983011Y-103423011D01*
D25*
X118325000Y-107575000D02*
X118325000Y-103300000D01*
X117100000Y-108800000D02*
X118325000Y-107575000D01*
X82600000Y-98800000D02*
X84100000Y-98800000D01*
X80100000Y-96300000D02*
X82600000Y-98800000D01*
X86154001Y-107371203D02*
X87582798Y-108800000D01*
X86154001Y-100836799D02*
X86154001Y-107371203D01*
X80670000Y-92230000D02*
X80100000Y-92800000D01*
X81550000Y-92230000D02*
X80670000Y-92230000D01*
X84100000Y-98800000D02*
X84600000Y-99300000D01*
X80100000Y-92800000D02*
X80100000Y-96300000D01*
X84600000Y-99300000D02*
X84617202Y-99300000D01*
X84617202Y-99300000D02*
X86154001Y-100836799D01*
X87582798Y-108800000D02*
X117100000Y-108800000D01*
D24*
X82200000Y-91580000D02*
X81550000Y-92230000D01*
X82200000Y-89200000D02*
X82200000Y-91580000D01*
X82400000Y-70280000D02*
X81550000Y-71130000D01*
X82400000Y-68400000D02*
X82400000Y-70280000D01*
D25*
X75308797Y-69875999D02*
X74345999Y-68913201D01*
X80295999Y-69875999D02*
X75308797Y-69875999D01*
X81550000Y-71130000D02*
X80295999Y-69875999D01*
X74345999Y-66486799D02*
X75394819Y-65437979D01*
X74345999Y-68913201D02*
X74345999Y-66486799D01*
X75394819Y-65437979D02*
X114237979Y-65437979D01*
X118325000Y-69525000D02*
X118325000Y-73500000D01*
X114237979Y-65437979D02*
X118325000Y-69525000D01*
X93040000Y-104325000D02*
X93040000Y-101780000D01*
X93040000Y-101780000D02*
X92880000Y-101620000D01*
X89410000Y-101620000D02*
X88770000Y-102260000D01*
X92880000Y-101620000D02*
X89410000Y-101620000D01*
X88250000Y-102260000D02*
X88770000Y-102260000D01*
X88000000Y-102010000D02*
X88250000Y-102260000D01*
X88000000Y-95000000D02*
X88000000Y-102010000D01*
X84658011Y-87485614D02*
X83843387Y-86670990D01*
X84658011Y-91503413D02*
X84658011Y-87485614D01*
X88000000Y-94845402D02*
X84658011Y-91503413D01*
X88000000Y-95000000D02*
X88000000Y-94845402D01*
X75600000Y-89641980D02*
X78570990Y-86670990D01*
X75600000Y-89700000D02*
X75600000Y-89641980D01*
X83843387Y-86670990D02*
X78570990Y-86670990D01*
X93265000Y-83550000D02*
X93290000Y-83575000D01*
X93290000Y-83575000D02*
X93290000Y-81090000D01*
X93290000Y-81090000D02*
X92800000Y-80600000D01*
X92800000Y-80600000D02*
X89500000Y-80600000D01*
X89100000Y-81000000D02*
X89100000Y-81800000D01*
X89500000Y-80600000D02*
X89100000Y-81000000D01*
X84858011Y-66703412D02*
X84246588Y-66091989D01*
X84858011Y-69985614D02*
X84858011Y-66703412D01*
X86558011Y-71685614D02*
X84858011Y-69985614D01*
X77408011Y-66091989D02*
X75800000Y-67700000D01*
X84246588Y-66091989D02*
X77408011Y-66091989D01*
X88000000Y-73900000D02*
X86558011Y-72458011D01*
X88100000Y-73900000D02*
X88000000Y-73900000D01*
X86558011Y-72458011D02*
X86558011Y-71685614D01*
X87900000Y-74100000D02*
X88100000Y-73900000D01*
X87900000Y-81400000D02*
X87900000Y-74100000D01*
X88300000Y-81800000D02*
X87900000Y-81400000D01*
X89100000Y-81800000D02*
X88300000Y-81800000D01*
X75050000Y-73670000D02*
X75050000Y-79275000D01*
X76400000Y-80625000D02*
X84550000Y-80625000D01*
X75050000Y-79275000D02*
X76400000Y-80625000D01*
X83225000Y-83300000D02*
X84550000Y-84625000D01*
X78600000Y-83300000D02*
X83225000Y-83300000D01*
X82650000Y-104400000D02*
X84450000Y-106200000D01*
X78600000Y-104400000D02*
X82650000Y-104400000D01*
X75050000Y-99975000D02*
X75050000Y-94770000D01*
X77275000Y-102200000D02*
X75050000Y-99975000D01*
X84450000Y-102200000D02*
X77275000Y-102200000D01*
X88350000Y-68400000D02*
X88500000Y-68550000D01*
X86400000Y-68400000D02*
X88350000Y-68400000D01*
X83870000Y-73670000D02*
X84100000Y-73900000D01*
X81550000Y-73670000D02*
X83870000Y-73670000D01*
X88250000Y-89200000D02*
X88300000Y-89250000D01*
X86200000Y-89200000D02*
X88250000Y-89200000D01*
X81780000Y-95000000D02*
X81550000Y-94770000D01*
X84000000Y-95000000D02*
X81780000Y-95000000D01*
X103350000Y-98800000D02*
X102850000Y-98300000D01*
X103350000Y-100050000D02*
X103350000Y-98800000D01*
X90500000Y-91950000D02*
X90850000Y-92300000D01*
X88300000Y-91950000D02*
X90500000Y-91950000D01*
X103900000Y-77600000D02*
X103100000Y-76800000D01*
X104000000Y-77700000D02*
X103600000Y-77300000D01*
X104000000Y-79250000D02*
X104000000Y-77700000D01*
X91450000Y-71450000D02*
X91600000Y-71300000D01*
X91000000Y-71450000D02*
X91100000Y-71550000D01*
X90800000Y-71250000D02*
X91100000Y-71550000D01*
X88500000Y-71250000D02*
X90800000Y-71250000D01*
X77330000Y-71130000D02*
X75050000Y-71130000D01*
X78600000Y-78300000D02*
X78600000Y-72400000D01*
X78600000Y-72400000D02*
X77330000Y-71130000D01*
X77330000Y-92230000D02*
X75050000Y-92230000D01*
X78600000Y-99400000D02*
X78600000Y-93500000D01*
X78600000Y-93500000D02*
X77330000Y-92230000D01*
D26*
X114196257Y-99436983D02*
X114285955Y-99474137D01*
X114362976Y-99533238D01*
X114422077Y-99610259D01*
X114459231Y-99699957D01*
X114473000Y-99804542D01*
X114473000Y-106787886D01*
X114459231Y-106892471D01*
X114422077Y-106982169D01*
X114362976Y-107059190D01*
X114285955Y-107118291D01*
X114196257Y-107155445D01*
X114091672Y-107169214D01*
X94408328Y-107169214D01*
X94303743Y-107155445D01*
X94214045Y-107118291D01*
X94137024Y-107059190D01*
X94077923Y-106982169D01*
X94040769Y-106892471D01*
X94027000Y-106787886D01*
X94027000Y-102304542D01*
X94040769Y-102199957D01*
X94077923Y-102110259D01*
X94137024Y-102033238D01*
X94214045Y-101974137D01*
X94303743Y-101936983D01*
X94408328Y-101923214D01*
X104892893Y-101923214D01*
X104909470Y-101922128D01*
X105038880Y-101905091D01*
X105070904Y-101896510D01*
X105191494Y-101846560D01*
X105220206Y-101829983D01*
X105323760Y-101750523D01*
X105336250Y-101739570D01*
X107537472Y-99538348D01*
X107621155Y-99474136D01*
X107710850Y-99436983D01*
X107815435Y-99423214D01*
X114091672Y-99423214D01*
X114196257Y-99436983D01*
G04 #@! TA.AperFunction,Conductor*
D27*
G36*
X114196257Y-99436983D02*
G01*
X114285955Y-99474137D01*
X114362976Y-99533238D01*
X114422077Y-99610259D01*
X114459231Y-99699957D01*
X114473000Y-99804542D01*
X114473000Y-106787886D01*
X114459231Y-106892471D01*
X114422077Y-106982169D01*
X114362976Y-107059190D01*
X114285955Y-107118291D01*
X114196257Y-107155445D01*
X114091672Y-107169214D01*
X94408328Y-107169214D01*
X94303743Y-107155445D01*
X94214045Y-107118291D01*
X94137024Y-107059190D01*
X94077923Y-106982169D01*
X94040769Y-106892471D01*
X94027000Y-106787886D01*
X94027000Y-102304542D01*
X94040769Y-102199957D01*
X94077923Y-102110259D01*
X94137024Y-102033238D01*
X94214045Y-101974137D01*
X94303743Y-101936983D01*
X94408328Y-101923214D01*
X104892893Y-101923214D01*
X104909470Y-101922128D01*
X105038880Y-101905091D01*
X105070904Y-101896510D01*
X105191494Y-101846560D01*
X105220206Y-101829983D01*
X105323760Y-101750523D01*
X105336250Y-101739570D01*
X107537472Y-99538348D01*
X107621155Y-99474136D01*
X107710850Y-99436983D01*
X107815435Y-99423214D01*
X114091672Y-99423214D01*
X114196257Y-99436983D01*
G37*
G04 #@! TD.AperFunction*
D26*
X114196257Y-90440769D02*
X114285955Y-90477923D01*
X114362976Y-90537024D01*
X114422077Y-90614045D01*
X114459231Y-90703743D01*
X114473000Y-90808328D01*
X114473000Y-97791672D01*
X114459231Y-97896257D01*
X114422077Y-97985955D01*
X114362976Y-98062976D01*
X114285955Y-98122077D01*
X114196257Y-98159231D01*
X114091672Y-98173000D01*
X102108328Y-98173000D01*
X102003743Y-98159231D01*
X101914045Y-98122077D01*
X101837024Y-98062976D01*
X101777923Y-97985955D01*
X101740769Y-97896257D01*
X101727000Y-97791672D01*
X101727000Y-90808328D01*
X101740769Y-90703743D01*
X101777923Y-90614045D01*
X101837024Y-90537024D01*
X101914045Y-90477923D01*
X102003743Y-90440769D01*
X102108328Y-90427000D01*
X114091672Y-90427000D01*
X114196257Y-90440769D01*
G04 #@! TA.AperFunction,Conductor*
D27*
G36*
X114196257Y-90440769D02*
G01*
X114285955Y-90477923D01*
X114362976Y-90537024D01*
X114422077Y-90614045D01*
X114459231Y-90703743D01*
X114473000Y-90808328D01*
X114473000Y-97791672D01*
X114459231Y-97896257D01*
X114422077Y-97985955D01*
X114362976Y-98062976D01*
X114285955Y-98122077D01*
X114196257Y-98159231D01*
X114091672Y-98173000D01*
X102108328Y-98173000D01*
X102003743Y-98159231D01*
X101914045Y-98122077D01*
X101837024Y-98062976D01*
X101777923Y-97985955D01*
X101740769Y-97896257D01*
X101727000Y-97791672D01*
X101727000Y-90808328D01*
X101740769Y-90703743D01*
X101777923Y-90614045D01*
X101837024Y-90537024D01*
X101914045Y-90477923D01*
X102003743Y-90440769D01*
X102108328Y-90427000D01*
X114091672Y-90427000D01*
X114196257Y-90440769D01*
G37*
G04 #@! TD.AperFunction*
D26*
X103696257Y-88440769D02*
X103785955Y-88477923D01*
X103862976Y-88537024D01*
X103922077Y-88614045D01*
X103959231Y-88703743D01*
X103973000Y-88808328D01*
X103973000Y-98791672D01*
X103959231Y-98896257D01*
X103922077Y-98985955D01*
X103862976Y-99062976D01*
X103785955Y-99122077D01*
X103696257Y-99159231D01*
X103591672Y-99173000D01*
X90108328Y-99173000D01*
X90003743Y-99159231D01*
X89914045Y-99122077D01*
X89837024Y-99062976D01*
X89777923Y-98985955D01*
X89740769Y-98896257D01*
X89727000Y-98791672D01*
X89727000Y-88808328D01*
X89740769Y-88703743D01*
X89777923Y-88614045D01*
X89837024Y-88537024D01*
X89914045Y-88477923D01*
X90003743Y-88440769D01*
X90108328Y-88427000D01*
X103591672Y-88427000D01*
X103696257Y-88440769D01*
G04 #@! TA.AperFunction,Conductor*
D27*
G36*
X103696257Y-88440769D02*
G01*
X103785955Y-88477923D01*
X103862976Y-88537024D01*
X103922077Y-88614045D01*
X103959231Y-88703743D01*
X103973000Y-88808328D01*
X103973000Y-98791672D01*
X103959231Y-98896257D01*
X103922077Y-98985955D01*
X103862976Y-99062976D01*
X103785955Y-99122077D01*
X103696257Y-99159231D01*
X103591672Y-99173000D01*
X90108328Y-99173000D01*
X90003743Y-99159231D01*
X89914045Y-99122077D01*
X89837024Y-99062976D01*
X89777923Y-98985955D01*
X89740769Y-98896257D01*
X89727000Y-98791672D01*
X89727000Y-88808328D01*
X89740769Y-88703743D01*
X89777923Y-88614045D01*
X89837024Y-88537024D01*
X89914045Y-88477923D01*
X90003743Y-88440769D01*
X90108328Y-88427000D01*
X103591672Y-88427000D01*
X103696257Y-88440769D01*
G37*
G04 #@! TD.AperFunction*
D26*
X114321257Y-78540769D02*
X114410955Y-78577923D01*
X114487976Y-78637024D01*
X114547077Y-78714045D01*
X114584231Y-78803743D01*
X114598000Y-78908328D01*
X114598000Y-85891672D01*
X114584231Y-85996257D01*
X114547077Y-86085955D01*
X114487976Y-86162976D01*
X114410955Y-86222077D01*
X114321257Y-86259231D01*
X114216672Y-86273000D01*
X94683328Y-86273000D01*
X94578743Y-86259231D01*
X94489045Y-86222077D01*
X94412024Y-86162976D01*
X94352923Y-86085955D01*
X94315769Y-85996257D01*
X94302000Y-85891672D01*
X94302000Y-81408328D01*
X94315769Y-81303743D01*
X94352923Y-81214045D01*
X94412024Y-81137024D01*
X94489045Y-81077923D01*
X94578743Y-81040769D01*
X94683328Y-81027000D01*
X106017893Y-81027000D01*
X106034470Y-81025914D01*
X106163880Y-81008877D01*
X106195904Y-81000296D01*
X106316494Y-80950346D01*
X106345206Y-80933769D01*
X106448760Y-80854309D01*
X106461250Y-80843356D01*
X108662472Y-78642134D01*
X108746155Y-78577922D01*
X108835850Y-78540769D01*
X108940435Y-78527000D01*
X114216672Y-78527000D01*
X114321257Y-78540769D01*
G04 #@! TA.AperFunction,Conductor*
D27*
G36*
X114321257Y-78540769D02*
G01*
X114410955Y-78577923D01*
X114487976Y-78637024D01*
X114547077Y-78714045D01*
X114584231Y-78803743D01*
X114598000Y-78908328D01*
X114598000Y-85891672D01*
X114584231Y-85996257D01*
X114547077Y-86085955D01*
X114487976Y-86162976D01*
X114410955Y-86222077D01*
X114321257Y-86259231D01*
X114216672Y-86273000D01*
X94683328Y-86273000D01*
X94578743Y-86259231D01*
X94489045Y-86222077D01*
X94412024Y-86162976D01*
X94352923Y-86085955D01*
X94315769Y-85996257D01*
X94302000Y-85891672D01*
X94302000Y-81408328D01*
X94315769Y-81303743D01*
X94352923Y-81214045D01*
X94412024Y-81137024D01*
X94489045Y-81077923D01*
X94578743Y-81040769D01*
X94683328Y-81027000D01*
X106017893Y-81027000D01*
X106034470Y-81025914D01*
X106163880Y-81008877D01*
X106195904Y-81000296D01*
X106316494Y-80950346D01*
X106345206Y-80933769D01*
X106448760Y-80854309D01*
X106461250Y-80843356D01*
X108662472Y-78642134D01*
X108746155Y-78577922D01*
X108835850Y-78540769D01*
X108940435Y-78527000D01*
X114216672Y-78527000D01*
X114321257Y-78540769D01*
G37*
G04 #@! TD.AperFunction*
D26*
X114096257Y-69640769D02*
X114185955Y-69677923D01*
X114262976Y-69737024D01*
X114322077Y-69814045D01*
X114359231Y-69903743D01*
X114373000Y-70008328D01*
X114373000Y-76991672D01*
X114359231Y-77096257D01*
X114322077Y-77185955D01*
X114262976Y-77262976D01*
X114185955Y-77322077D01*
X114096257Y-77359231D01*
X113991672Y-77373000D01*
X102008328Y-77373000D01*
X101903743Y-77359231D01*
X101814045Y-77322077D01*
X101737024Y-77262976D01*
X101677923Y-77185955D01*
X101640769Y-77096257D01*
X101627000Y-76991672D01*
X101627000Y-70008328D01*
X101640769Y-69903743D01*
X101677923Y-69814045D01*
X101737024Y-69737024D01*
X101814045Y-69677923D01*
X101903743Y-69640769D01*
X102008328Y-69627000D01*
X113991672Y-69627000D01*
X114096257Y-69640769D01*
G04 #@! TA.AperFunction,Conductor*
D27*
G36*
X114096257Y-69640769D02*
G01*
X114185955Y-69677923D01*
X114262976Y-69737024D01*
X114322077Y-69814045D01*
X114359231Y-69903743D01*
X114373000Y-70008328D01*
X114373000Y-76991672D01*
X114359231Y-77096257D01*
X114322077Y-77185955D01*
X114262976Y-77262976D01*
X114185955Y-77322077D01*
X114096257Y-77359231D01*
X113991672Y-77373000D01*
X102008328Y-77373000D01*
X101903743Y-77359231D01*
X101814045Y-77322077D01*
X101737024Y-77262976D01*
X101677923Y-77185955D01*
X101640769Y-77096257D01*
X101627000Y-76991672D01*
X101627000Y-70008328D01*
X101640769Y-69903743D01*
X101677923Y-69814045D01*
X101737024Y-69737024D01*
X101814045Y-69677923D01*
X101903743Y-69640769D01*
X102008328Y-69627000D01*
X113991672Y-69627000D01*
X114096257Y-69640769D01*
G37*
G04 #@! TD.AperFunction*
D26*
X103919709Y-67390769D02*
X104009407Y-67427923D01*
X104086428Y-67487024D01*
X104145529Y-67564045D01*
X104182683Y-67653743D01*
X104196452Y-67758328D01*
X104196452Y-78241672D01*
X104182683Y-78346257D01*
X104145529Y-78435955D01*
X104086428Y-78512976D01*
X104009407Y-78572077D01*
X103919709Y-78609231D01*
X103815124Y-78623000D01*
X90331780Y-78623000D01*
X90227195Y-78609231D01*
X90137497Y-78572077D01*
X90060476Y-78512976D01*
X90001375Y-78435955D01*
X89964221Y-78346257D01*
X89950452Y-78241672D01*
X89950452Y-67758328D01*
X89964221Y-67653743D01*
X90001375Y-67564045D01*
X90060476Y-67487024D01*
X90137497Y-67427923D01*
X90227195Y-67390769D01*
X90331780Y-67377000D01*
X103815124Y-67377000D01*
X103919709Y-67390769D01*
G04 #@! TA.AperFunction,Conductor*
D27*
G36*
X103919709Y-67390769D02*
G01*
X104009407Y-67427923D01*
X104086428Y-67487024D01*
X104145529Y-67564045D01*
X104182683Y-67653743D01*
X104196452Y-67758328D01*
X104196452Y-78241672D01*
X104182683Y-78346257D01*
X104145529Y-78435955D01*
X104086428Y-78512976D01*
X104009407Y-78572077D01*
X103919709Y-78609231D01*
X103815124Y-78623000D01*
X90331780Y-78623000D01*
X90227195Y-78609231D01*
X90137497Y-78572077D01*
X90060476Y-78512976D01*
X90001375Y-78435955D01*
X89964221Y-78346257D01*
X89950452Y-78241672D01*
X89950452Y-67758328D01*
X89964221Y-67653743D01*
X90001375Y-67564045D01*
X90060476Y-67487024D01*
X90137497Y-67427923D01*
X90227195Y-67390769D01*
X90331780Y-67377000D01*
X103815124Y-67377000D01*
X103919709Y-67390769D01*
G37*
G04 #@! TD.AperFunction*
M02*
