M48
; DRILL file {KiCad (5.1.10)-1} date 07/01/21 22:43:28
; FORMAT={-:-/ absolute / inch / decimal}
; #@! TF.CreationDate,2021-07-01T22:43:28-04:00
; #@! TF.GenerationSoftware,Kicad,Pcbnew,(5.1.10)-1
; #@! TF.FileFunction,Plated,1,2,PTH
FMAT,2
INCH
T1C0.0157
T2C0.0591
T3C0.0650
T4C0.1811
%
G90
G05
T1
X3.7146Y-4.0315
X3.7146Y-4.0669
X3.7146Y-4.1378
X3.7244Y-3.2146
X3.7244Y-3.25
X3.7244Y-3.3209
X3.7638Y-4.0315
X3.7638Y-4.0669
X3.7638Y-4.1024
X3.7638Y-4.1378
X3.7638Y-4.1732
X3.7736Y-3.2146
X3.7736Y-3.25
X3.7736Y-3.2854
X3.7736Y-3.3209
X3.7736Y-3.3563
X3.813Y-4.0315
X3.813Y-4.0669
X3.813Y-4.1024
X3.813Y-4.1378
X3.813Y-4.1732
X3.8228Y-3.2146
X3.8228Y-3.25
X3.8228Y-3.2854
X3.8228Y-3.3209
X3.8228Y-3.3563
X3.8642Y-4.0315
X3.8642Y-4.0669
X3.8642Y-4.1024
X3.8642Y-4.1378
X3.8642Y-4.1732
X3.874Y-3.2146
X3.874Y-3.25
X3.874Y-3.2854
X3.874Y-3.3209
X3.874Y-3.3563
X3.9134Y-4.0315
X3.9134Y-4.0669
X3.9134Y-4.1024
X3.9134Y-4.1378
X3.9134Y-4.1732
X3.9232Y-3.2146
X3.9232Y-3.25
X3.9232Y-3.2854
X3.9232Y-3.3209
X3.9232Y-3.3563
X3.9626Y-4.0315
X3.9626Y-4.0669
X3.9626Y-4.1024
X3.9626Y-4.1378
X3.9626Y-4.1732
X3.9724Y-3.2146
X3.9724Y-3.25
X3.9724Y-3.2854
X3.9724Y-3.3209
X3.9724Y-3.3563
T2
X3.5768Y-3.5157
X3.5768Y-3.6339
X3.5768Y-3.752
X3.5768Y-3.8701
X3.5866Y-2.6988
X3.5866Y-2.8169
X3.5866Y-2.935
X3.5866Y-3.0531
X3.6949Y-3.5157
X3.6949Y-3.6339
X3.6949Y-3.752
X3.6949Y-3.8701
X3.7047Y-2.6988
X3.7047Y-2.8169
X3.7047Y-2.935
X3.7047Y-3.0531
X3.813Y-3.5157
X3.813Y-3.6339
X3.813Y-3.752
X3.813Y-3.8701
X3.8228Y-2.6988
X3.8228Y-2.8169
X3.8228Y-2.935
X3.8228Y-3.0531
X3.9311Y-3.5157
X3.9311Y-3.6339
X3.9311Y-3.752
X3.9311Y-3.8701
X3.9409Y-2.6988
X3.9409Y-2.8169
X3.9409Y-2.935
X3.9409Y-3.0531
X4.0492Y-3.5157
X4.0492Y-3.6339
X4.0492Y-3.752
X4.0492Y-3.8701
X4.0591Y-2.6988
X4.0591Y-2.8169
X4.0591Y-2.935
X4.0591Y-3.0531
T3
X3.0945Y-3.0827
X3.0945Y-3.2795
X3.0945Y-3.9134
X3.0945Y-4.1102
T4
X4.3848Y-2.8937
X4.3848Y-3.248
X4.3848Y-3.7126
X4.3848Y-4.0669
X4.6585Y-2.8937
X4.6585Y-3.248
X4.6585Y-3.7126
X4.6585Y-4.0669
T0
M30
