G04 #@! TF.GenerationSoftware,KiCad,Pcbnew,(5.1.10)-1*
G04 #@! TF.CreationDate,2021-07-01T22:43:24-04:00*
G04 #@! TF.ProjectId,MOSTERFET,4d4f5354-4552-4464-9554-2e6b69636164,1.2*
G04 #@! TF.SameCoordinates,Original*
G04 #@! TF.FileFunction,Soldermask,Top*
G04 #@! TF.FilePolarity,Negative*
%FSLAX46Y46*%
G04 Gerber Fmt 4.6, Leading zero omitted, Abs format (unit mm)*
G04 Created by KiCad (PCBNEW (5.1.10)-1) date 2021-07-01 22:43:24*
%MOMM*%
%LPD*%
G01*
G04 APERTURE LIST*
G04 #@! TA.AperFunction,Profile*
%ADD10C,0.150000*%
G04 #@! TD*
%ADD11R,0.800000X4.600000*%
%ADD12R,3.000000X3.000000*%
%ADD13R,0.800000X0.900000*%
%ADD14R,1.250000X1.500000*%
%ADD15C,4.000000*%
%ADD16O,3.000000X2.350000*%
%ADD17R,3.000000X2.350000*%
%ADD18C,6.000000*%
%ADD19R,2.000000X1.700000*%
%ADD20R,1.600000X1.600000*%
%ADD21R,1.300000X1.500000*%
%ADD22R,2.500000X2.000000*%
%ADD23C,0.254000*%
%ADD24C,0.100000*%
G04 APERTURE END LIST*
D10*
X73000000Y-61000000D02*
G75*
G02*
X77000000Y-57000000I4000000J0D01*
G01*
X77000000Y-117000000D02*
G75*
G02*
X73000000Y-113000000I0J4000000D01*
G01*
X123000000Y-113000000D02*
G75*
G02*
X119000000Y-117000000I-4000000J0D01*
G01*
X119000000Y-57000000D02*
G75*
G02*
X123000000Y-61000000I0J-4000000D01*
G01*
X77000000Y-117000000D02*
X119000000Y-117000000D01*
X77000000Y-57000000D02*
X119000000Y-57000000D01*
X123000000Y-113000000D02*
X123000000Y-61000000D01*
X73000000Y-113000000D02*
X73000000Y-61000000D01*
D11*
X100910000Y-83575000D03*
X99640000Y-83575000D03*
X98370000Y-83575000D03*
X95830000Y-83575000D03*
X94560000Y-83575000D03*
X93290000Y-83575000D03*
D12*
X103100000Y-77550000D03*
X103100000Y-74550000D03*
X103100000Y-71550000D03*
X103100000Y-68550000D03*
X91100000Y-77550000D03*
X91100000Y-74550000D03*
X91100000Y-68550000D03*
X91100000Y-71550000D03*
X100100000Y-68550000D03*
X97100000Y-68550000D03*
X94100000Y-68550000D03*
X94100000Y-71550000D03*
X100100000Y-71550000D03*
X97100000Y-71550000D03*
X94100000Y-74550000D03*
X100100000Y-74550000D03*
X97100000Y-74550000D03*
X94100000Y-77550000D03*
X100100000Y-77550000D03*
X97100000Y-77550000D03*
D13*
X87820000Y-104260000D03*
X89720000Y-104260000D03*
X88770000Y-102260000D03*
D14*
X103500000Y-82000000D03*
X103500000Y-79500000D03*
D11*
X100660000Y-104325000D03*
X99390000Y-104325000D03*
X98120000Y-104325000D03*
X95580000Y-104325000D03*
X94310000Y-104325000D03*
X93040000Y-104325000D03*
D12*
X102850000Y-98300000D03*
X102850000Y-95300000D03*
X102850000Y-92300000D03*
X102850000Y-89300000D03*
X90850000Y-98300000D03*
X90850000Y-95300000D03*
X90850000Y-89300000D03*
X90850000Y-92300000D03*
X99850000Y-89300000D03*
X96850000Y-89300000D03*
X93850000Y-89300000D03*
X93850000Y-92300000D03*
X99850000Y-92300000D03*
X96850000Y-92300000D03*
X93850000Y-95300000D03*
X99850000Y-95300000D03*
X96850000Y-95300000D03*
X93850000Y-98300000D03*
X99850000Y-98300000D03*
X96850000Y-98300000D03*
D15*
X77000000Y-113000000D03*
X119000000Y-61000000D03*
D13*
X89100000Y-81800000D03*
X90050000Y-83800000D03*
X88150000Y-83800000D03*
D16*
X78600000Y-83300000D03*
D17*
X78600000Y-78300000D03*
D18*
X111375000Y-73500000D03*
X118325000Y-73500000D03*
D19*
X82400000Y-68400000D03*
X86400000Y-68400000D03*
D18*
X111375000Y-82500000D03*
X118325000Y-82500000D03*
D20*
X81550000Y-73670000D03*
X75050000Y-73670000D03*
X75050000Y-71130000D03*
X81550000Y-71130000D03*
D19*
X84100000Y-73900000D03*
X88100000Y-73900000D03*
D21*
X88500000Y-68550000D03*
X88500000Y-71250000D03*
D22*
X84550000Y-80625000D03*
X84550000Y-84625000D03*
D19*
X84000000Y-95000000D03*
X88000000Y-95000000D03*
D22*
X84450000Y-106200000D03*
X84450000Y-102200000D03*
D18*
X118325000Y-103300000D03*
X111375000Y-103300000D03*
D20*
X81550000Y-92230000D03*
X75050000Y-92230000D03*
X75050000Y-94770000D03*
X81550000Y-94770000D03*
D21*
X88300000Y-91950000D03*
X88300000Y-89250000D03*
D14*
X103350000Y-100050000D03*
X103350000Y-102550000D03*
D17*
X78600000Y-99400000D03*
D16*
X78600000Y-104400000D03*
D18*
X118325000Y-94300000D03*
X111375000Y-94300000D03*
D19*
X86200000Y-89200000D03*
X82200000Y-89200000D03*
D15*
X119000000Y-113000000D03*
X77000000Y-61000000D03*
D19*
X75600000Y-89700000D03*
X79600000Y-89700000D03*
X79800000Y-67700000D03*
X75800000Y-67700000D03*
D23*
X101323000Y-85832993D02*
X94277000Y-85832993D01*
X94277000Y-81386993D01*
X101323000Y-81386993D01*
X101323000Y-85832993D01*
D24*
G36*
X101323000Y-85832993D02*
G01*
X94277000Y-85832993D01*
X94277000Y-81386993D01*
X101323000Y-81386993D01*
X101323000Y-85832993D01*
G37*
D23*
X101073000Y-106573000D02*
X94027000Y-106573000D01*
X94027000Y-102127000D01*
X101073000Y-102127000D01*
X101073000Y-106573000D01*
D24*
G36*
X101073000Y-106573000D02*
G01*
X94027000Y-106573000D01*
X94027000Y-102127000D01*
X101073000Y-102127000D01*
X101073000Y-106573000D01*
G37*
M02*
