G04 #@! TF.GenerationSoftware,KiCad,Pcbnew,(5.1.5)-3*
G04 #@! TF.CreationDate,2020-03-23T22:29:38-04:00*
G04 #@! TF.ProjectId,MOSTERFET,4d4f5354-4552-4464-9554-2e6b69636164,1.1*
G04 #@! TF.SameCoordinates,Original*
G04 #@! TF.FileFunction,Copper,L2,Bot*
G04 #@! TF.FilePolarity,Positive*
%FSLAX46Y46*%
G04 Gerber Fmt 4.6, Leading zero omitted, Abs format (unit mm)*
G04 Created by KiCad (PCBNEW (5.1.5)-3) date 2020-03-23 22:29:38*
%MOMM*%
%LPD*%
G04 APERTURE LIST*
%ADD10C,0.150000*%
%ADD11C,0.300000*%
%ADD12C,0.381000*%
%ADD13R,3.000000X3.000000*%
%ADD14C,4.000000*%
%ADD15O,3.000000X2.350000*%
%ADD16R,3.000000X2.350000*%
%ADD17C,6.000000*%
%ADD18C,0.600000*%
%ADD19C,0.400000*%
%ADD20C,6.000000*%
%ADD21C,0.254000*%
G04 APERTURE END LIST*
D10*
X74666666Y-117000000D02*
G75*
G03X74666666Y-117000000I-1666666J0D01*
G01*
X70500000Y-117000000D02*
X75500000Y-117000000D01*
X73000000Y-114500000D02*
X73000000Y-119500000D01*
D11*
X83378571Y-67052142D02*
X81878571Y-67052142D01*
X82950000Y-67552142D01*
X81878571Y-68052142D01*
X83378571Y-68052142D01*
X81878571Y-69052142D02*
X81878571Y-69337857D01*
X81950000Y-69480714D01*
X82092857Y-69623571D01*
X82378571Y-69695000D01*
X82878571Y-69695000D01*
X83164285Y-69623571D01*
X83307142Y-69480714D01*
X83378571Y-69337857D01*
X83378571Y-69052142D01*
X83307142Y-68909285D01*
X83164285Y-68766428D01*
X82878571Y-68695000D01*
X82378571Y-68695000D01*
X82092857Y-68766428D01*
X81950000Y-68909285D01*
X81878571Y-69052142D01*
X83307142Y-70266428D02*
X83378571Y-70480714D01*
X83378571Y-70837857D01*
X83307142Y-70980714D01*
X83235714Y-71052142D01*
X83092857Y-71123571D01*
X82950000Y-71123571D01*
X82807142Y-71052142D01*
X82735714Y-70980714D01*
X82664285Y-70837857D01*
X82592857Y-70552142D01*
X82521428Y-70409285D01*
X82450000Y-70337857D01*
X82307142Y-70266428D01*
X82164285Y-70266428D01*
X82021428Y-70337857D01*
X81950000Y-70409285D01*
X81878571Y-70552142D01*
X81878571Y-70909285D01*
X81950000Y-71123571D01*
X81878571Y-71552142D02*
X81878571Y-72409285D01*
X83378571Y-71980714D02*
X81878571Y-71980714D01*
X82592857Y-72909285D02*
X82592857Y-73409285D01*
X83378571Y-73623571D02*
X83378571Y-72909285D01*
X81878571Y-72909285D01*
X81878571Y-73623571D01*
X83378571Y-75123571D02*
X82664285Y-74623571D01*
X83378571Y-74266428D02*
X81878571Y-74266428D01*
X81878571Y-74837857D01*
X81950000Y-74980714D01*
X82021428Y-75052142D01*
X82164285Y-75123571D01*
X82378571Y-75123571D01*
X82521428Y-75052142D01*
X82592857Y-74980714D01*
X82664285Y-74837857D01*
X82664285Y-74266428D01*
X82592857Y-77409285D02*
X82592857Y-76909285D01*
X83378571Y-76909285D02*
X81878571Y-76909285D01*
X81878571Y-77623571D01*
X82592857Y-78195000D02*
X82592857Y-78695000D01*
X83378571Y-78909285D02*
X83378571Y-78195000D01*
X81878571Y-78195000D01*
X81878571Y-78909285D01*
X81878571Y-79337857D02*
X81878571Y-80195000D01*
X83378571Y-79766428D02*
X81878571Y-79766428D01*
X83378571Y-81837857D02*
X82378571Y-81837857D01*
X81878571Y-81837857D02*
X81950000Y-81766428D01*
X82021428Y-81837857D01*
X81950000Y-81909285D01*
X81878571Y-81837857D01*
X82021428Y-81837857D01*
X83307142Y-82480714D02*
X83378571Y-82623571D01*
X83378571Y-82909285D01*
X83307142Y-83052142D01*
X83164285Y-83123571D01*
X83092857Y-83123571D01*
X82950000Y-83052142D01*
X82878571Y-82909285D01*
X82878571Y-82695000D01*
X82807142Y-82552142D01*
X82664285Y-82480714D01*
X82592857Y-82480714D01*
X82450000Y-82552142D01*
X82378571Y-82695000D01*
X82378571Y-82909285D01*
X82450000Y-83052142D01*
X83378571Y-85123571D02*
X83307142Y-84980714D01*
X83164285Y-84909285D01*
X81878571Y-84909285D01*
X83378571Y-85695000D02*
X82378571Y-85695000D01*
X81878571Y-85695000D02*
X81950000Y-85623571D01*
X82021428Y-85695000D01*
X81950000Y-85766428D01*
X81878571Y-85695000D01*
X82021428Y-85695000D01*
X83307142Y-87052142D02*
X83378571Y-86909285D01*
X83378571Y-86623571D01*
X83307142Y-86480714D01*
X83235714Y-86409285D01*
X83092857Y-86337857D01*
X82664285Y-86337857D01*
X82521428Y-86409285D01*
X82450000Y-86480714D01*
X82378571Y-86623571D01*
X82378571Y-86909285D01*
X82450000Y-87052142D01*
X83307142Y-88266428D02*
X83378571Y-88123571D01*
X83378571Y-87837857D01*
X83307142Y-87695000D01*
X83164285Y-87623571D01*
X82592857Y-87623571D01*
X82450000Y-87695000D01*
X82378571Y-87837857D01*
X82378571Y-88123571D01*
X82450000Y-88266428D01*
X82592857Y-88337857D01*
X82735714Y-88337857D01*
X82878571Y-87623571D01*
X82378571Y-88980714D02*
X83378571Y-88980714D01*
X82521428Y-88980714D02*
X82450000Y-89052142D01*
X82378571Y-89195000D01*
X82378571Y-89409285D01*
X82450000Y-89552142D01*
X82592857Y-89623571D01*
X83378571Y-89623571D01*
X83307142Y-90266428D02*
X83378571Y-90409285D01*
X83378571Y-90695000D01*
X83307142Y-90837857D01*
X83164285Y-90909285D01*
X83092857Y-90909285D01*
X82950000Y-90837857D01*
X82878571Y-90695000D01*
X82878571Y-90480714D01*
X82807142Y-90337857D01*
X82664285Y-90266428D01*
X82592857Y-90266428D01*
X82450000Y-90337857D01*
X82378571Y-90480714D01*
X82378571Y-90695000D01*
X82450000Y-90837857D01*
X83307142Y-92123571D02*
X83378571Y-91980714D01*
X83378571Y-91695000D01*
X83307142Y-91552142D01*
X83164285Y-91480714D01*
X82592857Y-91480714D01*
X82450000Y-91552142D01*
X82378571Y-91695000D01*
X82378571Y-91980714D01*
X82450000Y-92123571D01*
X82592857Y-92195000D01*
X82735714Y-92195000D01*
X82878571Y-91480714D01*
X83378571Y-93480714D02*
X81878571Y-93480714D01*
X83307142Y-93480714D02*
X83378571Y-93337857D01*
X83378571Y-93052142D01*
X83307142Y-92909285D01*
X83235714Y-92837857D01*
X83092857Y-92766428D01*
X82664285Y-92766428D01*
X82521428Y-92837857D01*
X82450000Y-92909285D01*
X82378571Y-93052142D01*
X82378571Y-93337857D01*
X82450000Y-93480714D01*
X82378571Y-95980714D02*
X83378571Y-95980714D01*
X82378571Y-95337857D02*
X83164285Y-95337857D01*
X83307142Y-95409285D01*
X83378571Y-95552142D01*
X83378571Y-95766428D01*
X83307142Y-95909285D01*
X83235714Y-95980714D01*
X82378571Y-96695000D02*
X83378571Y-96695000D01*
X82521428Y-96695000D02*
X82450000Y-96766428D01*
X82378571Y-96909285D01*
X82378571Y-97123571D01*
X82450000Y-97266428D01*
X82592857Y-97337857D01*
X83378571Y-97337857D01*
X83378571Y-98695000D02*
X81878571Y-98695000D01*
X83307142Y-98695000D02*
X83378571Y-98552142D01*
X83378571Y-98266428D01*
X83307142Y-98123571D01*
X83235714Y-98052142D01*
X83092857Y-97980714D01*
X82664285Y-97980714D01*
X82521428Y-98052142D01*
X82450000Y-98123571D01*
X82378571Y-98266428D01*
X82378571Y-98552142D01*
X82450000Y-98695000D01*
X83307142Y-99980714D02*
X83378571Y-99837857D01*
X83378571Y-99552142D01*
X83307142Y-99409285D01*
X83164285Y-99337857D01*
X82592857Y-99337857D01*
X82450000Y-99409285D01*
X82378571Y-99552142D01*
X82378571Y-99837857D01*
X82450000Y-99980714D01*
X82592857Y-100052142D01*
X82735714Y-100052142D01*
X82878571Y-99337857D01*
X83378571Y-100695000D02*
X82378571Y-100695000D01*
X82664285Y-100695000D02*
X82521428Y-100766428D01*
X82450000Y-100837857D01*
X82378571Y-100980714D01*
X82378571Y-101123571D01*
X83378571Y-103409285D02*
X82592857Y-103409285D01*
X82450000Y-103337857D01*
X82378571Y-103195000D01*
X82378571Y-102909285D01*
X82450000Y-102766428D01*
X83307142Y-103409285D02*
X83378571Y-103266428D01*
X83378571Y-102909285D01*
X83307142Y-102766428D01*
X83164285Y-102695000D01*
X83021428Y-102695000D01*
X82878571Y-102766428D01*
X82807142Y-102909285D01*
X82807142Y-103266428D01*
X82735714Y-103409285D01*
X85785714Y-67909285D02*
X85857142Y-67837857D01*
X85928571Y-67623571D01*
X85928571Y-67480714D01*
X85857142Y-67266428D01*
X85714285Y-67123571D01*
X85571428Y-67052142D01*
X85285714Y-66980714D01*
X85071428Y-66980714D01*
X84785714Y-67052142D01*
X84642857Y-67123571D01*
X84500000Y-67266428D01*
X84428571Y-67480714D01*
X84428571Y-67623571D01*
X84500000Y-67837857D01*
X84571428Y-67909285D01*
X85928571Y-68552142D02*
X84928571Y-68552142D01*
X85214285Y-68552142D02*
X85071428Y-68623571D01*
X85000000Y-68695000D01*
X84928571Y-68837857D01*
X84928571Y-68980714D01*
X85857142Y-70052142D02*
X85928571Y-69909285D01*
X85928571Y-69623571D01*
X85857142Y-69480714D01*
X85714285Y-69409285D01*
X85142857Y-69409285D01*
X85000000Y-69480714D01*
X84928571Y-69623571D01*
X84928571Y-69909285D01*
X85000000Y-70052142D01*
X85142857Y-70123571D01*
X85285714Y-70123571D01*
X85428571Y-69409285D01*
X85928571Y-71409285D02*
X85142857Y-71409285D01*
X85000000Y-71337857D01*
X84928571Y-71195000D01*
X84928571Y-70909285D01*
X85000000Y-70766428D01*
X85857142Y-71409285D02*
X85928571Y-71266428D01*
X85928571Y-70909285D01*
X85857142Y-70766428D01*
X85714285Y-70695000D01*
X85571428Y-70695000D01*
X85428571Y-70766428D01*
X85357142Y-70909285D01*
X85357142Y-71266428D01*
X85285714Y-71409285D01*
X84928571Y-71909285D02*
X84928571Y-72480714D01*
X84428571Y-72123571D02*
X85714285Y-72123571D01*
X85857142Y-72195000D01*
X85928571Y-72337857D01*
X85928571Y-72480714D01*
X85928571Y-72980714D02*
X84928571Y-72980714D01*
X84428571Y-72980714D02*
X84500000Y-72909285D01*
X84571428Y-72980714D01*
X84500000Y-73052142D01*
X84428571Y-72980714D01*
X84571428Y-72980714D01*
X84928571Y-73552142D02*
X85928571Y-73909285D01*
X84928571Y-74266428D01*
X85857142Y-75409285D02*
X85928571Y-75266428D01*
X85928571Y-74980714D01*
X85857142Y-74837857D01*
X85714285Y-74766428D01*
X85142857Y-74766428D01*
X85000000Y-74837857D01*
X84928571Y-74980714D01*
X84928571Y-75266428D01*
X85000000Y-75409285D01*
X85142857Y-75480714D01*
X85285714Y-75480714D01*
X85428571Y-74766428D01*
X85785714Y-78123571D02*
X85857142Y-78052142D01*
X85928571Y-77837857D01*
X85928571Y-77695000D01*
X85857142Y-77480714D01*
X85714285Y-77337857D01*
X85571428Y-77266428D01*
X85285714Y-77195000D01*
X85071428Y-77195000D01*
X84785714Y-77266428D01*
X84642857Y-77337857D01*
X84500000Y-77480714D01*
X84428571Y-77695000D01*
X84428571Y-77837857D01*
X84500000Y-78052142D01*
X84571428Y-78123571D01*
X85928571Y-78980714D02*
X85857142Y-78837857D01*
X85785714Y-78766428D01*
X85642857Y-78695000D01*
X85214285Y-78695000D01*
X85071428Y-78766428D01*
X85000000Y-78837857D01*
X84928571Y-78980714D01*
X84928571Y-79195000D01*
X85000000Y-79337857D01*
X85071428Y-79409285D01*
X85214285Y-79480714D01*
X85642857Y-79480714D01*
X85785714Y-79409285D01*
X85857142Y-79337857D01*
X85928571Y-79195000D01*
X85928571Y-78980714D01*
X85928571Y-80123571D02*
X84928571Y-80123571D01*
X85071428Y-80123571D02*
X85000000Y-80195000D01*
X84928571Y-80337857D01*
X84928571Y-80552142D01*
X85000000Y-80695000D01*
X85142857Y-80766428D01*
X85928571Y-80766428D01*
X85142857Y-80766428D02*
X85000000Y-80837857D01*
X84928571Y-80980714D01*
X84928571Y-81195000D01*
X85000000Y-81337857D01*
X85142857Y-81409285D01*
X85928571Y-81409285D01*
X85928571Y-82123571D02*
X84928571Y-82123571D01*
X85071428Y-82123571D02*
X85000000Y-82195000D01*
X84928571Y-82337857D01*
X84928571Y-82552142D01*
X85000000Y-82695000D01*
X85142857Y-82766428D01*
X85928571Y-82766428D01*
X85142857Y-82766428D02*
X85000000Y-82837857D01*
X84928571Y-82980714D01*
X84928571Y-83195000D01*
X85000000Y-83337857D01*
X85142857Y-83409285D01*
X85928571Y-83409285D01*
X85928571Y-84337857D02*
X85857142Y-84195000D01*
X85785714Y-84123571D01*
X85642857Y-84052142D01*
X85214285Y-84052142D01*
X85071428Y-84123571D01*
X85000000Y-84195000D01*
X84928571Y-84337857D01*
X84928571Y-84552142D01*
X85000000Y-84695000D01*
X85071428Y-84766428D01*
X85214285Y-84837857D01*
X85642857Y-84837857D01*
X85785714Y-84766428D01*
X85857142Y-84695000D01*
X85928571Y-84552142D01*
X85928571Y-84337857D01*
X84928571Y-85480714D02*
X85928571Y-85480714D01*
X85071428Y-85480714D02*
X85000000Y-85552142D01*
X84928571Y-85695000D01*
X84928571Y-85909285D01*
X85000000Y-86052142D01*
X85142857Y-86123571D01*
X85928571Y-86123571D01*
X85857142Y-86766428D02*
X85928571Y-86909285D01*
X85928571Y-87195000D01*
X85857142Y-87337857D01*
X85714285Y-87409285D01*
X85642857Y-87409285D01*
X85500000Y-87337857D01*
X85428571Y-87195000D01*
X85428571Y-86980714D01*
X85357142Y-86837857D01*
X85214285Y-86766428D01*
X85142857Y-86766428D01*
X85000000Y-86837857D01*
X84928571Y-86980714D01*
X84928571Y-87195000D01*
X85000000Y-87337857D01*
X85500000Y-89123571D02*
X85500000Y-89837857D01*
X85928571Y-88980714D02*
X84428571Y-89480714D01*
X85928571Y-89980714D01*
X84928571Y-90266428D02*
X84928571Y-90837857D01*
X84428571Y-90480714D02*
X85714285Y-90480714D01*
X85857142Y-90552142D01*
X85928571Y-90695000D01*
X85928571Y-90837857D01*
X84928571Y-91123571D02*
X84928571Y-91695000D01*
X84428571Y-91337857D02*
X85714285Y-91337857D01*
X85857142Y-91409285D01*
X85928571Y-91552142D01*
X85928571Y-91695000D01*
X85928571Y-92195000D02*
X84928571Y-92195000D01*
X85214285Y-92195000D02*
X85071428Y-92266428D01*
X85000000Y-92337857D01*
X84928571Y-92480714D01*
X84928571Y-92623571D01*
X85928571Y-93123571D02*
X84928571Y-93123571D01*
X84428571Y-93123571D02*
X84500000Y-93052142D01*
X84571428Y-93123571D01*
X84500000Y-93195000D01*
X84428571Y-93123571D01*
X84571428Y-93123571D01*
X85928571Y-93837857D02*
X84428571Y-93837857D01*
X85000000Y-93837857D02*
X84928571Y-93980714D01*
X84928571Y-94266428D01*
X85000000Y-94409285D01*
X85071428Y-94480714D01*
X85214285Y-94552142D01*
X85642857Y-94552142D01*
X85785714Y-94480714D01*
X85857142Y-94409285D01*
X85928571Y-94266428D01*
X85928571Y-93980714D01*
X85857142Y-93837857D01*
X84928571Y-95837857D02*
X85928571Y-95837857D01*
X84928571Y-95195000D02*
X85714285Y-95195000D01*
X85857142Y-95266428D01*
X85928571Y-95409285D01*
X85928571Y-95623571D01*
X85857142Y-95766428D01*
X85785714Y-95837857D01*
X84928571Y-96337857D02*
X84928571Y-96909285D01*
X84428571Y-96552142D02*
X85714285Y-96552142D01*
X85857142Y-96623571D01*
X85928571Y-96766428D01*
X85928571Y-96909285D01*
X85928571Y-97409285D02*
X84928571Y-97409285D01*
X84428571Y-97409285D02*
X84500000Y-97337857D01*
X84571428Y-97409285D01*
X84500000Y-97480714D01*
X84428571Y-97409285D01*
X84571428Y-97409285D01*
X85928571Y-98337857D02*
X85857142Y-98195000D01*
X85785714Y-98123571D01*
X85642857Y-98052142D01*
X85214285Y-98052142D01*
X85071428Y-98123571D01*
X85000000Y-98195000D01*
X84928571Y-98337857D01*
X84928571Y-98552142D01*
X85000000Y-98695000D01*
X85071428Y-98766428D01*
X85214285Y-98837857D01*
X85642857Y-98837857D01*
X85785714Y-98766428D01*
X85857142Y-98695000D01*
X85928571Y-98552142D01*
X85928571Y-98337857D01*
X84928571Y-99480714D02*
X85928571Y-99480714D01*
X85071428Y-99480714D02*
X85000000Y-99552142D01*
X84928571Y-99695000D01*
X84928571Y-99909285D01*
X85000000Y-100052142D01*
X85142857Y-100123571D01*
X85928571Y-100123571D01*
X85357142Y-100837857D02*
X85357142Y-101980714D01*
X85857142Y-102623571D02*
X85928571Y-102837857D01*
X85928571Y-103195000D01*
X85857142Y-103337857D01*
X85785714Y-103409285D01*
X85642857Y-103480714D01*
X85500000Y-103480714D01*
X85357142Y-103409285D01*
X85285714Y-103337857D01*
X85214285Y-103195000D01*
X85142857Y-102909285D01*
X85071428Y-102766428D01*
X85000000Y-102695000D01*
X84857142Y-102623571D01*
X84714285Y-102623571D01*
X84571428Y-102695000D01*
X84500000Y-102766428D01*
X84428571Y-102909285D01*
X84428571Y-103266428D01*
X84500000Y-103480714D01*
X85928571Y-104123571D02*
X84428571Y-104123571D01*
X85928571Y-104766428D02*
X85142857Y-104766428D01*
X85000000Y-104695000D01*
X84928571Y-104552142D01*
X84928571Y-104337857D01*
X85000000Y-104195000D01*
X85071428Y-104123571D01*
X85928571Y-106123571D02*
X85142857Y-106123571D01*
X85000000Y-106052142D01*
X84928571Y-105909285D01*
X84928571Y-105623571D01*
X85000000Y-105480714D01*
X85857142Y-106123571D02*
X85928571Y-105980714D01*
X85928571Y-105623571D01*
X85857142Y-105480714D01*
X85714285Y-105409285D01*
X85571428Y-105409285D01*
X85428571Y-105480714D01*
X85357142Y-105623571D01*
X85357142Y-105980714D01*
X85285714Y-106123571D01*
X85928571Y-106837857D02*
X84928571Y-106837857D01*
X85214285Y-106837857D02*
X85071428Y-106909285D01*
X85000000Y-106980714D01*
X84928571Y-107123571D01*
X84928571Y-107266428D01*
X85857142Y-108337857D02*
X85928571Y-108195000D01*
X85928571Y-107909285D01*
X85857142Y-107766428D01*
X85714285Y-107695000D01*
X85142857Y-107695000D01*
X85000000Y-107766428D01*
X84928571Y-107909285D01*
X84928571Y-108195000D01*
X85000000Y-108337857D01*
X85142857Y-108409285D01*
X85285714Y-108409285D01*
X85428571Y-107695000D01*
X85500000Y-108980714D02*
X85500000Y-109695000D01*
X85928571Y-108837857D02*
X84428571Y-109337857D01*
X85928571Y-109837857D01*
X85928571Y-110552142D02*
X85857142Y-110409285D01*
X85714285Y-110337857D01*
X84428571Y-110337857D01*
X85928571Y-111123571D02*
X84928571Y-111123571D01*
X84428571Y-111123571D02*
X84500000Y-111052142D01*
X84571428Y-111123571D01*
X84500000Y-111195000D01*
X84428571Y-111123571D01*
X84571428Y-111123571D01*
X85928571Y-111837857D02*
X84428571Y-111837857D01*
X85357142Y-111980714D02*
X85928571Y-112409285D01*
X84928571Y-112409285D02*
X85500000Y-111837857D01*
X85857142Y-113623571D02*
X85928571Y-113480714D01*
X85928571Y-113195000D01*
X85857142Y-113052142D01*
X85714285Y-112980714D01*
X85142857Y-112980714D01*
X85000000Y-113052142D01*
X84928571Y-113195000D01*
X84928571Y-113480714D01*
X85000000Y-113623571D01*
X85142857Y-113695000D01*
X85285714Y-113695000D01*
X85428571Y-112980714D01*
X86978571Y-66909285D02*
X86978571Y-67837857D01*
X87550000Y-67337857D01*
X87550000Y-67552142D01*
X87621428Y-67695000D01*
X87692857Y-67766428D01*
X87835714Y-67837857D01*
X88192857Y-67837857D01*
X88335714Y-67766428D01*
X88407142Y-67695000D01*
X88478571Y-67552142D01*
X88478571Y-67123571D01*
X88407142Y-66980714D01*
X88335714Y-66909285D01*
X88335714Y-68480714D02*
X88407142Y-68552142D01*
X88478571Y-68480714D01*
X88407142Y-68409285D01*
X88335714Y-68480714D01*
X88478571Y-68480714D01*
X86978571Y-69480714D02*
X86978571Y-69623571D01*
X87050000Y-69766428D01*
X87121428Y-69837857D01*
X87264285Y-69909285D01*
X87550000Y-69980714D01*
X87907142Y-69980714D01*
X88192857Y-69909285D01*
X88335714Y-69837857D01*
X88407142Y-69766428D01*
X88478571Y-69623571D01*
X88478571Y-69480714D01*
X88407142Y-69337857D01*
X88335714Y-69266428D01*
X88192857Y-69195000D01*
X87907142Y-69123571D01*
X87550000Y-69123571D01*
X87264285Y-69195000D01*
X87121428Y-69266428D01*
X87050000Y-69337857D01*
X86978571Y-69480714D01*
X86978571Y-71766428D02*
X88192857Y-71766428D01*
X88335714Y-71837857D01*
X88407142Y-71909285D01*
X88478571Y-72052142D01*
X88478571Y-72337857D01*
X88407142Y-72480714D01*
X88335714Y-72552142D01*
X88192857Y-72623571D01*
X86978571Y-72623571D01*
X87478571Y-73337857D02*
X88478571Y-73337857D01*
X87621428Y-73337857D02*
X87550000Y-73409285D01*
X87478571Y-73552142D01*
X87478571Y-73766428D01*
X87550000Y-73909285D01*
X87692857Y-73980714D01*
X88478571Y-73980714D01*
X87478571Y-74695000D02*
X88978571Y-74695000D01*
X87550000Y-74695000D02*
X87478571Y-74837857D01*
X87478571Y-75123571D01*
X87550000Y-75266428D01*
X87621428Y-75337857D01*
X87764285Y-75409285D01*
X88192857Y-75409285D01*
X88335714Y-75337857D01*
X88407142Y-75266428D01*
X88478571Y-75123571D01*
X88478571Y-74837857D01*
X88407142Y-74695000D01*
X88478571Y-76266428D02*
X88407142Y-76123571D01*
X88335714Y-76052142D01*
X88192857Y-75980714D01*
X87764285Y-75980714D01*
X87621428Y-76052142D01*
X87550000Y-76123571D01*
X87478571Y-76266428D01*
X87478571Y-76480714D01*
X87550000Y-76623571D01*
X87621428Y-76695000D01*
X87764285Y-76766428D01*
X88192857Y-76766428D01*
X88335714Y-76695000D01*
X88407142Y-76623571D01*
X88478571Y-76480714D01*
X88478571Y-76266428D01*
X88478571Y-77409285D02*
X87478571Y-77409285D01*
X87764285Y-77409285D02*
X87621428Y-77480714D01*
X87550000Y-77552142D01*
X87478571Y-77695000D01*
X87478571Y-77837857D01*
X87478571Y-78123571D02*
X87478571Y-78695000D01*
X86978571Y-78337857D02*
X88264285Y-78337857D01*
X88407142Y-78409285D01*
X88478571Y-78552142D01*
X88478571Y-78695000D01*
X88407142Y-79766428D02*
X88478571Y-79623571D01*
X88478571Y-79337857D01*
X88407142Y-79195000D01*
X88264285Y-79123571D01*
X87692857Y-79123571D01*
X87550000Y-79195000D01*
X87478571Y-79337857D01*
X87478571Y-79623571D01*
X87550000Y-79766428D01*
X87692857Y-79837857D01*
X87835714Y-79837857D01*
X87978571Y-79123571D01*
X88478571Y-81123571D02*
X86978571Y-81123571D01*
X88407142Y-81123571D02*
X88478571Y-80980714D01*
X88478571Y-80695000D01*
X88407142Y-80552142D01*
X88335714Y-80480714D01*
X88192857Y-80409285D01*
X87764285Y-80409285D01*
X87621428Y-80480714D01*
X87550000Y-80552142D01*
X87478571Y-80695000D01*
X87478571Y-80980714D01*
X87550000Y-81123571D01*
X88478571Y-83695000D02*
X88478571Y-82980714D01*
X86978571Y-82980714D01*
X88478571Y-84195000D02*
X87478571Y-84195000D01*
X86978571Y-84195000D02*
X87050000Y-84123571D01*
X87121428Y-84195000D01*
X87050000Y-84266428D01*
X86978571Y-84195000D01*
X87121428Y-84195000D01*
X88407142Y-85552142D02*
X88478571Y-85409285D01*
X88478571Y-85123571D01*
X88407142Y-84980714D01*
X88335714Y-84909285D01*
X88192857Y-84837857D01*
X87764285Y-84837857D01*
X87621428Y-84909285D01*
X87550000Y-84980714D01*
X87478571Y-85123571D01*
X87478571Y-85409285D01*
X87550000Y-85552142D01*
X88407142Y-86766428D02*
X88478571Y-86623571D01*
X88478571Y-86337857D01*
X88407142Y-86195000D01*
X88264285Y-86123571D01*
X87692857Y-86123571D01*
X87550000Y-86195000D01*
X87478571Y-86337857D01*
X87478571Y-86623571D01*
X87550000Y-86766428D01*
X87692857Y-86837857D01*
X87835714Y-86837857D01*
X87978571Y-86123571D01*
X87478571Y-87480714D02*
X88478571Y-87480714D01*
X87621428Y-87480714D02*
X87550000Y-87552142D01*
X87478571Y-87695000D01*
X87478571Y-87909285D01*
X87550000Y-88052142D01*
X87692857Y-88123571D01*
X88478571Y-88123571D01*
X88407142Y-88766428D02*
X88478571Y-88909285D01*
X88478571Y-89195000D01*
X88407142Y-89337857D01*
X88264285Y-89409285D01*
X88192857Y-89409285D01*
X88050000Y-89337857D01*
X87978571Y-89195000D01*
X87978571Y-88980714D01*
X87907142Y-88837857D01*
X87764285Y-88766428D01*
X87692857Y-88766428D01*
X87550000Y-88837857D01*
X87478571Y-88980714D01*
X87478571Y-89195000D01*
X87550000Y-89337857D01*
X88407142Y-90623571D02*
X88478571Y-90480714D01*
X88478571Y-90195000D01*
X88407142Y-90052142D01*
X88264285Y-89980714D01*
X87692857Y-89980714D01*
X87550000Y-90052142D01*
X87478571Y-90195000D01*
X87478571Y-90480714D01*
X87550000Y-90623571D01*
X87692857Y-90695000D01*
X87835714Y-90695000D01*
X87978571Y-89980714D01*
X88335714Y-91337857D02*
X88407142Y-91409285D01*
X88478571Y-91337857D01*
X88407142Y-91266428D01*
X88335714Y-91337857D01*
X88478571Y-91337857D01*
D10*
X73000000Y-117000000D02*
X123000000Y-117000000D01*
X73000000Y-57000000D02*
X123000000Y-57000000D01*
X123000000Y-117000000D02*
X123000000Y-57000000D01*
X73000000Y-117000000D02*
X73000000Y-57000000D01*
X73000000Y-117000000D02*
X73250000Y-117000000D01*
X73000000Y-117000000D02*
X121000000Y-117000000D01*
D12*
X92400560Y-109499700D02*
X93000000Y-109400640D01*
X91999240Y-109598760D02*
X92400560Y-109499700D01*
X91498860Y-109901020D02*
X91999240Y-109598760D01*
X91001020Y-110398860D02*
X91498860Y-109901020D01*
X90698760Y-110899240D02*
X91001020Y-110398860D01*
X90500640Y-111501220D02*
X90698760Y-110899240D01*
X90500640Y-112100660D02*
X90500640Y-111501220D01*
X90599700Y-112700100D02*
X90500640Y-112100660D01*
X91001020Y-113401140D02*
X90599700Y-112700100D01*
X91498860Y-113898980D02*
X91001020Y-113401140D01*
X92100840Y-114201240D02*
X91498860Y-113898980D01*
X92700280Y-114399360D02*
X92100840Y-114201240D01*
X93500380Y-114399360D02*
X92700280Y-114399360D01*
X94198880Y-114099640D02*
X93500380Y-114399360D01*
X94699260Y-113700860D02*
X94198880Y-114099640D01*
X95301240Y-112999820D02*
X94699260Y-113700860D01*
X95499360Y-112199720D02*
X95301240Y-112999820D01*
X95499360Y-111600280D02*
X95499360Y-112199720D01*
X95400300Y-111099900D02*
X95499360Y-111600280D01*
X95199640Y-110701120D02*
X95400300Y-111099900D01*
X94699260Y-110099140D02*
X95199640Y-110701120D01*
X94198880Y-109700360D02*
X94699260Y-110099140D01*
X93701040Y-109499700D02*
X94198880Y-109700360D01*
X93099060Y-109400640D02*
X93701040Y-109499700D01*
X93000000Y-109400640D02*
X93099060Y-109400640D01*
X93599440Y-112900760D02*
X93398780Y-112700100D01*
X94000760Y-112900760D02*
X93599440Y-112900760D01*
X94300480Y-112799160D02*
X94000760Y-112900760D01*
X94501140Y-112499440D02*
X94300480Y-112799160D01*
X94600200Y-111999060D02*
X94501140Y-112499440D01*
X94600200Y-111600280D02*
X94600200Y-111999060D01*
X94501140Y-111198960D02*
X94600200Y-111600280D01*
X94198880Y-111000840D02*
X94501140Y-111198960D01*
X93800100Y-110899240D02*
X94198880Y-111000840D01*
X93500380Y-111000840D02*
X93800100Y-110899240D01*
X93398780Y-111099900D02*
X93500380Y-111000840D01*
X91498860Y-112900760D02*
X91399800Y-112700100D01*
X91801120Y-112900760D02*
X91498860Y-112900760D01*
X91999240Y-112900760D02*
X91801120Y-112900760D01*
X92400560Y-112700100D02*
X91999240Y-112900760D01*
X92601220Y-112298780D02*
X92400560Y-112700100D01*
X92601220Y-111900000D02*
X92601220Y-112298780D01*
X92499620Y-111399620D02*
X92601220Y-111900000D01*
X92298960Y-111000840D02*
X92499620Y-111399620D01*
X91999240Y-110899240D02*
X92298960Y-111000840D01*
X91699520Y-110899240D02*
X91999240Y-110899240D01*
X91498860Y-111000840D02*
X91699520Y-110899240D01*
X91399800Y-111099900D02*
X91498860Y-111000840D01*
X98250560Y-109549700D02*
X98850000Y-109450640D01*
X97849240Y-109648760D02*
X98250560Y-109549700D01*
X97348860Y-109951020D02*
X97849240Y-109648760D01*
X96851020Y-110448860D02*
X97348860Y-109951020D01*
X96548760Y-110949240D02*
X96851020Y-110448860D01*
X96350640Y-111551220D02*
X96548760Y-110949240D01*
X96350640Y-112150660D02*
X96350640Y-111551220D01*
X96449700Y-112750100D02*
X96350640Y-112150660D01*
X96851020Y-113451140D02*
X96449700Y-112750100D01*
X97348860Y-113948980D02*
X96851020Y-113451140D01*
X97950840Y-114251240D02*
X97348860Y-113948980D01*
X98550280Y-114449360D02*
X97950840Y-114251240D01*
X99350380Y-114449360D02*
X98550280Y-114449360D01*
X100048880Y-114149640D02*
X99350380Y-114449360D01*
X100549260Y-113750860D02*
X100048880Y-114149640D01*
X101151240Y-113049820D02*
X100549260Y-113750860D01*
X101349360Y-112249720D02*
X101151240Y-113049820D01*
X101349360Y-111650280D02*
X101349360Y-112249720D01*
X101250300Y-111149900D02*
X101349360Y-111650280D01*
X101049640Y-110751120D02*
X101250300Y-111149900D01*
X100549260Y-110149140D02*
X101049640Y-110751120D01*
X100048880Y-109750360D02*
X100549260Y-110149140D01*
X99551040Y-109549700D02*
X100048880Y-109750360D01*
X98949060Y-109450640D02*
X99551040Y-109549700D01*
X98850000Y-109450640D02*
X98949060Y-109450640D01*
X99350380Y-110448860D02*
X99850760Y-110649520D01*
X98949060Y-110349800D02*
X99350380Y-110448860D01*
X98550280Y-110349800D02*
X98949060Y-110349800D01*
X97950840Y-110649520D02*
X98550280Y-110349800D01*
X97651120Y-110949240D02*
X97950840Y-110649520D01*
X97348860Y-111449620D02*
X97651120Y-110949240D01*
X97249800Y-111950000D02*
X97348860Y-111449620D01*
X97249800Y-112348780D02*
X97249800Y-111950000D01*
X97549520Y-112849160D02*
X97249800Y-112348780D01*
X97950840Y-113250480D02*
X97549520Y-112849160D01*
X98451220Y-113451140D02*
X97950840Y-113250480D01*
X98949060Y-113550200D02*
X98451220Y-113451140D01*
X99449440Y-113451140D02*
X98949060Y-113550200D01*
X99949820Y-113148880D02*
X99449440Y-113451140D01*
X104000560Y-109549700D02*
X104600000Y-109450640D01*
X103599240Y-109648760D02*
X104000560Y-109549700D01*
X103098860Y-109951020D02*
X103599240Y-109648760D01*
X102601020Y-110448860D02*
X103098860Y-109951020D01*
X102298760Y-110949240D02*
X102601020Y-110448860D01*
X102100640Y-111551220D02*
X102298760Y-110949240D01*
X102100640Y-112150660D02*
X102100640Y-111551220D01*
X102199700Y-112750100D02*
X102100640Y-112150660D01*
X102601020Y-113451140D02*
X102199700Y-112750100D01*
X103098860Y-113948980D02*
X102601020Y-113451140D01*
X103700840Y-114251240D02*
X103098860Y-113948980D01*
X104300280Y-114449360D02*
X103700840Y-114251240D01*
X105100380Y-114449360D02*
X104300280Y-114449360D01*
X105798880Y-114149640D02*
X105100380Y-114449360D01*
X106299260Y-113750860D02*
X105798880Y-114149640D01*
X106901240Y-113049820D02*
X106299260Y-113750860D01*
X107099360Y-112249720D02*
X106901240Y-113049820D01*
X107099360Y-111650280D02*
X107099360Y-112249720D01*
X107000300Y-111149900D02*
X107099360Y-111650280D01*
X106799640Y-110751120D02*
X107000300Y-111149900D01*
X106299260Y-110149140D02*
X106799640Y-110751120D01*
X105798880Y-109750360D02*
X106299260Y-110149140D01*
X105301040Y-109549700D02*
X105798880Y-109750360D01*
X104699060Y-109450640D02*
X105301040Y-109549700D01*
X104600000Y-109450640D02*
X104699060Y-109450640D01*
X104915666Y-110250740D02*
G75*
G03X104915666Y-110250740I-315666J0D01*
G01*
X105400100Y-112150660D02*
X105400100Y-110949240D01*
X103898960Y-112150660D02*
X105400100Y-112150660D01*
X103898960Y-110949240D02*
X103898960Y-112150660D01*
X105400100Y-110949240D02*
X103898960Y-110949240D01*
X104899720Y-113750860D02*
X104399340Y-113750860D01*
X104899720Y-112249720D02*
X104899720Y-113750860D01*
X104300280Y-113750860D02*
X104300280Y-112150660D01*
X104500940Y-113750860D02*
X104300280Y-113750860D01*
X104600000Y-112249720D02*
X104600000Y-113550200D01*
X105400100Y-111850940D02*
X104099620Y-111850940D01*
X104099620Y-111551220D02*
X105301040Y-111551220D01*
X105301040Y-111248960D02*
X104000560Y-111248960D01*
X104600000Y-110050080D02*
X104600000Y-110448860D01*
D13*
X103100000Y-76550000D03*
X103100000Y-73550000D03*
X103100000Y-70550000D03*
X103100000Y-67550000D03*
X91100000Y-76550000D03*
X91100000Y-73550000D03*
X91100000Y-67550000D03*
X91100000Y-70550000D03*
X100100000Y-67550000D03*
X97100000Y-67550000D03*
X94100000Y-67550000D03*
X94100000Y-70550000D03*
X100100000Y-70550000D03*
X97100000Y-70550000D03*
X94100000Y-73550000D03*
X100100000Y-73550000D03*
X97100000Y-73550000D03*
X94100000Y-76550000D03*
X100100000Y-76550000D03*
X97100000Y-76550000D03*
X102850000Y-97300000D03*
X102850000Y-94300000D03*
X102850000Y-91300000D03*
X102850000Y-88300000D03*
X90850000Y-97300000D03*
X90850000Y-94300000D03*
X90850000Y-88300000D03*
X90850000Y-91300000D03*
X99850000Y-88300000D03*
X96850000Y-88300000D03*
X93850000Y-88300000D03*
X93850000Y-91300000D03*
X99850000Y-91300000D03*
X96850000Y-91300000D03*
X93850000Y-94300000D03*
X99850000Y-94300000D03*
X96850000Y-94300000D03*
X93850000Y-97300000D03*
X99850000Y-97300000D03*
X96850000Y-97300000D03*
D14*
X77000000Y-113000000D03*
X119000000Y-61000000D03*
D15*
X78600000Y-82300000D03*
D16*
X78600000Y-77300000D03*
D17*
X111375000Y-72500000D03*
X118325000Y-72500000D03*
X111375000Y-81500000D03*
X118325000Y-81500000D03*
X118325000Y-102300000D03*
X111375000Y-102300000D03*
D16*
X78600000Y-98400000D03*
D15*
X78600000Y-103400000D03*
D17*
X118325000Y-93300000D03*
X111375000Y-93300000D03*
D14*
X119000000Y-113000000D03*
X77000000Y-61000000D03*
D18*
X100650000Y-102300000D03*
X98150000Y-103200000D03*
X98150000Y-101400000D03*
X99400000Y-104100000D03*
X95600000Y-101400000D03*
X98150000Y-102300000D03*
X98150000Y-105000000D03*
X95600000Y-105000000D03*
X94350000Y-101400000D03*
X99400000Y-105000000D03*
X100650000Y-105000000D03*
X96850000Y-101400000D03*
X99400000Y-103200000D03*
X94350000Y-104100000D03*
X96850000Y-105000000D03*
X94350000Y-105000000D03*
X94350000Y-102300000D03*
X95600000Y-103200000D03*
X100650000Y-104100000D03*
X100650000Y-101400000D03*
X98150000Y-104100000D03*
X96850000Y-102300000D03*
X95600000Y-102300000D03*
X95600000Y-104100000D03*
X96850000Y-103200000D03*
X100650000Y-103200000D03*
X96850000Y-104100000D03*
X99400000Y-101400000D03*
X99400000Y-102300000D03*
X95850000Y-83350000D03*
X95850000Y-81550000D03*
X100900000Y-82450000D03*
X98400000Y-83350000D03*
X98400000Y-80650000D03*
X97100000Y-82450000D03*
X98400000Y-82450000D03*
X99650000Y-83350000D03*
X95850000Y-80650000D03*
X100900000Y-84250000D03*
X97100000Y-80650000D03*
X99650000Y-82450000D03*
X94600000Y-83350000D03*
X99650000Y-84250000D03*
X94600000Y-84250000D03*
X94600000Y-81550000D03*
X98400000Y-81550000D03*
X100900000Y-81550000D03*
X98400000Y-84250000D03*
X94600000Y-80650000D03*
X95850000Y-84250000D03*
X95850000Y-82450000D03*
X100900000Y-83350000D03*
X100900000Y-80650000D03*
X97100000Y-81550000D03*
X99650000Y-80650000D03*
X99650000Y-81550000D03*
X97100000Y-83350000D03*
X97100000Y-84250000D03*
X94350000Y-103200000D03*
X94600000Y-82425000D03*
D19*
X100650000Y-101400000D02*
X110475000Y-101400000D01*
D20*
X118325000Y-72500000D02*
X118325000Y-81500000D01*
X118325000Y-93300000D02*
X118325000Y-102300000D01*
D21*
G36*
X114196257Y-98440769D02*
G01*
X114285955Y-98477923D01*
X114362976Y-98537024D01*
X114422077Y-98614045D01*
X114459231Y-98703743D01*
X114473000Y-98808328D01*
X114473000Y-105791672D01*
X114459231Y-105896257D01*
X114422077Y-105985955D01*
X114362976Y-106062976D01*
X114285955Y-106122077D01*
X114196257Y-106159231D01*
X114091672Y-106173000D01*
X94408328Y-106173000D01*
X94303743Y-106159231D01*
X94214045Y-106122077D01*
X94137024Y-106062976D01*
X94077923Y-105985955D01*
X94040769Y-105896257D01*
X94027000Y-105791672D01*
X94027000Y-101308328D01*
X94040769Y-101203743D01*
X94077923Y-101114045D01*
X94137024Y-101037024D01*
X94214045Y-100977923D01*
X94303743Y-100940769D01*
X94408328Y-100927000D01*
X104892893Y-100927000D01*
X104909470Y-100925914D01*
X105038880Y-100908877D01*
X105070904Y-100900296D01*
X105191494Y-100850346D01*
X105220206Y-100833769D01*
X105323760Y-100754309D01*
X105336250Y-100743356D01*
X107537472Y-98542134D01*
X107621155Y-98477922D01*
X107710850Y-98440769D01*
X107815435Y-98427000D01*
X114091672Y-98427000D01*
X114196257Y-98440769D01*
G37*
X114196257Y-98440769D02*
X114285955Y-98477923D01*
X114362976Y-98537024D01*
X114422077Y-98614045D01*
X114459231Y-98703743D01*
X114473000Y-98808328D01*
X114473000Y-105791672D01*
X114459231Y-105896257D01*
X114422077Y-105985955D01*
X114362976Y-106062976D01*
X114285955Y-106122077D01*
X114196257Y-106159231D01*
X114091672Y-106173000D01*
X94408328Y-106173000D01*
X94303743Y-106159231D01*
X94214045Y-106122077D01*
X94137024Y-106062976D01*
X94077923Y-105985955D01*
X94040769Y-105896257D01*
X94027000Y-105791672D01*
X94027000Y-101308328D01*
X94040769Y-101203743D01*
X94077923Y-101114045D01*
X94137024Y-101037024D01*
X94214045Y-100977923D01*
X94303743Y-100940769D01*
X94408328Y-100927000D01*
X104892893Y-100927000D01*
X104909470Y-100925914D01*
X105038880Y-100908877D01*
X105070904Y-100900296D01*
X105191494Y-100850346D01*
X105220206Y-100833769D01*
X105323760Y-100754309D01*
X105336250Y-100743356D01*
X107537472Y-98542134D01*
X107621155Y-98477922D01*
X107710850Y-98440769D01*
X107815435Y-98427000D01*
X114091672Y-98427000D01*
X114196257Y-98440769D01*
G36*
X114196257Y-89440769D02*
G01*
X114285955Y-89477923D01*
X114362976Y-89537024D01*
X114422077Y-89614045D01*
X114459231Y-89703743D01*
X114473000Y-89808328D01*
X114473000Y-96791672D01*
X114459231Y-96896257D01*
X114422077Y-96985955D01*
X114362976Y-97062976D01*
X114285955Y-97122077D01*
X114196257Y-97159231D01*
X114091672Y-97173000D01*
X102108328Y-97173000D01*
X102003743Y-97159231D01*
X101914045Y-97122077D01*
X101837024Y-97062976D01*
X101777923Y-96985955D01*
X101740769Y-96896257D01*
X101727000Y-96791672D01*
X101727000Y-89808328D01*
X101740769Y-89703743D01*
X101777923Y-89614045D01*
X101837024Y-89537024D01*
X101914045Y-89477923D01*
X102003743Y-89440769D01*
X102108328Y-89427000D01*
X114091672Y-89427000D01*
X114196257Y-89440769D01*
G37*
X114196257Y-89440769D02*
X114285955Y-89477923D01*
X114362976Y-89537024D01*
X114422077Y-89614045D01*
X114459231Y-89703743D01*
X114473000Y-89808328D01*
X114473000Y-96791672D01*
X114459231Y-96896257D01*
X114422077Y-96985955D01*
X114362976Y-97062976D01*
X114285955Y-97122077D01*
X114196257Y-97159231D01*
X114091672Y-97173000D01*
X102108328Y-97173000D01*
X102003743Y-97159231D01*
X101914045Y-97122077D01*
X101837024Y-97062976D01*
X101777923Y-96985955D01*
X101740769Y-96896257D01*
X101727000Y-96791672D01*
X101727000Y-89808328D01*
X101740769Y-89703743D01*
X101777923Y-89614045D01*
X101837024Y-89537024D01*
X101914045Y-89477923D01*
X102003743Y-89440769D01*
X102108328Y-89427000D01*
X114091672Y-89427000D01*
X114196257Y-89440769D01*
G36*
X114321257Y-77539962D02*
G01*
X114410955Y-77577116D01*
X114487976Y-77636217D01*
X114547077Y-77713238D01*
X114584231Y-77802936D01*
X114598000Y-77907521D01*
X114598000Y-84890886D01*
X114584232Y-84995468D01*
X114547081Y-85085161D01*
X114487981Y-85162183D01*
X114410960Y-85221287D01*
X114321269Y-85258441D01*
X114216689Y-85272213D01*
X94683337Y-85272980D01*
X94578755Y-85259216D01*
X94489057Y-85222064D01*
X94412031Y-85162963D01*
X94352924Y-85085936D01*
X94315768Y-84996237D01*
X94302000Y-84891659D01*
X94302000Y-80408294D01*
X94315768Y-80303715D01*
X94352919Y-80214020D01*
X94412015Y-80137000D01*
X94489035Y-80077896D01*
X94578722Y-80040741D01*
X94683302Y-80026966D01*
X106017922Y-80026207D01*
X106034497Y-80025120D01*
X106163894Y-80008077D01*
X106195915Y-79999495D01*
X106316494Y-79949545D01*
X106345203Y-79932969D01*
X106448747Y-79853515D01*
X106461236Y-79842563D01*
X108662472Y-77641327D01*
X108746155Y-77577115D01*
X108835850Y-77539962D01*
X108940435Y-77526193D01*
X114216672Y-77526193D01*
X114321257Y-77539962D01*
G37*
X114321257Y-77539962D02*
X114410955Y-77577116D01*
X114487976Y-77636217D01*
X114547077Y-77713238D01*
X114584231Y-77802936D01*
X114598000Y-77907521D01*
X114598000Y-84890886D01*
X114584232Y-84995468D01*
X114547081Y-85085161D01*
X114487981Y-85162183D01*
X114410960Y-85221287D01*
X114321269Y-85258441D01*
X114216689Y-85272213D01*
X94683337Y-85272980D01*
X94578755Y-85259216D01*
X94489057Y-85222064D01*
X94412031Y-85162963D01*
X94352924Y-85085936D01*
X94315768Y-84996237D01*
X94302000Y-84891659D01*
X94302000Y-80408294D01*
X94315768Y-80303715D01*
X94352919Y-80214020D01*
X94412015Y-80137000D01*
X94489035Y-80077896D01*
X94578722Y-80040741D01*
X94683302Y-80026966D01*
X106017922Y-80026207D01*
X106034497Y-80025120D01*
X106163894Y-80008077D01*
X106195915Y-79999495D01*
X106316494Y-79949545D01*
X106345203Y-79932969D01*
X106448747Y-79853515D01*
X106461236Y-79842563D01*
X108662472Y-77641327D01*
X108746155Y-77577115D01*
X108835850Y-77539962D01*
X108940435Y-77526193D01*
X114216672Y-77526193D01*
X114321257Y-77539962D01*
G36*
X114096257Y-68640769D02*
G01*
X114185955Y-68677923D01*
X114262976Y-68737024D01*
X114322077Y-68814045D01*
X114359231Y-68903743D01*
X114373000Y-69008328D01*
X114373000Y-75991672D01*
X114359231Y-76096257D01*
X114322077Y-76185955D01*
X114262976Y-76262976D01*
X114185955Y-76322077D01*
X114096257Y-76359231D01*
X113991672Y-76373000D01*
X102008328Y-76373000D01*
X101903743Y-76359231D01*
X101814045Y-76322077D01*
X101737024Y-76262976D01*
X101677923Y-76185955D01*
X101640769Y-76096257D01*
X101627000Y-75991672D01*
X101627000Y-69008328D01*
X101640769Y-68903743D01*
X101677923Y-68814045D01*
X101737024Y-68737024D01*
X101814045Y-68677923D01*
X101903743Y-68640769D01*
X102008328Y-68627000D01*
X113991672Y-68627000D01*
X114096257Y-68640769D01*
G37*
X114096257Y-68640769D02*
X114185955Y-68677923D01*
X114262976Y-68737024D01*
X114322077Y-68814045D01*
X114359231Y-68903743D01*
X114373000Y-69008328D01*
X114373000Y-75991672D01*
X114359231Y-76096257D01*
X114322077Y-76185955D01*
X114262976Y-76262976D01*
X114185955Y-76322077D01*
X114096257Y-76359231D01*
X113991672Y-76373000D01*
X102008328Y-76373000D01*
X101903743Y-76359231D01*
X101814045Y-76322077D01*
X101737024Y-76262976D01*
X101677923Y-76185955D01*
X101640769Y-76096257D01*
X101627000Y-75991672D01*
X101627000Y-69008328D01*
X101640769Y-68903743D01*
X101677923Y-68814045D01*
X101737024Y-68737024D01*
X101814045Y-68677923D01*
X101903743Y-68640769D01*
X102008328Y-68627000D01*
X113991672Y-68627000D01*
X114096257Y-68640769D01*
M02*
