%FSLAX45Y45*%
G04 Gerber Fmt 4.5, Leading zero omitted, Abs format (unit mm)*
G04 Created by KiCad (PCBNEW (5.1.10)-1) date 2021-07-01 22:43:29*
%MOMM*%
%LPD*%
G01*
G04 APERTURE LIST*
%TA.AperFunction,Profile*%
%ADD10C,0.150000*%
%TD*%
%ADD11C,0.200000*%
%ADD12C,0.300000*%
G04 APERTURE END LIST*
D10*
X7300000Y-6100000D02*
G75*
G02*
X7700000Y-5700000I400000J0D01*
G01*
X7700000Y-11700000D02*
G75*
G02*
X7300000Y-11300000I0J400000D01*
G01*
X12300000Y-11300000D02*
G75*
G02*
X11900000Y-11700000I-400000J0D01*
G01*
X11900000Y-5700000D02*
G75*
G02*
X12300000Y-6100000I0J-400000D01*
G01*
X7700000Y-11700000D02*
X11900000Y-11700000D01*
X7700000Y-5700000D02*
X11900000Y-5700000D01*
X12300000Y-11300000D02*
X12300000Y-6100000D01*
X7300000Y-11300000D02*
X7300000Y-6100000D01*
D11*
X9415000Y-10220000D02*
X9455000Y-10260000D01*
X9455000Y-10220000D02*
X9415000Y-10260000D01*
X9415000Y-10310000D02*
X9455000Y-10350000D01*
X9455000Y-10310000D02*
X9415000Y-10350000D01*
X9415000Y-10490000D02*
X9455000Y-10530000D01*
X9455000Y-10490000D02*
X9415000Y-10530000D01*
X9440000Y-8145000D02*
X9480000Y-8185000D01*
X9480000Y-8145000D02*
X9440000Y-8185000D01*
X9440000Y-8235000D02*
X9480000Y-8275000D01*
X9480000Y-8235000D02*
X9440000Y-8275000D01*
X9440000Y-8415000D02*
X9480000Y-8455000D01*
X9480000Y-8415000D02*
X9440000Y-8455000D01*
X9540000Y-10220000D02*
X9580000Y-10260000D01*
X9580000Y-10220000D02*
X9540000Y-10260000D01*
X9540000Y-10310000D02*
X9580000Y-10350000D01*
X9580000Y-10310000D02*
X9540000Y-10350000D01*
X9540000Y-10400000D02*
X9580000Y-10440000D01*
X9580000Y-10400000D02*
X9540000Y-10440000D01*
X9540000Y-10490000D02*
X9580000Y-10530000D01*
X9580000Y-10490000D02*
X9540000Y-10530000D01*
X9540000Y-10580000D02*
X9580000Y-10620000D01*
X9580000Y-10580000D02*
X9540000Y-10620000D01*
X9565000Y-8145000D02*
X9605000Y-8185000D01*
X9605000Y-8145000D02*
X9565000Y-8185000D01*
X9565000Y-8235000D02*
X9605000Y-8275000D01*
X9605000Y-8235000D02*
X9565000Y-8275000D01*
X9565000Y-8325000D02*
X9605000Y-8365000D01*
X9605000Y-8325000D02*
X9565000Y-8365000D01*
X9565000Y-8415000D02*
X9605000Y-8455000D01*
X9605000Y-8415000D02*
X9565000Y-8455000D01*
X9565000Y-8505000D02*
X9605000Y-8545000D01*
X9605000Y-8505000D02*
X9565000Y-8545000D01*
X9665000Y-10220000D02*
X9705000Y-10260000D01*
X9705000Y-10220000D02*
X9665000Y-10260000D01*
X9665000Y-10310000D02*
X9705000Y-10350000D01*
X9705000Y-10310000D02*
X9665000Y-10350000D01*
X9665000Y-10400000D02*
X9705000Y-10440000D01*
X9705000Y-10400000D02*
X9665000Y-10440000D01*
X9665000Y-10490000D02*
X9705000Y-10530000D01*
X9705000Y-10490000D02*
X9665000Y-10530000D01*
X9665000Y-10580000D02*
X9705000Y-10620000D01*
X9705000Y-10580000D02*
X9665000Y-10620000D01*
X9690000Y-8145000D02*
X9730000Y-8185000D01*
X9730000Y-8145000D02*
X9690000Y-8185000D01*
X9690000Y-8235000D02*
X9730000Y-8275000D01*
X9730000Y-8235000D02*
X9690000Y-8275000D01*
X9690000Y-8325000D02*
X9730000Y-8365000D01*
X9730000Y-8325000D02*
X9690000Y-8365000D01*
X9690000Y-8415000D02*
X9730000Y-8455000D01*
X9730000Y-8415000D02*
X9690000Y-8455000D01*
X9690000Y-8505000D02*
X9730000Y-8545000D01*
X9730000Y-8505000D02*
X9690000Y-8545000D01*
X9795000Y-10220000D02*
X9835000Y-10260000D01*
X9835000Y-10220000D02*
X9795000Y-10260000D01*
X9795000Y-10310000D02*
X9835000Y-10350000D01*
X9835000Y-10310000D02*
X9795000Y-10350000D01*
X9795000Y-10400000D02*
X9835000Y-10440000D01*
X9835000Y-10400000D02*
X9795000Y-10440000D01*
X9795000Y-10490000D02*
X9835000Y-10530000D01*
X9835000Y-10490000D02*
X9795000Y-10530000D01*
X9795000Y-10580000D02*
X9835000Y-10620000D01*
X9835000Y-10580000D02*
X9795000Y-10620000D01*
X9820000Y-8145000D02*
X9860000Y-8185000D01*
X9860000Y-8145000D02*
X9820000Y-8185000D01*
X9820000Y-8235000D02*
X9860000Y-8275000D01*
X9860000Y-8235000D02*
X9820000Y-8275000D01*
X9820000Y-8325000D02*
X9860000Y-8365000D01*
X9860000Y-8325000D02*
X9820000Y-8365000D01*
X9820000Y-8415000D02*
X9860000Y-8455000D01*
X9860000Y-8415000D02*
X9820000Y-8455000D01*
X9820000Y-8505000D02*
X9860000Y-8545000D01*
X9860000Y-8505000D02*
X9820000Y-8545000D01*
X9920000Y-10220000D02*
X9960000Y-10260000D01*
X9960000Y-10220000D02*
X9920000Y-10260000D01*
X9920000Y-10310000D02*
X9960000Y-10350000D01*
X9960000Y-10310000D02*
X9920000Y-10350000D01*
X9920000Y-10400000D02*
X9960000Y-10440000D01*
X9960000Y-10400000D02*
X9920000Y-10440000D01*
X9920000Y-10490000D02*
X9960000Y-10530000D01*
X9960000Y-10490000D02*
X9920000Y-10530000D01*
X9920000Y-10580000D02*
X9960000Y-10620000D01*
X9960000Y-10580000D02*
X9920000Y-10620000D01*
X9945000Y-8145000D02*
X9985000Y-8185000D01*
X9985000Y-8145000D02*
X9945000Y-8185000D01*
X9945000Y-8235000D02*
X9985000Y-8275000D01*
X9985000Y-8235000D02*
X9945000Y-8275000D01*
X9945000Y-8325000D02*
X9985000Y-8365000D01*
X9985000Y-8325000D02*
X9945000Y-8365000D01*
X9945000Y-8415000D02*
X9985000Y-8455000D01*
X9985000Y-8415000D02*
X9945000Y-8455000D01*
X9945000Y-8505000D02*
X9985000Y-8545000D01*
X9985000Y-8505000D02*
X9945000Y-8545000D01*
X10045000Y-10220000D02*
X10085000Y-10260000D01*
X10085000Y-10220000D02*
X10045000Y-10260000D01*
X10045000Y-10310000D02*
X10085000Y-10350000D01*
X10085000Y-10310000D02*
X10045000Y-10350000D01*
X10045000Y-10400000D02*
X10085000Y-10440000D01*
X10085000Y-10400000D02*
X10045000Y-10440000D01*
X10045000Y-10490000D02*
X10085000Y-10530000D01*
X10085000Y-10490000D02*
X10045000Y-10530000D01*
X10045000Y-10580000D02*
X10085000Y-10620000D01*
X10085000Y-10580000D02*
X10045000Y-10620000D01*
X10070000Y-8145000D02*
X10110000Y-8185000D01*
X10110000Y-8145000D02*
X10070000Y-8185000D01*
X10070000Y-8235000D02*
X10110000Y-8275000D01*
X10110000Y-8235000D02*
X10070000Y-8275000D01*
X10070000Y-8325000D02*
X10110000Y-8365000D01*
X10110000Y-8325000D02*
X10070000Y-8365000D01*
X10070000Y-8415000D02*
X10110000Y-8455000D01*
X10110000Y-8415000D02*
X10070000Y-8455000D01*
X10070000Y-8505000D02*
X10110000Y-8545000D01*
X10110000Y-8505000D02*
X10070000Y-8545000D01*
X9160000Y-8930000D02*
G75*
G03*
X9160000Y-8930000I-75000J0D01*
G01*
X9160000Y-9230000D02*
G75*
G03*
X9160000Y-9230000I-75000J0D01*
G01*
X9160000Y-9530000D02*
G75*
G03*
X9160000Y-9530000I-75000J0D01*
G01*
X9160000Y-9830000D02*
G75*
G03*
X9160000Y-9830000I-75000J0D01*
G01*
X9185000Y-6855000D02*
G75*
G03*
X9185000Y-6855000I-75000J0D01*
G01*
X9185000Y-7155000D02*
G75*
G03*
X9185000Y-7155000I-75000J0D01*
G01*
X9185000Y-7455000D02*
G75*
G03*
X9185000Y-7455000I-75000J0D01*
G01*
X9185000Y-7755000D02*
G75*
G03*
X9185000Y-7755000I-75000J0D01*
G01*
X9460000Y-8930000D02*
G75*
G03*
X9460000Y-8930000I-75000J0D01*
G01*
X9460000Y-9230000D02*
G75*
G03*
X9460000Y-9230000I-75000J0D01*
G01*
X9460000Y-9530000D02*
G75*
G03*
X9460000Y-9530000I-75000J0D01*
G01*
X9460000Y-9830000D02*
G75*
G03*
X9460000Y-9830000I-75000J0D01*
G01*
X9485000Y-6855000D02*
G75*
G03*
X9485000Y-6855000I-75000J0D01*
G01*
X9485000Y-7155000D02*
G75*
G03*
X9485000Y-7155000I-75000J0D01*
G01*
X9485000Y-7455000D02*
G75*
G03*
X9485000Y-7455000I-75000J0D01*
G01*
X9485000Y-7755000D02*
G75*
G03*
X9485000Y-7755000I-75000J0D01*
G01*
X9760000Y-8930000D02*
G75*
G03*
X9760000Y-8930000I-75000J0D01*
G01*
X9760000Y-9230000D02*
G75*
G03*
X9760000Y-9230000I-75000J0D01*
G01*
X9760000Y-9530000D02*
G75*
G03*
X9760000Y-9530000I-75000J0D01*
G01*
X9760000Y-9830000D02*
G75*
G03*
X9760000Y-9830000I-75000J0D01*
G01*
X9785000Y-6855000D02*
G75*
G03*
X9785000Y-6855000I-75000J0D01*
G01*
X9785000Y-7155000D02*
G75*
G03*
X9785000Y-7155000I-75000J0D01*
G01*
X9785000Y-7455000D02*
G75*
G03*
X9785000Y-7455000I-75000J0D01*
G01*
X9785000Y-7755000D02*
G75*
G03*
X9785000Y-7755000I-75000J0D01*
G01*
X10060000Y-8930000D02*
G75*
G03*
X10060000Y-8930000I-75000J0D01*
G01*
X10060000Y-9230000D02*
G75*
G03*
X10060000Y-9230000I-75000J0D01*
G01*
X10060000Y-9530000D02*
G75*
G03*
X10060000Y-9530000I-75000J0D01*
G01*
X10060000Y-9830000D02*
G75*
G03*
X10060000Y-9830000I-75000J0D01*
G01*
X10085000Y-6855000D02*
G75*
G03*
X10085000Y-6855000I-75000J0D01*
G01*
X10085000Y-7155000D02*
G75*
G03*
X10085000Y-7155000I-75000J0D01*
G01*
X10085000Y-7455000D02*
G75*
G03*
X10085000Y-7455000I-75000J0D01*
G01*
X10085000Y-7755000D02*
G75*
G03*
X10085000Y-7755000I-75000J0D01*
G01*
X10360000Y-8930000D02*
G75*
G03*
X10360000Y-8930000I-75000J0D01*
G01*
X10360000Y-9230000D02*
G75*
G03*
X10360000Y-9230000I-75000J0D01*
G01*
X10360000Y-9530000D02*
G75*
G03*
X10360000Y-9530000I-75000J0D01*
G01*
X10360000Y-9830000D02*
G75*
G03*
X10360000Y-9830000I-75000J0D01*
G01*
X10385000Y-6855000D02*
G75*
G03*
X10385000Y-6855000I-75000J0D01*
G01*
X10385000Y-7155000D02*
G75*
G03*
X10385000Y-7155000I-75000J0D01*
G01*
X10385000Y-7455000D02*
G75*
G03*
X10385000Y-7455000I-75000J0D01*
G01*
X10385000Y-7755000D02*
G75*
G03*
X10385000Y-7755000I-75000J0D01*
G01*
X7860000Y-7747500D02*
X7860000Y-7912500D01*
X7777500Y-7830000D02*
X7942500Y-7830000D01*
X7860000Y-8247500D02*
X7860000Y-8412500D01*
X7777500Y-8330000D02*
X7942500Y-8330000D01*
X7860000Y-9857500D02*
X7860000Y-10022500D01*
X7777500Y-9940000D02*
X7942500Y-9940000D01*
X7860000Y-10357500D02*
X7860000Y-10522500D01*
X7777500Y-10440000D02*
X7942500Y-10440000D01*
X11300136Y-7512636D02*
X11300136Y-7187364D01*
X10974864Y-7187364D01*
X10974864Y-7512636D01*
X11300136Y-7512636D01*
X11300136Y-8412636D02*
X11300136Y-8087364D01*
X10974864Y-8087364D01*
X10974864Y-8412636D01*
X11300136Y-8412636D01*
X11300136Y-9592636D02*
X11300136Y-9267364D01*
X10974864Y-9267364D01*
X10974864Y-9592636D01*
X11300136Y-9592636D01*
X11300136Y-10492636D02*
X11300136Y-10167364D01*
X10974864Y-10167364D01*
X10974864Y-10492636D01*
X11300136Y-10492636D01*
X11995136Y-7512636D02*
X11995136Y-7187364D01*
X11669864Y-7187364D01*
X11669864Y-7512636D01*
X11995136Y-7512636D01*
X11995136Y-8412636D02*
X11995136Y-8087364D01*
X11669864Y-8087364D01*
X11669864Y-8412636D01*
X11995136Y-8412636D01*
X11995136Y-9592636D02*
X11995136Y-9267364D01*
X11669864Y-9267364D01*
X11669864Y-9592636D01*
X11995136Y-9592636D01*
X11995136Y-10492636D02*
X11995136Y-10167364D01*
X11669864Y-10167364D01*
X11669864Y-10492636D01*
X11995136Y-10492636D01*
D12*
X7578928Y-12173214D02*
X7578928Y-11873214D01*
X7650357Y-11873214D01*
X7693214Y-11887500D01*
X7721786Y-11916071D01*
X7736071Y-11944643D01*
X7750357Y-12001786D01*
X7750357Y-12044643D01*
X7736071Y-12101786D01*
X7721786Y-12130357D01*
X7693214Y-12158929D01*
X7650357Y-12173214D01*
X7578928Y-12173214D01*
X7878928Y-12173214D02*
X7878928Y-11973214D01*
X7878928Y-12030357D02*
X7893214Y-12001786D01*
X7907500Y-11987500D01*
X7936071Y-11973214D01*
X7964643Y-11973214D01*
X8064643Y-12173214D02*
X8064643Y-11973214D01*
X8064643Y-11873214D02*
X8050357Y-11887500D01*
X8064643Y-11901786D01*
X8078928Y-11887500D01*
X8064643Y-11873214D01*
X8064643Y-11901786D01*
X8250357Y-12173214D02*
X8221786Y-12158929D01*
X8207500Y-12130357D01*
X8207500Y-11873214D01*
X8407500Y-12173214D02*
X8378928Y-12158929D01*
X8364643Y-12130357D01*
X8364643Y-11873214D01*
X8750357Y-12173214D02*
X8750357Y-11873214D01*
X8850357Y-12087500D01*
X8950357Y-11873214D01*
X8950357Y-12173214D01*
X9221786Y-12173214D02*
X9221786Y-12016071D01*
X9207500Y-11987500D01*
X9178928Y-11973214D01*
X9121786Y-11973214D01*
X9093214Y-11987500D01*
X9221786Y-12158929D02*
X9193214Y-12173214D01*
X9121786Y-12173214D01*
X9093214Y-12158929D01*
X9078928Y-12130357D01*
X9078928Y-12101786D01*
X9093214Y-12073214D01*
X9121786Y-12058929D01*
X9193214Y-12058929D01*
X9221786Y-12044643D01*
X9364643Y-11973214D02*
X9364643Y-12273214D01*
X9364643Y-11987500D02*
X9393214Y-11973214D01*
X9450357Y-11973214D01*
X9478928Y-11987500D01*
X9493214Y-12001786D01*
X9507500Y-12030357D01*
X9507500Y-12116071D01*
X9493214Y-12144643D01*
X9478928Y-12158929D01*
X9450357Y-12173214D01*
X9393214Y-12173214D01*
X9364643Y-12158929D01*
X9636071Y-12144643D02*
X9650357Y-12158929D01*
X9636071Y-12173214D01*
X9621786Y-12158929D01*
X9636071Y-12144643D01*
X9636071Y-12173214D01*
X9636071Y-11987500D02*
X9650357Y-12001786D01*
X9636071Y-12016071D01*
X9621786Y-12001786D01*
X9636071Y-11987500D01*
X9636071Y-12016071D01*
X7252500Y-12647500D02*
X7292500Y-12687500D01*
X7292500Y-12647500D02*
X7252500Y-12687500D01*
X7636071Y-12503214D02*
X7664643Y-12503214D01*
X7693214Y-12517500D01*
X7707500Y-12531786D01*
X7721786Y-12560357D01*
X7736071Y-12617500D01*
X7736071Y-12688929D01*
X7721786Y-12746071D01*
X7707500Y-12774643D01*
X7693214Y-12788929D01*
X7664643Y-12803214D01*
X7636071Y-12803214D01*
X7607500Y-12788929D01*
X7593214Y-12774643D01*
X7578928Y-12746071D01*
X7564643Y-12688929D01*
X7564643Y-12617500D01*
X7578928Y-12560357D01*
X7593214Y-12531786D01*
X7607500Y-12517500D01*
X7636071Y-12503214D01*
X7864643Y-12774643D02*
X7878928Y-12788929D01*
X7864643Y-12803214D01*
X7850357Y-12788929D01*
X7864643Y-12774643D01*
X7864643Y-12803214D01*
X8136071Y-12603214D02*
X8136071Y-12803214D01*
X8064643Y-12488929D02*
X7993214Y-12703214D01*
X8178928Y-12703214D01*
X8350357Y-12503214D02*
X8378928Y-12503214D01*
X8407500Y-12517500D01*
X8421786Y-12531786D01*
X8436071Y-12560357D01*
X8450357Y-12617500D01*
X8450357Y-12688929D01*
X8436071Y-12746071D01*
X8421786Y-12774643D01*
X8407500Y-12788929D01*
X8378928Y-12803214D01*
X8350357Y-12803214D01*
X8321786Y-12788929D01*
X8307500Y-12774643D01*
X8293214Y-12746071D01*
X8278928Y-12688929D01*
X8278928Y-12617500D01*
X8293214Y-12560357D01*
X8307500Y-12531786D01*
X8321786Y-12517500D01*
X8350357Y-12503214D01*
X8636071Y-12503214D02*
X8664643Y-12503214D01*
X8693214Y-12517500D01*
X8707500Y-12531786D01*
X8721786Y-12560357D01*
X8736071Y-12617500D01*
X8736071Y-12688929D01*
X8721786Y-12746071D01*
X8707500Y-12774643D01*
X8693214Y-12788929D01*
X8664643Y-12803214D01*
X8636071Y-12803214D01*
X8607500Y-12788929D01*
X8593214Y-12774643D01*
X8578928Y-12746071D01*
X8564643Y-12688929D01*
X8564643Y-12617500D01*
X8578928Y-12560357D01*
X8593214Y-12531786D01*
X8607500Y-12517500D01*
X8636071Y-12503214D01*
X8864643Y-12803214D02*
X8864643Y-12603214D01*
X8864643Y-12631786D02*
X8878928Y-12617500D01*
X8907500Y-12603214D01*
X8950357Y-12603214D01*
X8978928Y-12617500D01*
X8993214Y-12646071D01*
X8993214Y-12803214D01*
X8993214Y-12646071D02*
X9007500Y-12617500D01*
X9036071Y-12603214D01*
X9078928Y-12603214D01*
X9107500Y-12617500D01*
X9121786Y-12646071D01*
X9121786Y-12803214D01*
X9264643Y-12803214D02*
X9264643Y-12603214D01*
X9264643Y-12631786D02*
X9278928Y-12617500D01*
X9307500Y-12603214D01*
X9350357Y-12603214D01*
X9378928Y-12617500D01*
X9393214Y-12646071D01*
X9393214Y-12803214D01*
X9393214Y-12646071D02*
X9407500Y-12617500D01*
X9436071Y-12603214D01*
X9478928Y-12603214D01*
X9507500Y-12617500D01*
X9521786Y-12646071D01*
X9521786Y-12803214D01*
X10107500Y-12488929D02*
X9850357Y-12874643D01*
X10493214Y-12503214D02*
X10521786Y-12503214D01*
X10550357Y-12517500D01*
X10564643Y-12531786D01*
X10578928Y-12560357D01*
X10593214Y-12617500D01*
X10593214Y-12688929D01*
X10578928Y-12746071D01*
X10564643Y-12774643D01*
X10550357Y-12788929D01*
X10521786Y-12803214D01*
X10493214Y-12803214D01*
X10464643Y-12788929D01*
X10450357Y-12774643D01*
X10436071Y-12746071D01*
X10421786Y-12688929D01*
X10421786Y-12617500D01*
X10436071Y-12560357D01*
X10450357Y-12531786D01*
X10464643Y-12517500D01*
X10493214Y-12503214D01*
X10721786Y-12774643D02*
X10736071Y-12788929D01*
X10721786Y-12803214D01*
X10707500Y-12788929D01*
X10721786Y-12774643D01*
X10721786Y-12803214D01*
X10921786Y-12503214D02*
X10950357Y-12503214D01*
X10978928Y-12517500D01*
X10993214Y-12531786D01*
X11007500Y-12560357D01*
X11021786Y-12617500D01*
X11021786Y-12688929D01*
X11007500Y-12746071D01*
X10993214Y-12774643D01*
X10978928Y-12788929D01*
X10950357Y-12803214D01*
X10921786Y-12803214D01*
X10893214Y-12788929D01*
X10878928Y-12774643D01*
X10864643Y-12746071D01*
X10850357Y-12688929D01*
X10850357Y-12617500D01*
X10864643Y-12560357D01*
X10878928Y-12531786D01*
X10893214Y-12517500D01*
X10921786Y-12503214D01*
X11307500Y-12803214D02*
X11136071Y-12803214D01*
X11221786Y-12803214D02*
X11221786Y-12503214D01*
X11193214Y-12546071D01*
X11164643Y-12574643D01*
X11136071Y-12588929D01*
X11578928Y-12503214D02*
X11436071Y-12503214D01*
X11421786Y-12646071D01*
X11436071Y-12631786D01*
X11464643Y-12617500D01*
X11536071Y-12617500D01*
X11564643Y-12631786D01*
X11578928Y-12646071D01*
X11593214Y-12674643D01*
X11593214Y-12746071D01*
X11578928Y-12774643D01*
X11564643Y-12788929D01*
X11536071Y-12803214D01*
X11464643Y-12803214D01*
X11436071Y-12788929D01*
X11421786Y-12774643D01*
X11693214Y-12503214D02*
X11893214Y-12503214D01*
X11764643Y-12803214D01*
X11993214Y-12503214D02*
X11993214Y-12560357D01*
X12107500Y-12503214D02*
X12107500Y-12560357D01*
X12550357Y-12917500D02*
X12536071Y-12903214D01*
X12507500Y-12860357D01*
X12493214Y-12831786D01*
X12478928Y-12788929D01*
X12464643Y-12717500D01*
X12464643Y-12660357D01*
X12478928Y-12588929D01*
X12493214Y-12546071D01*
X12507500Y-12517500D01*
X12536071Y-12474643D01*
X12550357Y-12460357D01*
X12807500Y-12503214D02*
X12664643Y-12503214D01*
X12650357Y-12646071D01*
X12664643Y-12631786D01*
X12693214Y-12617500D01*
X12764643Y-12617500D01*
X12793214Y-12631786D01*
X12807500Y-12646071D01*
X12821786Y-12674643D01*
X12821786Y-12746071D01*
X12807500Y-12774643D01*
X12793214Y-12788929D01*
X12764643Y-12803214D01*
X12693214Y-12803214D01*
X12664643Y-12788929D01*
X12650357Y-12774643D01*
X13078928Y-12503214D02*
X13021786Y-12503214D01*
X12993214Y-12517500D01*
X12978928Y-12531786D01*
X12950357Y-12574643D01*
X12936071Y-12631786D01*
X12936071Y-12746071D01*
X12950357Y-12774643D01*
X12964643Y-12788929D01*
X12993214Y-12803214D01*
X13050357Y-12803214D01*
X13078928Y-12788929D01*
X13093214Y-12774643D01*
X13107500Y-12746071D01*
X13107500Y-12674643D01*
X13093214Y-12646071D01*
X13078928Y-12631786D01*
X13050357Y-12617500D01*
X12993214Y-12617500D01*
X12964643Y-12631786D01*
X12950357Y-12646071D01*
X12936071Y-12674643D01*
X13464643Y-12803214D02*
X13464643Y-12503214D01*
X13593214Y-12803214D02*
X13593214Y-12646071D01*
X13578928Y-12617500D01*
X13550357Y-12603214D01*
X13507500Y-12603214D01*
X13478928Y-12617500D01*
X13464643Y-12631786D01*
X13778928Y-12803214D02*
X13750357Y-12788929D01*
X13736071Y-12774643D01*
X13721786Y-12746071D01*
X13721786Y-12660357D01*
X13736071Y-12631786D01*
X13750357Y-12617500D01*
X13778928Y-12603214D01*
X13821786Y-12603214D01*
X13850357Y-12617500D01*
X13864643Y-12631786D01*
X13878928Y-12660357D01*
X13878928Y-12746071D01*
X13864643Y-12774643D01*
X13850357Y-12788929D01*
X13821786Y-12803214D01*
X13778928Y-12803214D01*
X14050357Y-12803214D02*
X14021786Y-12788929D01*
X14007500Y-12760357D01*
X14007500Y-12503214D01*
X14278928Y-12788929D02*
X14250357Y-12803214D01*
X14193214Y-12803214D01*
X14164643Y-12788929D01*
X14150357Y-12760357D01*
X14150357Y-12646071D01*
X14164643Y-12617500D01*
X14193214Y-12603214D01*
X14250357Y-12603214D01*
X14278928Y-12617500D01*
X14293214Y-12646071D01*
X14293214Y-12674643D01*
X14150357Y-12703214D01*
X14407500Y-12788929D02*
X14436071Y-12803214D01*
X14493214Y-12803214D01*
X14521786Y-12788929D01*
X14536071Y-12760357D01*
X14536071Y-12746071D01*
X14521786Y-12717500D01*
X14493214Y-12703214D01*
X14450357Y-12703214D01*
X14421786Y-12688929D01*
X14407500Y-12660357D01*
X14407500Y-12646071D01*
X14421786Y-12617500D01*
X14450357Y-12603214D01*
X14493214Y-12603214D01*
X14521786Y-12617500D01*
X14636071Y-12917500D02*
X14650357Y-12903214D01*
X14678928Y-12860357D01*
X14693214Y-12831786D01*
X14707500Y-12788929D01*
X14721786Y-12717500D01*
X14721786Y-12660357D01*
X14707500Y-12588929D01*
X14693214Y-12546071D01*
X14678928Y-12517500D01*
X14650357Y-12474643D01*
X14636071Y-12460357D01*
X7292500Y-13063500D02*
G75*
G03*
X7292500Y-13063500I-75000J0D01*
G01*
X7736071Y-13199214D02*
X7564643Y-13199214D01*
X7650357Y-13199214D02*
X7650357Y-12899214D01*
X7621786Y-12942071D01*
X7593214Y-12970643D01*
X7564643Y-12984929D01*
X7864643Y-13170643D02*
X7878928Y-13184929D01*
X7864643Y-13199214D01*
X7850357Y-13184929D01*
X7864643Y-13170643D01*
X7864643Y-13199214D01*
X8150357Y-12899214D02*
X8007500Y-12899214D01*
X7993214Y-13042071D01*
X8007500Y-13027786D01*
X8036071Y-13013500D01*
X8107500Y-13013500D01*
X8136071Y-13027786D01*
X8150357Y-13042071D01*
X8164643Y-13070643D01*
X8164643Y-13142071D01*
X8150357Y-13170643D01*
X8136071Y-13184929D01*
X8107500Y-13199214D01*
X8036071Y-13199214D01*
X8007500Y-13184929D01*
X7993214Y-13170643D01*
X8350357Y-12899214D02*
X8378928Y-12899214D01*
X8407500Y-12913500D01*
X8421786Y-12927786D01*
X8436071Y-12956357D01*
X8450357Y-13013500D01*
X8450357Y-13084929D01*
X8436071Y-13142071D01*
X8421786Y-13170643D01*
X8407500Y-13184929D01*
X8378928Y-13199214D01*
X8350357Y-13199214D01*
X8321786Y-13184929D01*
X8307500Y-13170643D01*
X8293214Y-13142071D01*
X8278928Y-13084929D01*
X8278928Y-13013500D01*
X8293214Y-12956357D01*
X8307500Y-12927786D01*
X8321786Y-12913500D01*
X8350357Y-12899214D01*
X8636071Y-12899214D02*
X8664643Y-12899214D01*
X8693214Y-12913500D01*
X8707500Y-12927786D01*
X8721786Y-12956357D01*
X8736071Y-13013500D01*
X8736071Y-13084929D01*
X8721786Y-13142071D01*
X8707500Y-13170643D01*
X8693214Y-13184929D01*
X8664643Y-13199214D01*
X8636071Y-13199214D01*
X8607500Y-13184929D01*
X8593214Y-13170643D01*
X8578928Y-13142071D01*
X8564643Y-13084929D01*
X8564643Y-13013500D01*
X8578928Y-12956357D01*
X8593214Y-12927786D01*
X8607500Y-12913500D01*
X8636071Y-12899214D01*
X8864643Y-13199214D02*
X8864643Y-12999214D01*
X8864643Y-13027786D02*
X8878928Y-13013500D01*
X8907500Y-12999214D01*
X8950357Y-12999214D01*
X8978928Y-13013500D01*
X8993214Y-13042071D01*
X8993214Y-13199214D01*
X8993214Y-13042071D02*
X9007500Y-13013500D01*
X9036071Y-12999214D01*
X9078928Y-12999214D01*
X9107500Y-13013500D01*
X9121786Y-13042071D01*
X9121786Y-13199214D01*
X9264643Y-13199214D02*
X9264643Y-12999214D01*
X9264643Y-13027786D02*
X9278928Y-13013500D01*
X9307500Y-12999214D01*
X9350357Y-12999214D01*
X9378928Y-13013500D01*
X9393214Y-13042071D01*
X9393214Y-13199214D01*
X9393214Y-13042071D02*
X9407500Y-13013500D01*
X9436071Y-12999214D01*
X9478928Y-12999214D01*
X9507500Y-13013500D01*
X9521786Y-13042071D01*
X9521786Y-13199214D01*
X10107500Y-12884929D02*
X9850357Y-13270643D01*
X10493214Y-12899214D02*
X10521786Y-12899214D01*
X10550357Y-12913500D01*
X10564643Y-12927786D01*
X10578928Y-12956357D01*
X10593214Y-13013500D01*
X10593214Y-13084929D01*
X10578928Y-13142071D01*
X10564643Y-13170643D01*
X10550357Y-13184929D01*
X10521786Y-13199214D01*
X10493214Y-13199214D01*
X10464643Y-13184929D01*
X10450357Y-13170643D01*
X10436071Y-13142071D01*
X10421786Y-13084929D01*
X10421786Y-13013500D01*
X10436071Y-12956357D01*
X10450357Y-12927786D01*
X10464643Y-12913500D01*
X10493214Y-12899214D01*
X10721786Y-13170643D02*
X10736071Y-13184929D01*
X10721786Y-13199214D01*
X10707500Y-13184929D01*
X10721786Y-13170643D01*
X10721786Y-13199214D01*
X10921786Y-12899214D02*
X10950357Y-12899214D01*
X10978928Y-12913500D01*
X10993214Y-12927786D01*
X11007500Y-12956357D01*
X11021786Y-13013500D01*
X11021786Y-13084929D01*
X11007500Y-13142071D01*
X10993214Y-13170643D01*
X10978928Y-13184929D01*
X10950357Y-13199214D01*
X10921786Y-13199214D01*
X10893214Y-13184929D01*
X10878928Y-13170643D01*
X10864643Y-13142071D01*
X10850357Y-13084929D01*
X10850357Y-13013500D01*
X10864643Y-12956357D01*
X10878928Y-12927786D01*
X10893214Y-12913500D01*
X10921786Y-12899214D01*
X11293214Y-12899214D02*
X11150357Y-12899214D01*
X11136071Y-13042071D01*
X11150357Y-13027786D01*
X11178928Y-13013500D01*
X11250357Y-13013500D01*
X11278928Y-13027786D01*
X11293214Y-13042071D01*
X11307500Y-13070643D01*
X11307500Y-13142071D01*
X11293214Y-13170643D01*
X11278928Y-13184929D01*
X11250357Y-13199214D01*
X11178928Y-13199214D01*
X11150357Y-13184929D01*
X11136071Y-13170643D01*
X11450357Y-13199214D02*
X11507500Y-13199214D01*
X11536071Y-13184929D01*
X11550357Y-13170643D01*
X11578928Y-13127786D01*
X11593214Y-13070643D01*
X11593214Y-12956357D01*
X11578928Y-12927786D01*
X11564643Y-12913500D01*
X11536071Y-12899214D01*
X11478928Y-12899214D01*
X11450357Y-12913500D01*
X11436071Y-12927786D01*
X11421786Y-12956357D01*
X11421786Y-13027786D01*
X11436071Y-13056357D01*
X11450357Y-13070643D01*
X11478928Y-13084929D01*
X11536071Y-13084929D01*
X11564643Y-13070643D01*
X11578928Y-13056357D01*
X11593214Y-13027786D01*
X11878928Y-13199214D02*
X11707500Y-13199214D01*
X11793214Y-13199214D02*
X11793214Y-12899214D01*
X11764643Y-12942071D01*
X11736071Y-12970643D01*
X11707500Y-12984929D01*
X11993214Y-12899214D02*
X11993214Y-12956357D01*
X12107500Y-12899214D02*
X12107500Y-12956357D01*
X12550357Y-13313500D02*
X12536071Y-13299214D01*
X12507500Y-13256357D01*
X12493214Y-13227786D01*
X12478928Y-13184929D01*
X12464643Y-13113500D01*
X12464643Y-13056357D01*
X12478928Y-12984929D01*
X12493214Y-12942071D01*
X12507500Y-12913500D01*
X12536071Y-12870643D01*
X12550357Y-12856357D01*
X12793214Y-12999214D02*
X12793214Y-13199214D01*
X12721786Y-12884929D02*
X12650357Y-13099214D01*
X12836071Y-13099214D01*
X13007500Y-12899214D02*
X13036071Y-12899214D01*
X13064643Y-12913500D01*
X13078928Y-12927786D01*
X13093214Y-12956357D01*
X13107500Y-13013500D01*
X13107500Y-13084929D01*
X13093214Y-13142071D01*
X13078928Y-13170643D01*
X13064643Y-13184929D01*
X13036071Y-13199214D01*
X13007500Y-13199214D01*
X12978928Y-13184929D01*
X12964643Y-13170643D01*
X12950357Y-13142071D01*
X12936071Y-13084929D01*
X12936071Y-13013500D01*
X12950357Y-12956357D01*
X12964643Y-12927786D01*
X12978928Y-12913500D01*
X13007500Y-12899214D01*
X13464643Y-13199214D02*
X13464643Y-12899214D01*
X13593214Y-13199214D02*
X13593214Y-13042071D01*
X13578928Y-13013500D01*
X13550357Y-12999214D01*
X13507500Y-12999214D01*
X13478928Y-13013500D01*
X13464643Y-13027786D01*
X13778928Y-13199214D02*
X13750357Y-13184929D01*
X13736071Y-13170643D01*
X13721786Y-13142071D01*
X13721786Y-13056357D01*
X13736071Y-13027786D01*
X13750357Y-13013500D01*
X13778928Y-12999214D01*
X13821786Y-12999214D01*
X13850357Y-13013500D01*
X13864643Y-13027786D01*
X13878928Y-13056357D01*
X13878928Y-13142071D01*
X13864643Y-13170643D01*
X13850357Y-13184929D01*
X13821786Y-13199214D01*
X13778928Y-13199214D01*
X14050357Y-13199214D02*
X14021786Y-13184929D01*
X14007500Y-13156357D01*
X14007500Y-12899214D01*
X14278928Y-13184929D02*
X14250357Y-13199214D01*
X14193214Y-13199214D01*
X14164643Y-13184929D01*
X14150357Y-13156357D01*
X14150357Y-13042071D01*
X14164643Y-13013500D01*
X14193214Y-12999214D01*
X14250357Y-12999214D01*
X14278928Y-13013500D01*
X14293214Y-13042071D01*
X14293214Y-13070643D01*
X14150357Y-13099214D01*
X14407500Y-13184929D02*
X14436071Y-13199214D01*
X14493214Y-13199214D01*
X14521786Y-13184929D01*
X14536071Y-13156357D01*
X14536071Y-13142071D01*
X14521786Y-13113500D01*
X14493214Y-13099214D01*
X14450357Y-13099214D01*
X14421786Y-13084929D01*
X14407500Y-13056357D01*
X14407500Y-13042071D01*
X14421786Y-13013500D01*
X14450357Y-12999214D01*
X14493214Y-12999214D01*
X14521786Y-13013500D01*
X14636071Y-13313500D02*
X14650357Y-13299214D01*
X14678928Y-13256357D01*
X14693214Y-13227786D01*
X14707500Y-13184929D01*
X14721786Y-13113500D01*
X14721786Y-13056357D01*
X14707500Y-12984929D01*
X14693214Y-12942071D01*
X14678928Y-12913500D01*
X14650357Y-12870643D01*
X14636071Y-12856357D01*
X7210000Y-13377000D02*
X7210000Y-13542000D01*
X7127500Y-13459500D02*
X7292500Y-13459500D01*
X7736071Y-13595214D02*
X7564643Y-13595214D01*
X7650357Y-13595214D02*
X7650357Y-13295214D01*
X7621786Y-13338071D01*
X7593214Y-13366643D01*
X7564643Y-13380929D01*
X7864643Y-13566643D02*
X7878928Y-13580929D01*
X7864643Y-13595214D01*
X7850357Y-13580929D01*
X7864643Y-13566643D01*
X7864643Y-13595214D01*
X8136071Y-13295214D02*
X8078928Y-13295214D01*
X8050357Y-13309500D01*
X8036071Y-13323786D01*
X8007500Y-13366643D01*
X7993214Y-13423786D01*
X7993214Y-13538071D01*
X8007500Y-13566643D01*
X8021786Y-13580929D01*
X8050357Y-13595214D01*
X8107500Y-13595214D01*
X8136071Y-13580929D01*
X8150357Y-13566643D01*
X8164643Y-13538071D01*
X8164643Y-13466643D01*
X8150357Y-13438071D01*
X8136071Y-13423786D01*
X8107500Y-13409500D01*
X8050357Y-13409500D01*
X8021786Y-13423786D01*
X8007500Y-13438071D01*
X7993214Y-13466643D01*
X8436071Y-13295214D02*
X8293214Y-13295214D01*
X8278928Y-13438071D01*
X8293214Y-13423786D01*
X8321786Y-13409500D01*
X8393214Y-13409500D01*
X8421786Y-13423786D01*
X8436071Y-13438071D01*
X8450357Y-13466643D01*
X8450357Y-13538071D01*
X8436071Y-13566643D01*
X8421786Y-13580929D01*
X8393214Y-13595214D01*
X8321786Y-13595214D01*
X8293214Y-13580929D01*
X8278928Y-13566643D01*
X8636071Y-13295214D02*
X8664643Y-13295214D01*
X8693214Y-13309500D01*
X8707500Y-13323786D01*
X8721786Y-13352357D01*
X8736071Y-13409500D01*
X8736071Y-13480929D01*
X8721786Y-13538071D01*
X8707500Y-13566643D01*
X8693214Y-13580929D01*
X8664643Y-13595214D01*
X8636071Y-13595214D01*
X8607500Y-13580929D01*
X8593214Y-13566643D01*
X8578928Y-13538071D01*
X8564643Y-13480929D01*
X8564643Y-13409500D01*
X8578928Y-13352357D01*
X8593214Y-13323786D01*
X8607500Y-13309500D01*
X8636071Y-13295214D01*
X8864643Y-13595214D02*
X8864643Y-13395214D01*
X8864643Y-13423786D02*
X8878928Y-13409500D01*
X8907500Y-13395214D01*
X8950357Y-13395214D01*
X8978928Y-13409500D01*
X8993214Y-13438071D01*
X8993214Y-13595214D01*
X8993214Y-13438071D02*
X9007500Y-13409500D01*
X9036071Y-13395214D01*
X9078928Y-13395214D01*
X9107500Y-13409500D01*
X9121786Y-13438071D01*
X9121786Y-13595214D01*
X9264643Y-13595214D02*
X9264643Y-13395214D01*
X9264643Y-13423786D02*
X9278928Y-13409500D01*
X9307500Y-13395214D01*
X9350357Y-13395214D01*
X9378928Y-13409500D01*
X9393214Y-13438071D01*
X9393214Y-13595214D01*
X9393214Y-13438071D02*
X9407500Y-13409500D01*
X9436071Y-13395214D01*
X9478928Y-13395214D01*
X9507500Y-13409500D01*
X9521786Y-13438071D01*
X9521786Y-13595214D01*
X10107500Y-13280929D02*
X9850357Y-13666643D01*
X10493214Y-13295214D02*
X10521786Y-13295214D01*
X10550357Y-13309500D01*
X10564643Y-13323786D01*
X10578928Y-13352357D01*
X10593214Y-13409500D01*
X10593214Y-13480929D01*
X10578928Y-13538071D01*
X10564643Y-13566643D01*
X10550357Y-13580929D01*
X10521786Y-13595214D01*
X10493214Y-13595214D01*
X10464643Y-13580929D01*
X10450357Y-13566643D01*
X10436071Y-13538071D01*
X10421786Y-13480929D01*
X10421786Y-13409500D01*
X10436071Y-13352357D01*
X10450357Y-13323786D01*
X10464643Y-13309500D01*
X10493214Y-13295214D01*
X10721786Y-13566643D02*
X10736071Y-13580929D01*
X10721786Y-13595214D01*
X10707500Y-13580929D01*
X10721786Y-13566643D01*
X10721786Y-13595214D01*
X10921786Y-13295214D02*
X10950357Y-13295214D01*
X10978928Y-13309500D01*
X10993214Y-13323786D01*
X11007500Y-13352357D01*
X11021786Y-13409500D01*
X11021786Y-13480929D01*
X11007500Y-13538071D01*
X10993214Y-13566643D01*
X10978928Y-13580929D01*
X10950357Y-13595214D01*
X10921786Y-13595214D01*
X10893214Y-13580929D01*
X10878928Y-13566643D01*
X10864643Y-13538071D01*
X10850357Y-13480929D01*
X10850357Y-13409500D01*
X10864643Y-13352357D01*
X10878928Y-13323786D01*
X10893214Y-13309500D01*
X10921786Y-13295214D01*
X11278928Y-13295214D02*
X11221786Y-13295214D01*
X11193214Y-13309500D01*
X11178928Y-13323786D01*
X11150357Y-13366643D01*
X11136071Y-13423786D01*
X11136071Y-13538071D01*
X11150357Y-13566643D01*
X11164643Y-13580929D01*
X11193214Y-13595214D01*
X11250357Y-13595214D01*
X11278928Y-13580929D01*
X11293214Y-13566643D01*
X11307500Y-13538071D01*
X11307500Y-13466643D01*
X11293214Y-13438071D01*
X11278928Y-13423786D01*
X11250357Y-13409500D01*
X11193214Y-13409500D01*
X11164643Y-13423786D01*
X11150357Y-13438071D01*
X11136071Y-13466643D01*
X11578928Y-13295214D02*
X11436071Y-13295214D01*
X11421786Y-13438071D01*
X11436071Y-13423786D01*
X11464643Y-13409500D01*
X11536071Y-13409500D01*
X11564643Y-13423786D01*
X11578928Y-13438071D01*
X11593214Y-13466643D01*
X11593214Y-13538071D01*
X11578928Y-13566643D01*
X11564643Y-13580929D01*
X11536071Y-13595214D01*
X11464643Y-13595214D01*
X11436071Y-13580929D01*
X11421786Y-13566643D01*
X11778928Y-13295214D02*
X11807500Y-13295214D01*
X11836071Y-13309500D01*
X11850357Y-13323786D01*
X11864643Y-13352357D01*
X11878928Y-13409500D01*
X11878928Y-13480929D01*
X11864643Y-13538071D01*
X11850357Y-13566643D01*
X11836071Y-13580929D01*
X11807500Y-13595214D01*
X11778928Y-13595214D01*
X11750357Y-13580929D01*
X11736071Y-13566643D01*
X11721786Y-13538071D01*
X11707500Y-13480929D01*
X11707500Y-13409500D01*
X11721786Y-13352357D01*
X11736071Y-13323786D01*
X11750357Y-13309500D01*
X11778928Y-13295214D01*
X11993214Y-13295214D02*
X11993214Y-13352357D01*
X12107500Y-13295214D02*
X12107500Y-13352357D01*
X12550357Y-13709500D02*
X12536071Y-13695214D01*
X12507500Y-13652357D01*
X12493214Y-13623786D01*
X12478928Y-13580929D01*
X12464643Y-13509500D01*
X12464643Y-13452357D01*
X12478928Y-13380929D01*
X12493214Y-13338071D01*
X12507500Y-13309500D01*
X12536071Y-13266643D01*
X12550357Y-13252357D01*
X12793214Y-13395214D02*
X12793214Y-13595214D01*
X12721786Y-13280929D02*
X12650357Y-13495214D01*
X12836071Y-13495214D01*
X13178928Y-13595214D02*
X13178928Y-13295214D01*
X13307500Y-13595214D02*
X13307500Y-13438071D01*
X13293214Y-13409500D01*
X13264643Y-13395214D01*
X13221786Y-13395214D01*
X13193214Y-13409500D01*
X13178928Y-13423786D01*
X13493214Y-13595214D02*
X13464643Y-13580929D01*
X13450357Y-13566643D01*
X13436071Y-13538071D01*
X13436071Y-13452357D01*
X13450357Y-13423786D01*
X13464643Y-13409500D01*
X13493214Y-13395214D01*
X13536071Y-13395214D01*
X13564643Y-13409500D01*
X13578928Y-13423786D01*
X13593214Y-13452357D01*
X13593214Y-13538071D01*
X13578928Y-13566643D01*
X13564643Y-13580929D01*
X13536071Y-13595214D01*
X13493214Y-13595214D01*
X13764643Y-13595214D02*
X13736071Y-13580929D01*
X13721786Y-13552357D01*
X13721786Y-13295214D01*
X13993214Y-13580929D02*
X13964643Y-13595214D01*
X13907500Y-13595214D01*
X13878928Y-13580929D01*
X13864643Y-13552357D01*
X13864643Y-13438071D01*
X13878928Y-13409500D01*
X13907500Y-13395214D01*
X13964643Y-13395214D01*
X13993214Y-13409500D01*
X14007500Y-13438071D01*
X14007500Y-13466643D01*
X13864643Y-13495214D01*
X14121786Y-13580929D02*
X14150357Y-13595214D01*
X14207500Y-13595214D01*
X14236071Y-13580929D01*
X14250357Y-13552357D01*
X14250357Y-13538071D01*
X14236071Y-13509500D01*
X14207500Y-13495214D01*
X14164643Y-13495214D01*
X14136071Y-13480929D01*
X14121786Y-13452357D01*
X14121786Y-13438071D01*
X14136071Y-13409500D01*
X14164643Y-13395214D01*
X14207500Y-13395214D01*
X14236071Y-13409500D01*
X14350357Y-13709500D02*
X14364643Y-13695214D01*
X14393214Y-13652357D01*
X14407500Y-13623786D01*
X14421786Y-13580929D01*
X14436071Y-13509500D01*
X14436071Y-13452357D01*
X14421786Y-13380929D01*
X14407500Y-13338071D01*
X14393214Y-13309500D01*
X14364643Y-13266643D01*
X14350357Y-13252357D01*
X7225136Y-14018136D02*
X7225136Y-13692864D01*
X6899864Y-13692864D01*
X6899864Y-14018136D01*
X7225136Y-14018136D01*
X7707500Y-13791214D02*
X7707500Y-13991214D01*
X7636071Y-13676929D02*
X7564643Y-13891214D01*
X7750357Y-13891214D01*
X7864643Y-13962643D02*
X7878928Y-13976929D01*
X7864643Y-13991214D01*
X7850357Y-13976929D01*
X7864643Y-13962643D01*
X7864643Y-13991214D01*
X8136071Y-13691214D02*
X8078928Y-13691214D01*
X8050357Y-13705500D01*
X8036071Y-13719786D01*
X8007500Y-13762643D01*
X7993214Y-13819786D01*
X7993214Y-13934071D01*
X8007500Y-13962643D01*
X8021786Y-13976929D01*
X8050357Y-13991214D01*
X8107500Y-13991214D01*
X8136071Y-13976929D01*
X8150357Y-13962643D01*
X8164643Y-13934071D01*
X8164643Y-13862643D01*
X8150357Y-13834071D01*
X8136071Y-13819786D01*
X8107500Y-13805500D01*
X8050357Y-13805500D01*
X8021786Y-13819786D01*
X8007500Y-13834071D01*
X7993214Y-13862643D01*
X8350357Y-13691214D02*
X8378928Y-13691214D01*
X8407500Y-13705500D01*
X8421786Y-13719786D01*
X8436071Y-13748357D01*
X8450357Y-13805500D01*
X8450357Y-13876929D01*
X8436071Y-13934071D01*
X8421786Y-13962643D01*
X8407500Y-13976929D01*
X8378928Y-13991214D01*
X8350357Y-13991214D01*
X8321786Y-13976929D01*
X8307500Y-13962643D01*
X8293214Y-13934071D01*
X8278928Y-13876929D01*
X8278928Y-13805500D01*
X8293214Y-13748357D01*
X8307500Y-13719786D01*
X8321786Y-13705500D01*
X8350357Y-13691214D01*
X8636071Y-13691214D02*
X8664643Y-13691214D01*
X8693214Y-13705500D01*
X8707500Y-13719786D01*
X8721786Y-13748357D01*
X8736071Y-13805500D01*
X8736071Y-13876929D01*
X8721786Y-13934071D01*
X8707500Y-13962643D01*
X8693214Y-13976929D01*
X8664643Y-13991214D01*
X8636071Y-13991214D01*
X8607500Y-13976929D01*
X8593214Y-13962643D01*
X8578928Y-13934071D01*
X8564643Y-13876929D01*
X8564643Y-13805500D01*
X8578928Y-13748357D01*
X8593214Y-13719786D01*
X8607500Y-13705500D01*
X8636071Y-13691214D01*
X8864643Y-13991214D02*
X8864643Y-13791214D01*
X8864643Y-13819786D02*
X8878928Y-13805500D01*
X8907500Y-13791214D01*
X8950357Y-13791214D01*
X8978928Y-13805500D01*
X8993214Y-13834071D01*
X8993214Y-13991214D01*
X8993214Y-13834071D02*
X9007500Y-13805500D01*
X9036071Y-13791214D01*
X9078928Y-13791214D01*
X9107500Y-13805500D01*
X9121786Y-13834071D01*
X9121786Y-13991214D01*
X9264643Y-13991214D02*
X9264643Y-13791214D01*
X9264643Y-13819786D02*
X9278928Y-13805500D01*
X9307500Y-13791214D01*
X9350357Y-13791214D01*
X9378928Y-13805500D01*
X9393214Y-13834071D01*
X9393214Y-13991214D01*
X9393214Y-13834071D02*
X9407500Y-13805500D01*
X9436071Y-13791214D01*
X9478928Y-13791214D01*
X9507500Y-13805500D01*
X9521786Y-13834071D01*
X9521786Y-13991214D01*
X10107500Y-13676929D02*
X9850357Y-14062643D01*
X10493214Y-13691214D02*
X10521786Y-13691214D01*
X10550357Y-13705500D01*
X10564643Y-13719786D01*
X10578928Y-13748357D01*
X10593214Y-13805500D01*
X10593214Y-13876929D01*
X10578928Y-13934071D01*
X10564643Y-13962643D01*
X10550357Y-13976929D01*
X10521786Y-13991214D01*
X10493214Y-13991214D01*
X10464643Y-13976929D01*
X10450357Y-13962643D01*
X10436071Y-13934071D01*
X10421786Y-13876929D01*
X10421786Y-13805500D01*
X10436071Y-13748357D01*
X10450357Y-13719786D01*
X10464643Y-13705500D01*
X10493214Y-13691214D01*
X10721786Y-13962643D02*
X10736071Y-13976929D01*
X10721786Y-13991214D01*
X10707500Y-13976929D01*
X10721786Y-13962643D01*
X10721786Y-13991214D01*
X11021786Y-13991214D02*
X10850357Y-13991214D01*
X10936071Y-13991214D02*
X10936071Y-13691214D01*
X10907500Y-13734071D01*
X10878928Y-13762643D01*
X10850357Y-13776929D01*
X11193214Y-13819786D02*
X11164643Y-13805500D01*
X11150357Y-13791214D01*
X11136071Y-13762643D01*
X11136071Y-13748357D01*
X11150357Y-13719786D01*
X11164643Y-13705500D01*
X11193214Y-13691214D01*
X11250357Y-13691214D01*
X11278928Y-13705500D01*
X11293214Y-13719786D01*
X11307500Y-13748357D01*
X11307500Y-13762643D01*
X11293214Y-13791214D01*
X11278928Y-13805500D01*
X11250357Y-13819786D01*
X11193214Y-13819786D01*
X11164643Y-13834071D01*
X11150357Y-13848357D01*
X11136071Y-13876929D01*
X11136071Y-13934071D01*
X11150357Y-13962643D01*
X11164643Y-13976929D01*
X11193214Y-13991214D01*
X11250357Y-13991214D01*
X11278928Y-13976929D01*
X11293214Y-13962643D01*
X11307500Y-13934071D01*
X11307500Y-13876929D01*
X11293214Y-13848357D01*
X11278928Y-13834071D01*
X11250357Y-13819786D01*
X11593214Y-13991214D02*
X11421786Y-13991214D01*
X11507500Y-13991214D02*
X11507500Y-13691214D01*
X11478928Y-13734071D01*
X11450357Y-13762643D01*
X11421786Y-13776929D01*
X11878928Y-13991214D02*
X11707500Y-13991214D01*
X11793214Y-13991214D02*
X11793214Y-13691214D01*
X11764643Y-13734071D01*
X11736071Y-13762643D01*
X11707500Y-13776929D01*
X11993214Y-13691214D02*
X11993214Y-13748357D01*
X12107500Y-13691214D02*
X12107500Y-13748357D01*
X12550357Y-14105500D02*
X12536071Y-14091214D01*
X12507500Y-14048357D01*
X12493214Y-14019786D01*
X12478928Y-13976929D01*
X12464643Y-13905500D01*
X12464643Y-13848357D01*
X12478928Y-13776929D01*
X12493214Y-13734071D01*
X12507500Y-13705500D01*
X12536071Y-13662643D01*
X12550357Y-13648357D01*
X12707500Y-13819786D02*
X12678928Y-13805500D01*
X12664643Y-13791214D01*
X12650357Y-13762643D01*
X12650357Y-13748357D01*
X12664643Y-13719786D01*
X12678928Y-13705500D01*
X12707500Y-13691214D01*
X12764643Y-13691214D01*
X12793214Y-13705500D01*
X12807500Y-13719786D01*
X12821786Y-13748357D01*
X12821786Y-13762643D01*
X12807500Y-13791214D01*
X12793214Y-13805500D01*
X12764643Y-13819786D01*
X12707500Y-13819786D01*
X12678928Y-13834071D01*
X12664643Y-13848357D01*
X12650357Y-13876929D01*
X12650357Y-13934071D01*
X12664643Y-13962643D01*
X12678928Y-13976929D01*
X12707500Y-13991214D01*
X12764643Y-13991214D01*
X12793214Y-13976929D01*
X12807500Y-13962643D01*
X12821786Y-13934071D01*
X12821786Y-13876929D01*
X12807500Y-13848357D01*
X12793214Y-13834071D01*
X12764643Y-13819786D01*
X13178928Y-13991214D02*
X13178928Y-13691214D01*
X13307500Y-13991214D02*
X13307500Y-13834071D01*
X13293214Y-13805500D01*
X13264643Y-13791214D01*
X13221786Y-13791214D01*
X13193214Y-13805500D01*
X13178928Y-13819786D01*
X13493214Y-13991214D02*
X13464643Y-13976929D01*
X13450357Y-13962643D01*
X13436071Y-13934071D01*
X13436071Y-13848357D01*
X13450357Y-13819786D01*
X13464643Y-13805500D01*
X13493214Y-13791214D01*
X13536071Y-13791214D01*
X13564643Y-13805500D01*
X13578928Y-13819786D01*
X13593214Y-13848357D01*
X13593214Y-13934071D01*
X13578928Y-13962643D01*
X13564643Y-13976929D01*
X13536071Y-13991214D01*
X13493214Y-13991214D01*
X13764643Y-13991214D02*
X13736071Y-13976929D01*
X13721786Y-13948357D01*
X13721786Y-13691214D01*
X13993214Y-13976929D02*
X13964643Y-13991214D01*
X13907500Y-13991214D01*
X13878928Y-13976929D01*
X13864643Y-13948357D01*
X13864643Y-13834071D01*
X13878928Y-13805500D01*
X13907500Y-13791214D01*
X13964643Y-13791214D01*
X13993214Y-13805500D01*
X14007500Y-13834071D01*
X14007500Y-13862643D01*
X13864643Y-13891214D01*
X14121786Y-13976929D02*
X14150357Y-13991214D01*
X14207500Y-13991214D01*
X14236071Y-13976929D01*
X14250357Y-13948357D01*
X14250357Y-13934071D01*
X14236071Y-13905500D01*
X14207500Y-13891214D01*
X14164643Y-13891214D01*
X14136071Y-13876929D01*
X14121786Y-13848357D01*
X14121786Y-13834071D01*
X14136071Y-13805500D01*
X14164643Y-13791214D01*
X14207500Y-13791214D01*
X14236071Y-13805500D01*
X14350357Y-14105500D02*
X14364643Y-14091214D01*
X14393214Y-14048357D01*
X14407500Y-14019786D01*
X14421786Y-13976929D01*
X14436071Y-13905500D01*
X14436071Y-13848357D01*
X14421786Y-13776929D01*
X14407500Y-13734071D01*
X14393214Y-13705500D01*
X14364643Y-13662643D01*
X14350357Y-13648357D01*
M02*
